<svg xmlns="http://www.w3.org/2000/svg" width="201" height="199" viewBox="0 0 201 199">
  <g id="Grupo_59818" data-name="Grupo 59818" transform="translate(-72.193 -75.357)">
    <rect id="Rectángulo_6365" data-name="Rectángulo 6365" width="201" height="199" transform="translate(72.193 75.357)" fill="none"/>
    <g id="Grupo_59800" data-name="Grupo 59800" transform="translate(-52.231 -2786.736)">
      <path id="Trazado_108104" data-name="Trazado 108104" d="M165.67,3033.4h-10.9a13.621,13.621,0,0,1-13.621-13.621V2903.409a13.621,13.621,0,0,1,13.621-13.621h140.3a13.621,13.621,0,0,1,13.621,13.621v116.368a13.621,13.621,0,0,1-13.621,13.621H165.67Z" fill="#dcbfff"/>
      <path id="Trazado_108105" data-name="Trazado 108105" d="M295.076,2889.788h-140.3a13.621,13.621,0,0,0-13.621,13.621v10.9H308.7v-10.9A13.621,13.621,0,0,0,295.076,2889.788Z" fill="#a271dc"/>
      <path id="Trazado_108106" data-name="Trazado 108106" d="M144.831,2913.86H306.585" transform="translate(0.068 0.447)" fill="#231f20"/>
      <rect id="Rectángulo_6350" data-name="Rectángulo 6350" width="21.795" height="37.459" transform="translate(156.816 2978.846)" fill="#a5dc69"/>
      <rect id="Rectángulo_6351" data-name="Rectángulo 6351" width="21.795" height="46.313" transform="translate(233.097 2969.992)" fill="#78d2fa"/>
      <rect id="Rectángulo_6352" data-name="Rectángulo 6352" width="21.795" height="75.113" transform="translate(194.957 2941.193)" fill="#f5c86e"/>
      <rect id="Rectángulo_6353" data-name="Rectángulo 6353" width="21.795" height="80.197" transform="translate(271.238 2936.109)" fill="#ff5a5a"/>
      <path id="Trazado_108107" data-name="Trazado 108107" d="M212.114,2905.291h76.939a3.406,3.406,0,0,0,0-6.811H212.114a3.406,3.406,0,1,0,0,6.811Z" transform="translate(1.254 0.161)" fill="#dcbfff"/>
      <path id="Trazado_108108" data-name="Trazado 108108" d="M172.641,2905.291a3.408,3.408,0,1,0-2.408-1A3.431,3.431,0,0,0,172.641,2905.291Z" transform="translate(0.521 0.161)" fill="#dcbfff"/>
      <path id="Trazado_108109" data-name="Trazado 108109" d="M159.268,2905.291a3.408,3.408,0,1,0-2.408-1A3.429,3.429,0,0,0,159.268,2905.291Z" transform="translate(0.273 0.161)" fill="#dcbfff"/>
      <path id="Trazado_108110" data-name="Trazado 108110" d="M186.014,2905.291a3.406,3.406,0,1,0-2.408-1A3.431,3.431,0,0,0,186.014,2905.291Z" transform="translate(0.77 0.161)" fill="#dcbfff"/>
      <path id="Trazado_108112" data-name="Trazado 108112" d="M185.1,2935.388a3.4,3.4,0,1,0-2.411-1A3.437,3.437,0,0,0,185.1,2935.388Z" transform="translate(0.753 0.72)" fill="#bb83ff"/>
      <path id="Trazado_108113" data-name="Trazado 108113" d="M156.593,2935.388h16.346a3.406,3.406,0,0,0,0-6.812H156.593a3.406,3.406,0,0,0,0,6.812Z" transform="translate(0.223 0.72)" fill="#bb83ff"/>
      <path id="Trazado_108114" data-name="Trazado 108114" d="M172.939,2951.436a3.406,3.406,0,0,0,0-6.811H156.593a3.406,3.406,0,0,0,0,6.811Z" transform="translate(0.223 1.018)" fill="#bb83ff"/>
    </g>
  </g>
</svg>
