<svg xmlns="http://www.w3.org/2000/svg" width="201" height="199" viewBox="0 0 201 199">
  <g id="Grupo_59820" data-name="Grupo 59820" transform="translate(-379.659 -3522.413)">
    <rect id="Rectángulo_6365" data-name="Rectángulo 6365" width="201" height="199" transform="translate(379.659 3522.413)" fill="none"/>
    <g id="Grupo_59821" data-name="Grupo 59821">
      <path id="Trazado_108343" data-name="Trazado 108343" d="M559.265,3582.977v93.879H401.052v-93.879a3.442,3.442,0,0,1,3.441-3.441H555.824A3.442,3.442,0,0,1,559.265,3582.977Z" fill="#21949d"/>
      <path id="Trazado_108344" data-name="Trazado 108344" d="M559.265,3661.956v14.9H401.052v-14.9h55.443a6.51,6.51,0,0,1,6.07,4.109l.739,1.848h33.709l.739-1.848a6.512,6.512,0,0,1,6.071-4.109Z" fill="#2ab9c4"/>
      <path id="Trazado_108345" data-name="Trazado 108345" d="M410.488,3589.243H549.829v87.613H410.488Z" fill="#95f7ff"/>
      <path id="Trazado_108346" data-name="Trazado 108346" d="M549.829,3661.956v14.9H410.488v-14.9h46.007a6.51,6.51,0,0,1,6.07,4.109l.739,1.848h33.709l.739-1.848a6.512,6.512,0,0,1,6.071-4.109Z" fill="#31d9e7"/>
      <path id="Trazado_108347" data-name="Trazado 108347" d="M537.624,3565.806v111.05H422.693v-111.05a3.443,3.443,0,0,1,3.441-3.441H534.183A3.443,3.443,0,0,1,537.624,3565.806Z" fill="#e3f4ff"/>
      <path id="Trazado_108348" data-name="Trazado 108348" d="M537.624,3661.956v14.9H422.693v-14.9h33.8a6.51,6.51,0,0,1,6.07,4.109l.739,1.848h33.709l.739-1.848a6.512,6.512,0,0,1,6.071-4.109Z" fill="#bddff4"/>
      <path id="Trazado_108349" data-name="Trazado 108349" d="M565.669,3668.492v7.462a5.506,5.506,0,0,1-5.506,5.5H400.154a5.506,5.506,0,0,1-5.506-5.5v-7.462a2.065,2.065,0,0,1,2.065-2.064h59.78a2.064,2.064,0,0,1,1.917,1.3l1.344,3.362a2.066,2.066,0,0,0,1.918,1.3h36.973a2.067,2.067,0,0,0,1.918-1.3l1.344-3.362a2.064,2.064,0,0,1,1.917-1.3H563.6A2.065,2.065,0,0,1,565.669,3668.492Z" fill="#e3f4ff"/>
      <path id="Trazado_108350" data-name="Trazado 108350" d="M491,3602.394a25.953,25.953,0,1,1-25.956-25.955A25.954,25.954,0,0,1,491,3602.394Z" fill="#2ab9c4"/>
      <path id="Trazado_108351" data-name="Trazado 108351" d="M491,3602.394H465.047v-25.955A25.956,25.956,0,0,1,491,3602.394Z" fill="#95f7ff"/>
      <path id="Trazado_108352" data-name="Trazado 108352" d="M517.093,3653.736H505.722a2.064,2.064,0,0,1-2.065-2.065v-23.289a2.063,2.063,0,0,1,2.065-2.064h11.371a2.064,2.064,0,0,1,2.065,2.064v23.289A2.064,2.064,0,0,1,517.093,3653.736Z" fill="#f9e478"/>
      <path id="Trazado_108353" data-name="Trazado 108353" d="M517.093,3653.736H505.722a2.064,2.064,0,0,1-2.065-2.065v-7.753h15.5v7.753A2.064,2.064,0,0,1,517.093,3653.736Z" fill="#feeb8a"/>
      <path id="Trazado_108354" data-name="Trazado 108354" d="M563.6,3663.847h-1.758v-12.6a2.581,2.581,0,1,0-5.162,0v12.6h-4.271v-74.6a2.582,2.582,0,0,0-2.581-2.581h-9.627v-4.545h15.619a.861.861,0,0,1,.86.861v56.394a2.581,2.581,0,0,0,5.162,0v-56.394a6.029,6.029,0,0,0-6.022-6.022H540.205v-11.149a6.029,6.029,0,0,0-6.022-6.021H426.134a6.029,6.029,0,0,0-6.022,6.021v11.149H404.493a6.029,6.029,0,0,0-6.022,6.022v41.255a2.581,2.581,0,1,0,5.162,0v-41.255a.862.862,0,0,1,.86-.861h15.619v4.545h-9.627a2.582,2.582,0,0,0-2.581,2.581v74.606h-4.271v-27.737a2.581,2.581,0,0,0-5.162,0v27.737h-1.758a4.65,4.65,0,0,0-4.645,4.646v7.461a8.1,8.1,0,0,0,8.086,8.087H507.6a2.581,2.581,0,0,0,0-5.162H400.154a2.929,2.929,0,0,1-2.925-2.925v-6.945h58.915l1.215,3.036a4.622,4.622,0,0,0,4.313,2.921h36.974a4.621,4.621,0,0,0,4.312-2.919l1.215-3.038h58.915v6.945a2.929,2.929,0,0,1-2.925,2.925H519.477a2.581,2.581,0,0,0,0,5.162h40.686a8.1,8.1,0,0,0,8.087-8.087v-7.461A4.652,4.652,0,0,0,563.6,3663.847Zm-16.353-72.024v72.025h-7.046v-72.025Zm-134.185,0h7.046v72.025h-7.046Zm90.758,72.024a4.624,4.624,0,0,0-4.314,2.921l-1.215,3.038H462.022l-1.215-3.038a4.624,4.624,0,0,0-4.314-2.921H425.274v-98.041a.861.861,0,0,1,.86-.86H534.183a.861.861,0,0,1,.86.86v98.041Z" fill="#855db5"/>
      <path id="Trazado_108355" data-name="Trazado 108355" d="M465.047,3573.858a28.535,28.535,0,1,0,28.537,28.536A28.567,28.567,0,0,0,465.047,3573.858Zm23.23,25.956H467.628v-20.648A23.414,23.414,0,0,1,488.277,3599.814Zm-23.23,25.953a23.372,23.372,0,0,1-2.58-46.6v23.228a2.58,2.58,0,0,0,2.58,2.581h23.23A23.406,23.406,0,0,1,465.047,3625.767Z" fill="#855db5"/>
      <path id="Trazado_108356" data-name="Trazado 108356" d="M519.158,3591.309H503.673a2.581,2.581,0,0,0,0,5.162h15.485a2.581,2.581,0,1,0,0-5.162Z" fill="#855db5"/>
      <path id="Trazado_108357" data-name="Trazado 108357" d="M503.675,3587.524h.014a2.581,2.581,0,0,0,.013-5.162h-.046a2.566,2.566,0,0,0-2.563,2.568A2.593,2.593,0,0,0,503.675,3587.524Z" fill="#855db5"/>
      <path id="Trazado_108358" data-name="Trazado 108358" d="M519.158,3612.433H503.673a2.58,2.58,0,0,0,0,5.161h15.485a2.58,2.58,0,1,0,0-5.161Z" fill="#855db5"/>
      <path id="Trazado_108359" data-name="Trazado 108359" d="M503.688,3608.648a2.581,2.581,0,1,0,0-5.162h-.032a2.566,2.566,0,0,0-2.563,2.581A2.594,2.594,0,0,0,503.688,3608.648Z" fill="#855db5"/>
      <path id="Trazado_108360" data-name="Trazado 108360" d="M490.045,3641.338H439.1a2.581,2.581,0,1,0,0,5.161h50.949a2.581,2.581,0,1,0,0-5.161Z" fill="#855db5"/>
      <path id="Trazado_108361" data-name="Trazado 108361" d="M490.045,3651.155H454.58a2.581,2.581,0,0,0,0,5.162h35.465a2.581,2.581,0,1,0,0-5.162Z" fill="#855db5"/>
      <path id="Trazado_108362" data-name="Trazado 108362" d="M445.862,3651.155h-6.768a2.581,2.581,0,0,0,0,5.162h6.768a2.581,2.581,0,1,0,0-5.162Z" fill="#855db5"/>
      <path id="Trazado_108363" data-name="Trazado 108363" d="M517.093,3623.737H505.72a4.651,4.651,0,0,0-4.645,4.645v23.289a4.651,4.651,0,0,0,4.645,4.646h11.373a4.652,4.652,0,0,0,4.646-4.646v-23.289A4.651,4.651,0,0,0,517.093,3623.737Zm-.516,5.162v12.439h-10.34V3628.9Zm-10.34,22.256V3646.5h10.34v4.656Z" fill="#855db5"/>
    </g>
  </g>
</svg>
