<svg xmlns="http://www.w3.org/2000/svg" width="201" height="199" viewBox="0 0 201 199">
  <g id="Grupo_59817" data-name="Grupo 59817" transform="translate(-72.193 -75.357)">
    <rect id="Rectángulo_6365" data-name="Rectángulo 6365" width="201" height="199" transform="translate(72.193 75.357)" fill="none"/>
    <g id="Grupo_59806" data-name="Grupo 59806" transform="translate(-828.217 -2558.724)">
      <g id="Grupo_59735" data-name="Grupo 59735" transform="translate(922.053 2661.827)">
        <path id="Trazado_108164" data-name="Trazado 108164" d="M1033.23,2661.827v59.907H966.1v27.4H922.053v-87.307Z" transform="translate(-922.053 -2661.827)" fill="#e2d2f9"/>
      </g>
      <g id="Grupo_59736" data-name="Grupo 59736" transform="translate(931.457 2671.231)">
        <path id="Trazado_108165" data-name="Trazado 108165" d="M1024.54,2671.939v50.5H966.8v18H932.165v-68.506Z" transform="translate(-932.165 -2671.939)" fill="#afafaf"/>
      </g>
      <g id="Grupo_59737" data-name="Grupo 59737" transform="translate(954.547 2684.931)">
        <path id="Trazado_108166" data-name="Trazado 108166" d="M1026.279,2686.671v36.8H968.542v18H956.994v-54.805Z" transform="translate(-956.994 -2686.671)" fill="#c595ff"/>
      </g>
      <g id="Grupo_59738" data-name="Grupo 59738" transform="translate(954.547 2698.633)">
        <path id="Trazado_108167" data-name="Trazado 108167" d="M956.994,2701.4h69.283v13.7H956.994Z" transform="translate(-956.994 -2701.404)" fill="#dcbfff"/>
      </g>
      <g id="Grupo_59739" data-name="Grupo 59739" transform="translate(1015.725 2696.968)">
        <path id="Trazado_108168" data-name="Trazado 108168" d="M1024.443,2716.645a1.665,1.665,0,0,1-1.665-1.666v-13.7a1.665,1.665,0,1,1,3.33,0v13.7A1.666,1.666,0,0,1,1024.443,2716.645Z" transform="translate(-1022.778 -2699.614)" fill="#a271dc"/>
      </g>
      <g id="Grupo_59740" data-name="Grupo 59740" transform="translate(1015.725 2710.668)">
        <path id="Trazado_108169" data-name="Trazado 108169" d="M1024.443,2724.528a1.664,1.664,0,0,1-1.665-1.664v-6.853a1.665,1.665,0,0,1,3.33,0v6.853A1.665,1.665,0,0,1,1024.443,2724.528Z" transform="translate(-1022.778 -2714.346)" fill="#855db5"/>
      </g>
      <g id="Grupo_59741" data-name="Grupo 59741" transform="translate(1015.725 2690.119)">
        <path id="Trazado_108170" data-name="Trazado 108170" d="M1024.443,2702.428a1.664,1.664,0,0,1-1.665-1.665v-6.85a1.665,1.665,0,0,1,3.33,0v6.85A1.665,1.665,0,0,1,1024.443,2702.428Z" transform="translate(-1022.778 -2692.249)" fill="#855db5"/>
      </g>
      <g id="Grupo_59742" data-name="Grupo 59742" transform="translate(966.095 2721.732)">
        <path id="Trazado_108171" data-name="Trazado 108171" d="M969.411,2726.243h111.174v87.306H969.411Z" transform="translate(-969.411 -2726.243)" fill="#e2d2f9"/>
      </g>
      <g id="Grupo_59743" data-name="Grupo 59743" transform="translate(975.495 2731.132)">
        <path id="Trazado_108172" data-name="Trazado 108172" d="M979.519,2736.35h92.375v68.508H979.519Z" transform="translate(-979.519 -2736.35)" fill="#afafaf"/>
      </g>
      <g id="Grupo_59744" data-name="Grupo 59744" transform="translate(998.586 2744.832)">
        <path id="Trazado_108173" data-name="Trazado 108173" d="M1004.349,2751.082h69.283v54.807h-69.283Z" transform="translate(-1004.349 -2751.082)" fill="#2ab9c4"/>
      </g>
      <g id="Grupo_59745" data-name="Grupo 59745" transform="translate(1021.678 2744.832)">
        <path id="Trazado_108174" data-name="Trazado 108174" d="M1029.181,2751.082h23.1v54.807h-23.1Z" transform="translate(-1029.18 -2751.082)" fill="#f9e478"/>
      </g>
      <g id="Grupo_59746" data-name="Grupo 59746" transform="translate(1020.017 2792.781)">
        <path id="Trazado_108175" data-name="Trazado 108175" d="M1052.153,2805.971h-23.094a1.665,1.665,0,0,1,0-3.33h23.094a1.665,1.665,0,0,1,0,3.33Z" transform="translate(-1027.394 -2802.641)" fill="#d4c266"/>
      </g>
      <g id="Grupo_59747" data-name="Grupo 59747" transform="translate(1002.865 2792.781)">
        <path id="Trazado_108176" data-name="Trazado 108176" d="M1027.764,2805.971h-17.15a1.665,1.665,0,0,1,0-3.33h17.15a1.665,1.665,0,1,1,0,3.33Z" transform="translate(-1008.95 -2802.641)" fill="#95f7ff"/>
      </g>
      <g id="Grupo_59748" data-name="Grupo 59748" transform="translate(1043.11 2750.017)">
        <path id="Trazado_108177" data-name="Trazado 108177" d="M1070.542,2802.751h-16.65a1.665,1.665,0,1,1,0-3.33h14.985v-41.1a1.665,1.665,0,0,1,3.33,0v42.764A1.664,1.664,0,0,1,1070.542,2802.751Z" transform="translate(-1052.226 -2756.658)" fill="#95f7ff"/>
      </g>
      <path id="Trazado_108178" data-name="Trazado 108178" d="M964.88,2680.844h8.2a1.665,1.665,0,1,0,0-3.33h-8.2a1.665,1.665,0,0,0,0,3.33Z" transform="translate(-2.882 -1.099)"/>
      <path id="Trazado_108179" data-name="Trazado 108179" d="M940.046,2695.576h8.195a1.665,1.665,0,1,0,0-3.33h-8.195a1.665,1.665,0,0,0,0,3.33Z" transform="translate(-1.143 -2.13)"/>
      <path id="Trazado_108180" data-name="Trazado 108180" d="M940.046,2710.31h8.195a1.665,1.665,0,1,0,0-3.331h-8.195a1.665,1.665,0,0,0,0,3.331Z" transform="translate(-1.143 -3.162)"/>
      <path id="Trazado_108181" data-name="Trazado 108181" d="M948.241,2721.714h-8.195a1.665,1.665,0,0,0,0,3.33h8.195a1.665,1.665,0,1,0,0-3.33Z" transform="translate(-1.143 -4.194)"/>
      <path id="Trazado_108182" data-name="Trazado 108182" d="M948.241,2736.449h-8.195a1.665,1.665,0,0,0,0,3.33h8.195a1.665,1.665,0,1,0,0-3.33Z" transform="translate(-1.143 -5.226)"/>
      <path id="Trazado_108183" data-name="Trazado 108183" d="M997.909,2677.514h-8.2a1.665,1.665,0,0,0,0,3.33h8.2a1.665,1.665,0,0,0,0-3.33Z" transform="translate(-4.621 -1.099)"/>
      <path id="Trazado_108184" data-name="Trazado 108184" d="M1014.547,2680.844h8.195a1.665,1.665,0,1,0,0-3.33h-8.195a1.665,1.665,0,0,0,0,3.33Z" transform="translate(-6.36 -1.099)"/>
      <path id="Trazado_108185" data-name="Trazado 108185" d="M1012.235,2745.256h8.2a1.665,1.665,0,1,0,0-3.329h-8.2a1.665,1.665,0,0,0,0,3.329Z" transform="translate(-6.199 -5.609)" fill="#855db5"/>
      <path id="Trazado_108186" data-name="Trazado 108186" d="M987.4,2759.989h8.2a1.665,1.665,0,0,0,0-3.33h-8.2a1.665,1.665,0,1,0,0,3.33Z" transform="translate(-4.459 -6.641)" fill="#855db5"/>
      <path id="Trazado_108187" data-name="Trazado 108187" d="M987.4,2774.723h8.2a1.665,1.665,0,0,0,0-3.33h-8.2a1.665,1.665,0,1,0,0,3.33Z" transform="translate(-4.459 -7.672)" fill="#855db5"/>
      <path id="Trazado_108188" data-name="Trazado 108188" d="M995.6,2786.128h-8.2a1.665,1.665,0,1,0,0,3.329h8.2a1.665,1.665,0,1,0,0-3.329Z" transform="translate(-4.459 -8.705)" fill="#855db5"/>
      <path id="Trazado_108189" data-name="Trazado 108189" d="M995.6,2800.861h-8.2a1.665,1.665,0,1,0,0,3.33h8.2a1.665,1.665,0,0,0,0-3.33Z" transform="translate(-4.459 -9.736)" fill="#855db5"/>
      <path id="Trazado_108190" data-name="Trazado 108190" d="M1045.264,2741.926h-8.2a1.665,1.665,0,1,0,0,3.329h8.2a1.665,1.665,0,0,0,0-3.329Z" transform="translate(-7.938 -5.609)" fill="#855db5"/>
      <path id="Trazado_108191" data-name="Trazado 108191" d="M1061.9,2745.256h8.195a1.665,1.665,0,1,0,0-3.329H1061.9a1.665,1.665,0,0,0,0,3.329Z" transform="translate(-9.677 -5.609)" fill="#855db5"/>
      <path id="Trazado_108192" data-name="Trazado 108192" d="M979.393,2734.56a1.664,1.664,0,0,0-1.665,1.665v68.508a1.664,1.664,0,0,0,1.665,1.664h92.375a1.665,1.665,0,0,0,1.666-1.664v-68.508a1.665,1.665,0,0,0-1.666-1.665Zm47.851,41.107v-10.373h19.768v10.373Zm19.768,3.33v10.366h-19.768V2779Zm-46.191-17.033H981.057v-10.373h19.763v10.373Zm3.329-10.374h19.763v10.373h-19.763Zm-3.329,13.7v10.373H981.057v-10.373Zm3.329,0h19.763v10.373h-19.763Zm46.191,0H1070.1v10.373h-19.763Zm0-3.33v-10.373H1070.1v10.373Zm-3.329,0h-19.768v-10.373h19.768Zm-19.768-13.7v-10.37h19.768v10.37Zm-3.33,0h-19.763v-10.37h19.763Zm-23.092,0H985.462l15.359-9.112ZM981.057,2779h19.763v10.366H981.057Zm23.093,0h19.763v10.366h-19.763Zm19.763,13.7v10.373h-19.763v-10.373Zm3.33,0h19.768v10.373h-19.768Zm23.1,0H1070.1v10.373h-19.763Zm0-3.33V2779H1070.1v10.366Zm19.763-41.1h-19.763v-10.37H1070.1Zm-73.689-10.37L981.058,2747v-9.11Zm-15.358,54.8h19.763v10.373H981.057Z" transform="translate(-3.899 -5.093)" fill="#855db5"/>
    </g>
  </g>
</svg>
