<svg xmlns="http://www.w3.org/2000/svg" width="201" height="199" viewBox="0 0 201 199">
  <g id="Grupo_59820" data-name="Grupo 59820" transform="translate(-1079.582 -3556.817)">
    <g id="Grupo_59828" data-name="Grupo 59828">
      <g id="Fill_out_line" data-name="Fill out line">
        <g id="Grupo_59827" data-name="Grupo 59827">
          <path id="Trazado_108408" data-name="Trazado 108408" d="M1115.568,3702.014H1131.7v18.817h-16.128Z" fill="#95f7ff"/>
          <path id="Trazado_108409" data-name="Trazado 108409" d="M1131.7,3683.2h16.129v37.633H1131.7Z" fill="#95f7ff"/>
          <path id="Trazado_108410" data-name="Trazado 108410" d="M1147.825,3661.693h16.128v59.138h-16.128Z" fill="#95f7ff"/>
          <path id="Trazado_108411" data-name="Trazado 108411" d="M1163.953,3642.877h16.129v77.954h-16.129Z" fill="#95f7ff"/>
          <path id="Trazado_108412" data-name="Trazado 108412" d="M1180.082,3634.812h16.128v86.019h-16.128Z" fill="#95f7ff"/>
          <path id="Trazado_108413" data-name="Trazado 108413" d="M1196.21,3642.877h16.128v77.954H1196.21Z" fill="#95f7ff"/>
          <path id="Trazado_108414" data-name="Trazado 108414" d="M1212.338,3661.693h16.129v59.138h-16.129Z" fill="#95f7ff"/>
          <path id="Trazado_108415" data-name="Trazado 108415" d="M1228.467,3688.574h16.128v32.257h-16.128Z" fill="#95f7ff"/>
          <path id="Trazado_108416" data-name="Trazado 108416" d="M1244.595,3704.7h13.441v16.129h-13.441Z" fill="#95f7ff"/>
        </g>
        <path id="Trazado_108417" data-name="Trazado 108417" d="M1107.5,3731.583h16.128v5.376H1107.5Z" fill="#855db5"/>
        <path id="Trazado_108418" data-name="Trazado 108418" d="M1139.76,3731.583h16.129v5.376H1139.76Z" fill="#855db5"/>
        <path id="Trazado_108419" data-name="Trazado 108419" d="M1172.017,3731.583h16.129v5.376h-16.129Z" fill="#855db5"/>
        <path id="Trazado_108420" data-name="Trazado 108420" d="M1204.274,3731.583H1220.4v5.376h-16.129Z" fill="#855db5"/>
        <path id="Trazado_108421" data-name="Trazado 108421" d="M1236.531,3731.583h16.129v5.376h-16.129Z" fill="#855db5"/>
        <path id="Trazado_108422" data-name="Trazado 108422" d="M1099.439,3718.143h5.376v5.376h-5.376Z" fill="#855db5"/>
        <path id="Trazado_108423" data-name="Trazado 108423" d="M1099.439,3691.262h5.376v5.376h-5.376Z" fill="#855db5"/>
        <path id="Trazado_108424" data-name="Trazado 108424" d="M1099.439,3659h5.376v5.376h-5.376Z" fill="#855db5"/>
        <path id="Trazado_108425" data-name="Trazado 108425" d="M1099.439,3626.748h5.376v5.376h-5.376Z" fill="#855db5"/>
        <path id="Trazado_108426" data-name="Trazado 108426" d="M1258.036,3702.014h-10.753v-13.44a2.686,2.686,0,0,0-2.686-2.688h-13.442v-24.193a2.688,2.688,0,0,0-2.687-2.688h-13.441v-16.128a2.689,2.689,0,0,0-2.687-2.689H1198.9v-5.376a2.688,2.688,0,0,0-2.687-2.688h-16.129a2.689,2.689,0,0,0-2.689,2.687h0v5.376h-13.44a2.688,2.688,0,0,0-2.688,2.687V3659h-13.44a2.687,2.687,0,0,0-2.688,2.687h0v18.817H1131.7a2.687,2.687,0,0,0-2.688,2.686v16.13h-10.752V3575.675h-5.376v18.816H1107.5v5.376h5.376v26.881H1107.5v5.376h5.376V3659H1107.5v5.376h5.376v26.881H1107.5v5.376h5.376v21.505H1107.5v5.376h5.376v5.376h5.376v-5.376h26.881v5.376h5.376v-5.376h26.88v5.376h5.377v-5.376h26.88v5.376h5.377v-5.376h26.88v5.376h5.376v-5.376h10.753a2.689,2.689,0,0,0,2.688-2.687h0V3704.7a2.689,2.689,0,0,0-2.687-2.688Zm-129.028,16.129h-10.752v-.189a23.8,23.8,0,0,0,10.752-4.667Zm0-11.905c-3.484,3.229-7.059,5.494-10.752,6.25V3704.7h10.752Zm16.129,11.905h-10.753v-9.56a104.609,104.609,0,0,0,10.753-13.393Zm0-32.257h-.179a174.42,174.42,0,0,1-10.574,14.6v1.525a2.671,2.671,0,0,0-.279-1.193l.279-.332v-14.6h10.574c.061-.091.121-.178.179-.269Zm5.376-21.5h9.25c-3.175,4.1-6.236,8.575-9.25,13.108Zm10.752,53.762h-10.752v-30.9q.891-1.345,1.787-2.708c2.947-4.469,5.924-8.982,8.965-13.182Zm16.128,0h-10.752v-53.725a49.73,49.73,0,0,1,10.752-9.986Zm0-69.914a41.871,41.871,0,0,0-10.752,8.185v-10.849h10.752Zm16.129,69.914H1182.77v-66.322a16.851,16.851,0,0,1,10.752,0Zm0-71.923a22.372,22.372,0,0,0-10.752,0v-8.72h10.752Zm16.128,71.923H1198.9v-63.711a49.727,49.727,0,0,1,10.752,9.986Zm0-61.729a41.836,41.836,0,0,0-10.752-8.185v-2.664h10.752Zm16.129,7.967v13.108c-3.014-4.533-6.075-9.009-9.251-13.108Zm0,24.193v29.569h-10.752v-46.79c3.04,4.2,6.017,8.713,8.964,13.182q.9,1.36,1.788,2.708c.067.1.134.205.2.306A2.664,2.664,0,0,0,1225.779,3688.574Zm16.128,29.569h-10.752V3695.19a104.521,104.521,0,0,0,10.752,13.393Zm0-17.654c-2.338-2.813-4.647-5.948-6.925-9.227h6.925Zm13.441,17.654h-8.065v-4.856a25.571,25.571,0,0,0,8.065,4.1Zm0-6.472a25.062,25.062,0,0,1-6.771-4.281h6.771Z" fill="#855db5"/>
        <path id="Trazado_108427" data-name="Trazado 108427" d="M1099.439,3594.491h5.376v5.376h-5.376Z" fill="#855db5"/>
        <path id="Trazado_108428" data-name="Trazado 108428" d="M1144.958,3685.886h.179v-.269C1145.079,3685.708,1145.019,3685.795,1144.958,3685.886Zm-10.853,14.935a2.671,2.671,0,0,1,.279,1.193v-1.525l-.279.332Z"/>
        <path id="Trazado_108429" data-name="Trazado 108429" d="M1225.779,3687.243v1.331a2.664,2.664,0,0,1,.2-1.025C1225.913,3687.448,1225.846,3687.344,1225.779,3687.243Z"/>
        <path id="Trazado_108430" data-name="Trazado 108430" d="M1134.384,3700.489v1.525a2.671,2.671,0,0,0-.279-1.193l.279-.332Z"/>
        <path id="Trazado_108431" data-name="Trazado 108431" d="M1145.137,3685.617v.269h-.179C1145.019,3685.795,1145.079,3685.708,1145.137,3685.617Z"/>
        <path id="Trazado_108432" data-name="Trazado 108432" d="M1231.333,3685.886h-.178v-.269C1231.212,3685.708,1231.273,3685.795,1231.333,3685.886Z"/>
        <path id="Trazado_108433" data-name="Trazado 108433" d="M1198.9,3605.243v21.505h-5.376v-5.376H1182.77v5.376h-5.377v-21.505h5.377V3616h10.752v-10.753Z" fill="#855db5"/>
        <path id="Trazado_108434" data-name="Trazado 108434" d="M1185.458,3605.243h5.376v5.377h-5.376Z" fill="#855db5"/>
        <path id="Trazado_108435" data-name="Trazado 108435" d="M1129.008,3605.243h5.376v69.89h-5.376Z" fill="#855db5"/>
        <path id="Trazado_108436" data-name="Trazado 108436" d="M1123.632,3594.491h16.128v5.376h-16.128Z" fill="#855db5"/>
        <path id="Trazado_108437" data-name="Trazado 108437" d="M1241.907,3605.243h5.376v69.89h-5.376Z" fill="#855db5"/>
        <path id="Trazado_108438" data-name="Trazado 108438" d="M1236.531,3594.491h16.129v5.376h-16.129Z" fill="#855db5"/>
      </g>
    </g>
    <rect id="Rectángulo_6365" data-name="Rectángulo 6365" width="201" height="199" transform="translate(1079.582 3556.817)" fill="none"/>
  </g>
</svg>
