<svg xmlns="http://www.w3.org/2000/svg" width="201" height="199" viewBox="0 0 201 199">
  <g id="Grupo_59820" data-name="Grupo 59820" transform="translate(-325.21 -3822.996)">
    <g id="Grupo_59831" data-name="Grupo 59831">
      <circle id="Elipse_4160" data-name="Elipse 4160" cx="6.206" cy="6.206" r="6.206" transform="translate(374.636 3961.157)" fill="#47ecfa"/>
      <circle id="Elipse_4161" data-name="Elipse 4161" cx="6.206" cy="6.206" r="6.206" transform="translate(374.636 3936.331)" fill="#f9e478"/>
      <circle id="Elipse_4162" data-name="Elipse 4162" cx="6.206" cy="6.206" r="6.206" transform="translate(399.462 3948.744)" fill="#f17781"/>
      <circle id="Elipse_4163" data-name="Elipse 4163" cx="6.206" cy="6.206" r="6.206" transform="translate(399.462 3923.918)" fill="#c595ff"/>
      <circle id="Elipse_4164" data-name="Elipse 4164" cx="6.206" cy="6.206" r="6.206" transform="translate(424.288 3961.157)" fill="#c595ff"/>
      <circle id="Elipse_4165" data-name="Elipse 4165" cx="6.206" cy="6.206" r="6.206" transform="translate(424.288 3911.505)" fill="#f9e478"/>
      <circle id="Elipse_4166" data-name="Elipse 4166" cx="6.206" cy="6.206" r="6.206" transform="translate(449.113 3923.918)" fill="#47ecfa"/>
      <circle id="Elipse_4167" data-name="Elipse 4167" cx="6.206" cy="6.206" r="6.206" transform="translate(461.526 3899.092)" fill="#c595ff"/>
      <circle id="Elipse_4168" data-name="Elipse 4168" cx="6.206" cy="6.206" r="6.206" transform="translate(461.526 3874.267)" fill="#f9e478"/>
      <circle id="Elipse_4169" data-name="Elipse 4169" cx="6.206" cy="6.206" r="6.206" transform="translate(486.352 3886.68)" fill="#47ecfa"/>
      <circle id="Elipse_4170" data-name="Elipse 4170" cx="6.206" cy="6.206" r="6.206" transform="translate(486.352 3936.331)" fill="#f9e478"/>
      <circle id="Elipse_4171" data-name="Elipse 4171" cx="6.206" cy="6.206" r="6.206" transform="translate(486.352 3849.441)" fill="#f17781"/>
      <path id="Trazado_108451" data-name="Trazado 108451" d="M380.843,3989.8H358.409V3843.234a2.392,2.392,0,0,0-2.392-2.392h-9.569a2.392,2.392,0,0,0,0,4.785h7.177v7.628h-2.392a2.393,2.393,0,1,0,0,4.785h2.392v7.628h-7.177a2.392,2.392,0,1,0,0,4.784h7.177v7.629h-2.392a2.392,2.392,0,1,0,0,4.784h2.392v7.629h-7.177a2.392,2.392,0,0,0,0,4.784h7.177v7.628h-2.392a2.392,2.392,0,1,0,0,4.785h2.392v7.628h-7.177a2.392,2.392,0,0,0,0,4.785h7.177v7.628h-2.392a2.393,2.393,0,1,0,0,4.785h2.392v7.628h-7.177a2.392,2.392,0,1,0,0,4.784h7.177v7.629h-2.392a2.392,2.392,0,1,0,0,4.784h2.392v7.629h-7.177a2.392,2.392,0,1,0,0,4.784h7.177v7.628h-2.392a2.392,2.392,0,1,0,0,4.785h2.392v7.628h-7.177a2.393,2.393,0,0,0,0,4.785h7.177v7.176a2.392,2.392,0,1,0,4.784,0v-7.176H378.45v7.176a2.392,2.392,0,1,0,4.785,0v-9.568A2.392,2.392,0,0,0,380.843,3989.8Z" fill="#855db5"/>
      <path id="Trazado_108452" data-name="Trazado 108452" d="M504.971,3989.8H390.411a2.393,2.393,0,0,0,0,4.785h12.865v7.176a2.392,2.392,0,1,0,4.784,0v-7.176H428.1v7.176a2.392,2.392,0,1,0,4.784,0v-7.176h20.041v7.176a2.393,2.393,0,1,0,4.785,0v-7.176h20.041v7.176a2.392,2.392,0,1,0,4.784,0v-7.176h20.042v7.176a2.392,2.392,0,1,0,4.784,0v-9.568A2.392,2.392,0,0,0,504.971,3989.8Z" fill="#855db5"/>
      <path id="Trazado_108453" data-name="Trazado 108453" d="M380.843,3958.764a8.6,8.6,0,1,0,8.6,8.6A8.609,8.609,0,0,0,380.843,3958.764Zm0,12.413a3.814,3.814,0,1,1,3.814-3.814A3.819,3.819,0,0,1,380.843,3971.177Z" fill="#855db5"/>
      <path id="Trazado_108454" data-name="Trazado 108454" d="M380.843,3951.136a8.6,8.6,0,1,0-8.6-8.6A8.608,8.608,0,0,0,380.843,3951.136Zm0-12.413a3.815,3.815,0,1,1-3.815,3.814A3.819,3.819,0,0,1,380.843,3938.723Z" fill="#855db5"/>
      <path id="Trazado_108455" data-name="Trazado 108455" d="M405.668,3963.549a8.6,8.6,0,1,0-8.6-8.6,8.609,8.609,0,0,0,8.6,8.6Zm0-12.413a3.814,3.814,0,1,1-3.814,3.814,3.819,3.819,0,0,1,3.814-3.814Z" fill="#855db5"/>
      <path id="Trazado_108456" data-name="Trazado 108456" d="M405.668,3938.723a8.6,8.6,0,1,0-8.6-8.6,8.608,8.608,0,0,0,8.6,8.6Zm0-12.413a3.814,3.814,0,1,1-3.814,3.814,3.819,3.819,0,0,1,3.814-3.814Z" fill="#855db5"/>
      <path id="Trazado_108457" data-name="Trazado 108457" d="M430.494,3975.962a8.6,8.6,0,1,0-8.6-8.6A8.609,8.609,0,0,0,430.494,3975.962Zm0-12.413a3.814,3.814,0,1,1-3.814,3.814A3.818,3.818,0,0,1,430.494,3963.549Z" fill="#855db5"/>
      <path id="Trazado_108458" data-name="Trazado 108458" d="M430.494,3926.31a8.6,8.6,0,1,0-8.6-8.6A8.609,8.609,0,0,0,430.494,3926.31Zm0-12.413a3.814,3.814,0,1,1-3.814,3.815,3.819,3.819,0,0,1,3.814-3.815Z" fill="#855db5"/>
      <path id="Trazado_108459" data-name="Trazado 108459" d="M455.32,3938.723a8.6,8.6,0,1,0-8.6-8.6A8.608,8.608,0,0,0,455.32,3938.723Zm0-12.413a3.814,3.814,0,1,1-3.814,3.814A3.818,3.818,0,0,1,455.32,3926.31Z" fill="#855db5"/>
      <path id="Trazado_108460" data-name="Trazado 108460" d="M467.733,3913.9a8.6,8.6,0,1,0-8.6-8.6A8.608,8.608,0,0,0,467.733,3913.9Zm0-12.413a3.815,3.815,0,1,1-3.815,3.815A3.819,3.819,0,0,1,467.733,3901.484Z" fill="#855db5"/>
      <path id="Trazado_108461" data-name="Trazado 108461" d="M467.733,3889.072a8.6,8.6,0,1,0-8.6-8.6A8.608,8.608,0,0,0,467.733,3889.072Zm0-12.413a3.814,3.814,0,1,1-3.815,3.814A3.818,3.818,0,0,1,467.733,3876.659Z" fill="#855db5"/>
      <path id="Trazado_108462" data-name="Trazado 108462" d="M492.558,3901.484a8.6,8.6,0,1,0-8.6-8.6A8.608,8.608,0,0,0,492.558,3901.484Zm0-12.412a3.814,3.814,0,1,1-3.814,3.814,3.818,3.818,0,0,1,3.814-3.814Z" fill="#855db5"/>
      <path id="Trazado_108463" data-name="Trazado 108463" d="M492.558,3951.136a8.6,8.6,0,1,0-8.6-8.6A8.609,8.609,0,0,0,492.558,3951.136Zm0-12.413a3.815,3.815,0,1,1-3.814,3.814A3.819,3.819,0,0,1,492.558,3938.723Z" fill="#855db5"/>
      <path id="Trazado_108464" data-name="Trazado 108464" d="M492.558,3864.246a8.6,8.6,0,1,0-8.6-8.6A8.609,8.609,0,0,0,492.558,3864.246Zm0-12.413a3.814,3.814,0,1,1-3.814,3.814A3.818,3.818,0,0,1,492.558,3851.833Z" fill="#855db5"/>
    </g>
    <rect id="Rectángulo_6365" data-name="Rectángulo 6365" width="201" height="199" transform="translate(325.21 3822.996)" fill="none"/>
  </g>
</svg>
