<svg xmlns="http://www.w3.org/2000/svg" width="201" height="199" viewBox="0 0 201 199">
  <g id="Grupo_59820" data-name="Grupo 59820" transform="translate(-829.284 -3556.817)">
    <rect id="Rectángulo_6365" data-name="Rectángulo 6365" width="201" height="199" transform="translate(829.284 3556.817)" fill="none"/>
    <g id="Grupo_59826" data-name="Grupo 59826">
      <g id="Grupo_59825" data-name="Grupo 59825">
        <path id="Trazado_108374" data-name="Trazado 108374" d="M889.781,3598.079l1.686,2.921-2.918,1.685-1.686-2.92Z" fill="#855db5"/>
        <path id="Trazado_108375" data-name="Trazado 108375" d="M882.7,3606.055l-1.686-2.92,2.92-1.686,1.686,2.92Z" fill="#855db5"/>
        <path id="Trazado_108376" data-name="Trazado 108376" d="M895.607,3594.708l1.686,2.919-2.919,1.685-1.685-2.919Z" fill="#855db5"/>
        <path id="Trazado_108377" data-name="Trazado 108377" d="M908.771,3591.018l-2.709,1.564-1.686-2.92,2.709-1.564Z" fill="#855db5"/>
        <path id="Trazado_108378" data-name="Trazado 108378" d="M901.459,3591.337l1.686,2.92-2.919,1.685-1.686-2.92Z" fill="#855db5"/>
        <path id="Trazado_108379" data-name="Trazado 108379" d="M991.794,3609.768a9.31,9.31,0,0,0-7.812,4.3l-45.445-26.235a9.3,9.3,0,1,0-17.515,0l-46.62,26.916a9.3,9.3,0,1,0-8.312,15.658v53.355a9.163,9.163,0,0,0-7.616,9.124,9.291,9.291,0,0,0,16.78,5.509l45.775,26.424a9.294,9.294,0,1,0,18.051,3.1,9.543,9.543,0,0,0-.514-3.127l45.736-26.409a9.1,9.1,0,0,0,7.492,3.8,9.313,9.313,0,0,0,9.3-9.3,9.162,9.162,0,0,0-7.618-9.124v-55.542a9.3,9.3,0,0,0-1.685-18.444Zm-6.6,76.558-16.163-9.108a9.266,9.266,0,0,0-7.1-12.159v-16.525a9.287,9.287,0,0,0,6.908-12.7l17.057-9.591a9.3,9.3,0,0,0,4.214,1.962v55.529A8.983,8.983,0,0,0,985.2,3686.326Zm-55.421,11.1a5.932,5.932,0,1,1,5.932-5.932A5.939,5.939,0,0,1,929.777,3697.423Zm0-15.234a9.281,9.281,0,0,0-7.072,3.274l-14.846-8.561a9.29,9.29,0,0,0-6.864-12.8v-16.641a9.273,9.273,0,0,0,7.183-11.9l14.533-8.387a9.275,9.275,0,0,0,14.137,0l14.848,8.561a9.289,9.289,0,0,0,6.864,12.8v16.526a9.281,9.281,0,0,0-7.158,12.016l-14.552,8.388a9.282,9.282,0,0,0-7.073-3.275Zm-55.389,4.165a8.92,8.92,0,0,0-4.927-2.619V3630.4a9.3,9.3,0,0,0,5.711-3.526l15.519,7.967a9.28,9.28,0,0,0,6.933,12.627V3664.1a9.11,9.11,0,0,0-6.539,4.812,9.247,9.247,0,0,0-.3,7.974Zm29.981-44.943a5.794,5.794,0,0,1-5.06,2.846,5.932,5.932,0,1,1,5.269-8.655,5.875,5.875,0,0,1-.209,5.809Zm-10.3,29.072a5.827,5.827,0,0,1,5.239-3.173,5.932,5.932,0,1,1-5.239,3.173Zm35.71-55.277a5.931,5.931,0,1,1-5.932,5.931A5.938,5.938,0,0,1,929.78,3615.206Zm36.4,24.186a5.932,5.932,0,1,1-5.932-5.931A5.939,5.939,0,0,1,966.177,3639.392ZM954.313,3674.2a5.932,5.932,0,1,1,5.932,5.932A5.938,5.938,0,0,1,954.313,3674.2Zm28.382-56.987a8.924,8.924,0,0,0,1.012,6.395l-16.714,9.4a9.266,9.266,0,0,0-13.419-.085l-15.039-8.672a9.214,9.214,0,0,0,.548-3.114,9.311,9.311,0,0,0-7.617-9.141V3593.86a9.294,9.294,0,0,0,5.385-3.112Zm-52.915-38.427a5.931,5.931,0,1,1-5.932,5.932A5.938,5.938,0,0,1,929.78,3578.787Zm-7.073,11.959a9.3,9.3,0,0,0,5.388,3.114V3612a9.266,9.266,0,0,0-7.071,12.252l-14.425,8.325a9.259,9.259,0,0,0-14.081-.584l-15.821-8.123a9.215,9.215,0,0,0-.4-6.326Zm-60.864,30.511a5.931,5.931,0,1,1,5.931,5.932A5.938,5.938,0,0,1,861.843,3621.257Zm5.932,77.552a5.937,5.937,0,0,1-5.93-5.931,5.931,5.931,0,0,1,11.862,0A5.938,5.938,0,0,1,867.775,3698.809Zm8.5-9.653,16.374-9.452a9.247,9.247,0,0,0,13.328.007l15.04,8.673a9.263,9.263,0,0,0,7.072,12.249v18.133a8.862,8.862,0,0,0-5.388,3.12l-45.97-26.537a9.054,9.054,0,0,0-.456-6.193Zm53.5,44.691a5.929,5.929,0,0,1-.1-11.858,5.859,5.859,0,0,1,6.032,5.927A5.938,5.938,0,0,1,929.777,3733.847Zm1.686-15.056v-18.158a9.264,9.264,0,0,0,7.071-12.25l14.477-8.345a9.284,9.284,0,0,0,14.372.119l15.916,8.968a9.193,9.193,0,0,0-.451,6.2l-45.973,26.545a9.605,9.605,0,0,0-5.412-3.08Zm66.263-25.913a5.939,5.939,0,0,1-5.932,5.931,5.815,5.815,0,0,1-5.262-3.208,5.928,5.928,0,1,1,11.194-2.723Zm-11.864-73.808a5.932,5.932,0,0,1,11.864,0c0,7.864-11.864,7.762-11.864,0Z" fill="#855db5"/>
        <path id="Trazado_108380" data-name="Trazado 108380" d="M996.851,3642.548h3.37v3.371h-3.37Z" fill="#855db5"/>
        <path id="Trazado_108381" data-name="Trazado 108381" d="M996.851,3649.291h3.37v3.37h-3.37Z" fill="#855db5"/>
        <path id="Trazado_108382" data-name="Trazado 108382" d="M996.851,3662.773h3.37v3.371h-3.37Z" fill="#855db5"/>
        <path id="Trazado_108383" data-name="Trazado 108383" d="M996.851,3656.033h3.37v3.37h-3.37Z" fill="#855db5"/>
        <path id="Trazado_108384" data-name="Trazado 108384" d="M996.851,3669.516h3.37v1.859h-3.37Z" fill="#855db5"/>
        <path id="Trazado_108385" data-name="Trazado 108385" d="M996.851,3635.808h3.37v3.37h-3.37Z" fill="#855db5"/>
        <path id="Trazado_108386" data-name="Trazado 108386" d="M901.263,3721.17l-2.918-1.685,1.686-2.92,2.918,1.685Z" fill="#855db5"/>
        <path id="Trazado_108387" data-name="Trazado 108387" d="M889.582,3714.431l-2.918-1.685,1.686-2.92,2.918,1.685Z" fill="#855db5"/>
        <path id="Trazado_108388" data-name="Trazado 108388" d="M895.356,3717.786l-2.919-1.685,1.685-2.919,2.919,1.685Z" fill="#855db5"/>
        <path id="Trazado_108389" data-name="Trazado 108389" d="M907.072,3724.535l-2.921-1.686,1.686-2.92,2.921,1.686Z" fill="#855db5"/>
        <path id="Trazado_108390" data-name="Trazado 108390" d="M883.714,3711.054l-2.92-1.686,1.686-2.92,2.92,1.686Z" fill="#855db5"/>
        <path id="Trazado_108391" data-name="Trazado 108391" d="M859.349,3662.569h3.371v3.37h-3.371Z" fill="#855db5"/>
        <path id="Trazado_108392" data-name="Trazado 108392" d="M859.349,3655.828h3.371v3.37h-3.371Z" fill="#855db5"/>
        <path id="Trazado_108393" data-name="Trazado 108393" d="M859.349,3669.311h3.371v3.37h-3.371Z" fill="#855db5"/>
        <path id="Trazado_108394" data-name="Trazado 108394" d="M859.349,3642.343h3.371v3.371h-3.371Z" fill="#855db5"/>
        <path id="Trazado_108395" data-name="Trazado 108395" d="M859.349,3649.086h3.371v3.37h-3.371Z" fill="#855db5"/>
        <path id="Trazado_108396" data-name="Trazado 108396" d="M958.56,3721.052l-1.685-2.919,2.919-1.685,1.685,2.919Z" fill="#855db5"/>
        <path id="Trazado_108397" data-name="Trazado 108397" d="M952.724,3724.422l-1.685-2.919,2.918-1.685,1.686,2.919Z" fill="#855db5"/>
        <path id="Trazado_108398" data-name="Trazado 108398" d="M976.034,3710.924l-1.686-2.92,2.92-1.686,1.686,2.92Z" fill="#855db5"/>
        <path id="Trazado_108399" data-name="Trazado 108399" d="M964.379,3717.673l-1.685-2.919,2.92-1.686,1.685,2.919Z" fill="#855db5"/>
        <path id="Trazado_108400" data-name="Trazado 108400" d="M970.2,3714.295l-1.686-2.92,2.92-1.686,1.686,2.92Z" fill="#855db5"/>
        <path id="Trazado_108401" data-name="Trazado 108401" d="M976.095,3601.719l-1.686,2.92-1.451-.838,1.686-2.92Z" fill="#855db5"/>
        <path id="Trazado_108402" data-name="Trazado 108402" d="M952.54,3592.008l-2.92-1.686,1.686-2.921,2.92,1.686Z" fill="#855db5"/>
        <path id="Trazado_108403" data-name="Trazado 108403" d="M958.379,3595.379l-2.92-1.686,1.686-2.92,2.92,1.686Z" fill="#855db5"/>
        <path id="Trazado_108404" data-name="Trazado 108404" d="M971.746,3599.22l-1.685,2.918-2.919-1.685,1.685-2.918Z" fill="#855db5"/>
        <path id="Trazado_108405" data-name="Trazado 108405" d="M964.2,3598.77l-2.918-1.685,1.685-2.919,2.919,1.686Z" fill="#855db5"/>
        <path id="Trazado_108406" data-name="Trazado 108406" d="M944.641,3669.319h-32.41v3.371h35.781v-31.9h-3.371Z" fill="#855db5"/>
        <path id="Trazado_108407" data-name="Trazado 108407" d="M934.916,3649.834v2.566h3.37v-8.32h-8.321v3.37h2.567l-16.319,16.32,2.383,2.383Z" fill="#855db5"/>
      </g>
    </g>
  </g>
</svg>
