<svg xmlns="http://www.w3.org/2000/svg" width="102" height="102" viewBox="0 0 102 102">
  <g id="Grupo_56712" data-name="Grupo 56712" transform="translate(-589.057 -108.686)">
    <g id="Grupo_56734" data-name="Grupo 56734">
      <g id="Grupo_56733" data-name="Grupo 56733">
        <g id="Grupo_56731" data-name="Grupo 56731">
          <path id="Trazado_105025" data-name="Trazado 105025" d="M665.815,192.9H619.631a2.711,2.711,0,0,1-2.71-2.711V124.575a2.71,2.71,0,0,1,2.71-2.71h46.184a2.71,2.71,0,0,1,2.71,2.71v65.609A2.71,2.71,0,0,1,665.815,192.9Z" fill="#c595ff"/>
          <path id="Trazado_105026" data-name="Trazado 105026" d="M660.482,198.227H614.3a2.71,2.71,0,0,1-2.71-2.71V129.908a2.71,2.71,0,0,1,2.71-2.71h46.184a2.71,2.71,0,0,1,2.71,2.71v65.609A2.71,2.71,0,0,1,660.482,198.227Z" fill="#dcbfff"/>
          <path id="Trazado_105027" data-name="Trazado 105027" d="M660.482,127.2h-5.663a2.71,2.71,0,0,1,2.71,2.71v65.609a2.71,2.71,0,0,1-2.71,2.71h5.663a2.71,2.71,0,0,0,2.71-2.71V129.908a2.71,2.71,0,0,0-2.71-2.71Z" fill="#c595ff"/>
          <g id="Grupo_56725" data-name="Grupo 56725">
            <g id="Grupo_56722" data-name="Grupo 56722">
              <path id="Trazado_105028" data-name="Trazado 105028" d="M656.457,139.505h-14.9a1.072,1.072,0,0,1,0-2.144h14.9a1.072,1.072,0,1,1,0,2.144Z" fill="#855db5"/>
            </g>
            <g id="Grupo_56723" data-name="Grupo 56723">
              <path id="Trazado_105029" data-name="Trazado 105029" d="M656.457,144.519h-14.9a1.072,1.072,0,0,1,0-2.144h14.9a1.072,1.072,0,1,1,0,2.144Z" fill="#855db5"/>
            </g>
            <g id="Grupo_56724" data-name="Grupo 56724">
              <path id="Trazado_105030" data-name="Trazado 105030" d="M656.457,149.533h-14.9a1.072,1.072,0,0,1,0-2.144h14.9a1.072,1.072,0,1,1,0,2.144Z" fill="#855db5"/>
            </g>
          </g>
          <g id="Grupo_56726" data-name="Grupo 56726">
            <path id="Trazado_105031" data-name="Trazado 105031" d="M656.457,177.517h-13.85a1.072,1.072,0,1,1,0-2.144h13.85a1.072,1.072,0,1,1,0,2.144Z" fill="#855db5"/>
          </g>
          <g id="Grupo_56727" data-name="Grupo 56727">
            <path id="Trazado_105032" data-name="Trazado 105032" d="M633.223,167.057h-14.9a1.072,1.072,0,1,1,0-2.143h14.9a1.072,1.072,0,0,1,0,2.143Z" fill="#855db5"/>
          </g>
          <g id="Grupo_56728" data-name="Grupo 56728">
            <path id="Trazado_105033" data-name="Trazado 105033" d="M633.223,162.043h-14.9a1.072,1.072,0,0,1,0-2.144h14.9a1.072,1.072,0,0,1,0,2.144Z" fill="#855db5"/>
          </g>
          <path id="Trazado_105034" data-name="Trazado 105034" d="M627.209,133.034v9.957h9.957a9.957,9.957,0,0,0-9.957-9.957Z" fill="#bb83ff"/>
          <path id="Trazado_105035" data-name="Trazado 105035" d="M627.209,133.034a9.957,9.957,0,1,0,9.957,9.957h-9.957Z" fill="#c595ff"/>
          <path id="Trazado_105036" data-name="Trazado 105036" d="M656.814,169.338h-17.9a.715.715,0,0,1-.715-.715v-10.29a.715.715,0,0,1,.715-.714h17.9a.715.715,0,0,1,.715.714v10.29A.715.715,0,0,1,656.814,169.338Z" fill="#a271dc"/>
          <path id="Trazado_105037" data-name="Trazado 105037" d="M621.1,190.563h-3.131a.715.715,0,0,1-.715-.714V174.218a.715.715,0,0,1,.715-.715H621.1a.715.715,0,0,1,.715.715v15.631A.715.715,0,0,1,621.1,190.563Z" fill="#fff"/>
          <path id="Trazado_105038" data-name="Trazado 105038" d="M629.6,190.563h-3.131a.714.714,0,0,1-.714-.714v-11.53a.714.714,0,0,1,.714-.715H629.6a.715.715,0,0,1,.715.715v11.53a.715.715,0,0,1-.715.714Z" fill="#fff"/>
          <path id="Trazado_105039" data-name="Trazado 105039" d="M638.113,190.563h-3.131a.715.715,0,0,1-.715-.714v-6.421a.715.715,0,0,1,.715-.714h3.131a.715.715,0,0,1,.715.714v6.421A.715.715,0,0,1,638.113,190.563Z" fill="#fff"/>
          <g id="Grupo_56729" data-name="Grupo 56729">
            <path id="Trazado_105040" data-name="Trazado 105040" d="M656.457,182.783h-13.85a1.072,1.072,0,1,1,0-2.144h13.85a1.072,1.072,0,1,1,0,2.144Z" fill="#855db5"/>
          </g>
          <g id="Grupo_56730" data-name="Grupo 56730">
            <path id="Trazado_105041" data-name="Trazado 105041" d="M656.457,188.05h-13.85a1.072,1.072,0,1,1,0-2.144h13.85a1.072,1.072,0,1,1,0,2.144Z" fill="#855db5"/>
          </g>
        </g>
        <g id="Grupo_56732" data-name="Grupo 56732">
          <path id="Trazado_105042" data-name="Trazado 105042" d="M641.558,139.5h14.9a1.072,1.072,0,1,0,0-2.143h-14.9a1.072,1.072,0,1,0,0,2.143Z" fill="#855db5"/>
          <path id="Trazado_105043" data-name="Trazado 105043" d="M640.486,143.447a1.072,1.072,0,0,0,1.072,1.072h14.9a1.072,1.072,0,1,0,0-2.144h-14.9A1.072,1.072,0,0,0,640.486,143.447Z" fill="#855db5"/>
          <path id="Trazado_105044" data-name="Trazado 105044" d="M641.558,149.533h14.9a1.072,1.072,0,1,0,0-2.144h-14.9a1.072,1.072,0,0,0,0,2.144Z" fill="#855db5"/>
          <path id="Trazado_105045" data-name="Trazado 105045" d="M657.529,176.445a1.072,1.072,0,0,0-1.072-1.072h-13.85a1.072,1.072,0,1,0,0,2.144h13.85A1.072,1.072,0,0,0,657.529,176.445Z" fill="#855db5"/>
          <path id="Trazado_105046" data-name="Trazado 105046" d="M634.295,165.985a1.071,1.071,0,0,0-1.072-1.071h-14.9a1.072,1.072,0,1,0,0,2.143h14.9A1.072,1.072,0,0,0,634.295,165.985Z" fill="#855db5"/>
          <path id="Trazado_105047" data-name="Trazado 105047" d="M618.324,162.043h14.9a1.072,1.072,0,0,0,0-2.144h-14.9a1.072,1.072,0,0,0,0,2.144Z" fill="#855db5"/>
          <path id="Trazado_105048" data-name="Trazado 105048" d="M627.209,131.882a11.108,11.108,0,1,0,11.109,11.109,11.122,11.122,0,0,0-11.109-11.109Zm0,19.913a8.8,8.8,0,0,1-1.152-17.533v8.729a1.152,1.152,0,0,0,1.152,1.152h8.729A8.818,8.818,0,0,1,627.209,151.795Zm1.153-9.957v-7.576a8.821,8.821,0,0,1,7.576,7.576Z" fill="#855db5"/>
          <path id="Trazado_105049" data-name="Trazado 105049" d="M637.048,158.334v10.29a1.87,1.87,0,0,0,1.867,1.867h17.9a1.869,1.869,0,0,0,1.867-1.867v-10.29a1.868,1.868,0,0,0-1.867-1.867h-17.9a1.868,1.868,0,0,0-1.867,1.867Zm2.305.437h17.023v9.415H639.353Z" fill="#855db5"/>
          <path id="Trazado_105050" data-name="Trazado 105050" d="M616.1,189.849a1.87,1.87,0,0,0,1.867,1.867H621.1a1.87,1.87,0,0,0,1.867-1.867V174.217a1.869,1.869,0,0,0-1.867-1.866h-3.131a1.868,1.868,0,0,0-1.867,1.866Zm2.305-15.194h2.255v14.756h-2.255Z" fill="#855db5"/>
          <path id="Trazado_105051" data-name="Trazado 105051" d="M626.474,176.452a1.869,1.869,0,0,0-1.867,1.867v11.53a1.87,1.87,0,0,0,1.867,1.867H629.6a1.869,1.869,0,0,0,1.867-1.867v-11.53a1.868,1.868,0,0,0-1.867-1.867Zm2.694,12.959h-2.256V178.757h2.256Z" fill="#855db5"/>
          <path id="Trazado_105052" data-name="Trazado 105052" d="M634.982,191.716h3.131a1.87,1.87,0,0,0,1.867-1.867v-6.421a1.869,1.869,0,0,0-1.867-1.866h-3.131a1.868,1.868,0,0,0-1.867,1.866v6.421A1.869,1.869,0,0,0,634.982,191.716Zm.438-7.85h2.255v5.545H635.42Z" fill="#855db5"/>
          <path id="Trazado_105053" data-name="Trazado 105053" d="M656.457,180.639h-13.85a1.072,1.072,0,1,0,0,2.144h13.85a1.072,1.072,0,1,0,0-2.144Z" fill="#855db5"/>
          <path id="Trazado_105054" data-name="Trazado 105054" d="M656.457,185.906h-13.85a1.072,1.072,0,1,0,0,2.144h13.85a1.072,1.072,0,1,0,0-2.144Z" fill="#855db5"/>
          <path id="Trazado_105055" data-name="Trazado 105055" d="M668.525,135a1.152,1.152,0,0,0,1.153-1.152v-9.273a3.867,3.867,0,0,0-3.863-3.862H619.631a3.866,3.866,0,0,0-3.862,3.862v1.471H614.3a3.866,3.866,0,0,0-3.862,3.862v49.369a1.153,1.153,0,1,0,2.305,0V129.908a1.56,1.56,0,0,1,1.557-1.558h46.184a1.56,1.56,0,0,1,1.558,1.558v65.609a1.56,1.56,0,0,1-1.558,1.558H614.3a1.56,1.56,0,0,1-1.557-1.558V184.655a1.153,1.153,0,0,0-2.305,0v10.862a3.867,3.867,0,0,0,3.862,3.863h46.184a3.867,3.867,0,0,0,3.863-3.863v-1.47h1.47a3.867,3.867,0,0,0,3.863-3.863V139.225a1.152,1.152,0,0,0-2.3,0v50.959a1.56,1.56,0,0,1-1.558,1.558h-1.47V129.908a3.867,3.867,0,0,0-3.863-3.862H618.074v-1.471a1.56,1.56,0,0,1,1.557-1.558h46.184a1.56,1.56,0,0,1,1.558,1.558v9.273A1.152,1.152,0,0,0,668.525,135Z" fill="#855db5"/>
        </g>
      </g>
    </g>
    <rect id="Rectángulo_5525" data-name="Rectángulo 5525" width="102" height="102" transform="translate(589.057 108.686)" fill="none"/>
  </g>
</svg>
