<svg xmlns="http://www.w3.org/2000/svg" width="102" height="102" viewBox="0 0 102 102">
  <g id="Grupo_56712" data-name="Grupo 56712" transform="translate(-589.211 -44.77)">
    <path id="Trazado_105095" data-name="Trazado 105095" d="M678.227,72.53v59a2.63,2.63,0,0,1-2.622,2.623H631.027a2.631,2.631,0,0,1-2.622-2.623V60.73a2.63,2.63,0,0,1,2.622-2.622H663.8v11.8a2.63,2.63,0,0,0,2.622,2.622Z" fill="#eadefc"/>
    <path id="Trazado_105096" data-name="Trazado 105096" d="M678.227,72.53v59a2.63,2.63,0,0,1-2.622,2.623h-5.244a2.631,2.631,0,0,0,2.622-2.623v-59Z" fill="#c595ff"/>
    <path id="Trazado_105097" data-name="Trazado 105097" d="M678.227,72.53h-11.8a2.63,2.63,0,0,1-2.622-2.622v-11.8Z" fill="#dcbfff"/>
    <circle id="Elipse_4055" data-name="Elipse 4055" cx="10.489" cy="10.489" r="10.489" transform="translate(652.005 107.93)" fill="#dcbfff"/>
    <path id="Trazado_105098" data-name="Trazado 105098" d="M659.872,90.886H633.649V64.663A26.216,26.216,0,0,1,659.872,90.87Z" fill="#dcbfff"/>
    <path id="Trazado_105099" data-name="Trazado 105099" d="M672.983,118.419a10.489,10.489,0,0,1-10.489,10.489,10.733,10.733,0,0,1-2.622-.328,10.5,10.5,0,0,0,0-20.322,10.831,10.831,0,0,1,2.622-.328A10.489,10.489,0,0,1,672.983,118.419Z" fill="#c595ff"/>
    <path id="Trazado_105100" data-name="Trazado 105100" d="M659.872,90.886h-5.245a26.221,26.221,0,0,0-20.978-25.7v-.525A26.216,26.216,0,0,1,659.872,90.87Z" fill="#c595ff"/>
    <path id="Trazado_105101" data-name="Trazado 105101" d="M628.405,96.13h26.222a26.222,26.222,0,0,1-44.761,18.539Z" fill="#c595ff"/>
    <path id="Trazado_105102" data-name="Trazado 105102" d="M628.405,69.908V96.13l-18.539,18.539a26.221,26.221,0,0,1,18.539-44.761Z" fill="#dcbfff"/>
    <path id="Trazado_105103" data-name="Trazado 105103" d="M679.158,71.6,664.736,57.177a1.349,1.349,0,0,0-.931-.38H631.027a3.943,3.943,0,0,0-3.933,3.933v7.932a27.5,27.5,0,0,0,0,54.936v7.932a3.945,3.945,0,0,0,3.933,3.934H675.6a3.946,3.946,0,0,0,3.934-3.934v-59A1.354,1.354,0,0,0,679.158,71.6ZM665.116,61.268l9.952,9.951h-8.641a1.311,1.311,0,0,1-1.311-1.311ZM603.494,96.13a24.941,24.941,0,0,1,23.6-24.872V95.593l-17.176,17.175a24.751,24.751,0,0,1-6.424-16.638Zm8.273,18.487,17.175-17.176h24.335a24.862,24.862,0,0,1-41.51,17.176Zm65.149,16.913a1.311,1.311,0,0,1-1.311,1.312H631.027a1.311,1.311,0,0,1-1.311-1.312V123.6A27.55,27.55,0,0,0,655.938,96.13a1.311,1.311,0,0,0-1.311-1.311H629.716V60.73a1.311,1.311,0,0,1,1.311-1.311h31.467V69.908a3.945,3.945,0,0,0,3.933,3.933h10.489Z" fill="#855db5"/>
    <path id="Trazado_105104" data-name="Trazado 105104" d="M633.649,63.352a1.311,1.311,0,0,0-1.311,1.311V90.886a1.311,1.311,0,0,0,1.311,1.311h26.223a1.311,1.311,0,0,0,1.311-1.311A27.564,27.564,0,0,0,633.649,63.352Zm1.311,26.223V66.014a24.933,24.933,0,0,1,23.561,23.561Z" fill="#855db5"/>
    <path id="Trazado_105105" data-name="Trazado 105105" d="M662.494,106.619a11.8,11.8,0,1,0,11.8,11.8A11.8,11.8,0,0,0,662.494,106.619Zm0,20.978a9.178,9.178,0,1,1,9.178-9.178A9.178,9.178,0,0,1,662.494,127.6Z" fill="#855db5"/>
    <path id="Trazado_105106" data-name="Trazado 105106" d="M659.872,120.5l-3.007-3.007-1.854,1.854,3.934,3.934a1.313,1.313,0,0,0,1.854,0l7.866-7.867-1.853-1.854Z" fill="#855db5"/>
    <path id="Trazado_105107" data-name="Trazado 105107" d="M663.8,79.086h10.489v2.622H663.8Z" fill="#855db5"/>
    <path id="Trazado_105108" data-name="Trazado 105108" d="M663.8,86.952h10.489v2.623H663.8Z" fill="#855db5"/>
    <path id="Trazado_105109" data-name="Trazado 105109" d="M663.8,94.819h10.489v2.622H663.8Z" fill="#855db5"/>
    <rect id="Rectángulo_5525" data-name="Rectángulo 5525" width="102" height="102" transform="translate(589.211 44.77)" fill="none"/>
  </g>
</svg>
