<svg xmlns="http://www.w3.org/2000/svg" width="201" height="199" viewBox="0 0 201 199">
  <g id="Grupo_59798" data-name="Grupo 59798" transform="translate(-72.193 -75.357)">
    <g id="Grupo_59721" data-name="Grupo 59721" transform="translate(87.877 91.712)">
      <g id="Grupo_59720" data-name="Grupo 59720" transform="translate(13.286 12.338)">
        <path id="Trazado_108075" data-name="Trazado 108075" d="M222.107,2805.384a71.192,71.192,0,1,1,71.177-71.191A71.265,71.265,0,0,1,222.107,2805.384Zm0-137.219a66.028,66.028,0,1,0,66.015,66.028A66.1,66.1,0,0,0,222.107,2668.165Z" transform="translate(-150.93 -2663.001)" fill="#dcbfff"/>
        <path id="Trazado_108076" data-name="Trazado 108076" d="M222.893,2805.384c-10.651,0-20.531-7.627-27.82-21.475-7.012-13.322-10.875-30.979-10.875-49.717s3.862-36.394,10.875-49.718c7.29-13.848,17.169-21.474,27.82-21.474s20.531,7.626,27.819,21.474c7.013,13.323,10.876,30.98,10.876,49.718s-3.862,36.395-10.876,49.717C243.424,2797.757,233.543,2805.384,222.893,2805.384Zm0-137.219c-8.642,0-16.9,6.646-23.253,18.716-6.63,12.594-10.279,29.4-10.279,47.312s3.65,34.716,10.279,47.313c6.354,12.068,14.611,18.715,23.253,18.715s16.9-6.646,23.252-18.715c6.629-12.6,10.28-29.4,10.28-47.312s-3.651-34.718-10.28-47.312C239.792,2674.811,231.535,2668.165,222.893,2668.165Z" transform="translate(-151.716 -2663.001)" fill="#dcbfff"/>
        <path id="Trazado_108077" data-name="Trazado 108077" d="M222.107,2772.756c-18.725,0-36.368-3.76-49.682-10.586-13.86-7.108-21.495-16.755-21.495-27.168s7.634-20.062,21.495-27.167c13.314-6.827,30.957-10.587,49.682-10.587s36.368,3.76,49.682,10.587c13.86,7.106,21.495,16.755,21.495,27.167s-7.634,20.06-21.495,27.168C258.475,2769,240.831,2772.756,222.107,2772.756Zm0-70.345c-17.921,0-34.728,3.557-47.327,10.017-12.05,6.179-18.688,14.2-18.688,22.574s6.637,16.394,18.688,22.573c12.6,6.46,29.406,10.017,47.327,10.017s34.728-3.557,47.327-10.017c12.05-6.179,18.688-14.2,18.688-22.573s-6.637-16.4-18.688-22.574C256.836,2705.968,240.028,2702.411,222.107,2702.411Z" transform="translate(-150.93 -2663.81)" fill="#dcbfff"/>
        <path id="Trazado_108078" data-name="Trazado 108078" d="M223.768,2805.384a2.583,2.583,0,0,1-2.582-2.582V2665.583a2.581,2.581,0,1,1,5.163,0V2802.8A2.583,2.583,0,0,1,223.768,2805.384Z" transform="translate(-152.591 -2663.001)" fill="#dcbfff"/>
        <path id="Trazado_108079" data-name="Trazado 108079" d="M290.7,2738.435H153.512a2.581,2.581,0,1,1,0-5.163H290.7a2.581,2.581,0,0,1,0,5.163Z" transform="translate(-150.93 -2664.662)" fill="#dcbfff"/>
      </g>
      <path id="Trazado_108080" data-name="Trazado 108080" d="M247.42,2796.116a24.176,24.176,0,1,1-24.175-24.176A24.088,24.088,0,0,1,247.42,2796.116Z" transform="translate(-138.782 -2653.238)" fill="#b4e173"/>
      <path id="Trazado_108081" data-name="Trazado 108081" d="M247.9,2796.115a24.066,24.066,0,0,1-6.422,16.4l0,0c-.275.3-.557.587-.846.874a24.07,24.07,0,0,1-16.9,6.9h0c-.217,0-.437,0-.653-.011-.155,0-.31-.006-.466-.017s-.292-.013-.44-.024c-.068,0-.139-.007-.206-.014a24.379,24.379,0,0,1-2.633-.344,24.172,24.172,0,0,0,0-47.538,24.144,24.144,0,0,1,28.574,23.768Z" transform="translate(-139.26 -2653.238)" fill="#a7d16c"/>
      <path id="Trazado_108082" data-name="Trazado 108082" d="M241.154,2813.19a24.161,24.161,0,0,1-35.508,0,18.579,18.579,0,0,1,35.508,0Z" transform="translate(-138.937 -2653.903)" fill="#87b45f"/>
      <path id="Trazado_108083" data-name="Trazado 108083" d="M231.019,2792.355a7.368,7.368,0,1,1-7.368-7.369A7.367,7.367,0,0,1,231.019,2792.355Z" transform="translate(-139.189 -2653.546)" fill="#fff"/>
      <path id="Trazado_108084" data-name="Trazado 108084" d="M309.167,2735.33a24.175,24.175,0,1,1-24.173-24.177A24.087,24.087,0,0,1,309.167,2735.33Z" transform="translate(-140.241 -2651.801)" fill="#f5dcaa"/>
      <path id="Trazado_108085" data-name="Trazado 108085" d="M309.646,2735.33a24.181,24.181,0,0,1-24.173,24.177c-.221,0-.437,0-.654-.01-.158,0-.316-.007-.472-.018s-.3-.014-.447-.024c-.245-.014-.485-.034-.726-.058q-1.062-.1-2.1-.3a24.175,24.175,0,0,0,0-47.542,24.465,24.465,0,0,1,4.4-.406A24.177,24.177,0,0,1,309.646,2735.33Z" transform="translate(-140.72 -2651.801)" fill="#ebc89b"/>
      <path id="Trazado_108086" data-name="Trazado 108086" d="M302.9,2752.4a24.166,24.166,0,0,1-35.505,0,18.577,18.577,0,0,1,35.505,0Z" transform="translate(-140.397 -2652.466)" fill="#ffb96a"/>
      <path id="Trazado_108087" data-name="Trazado 108087" d="M292.768,2731.567a7.369,7.369,0,1,1-7.369-7.368A7.368,7.368,0,0,1,292.768,2731.567Z" transform="translate(-140.648 -2652.109)" fill="#fff"/>
      <path id="Trazado_108088" data-name="Trazado 108088" d="M185.671,2735.33a24.175,24.175,0,1,1-24.173-24.177A24.087,24.087,0,0,1,185.671,2735.33Z" transform="translate(-137.322 -2651.801)" fill="#faccff"/>
      <path id="Trazado_108089" data-name="Trazado 108089" d="M186.149,2735.33a24.178,24.178,0,0,1-24.172,24.177c-.218,0-.436,0-.654-.01-.155,0-.313-.007-.469-.018s-.3-.014-.451-.024c-.24-.014-.477-.034-.715-.058-.713-.069-1.418-.169-2.11-.3a24.176,24.176,0,0,0,0-47.542,24.158,24.158,0,0,1,28.57,23.771Z" transform="translate(-137.801 -2651.801)" fill="#f9a1ff"/>
      <path id="Trazado_108090" data-name="Trazado 108090" d="M179.405,2752.4a24.16,24.16,0,0,1-35.505,0,18.577,18.577,0,0,1,35.505,0Z" transform="translate(-137.478 -2652.466)" fill="#ff6469"/>
      <path id="Trazado_108091" data-name="Trazado 108091" d="M241.478,2813.332a24.186,24.186,0,0,1-22.042,7.39c-.041-.01-.076-.021-.11-.027a24.2,24.2,0,0,0,17.964-14.584A18.553,18.553,0,0,1,241.478,2813.332Z" transform="translate(-139.26 -2654.046)" fill="#709e43"/>
      <path id="Trazado_108092" data-name="Trazado 108092" d="M303.224,2752.546a24.189,24.189,0,0,1-22.094,7.378.355.355,0,0,0-.06-.015,24.2,24.2,0,0,0,17.965-14.584A18.591,18.591,0,0,1,303.224,2752.546Z" transform="translate(-140.72 -2652.609)" fill="#ff9650"/>
      <path id="Trazado_108093" data-name="Trazado 108093" d="M179.729,2752.546a24.217,24.217,0,0,1-22.109,7.378.192.192,0,0,0-.041-.015,24.2,24.2,0,0,0,17.961-14.584A18.507,18.507,0,0,1,179.729,2752.546Z" transform="translate(-137.801 -2652.609)" fill="#d2555f"/>
      <path id="Trazado_108094" data-name="Trazado 108094" d="M169.272,2731.567a7.368,7.368,0,1,1-7.368-7.368A7.368,7.368,0,0,1,169.272,2731.567Z" transform="translate(-137.729 -2652.109)" fill="#fff"/>
      <path id="Trazado_108095" data-name="Trazado 108095" d="M247.42,2674.543a24.176,24.176,0,1,1-24.175-24.177A24.085,24.085,0,0,1,247.42,2674.543Z" transform="translate(-138.782 -2650.364)" fill="#71d8fd"/>
      <path id="Trazado_108096" data-name="Trazado 108096" d="M247.9,2674.544a24.07,24.07,0,0,1-6.422,16.4h0c-.275.3-.557.59-.846.874a24.069,24.069,0,0,1-16.9,6.9h0c-.217,0-.437,0-.653-.01-.155,0-.31-.008-.466-.019s-.292-.013-.44-.022c-.068,0-.139-.008-.206-.015a24.94,24.94,0,0,1-2.633-.344,24.173,24.173,0,0,0,0-47.539,24.143,24.143,0,0,1,28.574,23.771Z" transform="translate(-139.26 -2650.364)" fill="#60c3f7"/>
      <path id="Trazado_108097" data-name="Trazado 108097" d="M241.154,2691.618a24.163,24.163,0,0,1-35.5,0,18.576,18.576,0,0,1,35.5,0Z" transform="translate(-138.937 -2651.029)" fill="#54a1ff"/>
      <path id="Trazado_108098" data-name="Trazado 108098" d="M241.478,2691.761a24.178,24.178,0,0,1-22.094,7.377.361.361,0,0,0-.059-.013,24.2,24.2,0,0,0,17.964-14.585A18.557,18.557,0,0,1,241.478,2691.761Z" transform="translate(-139.26 -2651.172)" fill="#4a7fdd"/>
      <path id="Trazado_108099" data-name="Trazado 108099" d="M231.019,2670.781a7.368,7.368,0,1,1-7.368-7.368A7.368,7.368,0,0,1,231.019,2670.781Z" transform="translate(-139.189 -2650.672)" fill="#fff"/>
      <path id="Trazado_108100" data-name="Trazado 108100" d="M235.45,2754.778h-24.18a7.321,7.321,0,0,1-7.322-7.321v-24.188a7.32,7.32,0,0,1,7.322-7.32h24.18a7.319,7.319,0,0,1,7.32,7.32v24.188A7.32,7.32,0,0,1,235.45,2754.778Z" transform="translate(-138.897 -2651.914)" fill="#54a1ff"/>
      <path id="Trazado_108101" data-name="Trazado 108101" d="M236.446,2716.026a7.553,7.553,0,0,1,.074.993,31.5,31.5,0,0,1-31.5,31.507,7.271,7.271,0,0,1-.993-.076,7.317,7.317,0,0,0,7.245,6.33h24.181a7.321,7.321,0,0,0,7.32-7.322v-24.186A7.317,7.317,0,0,0,236.446,2716.026Z" transform="translate(-138.899 -2651.916)" fill="#3879e3"/>
      <path id="Trazado_108102" data-name="Trazado 108102" d="M226.349,2754.963V2730.01a1.1,1.1,0,0,1,1.095-1.094h4.584a2.581,2.581,0,0,0,0-5.163h-4.584a6.265,6.265,0,0,0-6.258,6.257v24.953Z" transform="translate(-139.304 -2652.099)" fill="#e4eaf7"/>
      <path id="Trazado_108103" data-name="Trazado 108103" d="M229.732,2739.023h-5.965a2.581,2.581,0,0,1,0-5.163h5.965a2.581,2.581,0,1,1,0,5.163Z" transform="translate(-139.304 -2652.337)" fill="#e4eaf7"/>
    </g>
    <rect id="Rectángulo_6365" data-name="Rectángulo 6365" width="201" height="199" transform="translate(72.193 75.357)" fill="none"/>
  </g>
</svg>
