<svg xmlns="http://www.w3.org/2000/svg" width="201" height="199" viewBox="0 0 201 199">
  <g id="Grupo_59813" data-name="Grupo 59813" transform="translate(-72.193 -75.357)">
    <rect id="Rectángulo_6365" data-name="Rectángulo 6365" width="201" height="199" transform="translate(72.193 75.357)" fill="none"/>
    <g id="Grupo_59814" data-name="Grupo 59814" transform="translate(-445.135 -2316.775)">
      <path id="Trazado_108039" data-name="Trazado 108039" d="M726.956,2512.18l-40.324-14.4v-89.289l40.324,14.4Z" transform="translate(-25.599)" fill="#a271dc"/>
      <path id="Trazado_108040" data-name="Trazado 108040" d="M574.624,2497.777l-40.325,14.4v-89.29l40.325-14.4Z" fill="#bb83ff"/>
      <path id="Trazado_108041" data-name="Trazado 108041" d="M589.693,2408.488h74.889v89.289H589.693Z" transform="translate(-9.309)" fill="#c595ff"/>
      <path id="Trazado_108042" data-name="Trazado 108042" d="M622.424,2477.658l-2.722,7.475a31.716,31.716,0,0,1-21.889-39.15q.412-1.459.963-2.874l7.388,2.863a23.778,23.778,0,0,0,16.26,31.687Z" transform="translate(-10.471 -5.818)" fill="#3a69ff"/>
      <path id="Trazado_108043" data-name="Trazado 108043" d="M657.4,2432.727a31.694,31.694,0,0,1-33.037,50.661l2.722-7.474a23.767,23.767,0,0,0,24.205-38.154Z" transform="translate(-15.135 -4.073)" fill="#21949d"/>
      <path id="Trazado_108044" data-name="Trazado 108044" d="M657.4,2430.4l-6.11,5.033a23.786,23.786,0,0,0-24.162-7.913v0l-2.773-7.457A31.714,31.714,0,0,1,657.4,2430.4Z" transform="translate(-15.134 -1.745)" fill="#95f7ff"/>
      <path id="Trazado_108045" data-name="Trazado 108045" d="M622.9,2427.755v0a23.8,23.8,0,0,0-16.3,14.38l-7.388-2.863a31.757,31.757,0,0,1,20.918-18.978Z" transform="translate(-10.909 -1.985)" fill="#2ab9c4"/>
      <path id="Trazado_108046" data-name="Trazado 108046" d="M671.91,2416.562h-2.88a1.44,1.44,0,0,1,0-2.881h2.88a1.44,1.44,0,0,1,0,2.881Z" transform="translate(-22.399 -0.873)" fill="#154dfc"/>
      <path id="Trazado_108047" data-name="Trazado 108047" d="M671.91,2423.487h-2.88a1.44,1.44,0,0,1,0-2.881h2.88a1.44,1.44,0,0,1,0,2.881Z" transform="translate(-22.399 -2.036)" fill="#154dfc"/>
      <path id="Trazado_108048" data-name="Trazado 108048" d="M567.9,2441.189l-5.4,24.843a1.44,1.44,0,0,1-2.7.338l-4.019-8.04-4.817,19.266a1.441,1.441,0,0,1-2.595.45l-3.74-5.611-2.282,13.689a1.44,1.44,0,0,1-2.841-.473l2.88-17.282a1.441,1.441,0,0,1,2.619-.563l3.954,5.933,4.972-19.884a1.441,1.441,0,0,1,2.686-.3l3.932,7.867,4.533-20.85Z" transform="translate(-0.873 -5.392)" fill="#dcbfff"/>
      <path id="Trazado_108049" data-name="Trazado 108049" d="M568.63,2505.273a1.441,1.441,0,0,1-.5-2.79l5.76-2.16a1.44,1.44,0,0,1,1.052,2.681l-.042.015-5.76,2.16A1.44,1.44,0,0,1,568.63,2505.273Z" transform="translate(-5.527 -15.415)" fill="#dcbfff"/>
      <path id="Trazado_108050" data-name="Trazado 108050" d="M574.025,2446.416a1.437,1.437,0,0,1-1.152-.577l-2.424-3.23-3.186,2.124a1.44,1.44,0,0,1-1.611-2.387l.013-.008,4.32-2.881a1.441,1.441,0,0,1,1.952.334l3.24,4.321a1.44,1.44,0,0,1-1.152,2.3Z" transform="translate(-5.162 -5.163)" fill="#f2444e"/>
      <path id="Trazado_108051" data-name="Trazado 108051" d="M568.63,2512.2a1.44,1.44,0,0,1-.5-2.789l5.76-2.161a1.44,1.44,0,0,1,1.052,2.682l-.042.015-5.76,2.16A1.429,1.429,0,0,1,568.63,2512.2Z" transform="translate(-5.527 -16.579)" fill="#dcbfff"/>
      <g id="Grupo_59715" data-name="Grupo 59715" transform="translate(665.354 2418.57)">
        <path id="Trazado_108052" data-name="Trazado 108052" d="M700.189,2473.229a1.44,1.44,0,0,1-1.44-1.44v-15.122a1.44,1.44,0,0,1,2.88,0v15.122A1.44,1.44,0,0,1,700.189,2473.229Z" transform="translate(-692.989 -2426.424)" fill="#dcbfff"/>
        <path id="Trazado_108053" data-name="Trazado 108053" d="M707.113,2469.212a1.44,1.44,0,0,1-1.44-1.44v-45.725a1.44,1.44,0,1,1,2.88,0v45.725A1.44,1.44,0,0,1,707.113,2469.212Z" transform="translate(-694.152 -2420.606)" fill="#dcbfff"/>
        <path id="Trazado_108054" data-name="Trazado 108054" d="M714.038,2474.862a1.44,1.44,0,0,1-1.44-1.44v-30.6a1.44,1.44,0,0,1,2.88,0v30.6A1.44,1.44,0,0,1,714.038,2474.862Z" transform="translate(-695.316 -2424.097)" fill="#dcbfff"/>
        <path id="Trazado_108055" data-name="Trazado 108055" d="M720.962,2475.277a1.44,1.44,0,0,1-1.44-1.44v-41.405a1.44,1.44,0,1,1,2.88,0v41.405A1.44,1.44,0,0,1,720.962,2475.277Z" transform="translate(-696.479 -2422.351)" fill="#dcbfff"/>
        <path id="Trazado_108056" data-name="Trazado 108056" d="M693.265,2465.25a1.44,1.44,0,0,1-1.44-1.44v-41.764a1.44,1.44,0,1,1,2.88,0v41.764A1.44,1.44,0,0,1,693.265,2465.25Z" transform="translate(-691.825 -2420.606)" fill="#dcbfff"/>
        <path id="Trazado_108057" data-name="Trazado 108057" d="M727.886,2479.9a1.44,1.44,0,0,1-1.44-1.44v-35.645a1.44,1.44,0,0,1,2.88,0v35.645A1.44,1.44,0,0,1,727.886,2479.9Z" transform="translate(-697.643 -2424.097)" fill="#dcbfff"/>
      </g>
      <path id="Trazado_108058" data-name="Trazado 108058" d="M712.054,2493.411a10.016,10.016,0,0,1,6.841,14.556l-10.73,19.971H679l7.291-29.062-10.247-2.412,2.953-9.732Z" transform="translate(-23.82 -13.148)" fill="#2ab9c4"/>
      <path id="Trazado_108059" data-name="Trazado 108059" d="M673.093,2481.814l-2.952,9.731-5.541-1.3a14.409,14.409,0,0,1-8.954-6.452l-14.74-23.867,9.239-2.459,14.4,22.621Z" transform="translate(-17.915 -8.23)" fill="#ffb3d0"/>
      <path id="Trazado_108060" data-name="Trazado 108060" d="M604.968,2503.114h-8.641a1.44,1.44,0,1,1,0-2.88h8.641a1.44,1.44,0,0,1,0,2.88Z" transform="translate(-10.181 -15.417)" fill="#dcbfff"/>
      <path id="Trazado_108061" data-name="Trazado 108061" d="M604.968,2510.038h-8.641a1.44,1.44,0,1,1,0-2.88h8.641a1.44,1.44,0,0,1,0,2.88Z" transform="translate(-10.181 -16.581)" fill="#dcbfff"/>
      <path id="Trazado_108062" data-name="Trazado 108062" d="M695.091,2562.994l7.291-26.733H673.218l-16.528,11.57a18.227,18.227,0,0,0-7.775,14.933v29.394l-7.29,4.861H663.5v-36.454l15.014-12.512h6.568l-2.3,9.959A18.231,18.231,0,0,0,687.652,2575l17.159,17.159-7.291,4.861h21.872v-4.861Z" transform="translate(-18.035 -21.471)" fill="#0e3e86"/>
      <path id="Trazado_108063" data-name="Trazado 108063" d="M724.458,2500.937a5.256,5.256,0,0,1-.559,7.412,5.162,5.162,0,0,1-.619.458l-7.654,4.84-5.3-9.073,7.323-4.648A5.252,5.252,0,0,1,724.458,2500.937Z" transform="translate(-29.581 -15.227)" fill="#31d9e7"/>
      <path id="Trazado_108064" data-name="Trazado 108064" d="M711.441,2505.149a1.44,1.44,0,0,1-.774-2.656l6.157-3.907a1.44,1.44,0,0,1,1.543,2.432l-6.156,3.907a1.428,1.428,0,0,1-.771.224Z" transform="translate(-29.525 -15.104)" fill="#21949d"/>
      <path id="Trazado_108065" data-name="Trazado 108065" d="M717.958,2515.938a1.44,1.44,0,0,1-.771-2.658l6.365-4.024a1.44,1.44,0,0,1,1.567,2.417l-.028.019-6.364,4.024a1.433,1.433,0,0,1-.768.222Z" transform="translate(-30.62 -16.894)" fill="#21949d"/>
      <circle id="Elipse_4139" data-name="Elipse 4139" cx="25.923" cy="25.923" r="25.923" transform="translate(580.533 2427.601)" fill="#f9e478"/>
      <circle id="Elipse_4140" data-name="Elipse 4140" cx="20.162" cy="20.162" r="20.162" transform="translate(586.294 2433.361)" fill="#83a1ff"/>
      <path id="Trazado_108066" data-name="Trazado 108066" d="M626.98,2447.3a1.424,1.424,0,0,1-.723-.2,14.069,14.069,0,0,0-13.977-.077,1.44,1.44,0,1,1-1.422-2.505,16.965,16.965,0,0,1,16.847.092,1.44,1.44,0,0,1-.726,2.686Z" transform="translate(-12.743 -5.686)" fill="#b4c6ff"/>
      <path id="Trazado_108067" data-name="Trazado 108067" d="M604.558,2454.062a1.44,1.44,0,0,1-1.254-2.146,16.818,16.818,0,0,1,2.29-3.15,1.44,1.44,0,0,1,2.133,1.935l-.016.017a13.868,13.868,0,0,0-1.9,2.611,1.443,1.443,0,0,1-1.257.734Z" transform="translate(-11.565 -6.689)" fill="#b4c6ff"/>
      <path id="Trazado_108068" data-name="Trazado 108068" d="M637.1,2500.458l7.518-4.268,18.5,32.576-7.518,4.268Z" transform="translate(-17.275 -14.738)" fill="#f9e478"/>
      <path id="Trazado_108069" data-name="Trazado 108069" d="M633.472,2490.859l5.012-2.846,4.269,7.518-5.012,2.846Z" transform="translate(-16.665 -13.364)" fill="#d4c266"/>
      <path id="Trazado_108070" data-name="Trazado 108070" d="M704.126,2479.149V2491.5a3.4,3.4,0,0,0,3.4,3.4h0a3.4,3.4,0,0,0,3.4-3.4h0V2478.13Z" transform="translate(-28.538 -11.703)" fill="#ffb3d0"/>
      <path id="Trazado_108071" data-name="Trazado 108071" d="M704.109,2488.326h0v-8.154h4.077v4.077a4.077,4.077,0,0,1-4.077,4.078Z" transform="translate(-28.535 -12.046)" fill="#e67199"/>
      <path id="Trazado_108072" data-name="Trazado 108072" d="M702.607,2485.319a3.4,3.4,0,0,1-3.4-3.4h0V2470.37h9.513v8.833a6.115,6.115,0,0,1-6.116,6.116Z" transform="translate(-27.712 -10.399)" fill="#ffb3d0"/>
      <path id="Trazado_108073" data-name="Trazado 108073" d="M711.433,2477.568v-5.375a5.5,5.5,0,0,0-7.956-4.918l-.214.108a6.358,6.358,0,0,1-2.844.672h-5.293v3.321a4.833,4.833,0,0,0,7.23,4.2L706,2473.49a4.077,4.077,0,0,0,4.076,4.078h1.358Z" transform="translate(-27.026 -9.781)" fill="#0e3e86"/>
      <circle id="Elipse_4141" data-name="Elipse 4141" cx="2.067" cy="2.067" r="2.067" transform="translate(680.302 2465.379)" fill="#ffb3d0"/>
      <path id="Trazado_108074" data-name="Trazado 108074" d="M705.307,2514.719l-10.676,6.747a14.4,14.4,0,0,1-10.776,1.9l-33.8-7.406a1.441,1.441,0,0,1-1.1-1.718l.008-.032,1.8-7.384a1.44,1.44,0,0,1,1.728-1.062l6.189,1.451,1.08-1.437a.72.72,0,0,1,1.192.061l1.335,2.218,24.786,5.8,12.936-8.208Z" transform="translate(-19.261 -16.3)" fill="#ffb3d0"/>
    </g>
  </g>
</svg>
