<svg xmlns="http://www.w3.org/2000/svg" width="201" height="199" viewBox="0 0 201 199">
  <g id="Grupo_59807" data-name="Grupo 59807" transform="translate(-72.193 -75.358)">
    <rect id="Rectángulo_6365" data-name="Rectángulo 6365" width="201" height="199" transform="translate(72.193 75.357)" fill="none"/>
    <g id="Grupo_59808" data-name="Grupo 59808" transform="translate(-768.629 -2308.895)">
      <g id="Grupo_59751" data-name="Grupo 59751" transform="translate(870.822 2443.114)">
        <path id="Trazado_108193" data-name="Trazado 108193" d="M1004.325,2453.749H875.862a5.04,5.04,0,0,0-5.04,5.04v62.918l4.9,3.061h128.748l4.9-3.061v-62.918A5.04,5.04,0,0,0,1004.325,2453.749Z" transform="translate(-870.822 -2453.749)" fill="#855db5"/>
        <path id="Trazado_108194" data-name="Trazado 108194" d="M1047.177,2453.749h-5.115a5.04,5.04,0,0,1,5.04,5.04v65.979h.218l4.9-3.061v-62.918a5.04,5.04,0,0,0-5.04-5.04Z" transform="translate(-913.675 -2453.749)" fill="#855db5"/>
      </g>
      <path id="Trazado_108195" data-name="Trazado 108195" d="M1009.365,2544.39v17.566a5.042,5.042,0,0,1-5.04,5.042H875.862a5.042,5.042,0,0,1-5.04-5.042V2544.39Z" transform="translate(0 -33.317)" fill="#dae7ef"/>
      <path id="Trazado_108196" data-name="Trazado 108196" d="M1047.1,2544.39v17.566a5.042,5.042,0,0,1-5.04,5.042h5.115a5.042,5.042,0,0,0,5.04-5.042V2544.39Z" transform="translate(-42.853 -33.317)" fill="#c1d5e4"/>
      <path id="Trazado_108197" data-name="Trazado 108197" d="M881.232,2524.314v-59.28a.876.876,0,0,1,.876-.876h121.182a.875.875,0,0,1,.875.876v59.28Z" transform="translate(-2.605 -13.24)" fill="#dcbfff"/>
      <path id="Trazado_108198" data-name="Trazado 108198" d="M1037.913,2464.158v60.156h5.461v-59.28a.875.875,0,0,0-.875-.876Z" transform="translate(-41.814 -13.24)" fill="#bb83ff"/>
      <g id="Grupo_59752" data-name="Grupo 59752" transform="translate(935.247 2520.136)">
        <path id="Trazado_108199" data-name="Trazado 108199" d="M964.2,2560.961h-5.211a2.241,2.241,0,1,1,0-4.482H964.2a2.241,2.241,0,0,1,0,4.482Z" transform="translate(-956.751 -2556.479)" fill="#242e7a"/>
      </g>
      <path id="Trazado_108200" data-name="Trazado 108200" d="M981.252,2606.822H926.173a.929.929,0,0,1-.873-1.247l1.259-3.448a4.612,4.612,0,0,1,4.44-2.7h45.426a4.612,4.612,0,0,1,4.44,2.7l1.259,3.448A.928.928,0,0,1,981.252,2606.822Z" transform="translate(-13.619 -47.091)" fill="#dae7ef"/>
      <path id="Trazado_108201" data-name="Trazado 108201" d="M969.494,2574.544H944.3c2.318,7.323.208,13.914-6.327,18.658h37.845c-6.535-4.744-8.645-11.334-6.327-18.658Z" transform="translate(-16.805 -40.864)" fill="#c1d5e4"/>
      <path id="Trazado_108202" data-name="Trazado 108202" d="M946.415,2574.544a18.624,18.624,0,0,1,.908,5.354H970.7a18.6,18.6,0,0,1,.908-5.354Z" transform="translate(-18.917 -40.864)" fill="#98b9d3"/>
      <path id="Trazado_108203" data-name="Trazado 108203" d="M959.418,2421.621H914.06l14.815-10.369h20.237a7.751,7.751,0,0,1,6.785,4Z" transform="translate(-10.82)" fill="#dd5ca2"/>
      <path id="Trazado_108204" data-name="Trazado 108204" d="M944.818,2421.621H906.324l12.115-10.369h16.074a7.753,7.753,0,0,1,6.785,4Z" transform="translate(-8.884)" fill="#eab14d"/>
      <path id="Trazado_108205" data-name="Trazado 108205" d="M992.11,2504.306H901.973a3.386,3.386,0,0,1-3.385-3.386v-75.838H992.11a3.386,3.386,0,0,1,3.386,3.385v72.453a3.386,3.386,0,0,1-3.385,3.386Z" transform="translate(-6.948 -3.461)" fill="#f9f6f6"/>
      <path id="Trazado_108206" data-name="Trazado 108206" d="M1021.483,2425.082h-5.52a3.386,3.386,0,0,1,3.385,3.385v72.453a3.386,3.386,0,0,1-3.385,3.386h5.52a3.386,3.386,0,0,0,3.385-3.386v-72.453A3.385,3.385,0,0,0,1021.483,2425.082Z" transform="translate(-36.321 -3.461)" fill="#dae7ef"/>
      <path id="Trazado_108207" data-name="Trazado 108207" d="M930.217,2421.621H898.588v-6.5a3.866,3.866,0,0,1,3.866-3.866h17.458a7.751,7.751,0,0,1,6.785,4Z" transform="translate(-6.948)" fill="#80b4fb"/>
      <path id="Trazado_108208" data-name="Trazado 108208" d="M926.164,2509.911h-8.91a1.34,1.34,0,0,1-1.339-1.34v-21.348a1.34,1.34,0,0,1,1.339-1.34h8.91a1.34,1.34,0,0,1,1.34,1.34v21.348A1.34,1.34,0,0,1,926.164,2509.911Z" transform="translate(-11.285 -18.677)" fill="#86f1a7"/>
      <path id="Trazado_108209" data-name="Trazado 108209" d="M927.651,2485.885h-5.794a1.34,1.34,0,0,1,1.34,1.339v21.349a1.34,1.34,0,0,1-1.34,1.339h5.794a1.34,1.34,0,0,0,1.34-1.339v-21.349a1.339,1.339,0,0,0-1.34-1.339Z" transform="translate(-12.771 -18.677)" fill="#80e29d"/>
      <path id="Trazado_108210" data-name="Trazado 108210" d="M952.545,2505.923h-8.91a1.339,1.339,0,0,1-1.339-1.339v-33.3a1.339,1.339,0,0,1,1.339-1.339h8.91a1.339,1.339,0,0,1,1.34,1.339v33.3A1.34,1.34,0,0,1,952.545,2505.923Z" transform="translate(-17.886 -14.688)" fill="#80b4fb"/>
      <path id="Trazado_108211" data-name="Trazado 108211" d="M954.032,2469.946h-5.794a1.339,1.339,0,0,1,1.339,1.339v33.3a1.339,1.339,0,0,1-1.339,1.339h5.794a1.339,1.339,0,0,0,1.34-1.339v-33.3a1.34,1.34,0,0,0-1.34-1.339Z" transform="translate(-19.373 -14.688)" fill="#61a2f9"/>
      <path id="Trazado_108212" data-name="Trazado 108212" d="M978.926,2510.908h-8.91a1.339,1.339,0,0,1-1.34-1.339v-18.361a1.34,1.34,0,0,1,1.34-1.339h8.91a1.339,1.339,0,0,1,1.339,1.339v18.361A1.339,1.339,0,0,1,978.926,2510.908Z" transform="translate(-24.488 -19.674)" fill="#ffe07d"/>
      <path id="Trazado_108213" data-name="Trazado 108213" d="M980.413,2489.869h-5.794a1.34,1.34,0,0,1,1.339,1.34v18.361a1.339,1.339,0,0,1-1.339,1.339h5.794a1.339,1.339,0,0,0,1.339-1.339v-18.361A1.339,1.339,0,0,0,980.413,2489.869Z" transform="translate(-25.975 -19.674)" fill="#ffd064"/>
      <path id="Trazado_108214" data-name="Trazado 108214" d="M1005.307,2503.43H996.4a1.339,1.339,0,0,1-1.34-1.339v-40.767a1.34,1.34,0,0,1,1.34-1.339h8.91a1.34,1.34,0,0,1,1.339,1.339v40.768a1.339,1.339,0,0,1-1.339,1.339Z" transform="translate(-31.09 -12.195)" fill="#dd5ca2"/>
      <path id="Trazado_108215" data-name="Trazado 108215" d="M1006.794,2459.984H1001a1.34,1.34,0,0,1,1.339,1.339v40.768a1.339,1.339,0,0,1-1.339,1.339h5.794a1.339,1.339,0,0,0,1.339-1.339v-40.768a1.34,1.34,0,0,0-1.339-1.339Z" transform="translate(-32.577 -12.195)" fill="#da4093"/>
      <path id="Trazado_108216" data-name="Trazado 108216" d="M981.193,2429.385a5.349,5.349,0,0,0-5.12,6.906l-12.085,10.748a5.336,5.336,0,0,0-7.136,1.907l-9.971-2.357a5.349,5.349,0,0,0-10.557,1.7L924.4,2455.6a5.355,5.355,0,1,0,2.691,3.607l11.574-7.106a5.335,5.335,0,0,0,7.175-1.155l10.5,2.482a5.35,5.35,0,0,0,10.315-2.77l12.394-11.021a5.351,5.351,0,1,0,2.14-10.254Zm-59.336,31.794a.871.871,0,1,1,.87-.87A.872.872,0,0,1,921.857,2461.179Zm19.779-12.656a.871.871,0,1,1,.871-.871A.872.872,0,0,1,941.636,2448.523Zm19.779,4.078a.871.871,0,1,1,.87-.871A.872.872,0,0,1,961.415,2452.6Zm19.778-16.993a.871.871,0,1,1,.871-.871A.872.872,0,0,1,981.193,2435.608Z" transform="translate(-11.432 -4.538)" fill="#855db5"/>
    </g>
  </g>
</svg>
