<svg xmlns="http://www.w3.org/2000/svg" width="201" height="199" viewBox="0 0 201 199">
  <g id="Grupo_59809" data-name="Grupo 59809" transform="translate(-72.193 -75.358)">
    <rect id="Rectángulo_6365" data-name="Rectángulo 6365" width="201" height="199" transform="translate(72.193 75.357)" fill="none"/>
    <g id="Grupo_59810" data-name="Grupo 59810" transform="translate(-245.297 -2763.723)">
      <path id="Trazado_108217" data-name="Trazado 108217" d="M378.928,3052.829h16.2l-25.554-16.378-21-12.273A30.454,30.454,0,0,0,378.928,3052.829Z" transform="translate(-0.022 -45.047)" fill="#fde494"/>
      <path id="Trazado_108218" data-name="Trazado 108218" d="M437.4,3035.779l-18.289-4.679h-40.2a16.4,16.4,0,0,1-16.377-16.378v-8.978l-7.019-7.532-7.019,1.241v15.27c0,.593.019,1.181.052,1.764l46.558,28.652h55.331Z" transform="translate(0 -37.357)" fill="#fea150"/>
      <path id="Trazado_108219" data-name="Trazado 108219" d="M495.263,3037.825a16.326,16.326,0,0,1-11.771,5.007H448.825l31.324,14.038h3.343a30.423,30.423,0,0,0,25.878-14.451l-7.162-4.266Z" transform="translate(-29.716 -49.089)" fill="#ff5d4a"/>
      <path id="Trazado_108220" data-name="Trazado 108220" d="M519.411,2994.071v18.878a16.321,16.321,0,0,1-4.606,11.37l14.107,4.594a30.233,30.233,0,0,0,4.537-15.965V2996.3l-7.261-4.079Z" transform="translate(-49.258 -35.583)" fill="#e45261"/>
      <path id="Trazado_108221" data-name="Trazado 108221" d="M535.387,2927.512l-7.475-1.78-6.563,3.93v44.716l14.038,2.232Z" transform="translate(-51.196 -15.89)" fill="#ff4d95"/>
      <path id="Trazado_108222" data-name="Trazado 108222" d="M518.682,2902.632a30.462,30.462,0,0,0-26.011-30.1l-18.4,7.658-9.325,6.06h23.322a16.4,16.4,0,0,1,16.377,16.378v11.275l14.039-2.149Z" transform="translate(-34.49 -0.135)" fill="#cb319c"/>
      <path id="Trazado_108223" data-name="Trazado 108223" d="M455.036,2872.081l-17.408,6.529-13.73,7.508h28.89l27.727-13.718a30.553,30.553,0,0,0-4.405-.32Z" transform="translate(-22.333)" fill="#8a3293"/>
      <path id="Trazado_108224" data-name="Trazado 108224" d="M430.955,3017.512a39.577,39.577,0,0,0,13.841-2.486L422,3004.677l-24.166-4.945A39.766,39.766,0,0,0,430.955,3017.512Z" transform="translate(-14.614 -37.807)" fill="#ff5d4a"/>
      <path id="Trazado_108225" data-name="Trazado 108225" d="M447.619,2982.617a23.386,23.386,0,0,1-41.882-6.661l-6.277-3.922-10.826,1.2a39.524,39.524,0,0,0,6.474,18.292l46.965,15.294a39.992,39.992,0,0,0,22.65-21.487l-8.416-4.263Z" transform="translate(-11.889 -29.603)" fill="#e45261"/>
      <g id="Grupo_59756" data-name="Grupo 59756" transform="translate(376.566 2915.627)">
        <path id="Trazado_108226" data-name="Trazado 108226" d="M404.758,2961.5a23.291,23.291,0,0,1,5.631-15.2l-9.98-1.4-10.138,4.477a39.611,39.611,0,0,0-1.89,12.118c0,1.249.065,2.482.178,3.7l17.1,2.72A23.305,23.305,0,0,1,404.758,2961.5Z" transform="translate(-388.381 -2937.196)" fill="#ff4d95"/>
        <path id="Trazado_108227" data-name="Trazado 108227" d="M489.889,2958.256a39.555,39.555,0,0,0-7.269-22.9l-9.912-1.407-10.182,4.484a23.365,23.365,0,0,1,6.978,32.9l17.1,2.72A39.532,39.532,0,0,0,489.889,2958.256Z" transform="translate(-410.341 -2933.952)" fill="#ff4d95"/>
      </g>
      <g id="Grupo_59757" data-name="Grupo 59757" transform="translate(378.457 2893.138)">
        <path id="Trazado_108228" data-name="Trazado 108228" d="M428.951,2928.349a23.247,23.247,0,0,1,12.411,3.577l20.094-3.077a39.76,39.76,0,0,0-70.389,10.778l20.118-3.082A23.349,23.349,0,0,1,428.951,2928.349Z" transform="translate(-391.067 -2904.952)" fill="#cb319c"/>
        <path id="Trazado_108229" data-name="Trazado 108229" d="M494.142,2920.716a9.359,9.359,0,1,0-9.359-9.358A9.369,9.369,0,0,0,494.142,2920.716Z" transform="translate(-418.823 -2901.999)" fill="#cb319c"/>
      </g>
      <path id="Trazado_108230" data-name="Trazado 108230" d="M362.529,2988.236l-6.757-3.37-7.281-1.2v11.479l14.038,6.291Z" transform="translate(0 -33.048)" fill="#ff5d4a"/>
      <path id="Trazado_108231" data-name="Trazado 108231" d="M348.491,2967.194v11.477l14.038,4.571v-13.815l-7.294-2.623Z" transform="translate(0 -28.055)" fill="#e45261"/>
      <path id="Trazado_108232" data-name="Trazado 108232" d="M362.529,2954.7l-7.214-.065-6.825,2.215v6.738l14.038,2.233Z" transform="translate(0 -24.451)" fill="#ff4d95"/>
      <path id="Trazado_108233" data-name="Trazado 108233" d="M362.529,2939.772l-7.436.754-6.6,6.191v5.732l14.038-2.15Z" transform="translate(0 -20.048)" fill="#cb319c"/>
      <path id="Trazado_108234" data-name="Trazado 108234" d="M348.491,2939.982l14.038-6.946v-16.007l-8.234.787-5.8,5.542Z" transform="translate(0 -13.313)" fill="#8a3293"/>
      <path id="Trazado_108235" data-name="Trazado 108235" d="M402.84,2872.081,370.809,2884.4l-21.95,13.37a30.52,30.52,0,0,0-.367,4.726v7.549l14.038-6.329V2902.5a16.4,16.4,0,0,1,16.377-16.377h22.658l31.139-14.038Z" transform="translate(0)" fill="#523494"/>
      <path id="Trazado_108236" data-name="Trazado 108236" d="M379.061,2872.081a30.463,30.463,0,0,0-30.048,25.689l53.981-25.689Z" transform="translate(-0.155)" fill="#2d2d87"/>
    </g>
  </g>
</svg>
