<svg xmlns="http://www.w3.org/2000/svg" width="80.427" height="80.427" viewBox="0 0 80.427 80.427">
  <g id="Grupo_60083" data-name="Grupo 60083" transform="translate(-1004.898 -3151.825)">
    <circle id="Elipse_4097" data-name="Elipse 4097" cx="40.214" cy="40.214" r="40.214" transform="translate(1004.898 3151.825)" fill="#855db5"/>
    <g id="Grupo_56712" data-name="Grupo 56712" transform="translate(1012.796 3162.76)">
      <g id="Grupo_57847" data-name="Grupo 57847" transform="translate(1.198 4.466)">
        <path id="Trazado_106165" data-name="Trazado 106165" d="M887.49,1502.457c-2.925,0-5.22,3.261-5.22,3.261s-2.164-3.261-5.221-3.261a5.681,5.681,0,0,0-5.559,5.421,6.515,6.515,0,0,0,1.213,4.109c1.523,2.31,9.577,7.837,9.577,7.837s8.025-5.507,9.556-7.837a6.518,6.518,0,0,0,1.213-4.109A5.682,5.682,0,0,0,887.49,1502.457Z" transform="translate(-851.152 -1490.643)" fill="#dcbfff"/>
        <path id="Trazado_106166" data-name="Trazado 106166" d="M885.355,1516.21a1.244,1.244,0,0,1-.464-.093,1.2,1.2,0,0,1-.4-.262,1.114,1.114,0,0,1-.151-.185,1.249,1.249,0,0,1-.112-.21,1.233,1.233,0,0,1-.07-.228,1.191,1.191,0,0,1-.025-.238,1.21,1.21,0,0,1,.025-.238,1.286,1.286,0,0,1,.07-.228,1.248,1.248,0,0,1,.112-.209,1.119,1.119,0,0,1,.151-.185,1.156,1.156,0,0,1,.185-.152,1.211,1.211,0,0,1,.211-.111,1.184,1.184,0,0,1,.226-.069,1.223,1.223,0,0,1,1.1.332,1.32,1.32,0,0,1,.152.185,1.239,1.239,0,0,1,.111.209,1.3,1.3,0,0,1,.07.228,1.22,1.22,0,0,1,.022.238,1.2,1.2,0,0,1-.022.238,1.243,1.243,0,0,1-.07.228,1.2,1.2,0,0,1-.111.21,1.313,1.313,0,0,1-.152.185,1.213,1.213,0,0,1-.394.262,1.29,1.29,0,0,1-.227.069A1.218,1.218,0,0,1,885.355,1516.21Z" transform="translate(-849.555 -1489.214)" fill="#c595ff"/>
        <path id="Trazado_106167" data-name="Trazado 106167" d="M882.416,1521.177a1.212,1.212,0,0,1-.687-.214c-.845-.579-8.3-5.732-9.9-8.17a7.793,7.793,0,0,1-1.412-4.844,7.009,7.009,0,0,1,2.085-4.624,6.654,6.654,0,0,1,4.688-1.947,7.532,7.532,0,0,1,5.239,2.591,7.7,7.7,0,0,1,5.2-2.591,6.65,6.65,0,0,1,4.688,1.947,7,7,0,0,1,2.084,4.624,7.8,7.8,0,0,1-1.41,4.842,1.216,1.216,0,1,1-2.031-1.335,5.285,5.285,0,0,0,1.015-3.376,4.484,4.484,0,0,0-4.346-4.27c-2.232,0-4.206,2.717-4.225,2.745a1.214,1.214,0,0,1-2.007-.027c-.017-.024-1.855-2.717-4.208-2.717a4.483,4.483,0,0,0-4.345,4.269,5.265,5.265,0,0,0,1.014,3.376c1.012,1.537,6.211,5.418,9.25,7.5a1.216,1.216,0,0,1-.689,2.219Z" transform="translate(-851.288 -1490.779)" fill="#bb83ff"/>
        <path id="Trazado_106168" data-name="Trazado 106168" d="M904.844,1534.216v-8.658h-3.908l-.9-3a4.686,4.686,0,0,0-4.587-3.73h-4.571a1.846,1.846,0,0,0-1.445,2.995l.19.239H885.26a1.95,1.95,0,0,0-1.731,2,1.976,1.976,0,0,0,1.878,1.894c.035,0-.947,0-.929,0a4.49,4.49,0,0,1-1.8,5.837,1.941,1.941,0,0,0,1.8,1.937l1.061.013a1.943,1.943,0,0,0-1.8,1.992,1.971,1.971,0,0,0,1.88,1.886l9.507,0c4.842,0,5.808-3.4,5.808-3.4" transform="translate(-849.739 -1488.578)" fill="#fff"/>
        <path id="Trazado_106169" data-name="Trazado 106169" d="M902.362,1523.685h5.917v11.1h-5.917Z" transform="translate(-847.257 -1487.965)" fill="#dcbfff"/>
        <path id="Trazado_106170" data-name="Trazado 106170" d="M910.9,1523.218h-5.917a1.215,1.215,0,0,0-1.215,1.215v.045h-1.786l-.624-2.089a5.925,5.925,0,0,0-5.766-4.644h-4.5a3.127,3.127,0,0,0-2.811,1.7,3.052,3.052,0,0,0-.32,1.536H885.4a1,1,0,0,0-.115.005,3.176,3.176,0,0,0-2.831,3.24,3.108,3.108,0,0,0,.342,1.333,3.168,3.168,0,0,0-.519,4.425,8.765,8.765,0,0,1,.391,5.916,3.2,3.2,0,0,0,3.033,3.066l9.57,0a7.339,7.339,0,0,0,6.527-3.352,1.217,1.217,0,0,0-2.051-1.31,5.076,5.076,0,0,1-4.476,2.231l-9.467,0a.75.75,0,0,1-.7-.7.726.726,0,0,1,.67-.747l.029,0h1.153a1.216,1.216,0,1,0,0-2.431l-2.27-.007a.727.727,0,0,1-.011-1.443h2.288a1.216,1.216,0,1,0,0-2.431h-2.276a.742.742,0,0,1-.006-1.47h2.275a1.216,1.216,0,1,0,0-2.432h-1.364a.763.763,0,0,1-.7-.713.735.735,0,0,1,.6-.746h9.212a1.216,1.216,0,0,0,1.213-1.3,1.243,1.243,0,0,0-1.255-1.134h-4.238a.626.626,0,0,1,.043-.445.609.609,0,0,1,.566-.357h4.571a3.485,3.485,0,0,1,3.4,2.754c.008.036.017.072.027.107l.9,3a1.214,1.214,0,0,0,1.164.868h2.693v8.623a1.215,1.215,0,0,0,1.215,1.216H910.9a1.215,1.215,0,0,0,1.215-1.216v-11.1A1.215,1.215,0,0,0,910.9,1523.218Zm-1.216,11.1H906.2v-8.668h3.484Z" transform="translate(-849.875 -1488.714)" fill="#bb83ff"/>
        <path id="Trazado_106171" data-name="Trazado 106171" d="M859.762,1534.819v-8.658h3.907l.9-3a4.688,4.688,0,0,1,4.588-3.73h4.571a1.845,1.845,0,0,1,1.444,2.993l-.189.239h4.368a1.952,1.952,0,0,1,1.731,2,1.975,1.975,0,0,1-1.878,1.893c-.036,0,.946,0,.928,0a4.49,4.49,0,0,0,1.8,5.838,1.941,1.941,0,0,1-1.8,1.937l-1.06.013a1.942,1.942,0,0,1,1.8,1.992,1.97,1.97,0,0,1-1.88,1.885l-9.508,0c-4.841,0-5.807-3.4-5.807-3.4" transform="translate(-852.63 -1488.502)" fill="#dcbfff"/>
        <path id="Trazado_106172" data-name="Trazado 106172" d="M854.508,1524.287h5.917v11.1h-5.917Z" transform="translate(-853.293 -1487.889)" fill="#c595ff"/>
        <path id="Trazado_106173" data-name="Trazado 106173" d="M883.938,1528.635a3.18,3.18,0,0,0-1.19-2.476,3.1,3.1,0,0,0,.343-1.333,3.177,3.177,0,0,0-2.832-3.241c-.037,0-.076-.006-.114-.006h-2.563a3.065,3.065,0,0,0-.32-1.534,3.125,3.125,0,0,0-2.811-1.7h-4.5a5.928,5.928,0,0,0-5.767,4.643l-.623,2.09h-1.786v-.045a1.216,1.216,0,0,0-1.216-1.215h-5.916a1.215,1.215,0,0,0-1.215,1.215v11.1a1.215,1.215,0,0,0,1.215,1.216h5.916a1.216,1.216,0,0,0,1.216-1.216v-8.623h2.691a1.215,1.215,0,0,0,1.166-.868l.9-3c.009-.031.017-.063.025-.1a3.387,3.387,0,0,1,3.278-2.765h4.69a.614.614,0,0,1,.568.356.632.632,0,0,1,.042.445h-4.279a1.215,1.215,0,0,0-1.213,1.3,1.243,1.243,0,0,0,1.255,1.135h9.17a.735.735,0,0,1,.6.746.763.763,0,0,1-.7.713h-1.365a1.216,1.216,0,0,0,0,2.431h2.275a.742.742,0,0,1,0,1.47h-2.277a1.216,1.216,0,0,0,0,2.431h2.291a.727.727,0,0,1-.012,1.443l-2.271.007a1.216,1.216,0,0,0,0,2.431h1.152l.029,0a.725.725,0,0,1,.672.746.753.753,0,0,1-.707.7l-9.465,0a5.12,5.12,0,0,1-4.509-2.3,1.1,1.1,0,0,0-1.227-.462l-.233.066a1.1,1.1,0,0,0-.644,1.633,7.334,7.334,0,0,0,6.614,3.49c9.54,0,9.54,0,9.571,0a3.16,3.16,0,0,0,2.752-4.459,3.23,3.23,0,0,0,.417-.349,11.578,11.578,0,0,1,.923-6.12Zm-28.078-2.383h3.484v8.668H855.86Z" transform="translate(-853.429 -1488.638)" fill="#bb83ff"/>
        <path id="Trazado_106174" data-name="Trazado 106174" d="M881.2,1495.811a1.217,1.217,0,0,1-1.216-1.216v-1.413a1.216,1.216,0,0,1,2.431,0v1.413A1.216,1.216,0,0,1,881.2,1495.811Z" transform="translate(-850.08 -1491.966)" fill="#c595ff"/>
        <path id="Trazado_106175" data-name="Trazado 106175" d="M869.733,1500.055a1.213,1.213,0,0,1-.859-.356l-.643-.643a1.216,1.216,0,0,1,1.719-1.719l.643.644a1.215,1.215,0,0,1-.859,2.074Z" transform="translate(-851.607 -1491.333)" fill="#c595ff"/>
        <path id="Trazado_106176" data-name="Trazado 106176" d="M892.735,1500.055a1.216,1.216,0,0,1-.86-2.076l.643-.643a1.216,1.216,0,0,1,1.72,1.719l-.643.643A1.211,1.211,0,0,1,892.735,1500.055Z" transform="translate(-848.624 -1491.333)" fill="#c595ff"/>
        <path id="Trazado_106177" data-name="Trazado 106177" d="M898.479,1511.52h-1.413a1.216,1.216,0,0,1,0-2.432h1.413a1.216,1.216,0,0,1,0,2.432Z" transform="translate(-848.078 -1489.806)" fill="#c595ff"/>
        <path id="Trazado_106178" data-name="Trazado 106178" d="M865.488,1511.52h-1.413a1.216,1.216,0,1,1,0-2.432h1.413a1.216,1.216,0,0,1,0,2.432Z" transform="translate(-852.239 -1489.806)" fill="#c595ff"/>
      </g>
      <rect id="Rectángulo_5525" data-name="Rectángulo 5525" width="64.632" height="58.559" fill="none"/>
    </g>
  </g>
</svg>
