<svg xmlns="http://www.w3.org/2000/svg" width="80.428" height="80.427" viewBox="0 0 80.428 80.427">
  <g id="Grupo_60081" data-name="Grupo 60081" transform="translate(-518.035 -3151.825)">
    <circle id="Elipse_4097" data-name="Elipse 4097" cx="40.214" cy="40.214" r="40.214" transform="translate(518.035 3151.825)" fill="#855db5"/>
    <g id="Grupo_56712" data-name="Grupo 56712" transform="translate(525.932 3162.76)">
      <rect id="Rect치ngulo_5631" data-name="Rect치ngulo 5631" width="32.096" height="28.718" rx="3" transform="translate(8.222 25.894)" fill="#dcbfff"/>
      <path id="Trazado_106157" data-name="Trazado 106157" d="M472.361,1519.906l-2.8-.625a11.454,11.454,0,0,1-7.34-5.287,11.454,11.454,0,0,1-7.34,5.287l-2.8.625a23.649,23.649,0,0,0,9.46,18.919l.676.507.676-.507A23.65,23.65,0,0,0,472.361,1519.906Z" transform="translate(-415.993 -1484.721)" fill="#bb83ff"/>
      <path id="Trazado_106158" data-name="Trazado 106158" d="M457.883,1535.405c6.757-1.824,11.943-7.99,13.294-15.761l-1.613-.363a11.454,11.454,0,0,1-7.34-5.287,11.454,11.454,0,0,1-7.34,5.287l-2.8.625A23.655,23.655,0,0,0,457.883,1535.405Z" transform="translate(-415.993 -1484.721)" fill="#dcbfff"/>
      <path id="Trazado_106159" data-name="Trazado 106159" d="M430.433,1513.453h4.223v-8.446a8.447,8.447,0,0,1,16.893,0v8.446h4.223a3.5,3.5,0,0,1,.845.118v-8.564a13.514,13.514,0,0,0-27.029,0v8.564A3.5,3.5,0,0,1,430.433,1513.453Z" transform="translate(-418.832 -1487.559)" fill="#fff"/>
      <path id="Trazado_106160" data-name="Trazado 106160" d="M425.838,1516.994h10.135v15.2H425.838Z" transform="translate(-419.305 -1484.343)" fill="#c595ff"/>
      <path id="Trazado_106161" data-name="Trazado 106161" d="M443.656,1525.9v-7.221a1.689,1.689,0,0,0-3.378,0v7.221a3.379,3.379,0,1,0,3.378,0Z" transform="translate(-417.696 -1484.343)" fill="#c1c8d1"/>
      <circle id="Elipse_4086" data-name="Elipse 4086" cx="5.068" cy="5.068" r="5.068" transform="translate(41.163 36.874)" fill="#ebf7fe"/>
      <path id="Trazado_106162" data-name="Trazado 106162" d="M444.593,1525.535v-6.757a2.534,2.534,0,1,0-5.068,0v6.757a4.223,4.223,0,0,0,1.529,7.466,4.506,4.506,0,0,0,1,.135,4.222,4.222,0,0,0,2.534-7.6Zm-.963,5.347a2.534,2.534,0,1,1-2.838-4.165.846.846,0,0,0,.422-.735v-7.2a.845.845,0,1,1,1.689,0V1526a.846.846,0,0,0,.422.735,2.534,2.534,0,0,1,.3,4.164Z" transform="translate(-417.79 -1484.437)" fill="#a271dc"/>
      <path id="Trazado_106163" data-name="Trazado 106163" d="M475.952,1521.995l-2.8-.617a10.665,10.665,0,0,1-6.757-4.9.845.845,0,0,0-1.453,0,10.6,10.6,0,0,1-4.384,4.02v-3.572a4.225,4.225,0,0,0-2.534-3.869V1505.1a14.359,14.359,0,0,0-28.718,0v7.956a4.225,4.225,0,0,0-2.534,3.869v2.534h-.845a.844.844,0,0,0-.845.845v15.2a.845.845,0,0,0,.845.845h.845v2.534A4.223,4.223,0,0,0,431,1543.11h25.339a4.223,4.223,0,0,0,4.223-4.223v-.109a24.638,24.638,0,0,0,3.885,3.657l.676.507a.845.845,0,0,0,1.014,0l.676-.507a24.622,24.622,0,0,0,9.8-19.595.845.845,0,0,0-.659-.845ZM431,1505.1a12.67,12.67,0,0,1,25.339,0v7.6h-3.378v-7.6a9.291,9.291,0,0,0-18.582,0v7.6H431Zm20.272,7.6h-15.2v-7.6a7.6,7.6,0,0,1,15.2,0Zm-16.049,8.447v3.379h-8.446v-3.379Zm-8.446,13.514v-3.379h8.446v3.379Zm8.446-5.068h-8.446v-3.378h8.446Zm23.65,9.291a2.533,2.533,0,0,1-2.534,2.534H431a2.533,2.533,0,0,1-2.534-2.534h0v-2.534h7.6a.845.845,0,0,0,.845-.845v-15.2a.844.844,0,0,0-.845-.845h-7.6v-2.534a2.534,2.534,0,0,1,2.534-2.535h25.339a2.534,2.534,0,0,1,2.534,2.535v4.223c-.253.075-.507.152-.769.211l-2.8.634a.843.843,0,0,0-.659.845,24.612,24.612,0,0,0,4.223,13.716Zm6.926,2.2-.169.127-.169-.127a22.93,22.93,0,0,1-9.122-17.568l2.119-.473a12.355,12.355,0,0,0,7.171-4.6,12.357,12.357,0,0,0,7.162,4.6l2.128.473A22.93,22.93,0,0,1,465.8,1541.083Z" transform="translate(-419.399 -1487.654)" fill="#a271dc"/>
      <path id="Trazado_106164" data-name="Trazado 106164" d="M466.752,1520.416l-1.5-.76-.574,1.141a5.99,5.99,0,1,0,1.326,1.064Zm-.752,5.533a4.264,4.264,0,1,1-2.086-3.624l-2.28,4.562-1.689-2.289-1.351,1.014,2.534,3.378a.843.843,0,0,0,.676.338h.075a.846.846,0,0,0,.676-.464l2.678-5.356a4.158,4.158,0,0,1,.768,2.441Z" transform="translate(-415.546 -1484.007)" fill="#a271dc"/>
      <rect id="Rect치ngulo_5525" data-name="Rect치ngulo 5525" width="64.632" height="58.559" fill="none"/>
    </g>
  </g>
</svg>
