<svg xmlns="http://www.w3.org/2000/svg" width="80.427" height="80.427" viewBox="0 0 80.427 80.427">
  <g id="Grupo_60084" data-name="Grupo 60084" transform="translate(-1250.082 -2636.413)">
    <circle id="Elipse_4097" data-name="Elipse 4097" cx="40.214" cy="40.214" r="40.214" transform="translate(1250.082 2636.413)" fill="#855db5"/>
    <g id="Grupo_56712" data-name="Grupo 56712" transform="translate(1257.979 2647.347)">
      <g id="Grupo_57849" data-name="Grupo 57849" transform="translate(6.719 3.717)">
        <path id="Trazado_106179" data-name="Trazado 106179" d="M1124.3,1070.954a2.184,2.184,0,0,1-2.181,2.186h-.889a7.6,7.6,0,0,1-14.962,0h-.884a2.186,2.186,0,1,1,0-4.373h.767v1.01l3.051-4.3h9.095l3.051,4.3v-1.01h.768a2.185,2.185,0,0,1,2.185,2.185v0Z" transform="translate(-1072.628 -1029.602)" fill="#fff"/>
        <path id="Trazado_106180" data-name="Trazado 106180" d="M1121.789,1055.336a10.51,10.51,0,1,0-16.944-11.111,1.685,1.685,0,0,1-.846.994l-4.42,2.222,4.42,2.221a1.684,1.684,0,0,1,.846,1,10.528,10.528,0,0,0,16.944,4.678Z" transform="translate(-1073.085 -1033.203)" fill="#c595ff"/>
        <path id="Trazado_106181" data-name="Trazado 106181" d="M1098.191,1047.237v6.318h-4.356a6.435,6.435,0,0,0,.225-1.689v-5.16l-10.493-1.409a2.2,2.2,0,0,0-2.467,1.9,2.146,2.146,0,0,0-.018.283v4.384a6.585,6.585,0,0,0,.224,1.689h-4.359v-6.08a10.784,10.784,0,0,1,10.468-10.863,10.618,10.618,0,0,1,10.776,10.457c0,.056,0,.112,0,.168Z" transform="translate(-1075.94 -1033.243)" fill="#c595ff"/>
        <path id="Trazado_106182" data-name="Trazado 106182" d="M1083.1,1044.326a2.2,2.2,0,0,0-2.467,1.9,2.146,2.146,0,0,0-.018.283v4.384a6.489,6.489,0,0,0,12.979,0v-5.16Z" transform="translate(-1075.476 -1032.272)" fill="#fff"/>
        <path id="Trazado_106183" data-name="Trazado 106183" d="M1121.406,1059.518l-1.376-.941a2.609,2.609,0,0,1-2.561,2.122h-8.2a3.45,3.45,0,0,0-3.449,3.448v6.5l3.051-4.3h9.1l3.05,4.3v-4.3l.95-.963a3.84,3.84,0,0,0-.563-5.865Z" transform="translate(-1072.297 -1030.473)" fill="#c595ff"/>
        <path id="Trazado_106184" data-name="Trazado 106184" d="M1081.044,1061.514a10.485,10.485,0,1,0,16.9,11.085,1.683,1.683,0,0,1,.844-.993l4.409-2.215-4.409-2.216a1.676,1.676,0,0,1-.844-.992,10.485,10.485,0,0,0-16.9-4.668Z" transform="translate(-1075.872 -1030.432)" fill="#c595ff"/>
        <g id="Grupo_57848" data-name="Grupo 57848" transform="translate(0.526 0.524)">
          <path id="Trazado_106185" data-name="Trazado 106185" d="M1080.609,1078.57c-.783-.259-1.591-.485-2.045-2.44-.418,1.8-1.088,2.124-2.045,2.44a2.718,2.718,0,0,1,2.045,2.44C1078.992,1079.166,1079.7,1078.871,1080.609,1078.57Z" transform="translate(-1076.519 -1028.783)" fill="#fff"/>
          <path id="Trazado_106186" data-name="Trazado 106186" d="M1099.284,1056.63c-.783-.259-1.591-.484-2.045-2.44-.418,1.8-1.088,2.124-2.045,2.44a2.716,2.716,0,0,1,2.045,2.44c.428-1.845,1.135-2.14,2.045-2.44Z" transform="translate(-1074.163 -1031.55)" fill="#fff"/>
          <path id="Trazado_106187" data-name="Trazado 106187" d="M1104.741,1060.181c-.783-.259-1.591-.484-2.045-2.44-.418,1.8-1.088,2.124-2.045,2.44a2.716,2.716,0,0,1,2.045,2.44C1103.124,1060.777,1103.832,1060.482,1104.741,1060.181Z" transform="translate(-1073.475 -1031.102)" fill="#fff"/>
          <path id="Trazado_106188" data-name="Trazado 106188" d="M1123.417,1036.526c-.784-.258-1.592-.484-2.046-2.44-.418,1.8-1.088,2.124-2.045,2.44a2.715,2.715,0,0,1,2.045,2.44C1121.8,1037.123,1122.507,1036.827,1123.417,1036.526Z" transform="translate(-1071.119 -1034.086)" fill="#fff"/>
        </g>
        <path id="Trazado_106189" data-name="Trazado 106189" d="M1084.788,1065.953h.893a.454.454,0,0,0,.454-.454h0v-1.471a1.084,1.084,0,0,1,1.023-1.1,1.055,1.055,0,0,1,1.088,1.023.28.28,0,0,1,0,.033,1.969,1.969,0,0,0,1.969,1.969h1.005v7.394h-6.432a2.029,2.029,0,0,1-2.028-2.028v-3.338a2.029,2.029,0,0,1,2.027-2.028Z" transform="translate(-1075.206 -1029.924)" fill="#fff"/>
        <path id="Trazado_106190" data-name="Trazado 106190" d="M1117.876,1046.972l-4.193,4.193-4.193-4.193a2.214,2.214,0,1,1,3.106-3.155l.025.024,1.063,1.062,1.063-1.062a2.214,2.214,0,0,1,3.131,0h0a2.214,2.214,0,0,1,0,3.132Z" transform="translate(-1071.917 -1032.415)" fill="#fff"/>
        <path id="Trazado_106191" data-name="Trazado 106191" d="M1113.2,1055.765a.531.531,0,1,1,0-1.062c.154,0,.312-.006.466-.015a.531.531,0,1,1,.063,1.061c-.174.011-.352.016-.529.016Zm2.076-.78a.531.531,0,0,1,.334-.672h0a7.321,7.321,0,0,0,2.541-1.461,7.527,7.527,0,0,0,2.554-5.641,7.613,7.613,0,0,0-6.041-7.4.532.532,0,0,1,.233-1.037,8.6,8.6,0,0,1,3.957,14.878,8.394,8.394,0,0,1-2.906,1.671.532.532,0,0,1-.673-.334Z" transform="translate(-1071.433 -1032.972)" fill="#dcbfff"/>
        <path id="Trazado_106192" data-name="Trazado 106192" d="M1093.566,1044.331a7.682,7.682,0,0,0-.358-.8.531.531,0,0,1,.944-.489,8.7,8.7,0,0,1,.408.913.531.531,0,1,1-.988.391l-.006-.015Zm-1.49-2.429a7.643,7.643,0,0,0-5.645-2.5.531.531,0,1,1,0-1.063,8.705,8.705,0,0,1,6.431,2.851.531.531,0,1,1-.769.733l-.017-.019Z" transform="translate(-1074.81 -1033.026)" fill="#855db5"/>
        <path id="Trazado_106193" data-name="Trazado 106193" d="M1079.206,1068.949a8.563,8.563,0,0,1,2.905-6.419.532.532,0,0,1,.7.8,7.477,7.477,0,0,0,7.629,12.594.532.532,0,0,1,.379.993,8.544,8.544,0,0,1-11.617-7.965Zm12.859,6.769a.532.532,0,0,1,.113-.743h0c.159-.116.314-.241.464-.372a.531.531,0,0,1,.7.8c-.17.149-.349.293-.53.426a.532.532,0,0,1-.743-.112Z" transform="translate(-1075.654 -1029.991)" fill="#dcbfff"/>
        <path id="Trazado_106194" data-name="Trazado 106194" d="M1078.112,1081.188a.525.525,0,0,0,1.024,0c.377-1.623.931-1.806,1.7-2.06a.526.526,0,0,0,0-1c-.736-.242-1.312-.4-1.7-2.06a.526.526,0,0,0-1.024,0c-.377,1.623-.9,1.8-1.7,2.06a.526.526,0,0,0,0,1C1077.734,1079.565,1077.884,1080.21,1078.112,1081.188Zm.514-3.464a2.678,2.678,0,0,0,.787.909,2.6,2.6,0,0,0-.778.878,2.714,2.714,0,0,0-.823-.87,2.619,2.619,0,0,0,.814-.916Z" transform="translate(-1076.052 -1028.317)" fill="#855db5"/>
        <path id="Trazado_106195" data-name="Trazado 106195" d="M1099.509,1056.19c-.738-.243-1.313-.4-1.7-2.06a.526.526,0,0,0-1.025,0c-.376,1.623-.9,1.8-1.7,2.06a.526.526,0,0,0,0,1c1.322.437,1.472,1.082,1.7,2.06a.526.526,0,0,0,1.025,0c.376-1.623.931-1.806,1.7-2.06a.526.526,0,0,0,0-1Zm-2.2,1.382a2.713,2.713,0,0,0-.823-.87,2.6,2.6,0,0,0,.815-.917,2.684,2.684,0,0,0,.786.91,2.6,2.6,0,0,0-.778.877Z" transform="translate(-1073.697 -1031.084)" fill="#855db5"/>
        <path id="Trazado_106196" data-name="Trazado 106196" d="M1103.267,1057.682a.526.526,0,0,0-1.025,0c-.376,1.623-.9,1.8-1.7,2.06a.526.526,0,0,0,0,1c1.322.437,1.472,1.082,1.7,2.06a.526.526,0,0,0,1.025,0c.376-1.623.93-1.806,1.7-2.06a.527.527,0,0,0,0-1C1104.228,1059.5,1103.652,1059.341,1103.267,1057.682Zm-.5,3.441a2.732,2.732,0,0,0-.823-.872,2.6,2.6,0,0,0,.815-.917,2.682,2.682,0,0,0,.786.91,2.6,2.6,0,0,0-.778.878Z" transform="translate(-1073.008 -1030.637)" fill="#855db5"/>
        <path id="Trazado_106197" data-name="Trazado 106197" d="M1123.641,1036.086c-.738-.243-1.313-.4-1.7-2.06a.526.526,0,0,0-1.025,0c-.376,1.623-.9,1.8-1.7,2.06a.526.526,0,0,0,0,1c1.322.437,1.472,1.082,1.7,2.06a.526.526,0,0,0,1.025,0c.376-1.623.931-1.806,1.7-2.06a.526.526,0,0,0,0-1Zm-2.2,1.382a2.729,2.729,0,0,0-.822-.872,2.61,2.61,0,0,0,.814-.917,2.69,2.69,0,0,0,.786.91A2.618,2.618,0,0,0,1121.44,1037.468Z" transform="translate(-1070.653 -1033.62)" fill="#855db5"/>
        <path id="Trazado_106198" data-name="Trazado 106198" d="M1104.716,1050.25a.531.531,0,1,0,.719.219h0A.53.53,0,0,0,1104.716,1050.25Z" transform="translate(-1072.472 -1031.531)" fill="#855db5"/>
        <path id="Trazado_106199" data-name="Trazado 106199" d="M1122.2,1039.207a11.041,11.041,0,0,0-17.8,4.916,1.158,1.158,0,0,1-.578.682l-4.421,2.222a.532.532,0,0,0,0,.948l4.421,2.221a1.152,1.152,0,0,1,.516.529.543.543,0,0,0,.71.247.532.532,0,0,0,.247-.709h0a2.213,2.213,0,0,0-1-1.015l-3.476-1.746,3.476-1.748a2.22,2.22,0,0,0,1.114-1.307,9.978,9.978,0,1,1,1.819,9.426.546.546,0,0,0-.748-.069.532.532,0,0,0-.068.749,11.042,11.042,0,1,0,15.786-15.345Z" transform="translate(-1073.144 -1033.262)" fill="#855db5"/>
        <path id="Trazado_106200" data-name="Trazado 106200" d="M1076.475,1053.613a.529.529,0,0,0,.527.531h3.969a7.021,7.021,0,0,0,13.319,0h3.961a.529.529,0,0,0,.53-.528v-6.32a11.128,11.128,0,0,0-21.984-2.469.53.53,0,0,0,.391.64.536.536,0,0,0,.642-.391,10.066,10.066,0,0,1,19.89,2.22v5.786h-3.168a6.235,6.235,0,0,0,.1-1.158v-5.16a.535.535,0,0,0-.462-.527c-.156-.021-10.363-1.392-10.518-1.411a2.742,2.742,0,0,0-3.042,2.4,2.884,2.884,0,0,0-.018.311v4.384a7.125,7.125,0,0,0,.1,1.158h-3.17v-3.905a.531.531,0,1,0-1.062,0Zm5.2-6.072a1.673,1.673,0,0,1,1.677-1.671,1.84,1.84,0,0,1,.207.012l10.029,1.348v4.7a5.957,5.957,0,1,1-11.914,0Z" transform="translate(-1075.999 -1033.303)" fill="#855db5"/>
        <path id="Trazado_106201" data-name="Trazado 106201" d="M1077.016,1046.431a.548.548,0,1,0-.024,0A.085.085,0,0,0,1077.016,1046.431Z" transform="translate(-1075.998 -1032.149)" fill="#855db5"/>
        <path id="Trazado_106202" data-name="Trazado 106202" d="M1086.688,1054.1a2.912,2.912,0,0,0,2.716-1.881.532.532,0,1,0-1-.373,1.839,1.839,0,0,1-3.44,0,.531.531,0,0,0-1,.369,2.907,2.907,0,0,0,2.716,1.883Z" transform="translate(-1075.057 -1031.365)" fill="#855db5"/>
        <path id="Trazado_106203" data-name="Trazado 106203" d="M1083.292,1048.658a.531.531,0,0,0,.531-.532v-.448a.532.532,0,1,0-1.063,0v.448A.531.531,0,0,0,1083.292,1048.658Z" transform="translate(-1075.206 -1031.914)" fill="#855db5"/>
        <path id="Trazado_106204" data-name="Trazado 106204" d="M1089.587,1048.658a.531.531,0,0,0,.531-.532v-.448a.531.531,0,1,0-1.063,0v.448A.531.531,0,0,0,1089.587,1048.658Z" transform="translate(-1074.412 -1031.914)" fill="#855db5"/>
        <path id="Trazado_106205" data-name="Trazado 106205" d="M1086.438,1050.654a.531.531,0,0,0,.531-.532v-2.046a.531.531,0,1,0-1.062,0v2.046A.531.531,0,0,0,1086.438,1050.654Z" transform="translate(-1074.809 -1031.864)" fill="#855db5"/>
        <path id="Trazado_106206" data-name="Trazado 106206" d="M1122.734,1065.817a4.374,4.374,0,0,0-.642-6.678l-1.374-.942a.533.533,0,0,0-.823.34,2.075,2.075,0,0,1-2.038,1.689h-8.2a3.986,3.986,0,0,0-3.981,3.98v4.96h-.236a2.718,2.718,0,0,0,0,5.436h.453a8.118,8.118,0,0,0,7.908,6.274h0a8.11,8.11,0,0,0,7.916-6.274h.453a2.718,2.718,0,0,0,0-5.436h-.236v-2.542Zm-17.292,7.722a1.656,1.656,0,0,1,0-3.311h.236v2.518c0,.268.016.563.038.793Zm1.3-6.6h1.491l-1.491,2.1Zm14.133,5.809a7.057,7.057,0,0,1-7.047,7.067h-.025a7.063,7.063,0,0,1-7.061-7.064v-1.873l2.794-3.939h8.544l2.8,3.939Zm0-3.707-1.491-2.1h1.491Zm1.3,1.189a1.656,1.656,0,0,1,0,3.311h-.275c.022-.232.038-.529.038-.793v-2.518Zm-.989-4.355h-14.443v-1.667a2.922,2.922,0,0,1,2.918-2.918h8.2a3.139,3.139,0,0,0,2.845-1.814l.792.542a3.309,3.309,0,0,1,.856,4.6,3.377,3.377,0,0,1-.372.45Z" transform="translate(-1072.685 -1030.532)" fill="#855db5"/>
        <path id="Trazado_106207" data-name="Trazado 106207" d="M1115.277,1072.834a.542.542,0,0,0-.685.312,1.833,1.833,0,0,1-3.43,0,.541.541,0,0,0-.682-.312.529.529,0,0,0-.314.682v0a2.9,2.9,0,0,0,5.421,0,.533.533,0,0,0-.311-.685Z" transform="translate(-1071.754 -1028.678)" fill="#855db5"/>
        <path id="Trazado_106208" data-name="Trazado 106208" d="M1109.489,1068.455a.532.532,0,0,0-.531.532v.446a.532.532,0,1,0,1.063,0v-.446A.531.531,0,0,0,1109.489,1068.455Z" transform="translate(-1071.902 -1029.226)" fill="#855db5"/>
        <path id="Trazado_106209" data-name="Trazado 106209" d="M1115.767,1068.455a.531.531,0,0,0-.53.532v.446a.531.531,0,1,0,1.062,0v-.446A.531.531,0,0,0,1115.767,1068.455Z" transform="translate(-1071.109 -1029.226)" fill="#855db5"/>
        <path id="Trazado_106210" data-name="Trazado 106210" d="M1112.629,1071.956a.531.531,0,0,0,.532-.532v-2.04a.531.531,0,1,0-1.063,0v2.04A.531.531,0,0,0,1112.629,1071.956Z" transform="translate(-1071.506 -1029.177)" fill="#855db5"/>
        <path id="Trazado_106211" data-name="Trazado 106211" d="M1098.514,1066.078a11.017,11.017,0,0,0-21.358,5.166.531.531,0,1,0,1.053-.143l0-.031a9.954,9.954,0,0,1,19.3-4.668,2.223,2.223,0,0,0,1.112,1.305l3.465,1.743-3.465,1.741a2.224,2.224,0,0,0-1.112,1.305,9.958,9.958,0,0,1-17.862,2.316.544.544,0,0,0-.735-.161.528.528,0,0,0-.162.73l0,0a11.018,11.018,0,0,0,19.771-2.565,1.135,1.135,0,0,1,.576-.679l4.408-2.216a.531.531,0,0,0,0-.95l-4.408-2.215A1.134,1.134,0,0,1,1098.514,1066.078Z" transform="translate(-1075.932 -1030.491)" fill="#855db5"/>
        <path id="Trazado_106212" data-name="Trazado 106212" d="M1078.653,1071.419l0,0a.545.545,0,0,0-.687-.3.531.531,0,1,0,.689.306Z" transform="translate(-1075.854 -1028.895)" fill="#855db5"/>
        <path id="Trazado_106213" data-name="Trazado 106213" d="M1084.848,1066.544h.893a.986.986,0,0,0,.985-.985v-1.471a.552.552,0,0,1,.508-.569.524.524,0,0,1,.539.507.1.1,0,0,1,0,.018,2.505,2.505,0,0,0,2.511,2.5h.994a.531.531,0,1,0,0-1.062h-1.005a1.44,1.44,0,0,1-1.438-1.438,1.586,1.586,0,0,0-1.584-1.588h-.051a1.621,1.621,0,0,0-1.539,1.631v1.394h-.814a2.563,2.563,0,0,0-2.56,2.559v3.337a2.563,2.563,0,0,0,2.554,2.56h6.438a.531.531,0,0,0,0-1.063h-6.432a1.5,1.5,0,0,1-1.494-1.451h2.19a.531.531,0,1,0,0-1.062h-2.193v-1.3h2.193a.531.531,0,1,0,0-1.063h-2.19A1.5,1.5,0,0,1,1084.848,1066.544Z" transform="translate(-1075.266 -1029.983)" fill="#855db5"/>
        <path id="Trazado_106214" data-name="Trazado 106214" d="M1114.118,1051.6l4.193-4.193a2.745,2.745,0,0,0-3.883-3.882l-.686.686-.686-.686a2.745,2.745,0,0,0-3.883,3.882l4.193,4.193a.531.531,0,0,0,.752,0Zm-4.194-7.322a1.685,1.685,0,0,1,2.381,0l1.062,1.062a.531.531,0,0,0,.752,0h0l1.063-1.062a1.683,1.683,0,1,1,2.38,2.381l-3.82,3.814-3.818-3.817a1.684,1.684,0,0,1,0-2.379Z" transform="translate(-1071.976 -1032.473)" fill="#855db5"/>
      </g>
      <rect id="Rectángulo_5525" data-name="Rectángulo 5525" width="64.632" height="58.559" transform="translate(0 0)" fill="none"/>
    </g>
  </g>
</svg>
