<svg xmlns="http://www.w3.org/2000/svg" width="80.428" height="80.427" viewBox="0 0 80.428 80.427">
  <g id="Grupo_60082" data-name="Grupo 60082" transform="translate(-761.024 -2550)">
    <circle id="Elipse_4097" data-name="Elipse 4097" cx="40.214" cy="40.214" r="40.214" transform="translate(761.024 2550)" fill="#855db5"/>
    <g id="Grupo_56712" data-name="Grupo 56712" transform="translate(768.922 2560.934)">
      <g id="Grupo_57861" data-name="Grupo 57861" transform="translate(3.415 7.239)">
        <g id="Grupo_57860" data-name="Grupo 57860">
          <g id="Grupo_57858" data-name="Grupo 57858" transform="translate(0.811 0.812)">
            <path id="Trazado_106215" data-name="Trazado 106215" d="M675.374,971.869h12.538a3.584,3.584,0,0,1,3.583,3.583v21.5a3.583,3.583,0,0,1-3.583,3.582h-4.478a.9.9,0,0,0-.9.9v4.107a.9.9,0,0,1-1.528.633l-5.374-5.374a.9.9,0,0,0-.634-.262H657.46a3.582,3.582,0,0,1-3.582-3.582v-9.4Z" transform="translate(-637.755 -959.33)" fill="#dcbfff"/>
            <path id="Trazado_106216" data-name="Trazado 106216" d="M673.6,960.735H643.144a3.583,3.583,0,0,0-3.583,3.582v21.5a3.583,3.583,0,0,0,3.583,3.582h4.478a.9.9,0,0,1,.9.9V994.4a.9.9,0,0,0,1.528.633l5.374-5.374a.9.9,0,0,1,.634-.262H673.6a3.582,3.582,0,0,0,3.582-3.582v-21.5a3.581,3.581,0,0,0-3.582-3.582Z" transform="translate(-639.561 -960.735)" fill="#fff"/>
            <circle id="Elipse_4087" data-name="Elipse 4087" cx="1.791" cy="1.791" r="1.791" transform="translate(25.071 32.239)" fill="#f9f5f3"/>
            <g id="Grupo_57852" data-name="Grupo 57852" transform="translate(13.435 3.583)">
              <g id="Grupo_57851" data-name="Grupo 57851">
                <circle id="Elipse_4088" data-name="Elipse 4088" cx="1.791" cy="1.791" r="1.791" transform="translate(3.578 17.912)" fill="#dcbfff"/>
                <g id="Grupo_57850" data-name="Grupo 57850">
                  <path id="Trazado_106217" data-name="Trazado 106217" d="M656.865,978.246a1.791,1.791,0,0,1-1.791-1.791v-1.792a3.992,3.992,0,0,1,2.471-3.715,1.792,1.792,0,1,0-1.9-2.969,1.769,1.769,0,0,0-.57,1.31,1.792,1.792,0,1,1-3.583,0,5.374,5.374,0,1,1,7.414,4.973.428.428,0,0,0-.249.4v1.792A1.791,1.791,0,0,1,656.865,978.246Z" transform="translate(-651.491 -963.917)" fill="#dcbfff"/>
                </g>
              </g>
            </g>
            <circle id="Elipse_4089" data-name="Elipse 4089" cx="1.791" cy="1.791" r="1.791" transform="translate(41.203 32.264)" fill="#f9f5f3"/>
            <circle id="Elipse_4090" data-name="Elipse 4090" cx="1.791" cy="1.791" r="1.791" transform="translate(33.13 32.24)" fill="#f9f5f3"/>
            <g id="Grupo_57853" data-name="Grupo 57853" transform="translate(8.957)">
              <path id="Trazado_106218" data-name="Trazado 106218" d="M651.843,986.447l-4.328,4.329v.412a.9.9,0,0,0,1.528.634l5.374-5.375a.9.9,0,0,1,.634-.262h-2.576A.9.9,0,0,0,651.843,986.447Z" transform="translate(-647.515 -957.525)" fill="#dcbfff"/>
              <path id="Trazado_106219" data-name="Trazado 106219" d="M670.072,960.735H667.5a3.582,3.582,0,0,1,3.582,3.582v21.5A3.583,3.583,0,0,1,667.5,989.4h2.574a3.584,3.584,0,0,0,3.583-3.583v-21.5A3.583,3.583,0,0,0,670.072,960.735Z" transform="translate(-644.994 -960.735)" fill="#dcbfff"/>
            </g>
            <g id="Grupo_57857" data-name="Grupo 57857" transform="translate(42.209 12.538)">
              <g id="Grupo_57856" data-name="Grupo 57856">
                <g id="Grupo_57854" data-name="Grupo 57854" transform="translate(0 28.661)">
                  <path id="Trazado_106220" data-name="Trazado 106220" d="M677.042,998.216v3.694l1.046,1.046a.9.9,0,0,0,1.528-.633v-4.107a.9.9,0,0,1,.9-.9h-2.576a.9.9,0,0,0-.9.9Z" transform="translate(-677.042 -997.32)" fill="#c595ff"/>
                </g>
                <g id="Grupo_57855" data-name="Grupo 57855" transform="translate(5.374)">
                  <path id="Trazado_106221" data-name="Trazado 106221" d="M684.388,971.869h-2.574a3.583,3.583,0,0,1,3.582,3.583v21.5a3.582,3.582,0,0,1-3.582,3.582h2.574a3.583,3.583,0,0,0,3.583-3.582v-21.5a3.584,3.584,0,0,0-3.583-3.583Z" transform="translate(-681.814 -971.869)" fill="#c595ff"/>
                </g>
              </g>
            </g>
          </g>
          <g id="Grupo_57859" data-name="Grupo 57859">
            <path id="Trazado_106222" data-name="Trazado 106222" d="M689.809,972.554H678.081v-8.145a4.4,4.4,0,0,0-4.394-4.394H643.235a4.4,4.4,0,0,0-4.394,4.394v12.077a.811.811,0,0,0,1.622,0V964.408a2.775,2.775,0,0,1,2.773-2.771h30.452a2.775,2.775,0,0,1,2.771,2.771v21.5a2.775,2.775,0,0,1-2.771,2.772H656.145a1.7,1.7,0,0,0-1.207.5l-5.374,5.374a.073.073,0,0,1-.092.019.074.074,0,0,1-.052-.079v-4.107a1.708,1.708,0,0,0-1.707-1.706h-4.477a2.776,2.776,0,0,1-2.773-2.772v-6.176a.811.811,0,1,0-1.622,0V985.9a4.4,4.4,0,0,0,4.394,4.394h4.477a.084.084,0,0,1,.086.084v4.107a1.707,1.707,0,0,0,2.914,1.207l4.251-4.252v7a4.4,4.4,0,0,0,4.394,4.393h9.821a.811.811,0,0,0,0-1.622h-9.821a2.774,2.774,0,0,1-2.771-2.771V990.3h17.1a4.4,4.4,0,0,0,4.394-4.394V974.175h11.728a2.776,2.776,0,0,1,2.773,2.773v21.5a2.775,2.775,0,0,1-2.773,2.771h-4.477a1.709,1.709,0,0,0-1.707,1.707v4.107a.085.085,0,0,1-.144.06l-5.374-5.374a1.7,1.7,0,0,0-1.207-.5h-4.476a.811.811,0,1,0,0,1.622H676.9a.085.085,0,0,1,.061.026l5.374,5.374a1.707,1.707,0,0,0,2.913-1.207v-4.107a.085.085,0,0,1,.085-.086h4.479a4.4,4.4,0,0,0,4.393-4.393v-21.5a4.4,4.4,0,0,0-4.394-4.394Z" transform="translate(-638.841 -960.014)" fill="#855db5"/>
            <path id="Trazado_106223" data-name="Trazado 106223" d="M661.111,991.25a2.6,2.6,0,1,0,2.6-2.6A2.6,2.6,0,0,0,661.111,991.25Zm3.582,0a.98.98,0,1,1-.981-.981A.981.981,0,0,1,664.693,991.25Z" transform="translate(-636.032 -956.402)" fill="#855db5"/>
            <path id="Trazado_106224" data-name="Trazado 106224" d="M653.953,981.705a2.6,2.6,0,1,0,2.6-2.6,2.6,2.6,0,0,0-2.6,2.6Zm3.582,0a.98.98,0,1,1-.98-.981.981.981,0,0,1,.98.981Z" transform="translate(-636.935 -957.606)" fill="#855db5"/>
            <path id="Trazado_106225" data-name="Trazado 106225" d="M659.558,974.992a6.185,6.185,0,1,0-8.787-5.612,2.6,2.6,0,1,0,5.205,0,.959.959,0,0,1,.312-.717.98.98,0,0,1,.743-.26,1,1,0,0,1,.9.9.985.985,0,0,1-.607.982,4.8,4.8,0,0,0-2.974,4.466v1.792a2.6,2.6,0,0,0,5.205,0v-1.554Zm-.869-1.39a1.231,1.231,0,0,0-.752,1.152v1.792a.98.98,0,0,1-1.961,0v-1.792a3.184,3.184,0,0,1,1.968-2.965,2.605,2.605,0,0,0,1.608-2.6,2.638,2.638,0,0,0-2.411-2.409c-.062,0-.123-.007-.184-.007a2.6,2.6,0,0,0-2.6,2.6.98.98,0,1,1-1.961,0,4.563,4.563,0,1,1,6.3,4.222Z" transform="translate(-637.336 -959.613)" fill="#855db5"/>
            <path id="Trazado_106226" data-name="Trazado 106226" d="M680.631,991.25a2.6,2.6,0,1,0-2.6,2.6A2.6,2.6,0,0,0,680.631,991.25Zm-3.582,0a.98.98,0,1,1,.981.98A.982.982,0,0,1,677.049,991.25Z" transform="translate(-634.226 -956.402)" fill="#855db5"/>
            <path id="Trazado_106227" data-name="Trazado 106227" d="M670.872,993.851a2.6,2.6,0,1,0-2.6-2.6A2.6,2.6,0,0,0,670.872,993.851Zm0-3.582a.98.98,0,1,1-.981.981A.981.981,0,0,1,670.872,990.269Z" transform="translate(-635.129 -956.402)" fill="#855db5"/>
          </g>
        </g>
      </g>
      <rect id="Rectángulo_5525" data-name="Rectángulo 5525" width="64.632" height="58.559" fill="none"/>
    </g>
  </g>
</svg>
