<svg xmlns="http://www.w3.org/2000/svg" width="1240.811" height="771.652" viewBox="0 0 1240.811 771.652">
  <g id="Grupo_60050" data-name="Grupo 60050" transform="translate(0 -4055.341)">
    <rect id="background" width="1240.811" height="771.652" transform="translate(0 4055.341)" fill="#ece4f9"/>
    <g id="Grupo_60049" data-name="Grupo 60049" transform="translate(278.809 4097.33)">
      <circle id="Elipse_4017" data-name="Elipse 4017" cx="254.209" cy="254.209" r="254.209" transform="translate(88.645 87.053)" fill="#855db5"/>
      <circle id="Elipse_4018" data-name="Elipse 4018" cx="194.278" cy="194.278" r="194.278" transform="translate(151.742 146.984)" fill="#a271dc"/>
      <g id="Grupo_53720" data-name="Grupo 53720" transform="translate(344.685 345.636)">
        <g id="Grupo_53717" data-name="Grupo 53717" transform="translate(18.374)">
          <path id="Trazado_100444" data-name="Trazado 100444" d="M741.1,4475.784a.88.88,0,0,1-.88-.807,47.089,47.089,0,0,0-7.5-21.852c-3.592-5.252-7.873-8.381-11.447-8.381h-.009c-13.017.027-15.747,29.925-15.774,30.224a.888.888,0,0,1-1.772-.122l0-.032c.109-1.3,2.9-31.82,17.543-31.848h.018c4.227,0,8.926,3.338,12.917,9.152A48.9,48.9,0,0,1,742,4474.8a.888.888,0,0,1-.795.971H741.2A.4.4,0,0,1,741.1,4475.784Z" transform="translate(-685.033 -4442.966)" fill="#8400ad"/>
          <path id="Trazado_100445" data-name="Trazado 100445" d="M686.861,4537.309l17.144,8.681,10.386-31.866L697.274,4471.4l-4.853,1.188-7.365,61.364A3.32,3.32,0,0,0,686.861,4537.309Z" transform="translate(-685.033 -4442.966)" fill="#9700c7"/>
          <path id="Trazado_100446" data-name="Trazado 100446" d="M714.382,4514.124,697.266,4471.4l-2.866.7a92.329,92.329,0,0,0,.045,13.815c1.143,14.55,4.953,18.6,3.111,28.745-1.533,8.436-4.889,9.588-4.59,15.257.317,6.186,4.635,11.357,9.76,15.429l1.261.644Z" transform="translate(-685.033 -4442.966)" fill="#8400ad"/>
          <path id="Trazado_100447" data-name="Trazado 100447" d="M697.274,4471.392h63.913l21.144,68.28-78.326,6.313Z" transform="translate(-685.033 -4442.966)" fill="#c200ff"/>
          <path id="Trazado_100448" data-name="Trazado 100448" d="M717.075,4477.252a.88.88,0,0,1-.862-.689c-.181-.771-4.381-19.067,1.542-28.047a10.3,10.3,0,0,1,7.048-4.671c15.3-2.694,24.727,30.179,25.126,31.575a.89.89,0,1,1-1.714.481c-.091-.327-9.37-32.727-23.1-30.306a8.462,8.462,0,0,0-5.869,3.9c-5.506,8.345-1.333,26.487-1.3,26.668a.892.892,0,0,1-.662,1.07A1.575,1.575,0,0,1,717.075,4477.252Z" transform="translate(-685.033 -4442.966)" fill="#8400ad"/>
          <g id="Grupo_53716" data-name="Grupo 53716" transform="translate(22.82 28.426)">
            <path id="Trazado_100449" data-name="Trazado 100449" d="M761.187,4471.392h-31.7a8.572,8.572,0,0,0-2.776,5.479c-.5,9.66,21.716,12.835,23.856,26.079,1.542,9.552-7.964,20.573-16.445,25.48-8.935,5.17-14.994,2.558-21.035,8.3a19.776,19.776,0,0,0-5.234,8.953l74.48-6Z" transform="translate(-707.853 -4471.392)" fill="#9100bf"/>
          </g>
          <circle id="Elipse_4035" data-name="Elipse 4035" cx="2.485" cy="2.485" r="2.485" transform="translate(29.558 31.927)" fill="#9700c7"/>
          <circle id="Elipse_4036" data-name="Elipse 4036" cx="2.485" cy="2.485" r="2.485" transform="translate(61.958 31.7)" fill="#9700c7"/>
        </g>
        <g id="Grupo_53718" data-name="Grupo 53718" transform="translate(0 20.865)">
          <circle id="Elipse_4037" data-name="Elipse 4037" cx="23.965" cy="23.965" r="23.965" fill="#02ba8e"/>
          <g id="_" data-name=" " transform="translate(8.072 0.27)" style="isolation: isolate">
            <text id="_2" data-name="%" transform="matrix(0.938, 0.348, -0.348, 0.938, 2.433, 26.254)" fill="#fff" font-size="27" font-family="RobotoSlab-Bold, Roboto Slab" font-weight="700" style="isolation: isolate"><tspan x="0" y="0">%</tspan></text>
          </g>
        </g>
        <g id="Grupo_53719" data-name="Grupo 53719" transform="translate(70.227 74.134)">
          <path id="Trazado_100450" data-name="Trazado 100450" d="M772.771,4527.468a18.973,18.973,0,1,1-25.516-8.3A18.973,18.973,0,0,1,772.771,4527.468Z" transform="translate(-736.886 -4517.1)" fill="#02b8c4"/>
          <g id="_2-2" data-name=" 2" transform="translate(1.409 4.665)" style="isolation: isolate">
            <text id="_3" data-name="$" transform="translate(18.197 24.747) rotate(-49.307)" fill="#fff" font-size="23" font-family="RobotoSlab-Bold, Roboto Slab" font-weight="700" style="isolation: isolate"><tspan x="0" y="0">$</tspan></text>
          </g>
        </g>
      </g>
      <path id="Trazado_100426" data-name="Trazado 100426" d="M892.288,4217.863l-139.88,140.19c-20.926,20.972-6.068,56.783,23.557,56.783h198.06a33.329,33.329,0,0,0,33.027-37.363,311.982,311.982,0,0,0-65.137-156.789,33.248,33.248,0,0,0-49.627-2.821Z" transform="translate(-321.974 -4097.33)" fill="#efedee" stroke="#fff" stroke-miterlimit="10" stroke-width="3"/>
      <path id="Trazado_100426-2" data-name="Trazado 100426" d="M892.288,4665.915l-139.88-140.19c-20.926-20.972-6.068-56.783,23.557-56.783h198.06a33.329,33.329,0,0,1,33.027,37.363,311.993,311.993,0,0,1-65.137,156.789,33.249,33.249,0,0,1-49.627,2.821Z" transform="translate(-321.974 -4097.33)" fill="#efedee" stroke="#fff" stroke-miterlimit="10" stroke-width="3"/>
      <path id="Trazado_100426-3" data-name="Trazado 100426" d="M436.983,4217.863l139.88,140.19c20.926,20.972,6.068,56.783-23.557,56.783H355.246a33.329,33.329,0,0,1-33.027-37.363,311.982,311.982,0,0,1,65.137-156.789,33.248,33.248,0,0,1,49.627-2.821Z" transform="translate(-321.974 -4097.33)" fill="#efedee" stroke="#fff" stroke-miterlimit="10" stroke-width="3"/>
      <path id="Trazado_100426-4" data-name="Trazado 100426" d="M436.983,4665.915l139.88-140.19c20.926-20.972,6.068-56.783-23.557-56.783H355.246a33.329,33.329,0,0,0-33.027,37.363,311.992,311.992,0,0,0,65.137,156.789,33.249,33.249,0,0,0,49.627,2.821Z" transform="translate(-321.974 -4097.33)" fill="#efedee" stroke="#fff" stroke-miterlimit="10" stroke-width="3"/>
      <path id="Trazado_100429" data-name="Trazado 100429" d="M596.043,4105.98a311.972,311.972,0,0,1,169.006,6.5,33.326,33.326,0,0,1,20.132,45.622l-82.655,179.709c-12.4,26.948-51.2,25.434-61.458-2.4l-68.424-185.575a33.255,33.255,0,0,1,23.4-43.861Z" transform="translate(-321.974 -4097.33)" fill="#efedee" stroke="#fff" stroke-miterlimit="10" stroke-width="3"/>
      <path id="Trazado_100429-2" data-name="Trazado 100429" d="M763.278,4764.557a311.982,311.982,0,0,1-169.131-.268,33.327,33.327,0,0,1-21.8-44.849l75.971-182.635c11.392-27.387,50.223-27.305,61.505.133l75.22,182.925a33.257,33.257,0,0,1-21.765,44.694Z" transform="translate(-321.974 -4097.33)" fill="#efedee" stroke="#fff" stroke-miterlimit="10" stroke-width="3"/>
      <circle id="Elipse_4019" data-name="Elipse 4019" cx="188.446" cy="188.446" r="188.446" transform="translate(157.574 152.816)" fill="#fff"/>
      <text id="Beneficios" transform="translate(344.02 458.309)" fill="#855db5" font-size="30" font-family="Roboto-Bold, Roboto" font-weight="700"><tspan x="-71.309" y="0">Beneficios</tspan></text>
      <g id="Grupo_59838" data-name="Grupo 59838" transform="translate(205.85 268.361)">
        <g id="Grupo_53700" data-name="Grupo 53700">
          <g id="Grupo_53699" data-name="Grupo 53699">
            <g id="Grupo_53694" data-name="Grupo 53694">
              <path id="Trazado_100431" data-name="Trazado 100431" d="M770.9,4502.805H569.386a8.967,8.967,0,0,1-8.967-8.966V4374.658a8.968,8.968,0,0,1,8.967-8.967H770.9a8.967,8.967,0,0,1,8.966,8.967v119.188A8.964,8.964,0,0,1,770.9,4502.805Z" transform="translate(-527.824 -4365.691)" fill="#855db5"/>
              <g id="Grupo_53693" data-name="Grupo 53693" transform="translate(38.057 5.257)">
                <path id="Unión_3" data-name="Unión 3" d="M576.8,4501.242a10.919,10.919,0,0,1-10.923-10.915V4479.29h.007v-38l84.7-70.337h112.9a10.921,10.921,0,0,1,10.923,10.92v51.765H774.4v56.685a10.921,10.921,0,0,1-10.917,10.922h-.006Zm-10.923-119.369a10.92,10.92,0,0,1,10.915-10.925h73.781l-84.7,70.337Z" transform="translate(-565.881 -4370.948)" fill="#fff" opacity="0.95" style="isolation: isolate"/>
              </g>
              <path id="Trazado_100435" data-name="Trazado 100435" d="M790.291,4511.493H545.7a17.87,17.87,0,0,1-17.876-17.864v-.009h280.34A17.875,17.875,0,0,1,790.291,4511.493Z" transform="translate(-527.824 -4365.691)" fill="#855db5"/>
            </g>
          </g>
        </g>
        <g id="Grupo_59837" data-name="Grupo 59837" transform="translate(69.837 14.958)">
          <path id="Trazado_108470" data-name="Trazado 108470" d="M626.508,4424.606a28.848,28.848,0,0,0-28.847,28.848v30.221H635.3l20.056-20.056c0-3.326,0-6.767,0-10.166a28.847,28.847,0,0,0-28.847-28.847Z" transform="translate(-597.661 -4380.649)" fill="#bb83ff"/>
          <path id="Trazado_108471" data-name="Trazado 108471" d="M626.508,4424.606v59.069H635.3l20.056-20.056c0-3.325,0-6.767,0-10.166a28.847,28.847,0,0,0-28.847-28.847Z" transform="translate(-597.661 -4380.649)" fill="#dcbfff"/>
          <path id="Trazado_108472" data-name="Trazado 108472" d="M682.005,4464.443l22.791-22.79a28.847,28.847,0,0,0-57.682.811v29.4l21.155-21.154Z" transform="translate(-597.661 -4380.649)" fill="#a271dc"/>
          <path id="Trazado_108473" data-name="Trazado 108473" d="M675.961,4458.4l6.044,6.044,22.791-22.79a28.847,28.847,0,0,0-28.835-28.036Z" transform="translate(-597.661 -4380.649)" fill="#855db5"/>
          <path id="Trazado_108474" data-name="Trazado 108474" d="M675.961,4421.859a20.6,20.6,0,1,1,20.6-20.6A20.628,20.628,0,0,1,675.961,4421.859Z" transform="translate(-597.661 -4380.649)" fill="#ffd0af"/>
          <path id="Trazado_108475" data-name="Trazado 108475" d="M696.566,4401.254a20.628,20.628,0,0,0-20.6-20.6v41.21A20.628,20.628,0,0,0,696.566,4401.254Z" transform="translate(-597.661 -4380.649)" fill="#fabe8c"/>
          <path id="Trazado_108476" data-name="Trazado 108476" d="M734.205,4408.122H717.721a4.121,4.121,0,1,0,0,8.242h6.535l-42.251,42.251-10.823-10.823a4.122,4.122,0,0,0-5.828,0l-31.761,31.762H601.782a4.121,4.121,0,1,0,0,8.242H635.3a4.121,4.121,0,0,0,2.914-1.207l30.055-30.054,10.823,10.823a4.122,4.122,0,0,0,5.828,0l45.164-45.166v6.536a4.122,4.122,0,0,0,8.243,0v-16.485a4.122,4.122,0,0,0-4.122-4.121Z" transform="translate(-597.661 -4380.649)" fill="#a271dc"/>
          <path id="Trazado_108477" data-name="Trazado 108477" d="M626.508,4432.849a20.605,20.605,0,1,1,20.606-20.606A20.629,20.629,0,0,1,626.508,4432.849Z" transform="translate(-597.661 -4380.649)" fill="#ffd0af"/>
          <path id="Trazado_108478" data-name="Trazado 108478" d="M647.114,4412.243a20.629,20.629,0,0,0-20.606-20.6v41.211A20.63,20.63,0,0,0,647.114,4412.243Z" transform="translate(-597.661 -4380.649)" fill="#fabe8c"/>
        </g>
      </g>
      <g id="Grupo_59926" data-name="Grupo 59926" transform="translate(318.058 25.75)">
        <g id="Layer_2" data-name="Layer 2">
          <g id="Grupo_59925" data-name="Grupo 59925">
            <g id="Grupo_59840" data-name="Grupo 59840" transform="translate(4.75 53.751)">
              <g id="Grupo_59839" data-name="Grupo 59839">
                <path id="Trazado_108479" data-name="Trazado 108479" d="M675.323,4218.305v-26.826a2.314,2.314,0,0,1,2.307-2.307h19.607l-6.569-1.658a12.634,12.634,0,0,1-2.5-.921l-3.579-1.764a4.025,4.025,0,0,1-2.244-3.609v-4.389a14.4,14.4,0,0,1-13.769,0v4.389a4.024,4.024,0,0,1-2.245,3.609l-3.578,1.764a12.576,12.576,0,0,1-2.5.921l-10.349,2.613a5.933,5.933,0,0,0-4.477,5.425l-.637,17.5a77.9,77.9,0,0,0,11.42,3.73v-8.823l1.618,5.184a35.129,35.129,0,0,1,1.481,7.66h6.8a4.466,4.466,0,0,0,3.064-1.147,4.966,4.966,0,0,1,3.406-1.353Z" transform="translate(-644.782 -4176.831)" fill="#bb83ff"/>
              </g>
            </g>
            <g id="Grupo_59842" data-name="Grupo 59842" transform="translate(35.291 66.092)">
              <g id="Grupo_59841" data-name="Grupo 59841">
                <path id="Trazado_108480" data-name="Trazado 108480" d="M719.09,4189.172H677.63a2.314,2.314,0,0,0-2.307,2.307v30.044a2.314,2.314,0,0,0,2.307,2.307h41.46a2.314,2.314,0,0,0,2.307-2.307v-30.044A2.314,2.314,0,0,0,719.09,4189.172Z" transform="translate(-675.323 -4189.172)" fill="#edf4fc"/>
              </g>
            </g>
            <g id="Grupo_59844" data-name="Grupo 59844" transform="translate(32.029 100.75)">
              <g id="Grupo_59843" data-name="Grupo 59843">
                <path id="Trazado_108481" data-name="Trazado 108481" d="M723.243,4223.83H673.477a1.416,1.416,0,0,0-1.416,1.416,3.477,3.477,0,0,0,3.477,3.477h45.645a3.477,3.477,0,0,0,3.477-3.477A1.418,1.418,0,0,0,723.243,4223.83Z" transform="translate(-672.061 -4223.83)" fill="#c7d7e5"/>
              </g>
            </g>
            <g id="Grupo_59846" data-name="Grupo 59846" transform="translate(42.309 40.889)">
              <g id="Grupo_59845" data-name="Grupo 59845">
                <path id="Trazado_108482" data-name="Trazado 108482" d="M684.585,4184.829l3.579,1.764a12.573,12.573,0,0,0,2.5.921l6.569,1.658h.739c.5-6.65-6.657-10.653-4.735-15.458a16.921,16.921,0,0,0,1.217-9.745,5.925,5.925,0,0,1-4.564,1.112,14.526,14.526,0,0,1-7.553,11.75v4.389A4.025,4.025,0,0,0,684.585,4184.829Z" transform="translate(-682.341 -4163.969)" fill="#5b5d60"/>
              </g>
            </g>
            <g id="Grupo_59848" data-name="Grupo 59848" transform="translate(12.875 40.889)">
              <g id="Grupo_59847" data-name="Grupo 59847">
                <path id="Trazado_108483" data-name="Trazado 108483" d="M660.245,4187.514a12.637,12.637,0,0,0,2.5-.921l3.579-1.764a4.025,4.025,0,0,0,2.244-3.609v-4.389a14.528,14.528,0,0,1-7.553-11.75,5.923,5.923,0,0,1-4.563-1.112,16.912,16.912,0,0,0,1.217,9.745c1.94,4.85-5.371,8.88-4.725,15.643Z" transform="translate(-652.907 -4163.969)" fill="#5b5d60"/>
              </g>
            </g>
            <g id="Grupo_59850" data-name="Grupo 59850" transform="translate(49.862 29.999)">
              <g id="Grupo_59849" data-name="Grupo 59849">
                <path id="Trazado_108484" data-name="Trazado 108484" d="M690.859,4153.079a6.071,6.071,0,0,0-.929.074v10.957c0,.326-.015.649-.036.971a6.163,6.163,0,0,0,.965.084,6.043,6.043,0,0,0,0-12.086Z" transform="translate(-689.894 -4153.079)" fill="#f9d0b4"/>
              </g>
            </g>
            <g id="Grupo_59852" data-name="Grupo 59852" transform="translate(20.951 24.939)">
              <g id="Grupo_59851" data-name="Grupo 59851">
                <path id="Trazado_108485" data-name="Trazado 108485" d="M682.38,4148.352c-2.205,2.573-10.022,10.379-21.4,7.139v8.619a14.474,14.474,0,1,0,28.948,0v-11.693a1.136,1.136,0,0,0-.89-1.1,11.991,11.991,0,0,1-5.282-3.04.96.96,0,0,0-1.379.078Z" transform="translate(-660.983 -4148.019)" fill="#f9d0b4"/>
              </g>
            </g>
            <g id="Grupo_59854" data-name="Grupo 59854" transform="translate(13.979 31.142)">
              <g id="Grupo_59853" data-name="Grupo 59853">
                <path id="Trazado_108486" data-name="Trazado 108486" d="M660.983,4155.49a23.618,23.618,0,0,1-3.062-1.112,1.839,1.839,0,0,0-2,.344,6.038,6.038,0,0,0,4.134,10.443,6.162,6.162,0,0,0,.965-.084c-.022-.322-.037-.645-.037-.971v-8.62Z" transform="translate(-654.011 -4154.222)" fill="#f9d0b4"/>
              </g>
            </g>
            <g id="Grupo_59857" data-name="Grupo 59857" transform="translate(15.742 8.554)">
              <g id="Grupo_59856" data-name="Grupo 59856">
                <g id="Grupo_59855" data-name="Grupo 59855">
                  <path id="Trazado_108487" data-name="Trazado 108487" d="M655.92,4154.723a1.839,1.839,0,0,1,2-.344,23.764,23.764,0,0,0,3.062,1.112c11.375,3.24,19.192-4.566,21.4-7.139a.96.96,0,0,1,1.379-.078,11.979,11.979,0,0,0,5.281,3.04,1.136,1.136,0,0,1,.89,1.1v.736a6.018,6.018,0,0,1,5.208,1.7v-3.539a19.682,19.682,0,1,0-39.364,0v3.557C655.824,4154.823,655.869,4154.77,655.92,4154.723Z" transform="translate(-655.774 -4131.634)" fill="#5b5d60"/>
                </g>
              </g>
            </g>
            <g id="Grupo_59859" data-name="Grupo 59859" transform="translate(48.555 73.992)">
              <g id="Grupo_59858" data-name="Grupo 59858">
                <circle id="Elipse_4172" data-name="Elipse 4172" cx="9.773" cy="9.773" r="9.773" fill="#70d6f9"/>
              </g>
            </g>
            <g id="Grupo_59861" data-name="Grupo 59861" transform="translate(22.122 53.751)">
              <g id="Grupo_59860" data-name="Grupo 59860">
                <path id="Trazado_108488" data-name="Trazado 108488" d="M688.716,4186.848c-.186-.081-.37-.165-.552-.255l-3.579-1.764a4.025,4.025,0,0,1-2.244-3.609v-4.389a14.4,14.4,0,0,1-13.769,0v4.389a4.024,4.024,0,0,1-2.245,3.609l-3.578,1.764c-.2.1-.4.188-.6.274a14.788,14.788,0,0,0,13.168,8.363v-3.751a2.314,2.314,0,0,1,2.307-2.307h9.691a14.751,14.751,0,0,0,1.4-2.324Z" transform="translate(-662.154 -4176.831)" fill="#f9d0b4"/>
              </g>
            </g>
            <g id="Grupo_59863" data-name="Grupo 59863" transform="translate(4.24 89.974)">
              <g id="Grupo_59862" data-name="Grupo 59862">
                <path id="Trazado_108489" data-name="Trazado 108489" d="M672.06,4225.246a1.416,1.416,0,0,1,1.416-1.416h4.153a2.314,2.314,0,0,1-2.307-2.307v-3.218h-2.755a4.967,4.967,0,0,0-3.407,1.353,4.464,4.464,0,0,1-3.064,1.147h-9.26a.635.635,0,0,1-.635-.634v-3.387a78.1,78.1,0,0,1-11.42-3.73l-.506,13.927a1.65,1.65,0,0,0,1.647,1.742h29.615A3.477,3.477,0,0,1,672.06,4225.246Z" transform="translate(-644.272 -4213.054)" fill="#f9d0b4"/>
              </g>
            </g>
            <g id="Grupo_59865" data-name="Grupo 59865" transform="translate(3.707 52.857)">
              <g id="Grupo_59864" data-name="Grupo 59864">
                <path id="Trazado_108490" data-name="Trazado 108490" d="M659.287,4221.69a1.041,1.041,0,0,1-1.037-.954,34.2,34.2,0,0,0-1.006-5.826v1.875a1.043,1.043,0,0,1-1.289,1.012,79.242,79.242,0,0,1-11.573-3.78,1.044,1.044,0,0,1-.642-1l.637-17.5a6.954,6.954,0,0,1,5.264-6.4l10.348-2.612a11.613,11.613,0,0,0,2.3-.844l3.578-1.765a2.965,2.965,0,0,0,1.664-2.675v-4.242a1.041,1.041,0,0,1,2.083,0v4.242a5.035,5.035,0,0,1-2.825,4.544l-3.579,1.764a13.677,13.677,0,0,1-2.71,1l-10.349,2.612a4.87,4.87,0,0,0-3.691,4.473l-.61,16.756a77.146,77.146,0,0,0,9.31,3.081v-7.485a1.042,1.042,0,0,1,2.037-.31l1.618,5.183a36.25,36.25,0,0,1,1.512,7.726,1.043,1.043,0,0,1-.95,1.126l-.089,0Z" transform="translate(-643.739 -4175.937)" fill="#855db5"/>
              </g>
            </g>
            <g id="Grupo_59867" data-name="Grupo 59867" transform="translate(41.267 52.965)">
              <g id="Grupo_59866" data-name="Grupo 59866">
                <path id="Trazado_108491" data-name="Trazado 108491" d="M697.136,4190.189a1.075,1.075,0,0,1-.256-.032l-6.467-1.633a13.673,13.673,0,0,1-2.71-1l-3.579-1.765a5.035,5.035,0,0,1-2.825-4.543v-4.133a1.042,1.042,0,0,1,2.084,0v4.133a2.964,2.964,0,0,0,1.663,2.675l3.578,1.764a11.676,11.676,0,0,0,2.3.845l6.468,1.633a1.042,1.042,0,0,1-.254,2.052Z" transform="translate(-681.299 -4176.045)" fill="#855db5"/>
              </g>
            </g>
            <g id="Grupo_59869" data-name="Grupo 59869" transform="translate(30.18 45.189)">
              <g id="Grupo_59868" data-name="Grupo 59868">
                <path id="Trazado_108492" data-name="Trazado 108492" d="M675.456,4172.154a6.538,6.538,0,0,1-5-2.173,1.042,1.042,0,0,1,1.6-1.339,4.771,4.771,0,0,0,6.807,0,1.042,1.042,0,0,1,1.6,1.339A6.537,6.537,0,0,1,675.456,4172.154Z" transform="translate(-670.212 -4168.27)" fill="#855db5"/>
              </g>
            </g>
            <g id="Grupo_59871" data-name="Grupo 59871" transform="translate(40.963 36.18)">
              <g id="Grupo_59870" data-name="Grupo 59870">
                <circle id="Elipse_4173" data-name="Elipse 4173" cx="1.667" cy="1.667" r="1.667" fill="#754c24"/>
              </g>
            </g>
            <g id="Grupo_59873" data-name="Grupo 59873" transform="translate(26.969 36.18)">
              <g id="Grupo_59872" data-name="Grupo 59872">
                <circle id="Elipse_4174" data-name="Elipse 4174" cx="1.667" cy="1.667" r="1.667" fill="#754c24"/>
              </g>
            </g>
            <g id="Grupo_59878" data-name="Grupo 59878" transform="translate(20.192 32.436)">
              <g id="Grupo_59875" data-name="Grupo 59875" transform="translate(16.218)">
                <g id="Grupo_59874" data-name="Grupo 59874">
                  <path id="Trazado_108493" data-name="Trazado 108493" d="M685.361,4167.33H681.77a5.334,5.334,0,0,1-5.328-5.328v-2.484a4.006,4.006,0,0,1,4-4h6.243a4.006,4.006,0,0,1,4,4V4162a5.334,5.334,0,0,1-5.328,5.328Zm-4.917-9.73a1.92,1.92,0,0,0-1.918,1.918V4162a3.247,3.247,0,0,0,3.244,3.244h3.591A3.247,3.247,0,0,0,688.6,4162v-2.485a1.92,1.92,0,0,0-1.918-1.918Z" transform="translate(-676.442 -4155.516)" fill="#855db5"/>
                </g>
              </g>
              <g id="Grupo_59877" data-name="Grupo 59877">
                <g id="Grupo_59876" data-name="Grupo 59876">
                  <path id="Trazado_108494" data-name="Trazado 108494" d="M669.143,4167.33h-3.591a5.334,5.334,0,0,1-5.328-5.328v-2.484a4.006,4.006,0,0,1,4-4h6.242a4.007,4.007,0,0,1,4,4V4162a5.334,5.334,0,0,1-5.328,5.328Zm-4.917-9.73a1.92,1.92,0,0,0-1.918,1.918V4162a3.247,3.247,0,0,0,3.244,3.244h3.592a3.248,3.248,0,0,0,3.244-3.244v-2.485a1.92,1.92,0,0,0-1.919-1.918Z" transform="translate(-660.224 -4155.516)" fill="#855db5"/>
                </g>
              </g>
            </g>
            <g id="Grupo_59880" data-name="Grupo 59880" transform="translate(32.761 35.911)">
              <g id="Grupo_59879" data-name="Grupo 59879">
                <path id="Trazado_108495" data-name="Trazado 108495" d="M677.078,4161.074h-3.243a1.042,1.042,0,1,1,0-2.083h3.243a1.042,1.042,0,1,1,0,2.083Z" transform="translate(-672.793 -4158.991)" fill="#855db5"/>
              </g>
            </g>
            <g id="Grupo_59882" data-name="Grupo 59882" transform="translate(34.249 65.05)">
              <g id="Grupo_59881" data-name="Grupo 59881">
                <path id="Trazado_108496" data-name="Trazado 108496" d="M719.172,4224.871a1.042,1.042,0,0,1-.036-2.083,1.276,1.276,0,0,0,1.219-1.265v-30.044a1.267,1.267,0,0,0-1.265-1.265H677.63a1.268,1.268,0,0,0-1.266,1.265v30.044a1.279,1.279,0,0,0,1.208,1.264,1.042,1.042,0,0,1-.094,2.082,3.344,3.344,0,0,1-3.2-3.346v-30.044a3.353,3.353,0,0,1,3.349-3.349h41.461a3.353,3.353,0,0,1,3.348,3.349v30.044a3.336,3.336,0,0,1-3.229,3.347Z" transform="translate(-674.281 -4188.13)" fill="#855db5"/>
              </g>
            </g>
            <g id="Grupo_59884" data-name="Grupo 59884" transform="translate(30.986 99.709)">
              <g id="Grupo_59883" data-name="Grupo 59883">
                <path id="Trazado_108497" data-name="Trazado 108497" d="M721.182,4229.765H675.537a4.524,4.524,0,0,1-4.519-4.519,2.46,2.46,0,0,1,2.458-2.457h49.767a2.46,2.46,0,0,1,2.457,2.457A4.523,4.523,0,0,1,721.182,4229.765Zm-47.706-4.893a.375.375,0,0,0-.374.374,2.438,2.438,0,0,0,2.435,2.435h45.645a2.438,2.438,0,0,0,2.435-2.435.375.375,0,0,0-.374-.374Z" transform="translate(-671.018 -4222.789)" fill="#855db5"/>
              </g>
            </g>
            <g id="Grupo_59891" data-name="Grupo 59891" transform="translate(50.785 79.9)">
              <g id="Grupo_59886" data-name="Grupo 59886" transform="translate(0 0.066)">
                <g id="Grupo_59885" data-name="Grupo 59885">
                  <path id="Trazado_108498" data-name="Trazado 108498" d="M694.348,4210.708a1.041,1.041,0,0,1-.779-.348l-2.487-2.789a1.04,1.04,0,0,1,0-1.387l2.487-2.789a1.042,1.042,0,0,1,1.556,1.387l-1.869,2.095,1.869,2.1a1.041,1.041,0,0,1-.777,1.735Z" transform="translate(-690.817 -4203.047)" fill="#855db5"/>
                </g>
              </g>
              <g id="Grupo_59888" data-name="Grupo 59888" transform="translate(10.513 0.066)">
                <g id="Grupo_59887" data-name="Grupo 59887">
                  <path id="Trazado_108499" data-name="Trazado 108499" d="M702.372,4210.708a1.042,1.042,0,0,1-.777-1.735l1.868-2.1-1.868-2.095a1.042,1.042,0,0,1,1.555-1.387l2.487,2.789a1.04,1.04,0,0,1,0,1.387l-2.487,2.789A1.038,1.038,0,0,1,702.372,4210.708Z" transform="translate(-701.33 -4203.047)" fill="#855db5"/>
                </g>
              </g>
              <g id="Grupo_59890" data-name="Grupo 59890" transform="translate(5.285)">
                <g id="Grupo_59889" data-name="Grupo 59889">
                  <path id="Trazado_108500" data-name="Trazado 108500" d="M697.144,4210.613a1.042,1.042,0,0,1-.954-1.46l2.431-5.548a1.042,1.042,0,1,1,1.908.836l-2.43,5.548a1.045,1.045,0,0,1-.955.624Z" transform="translate(-696.102 -4202.98)" fill="#855db5"/>
                </g>
              </g>
            </g>
            <g id="Grupo_59893" data-name="Grupo 59893" transform="translate(56.294 8.105)">
              <g id="Grupo_59892" data-name="Grupo 59892">
                <path id="Trazado_108501" data-name="Trazado 108501" d="M703.978,4134.886a4.627,4.627,0,0,1-3.708-3.632.083.083,0,0,0-.164,0,4.627,4.627,0,0,1-3.709,3.632.081.081,0,0,0,0,.161,4.629,4.629,0,0,1,3.709,3.633.083.083,0,0,0,.164,0,4.629,4.629,0,0,1,3.708-3.633A.081.081,0,0,0,703.978,4134.886Z" transform="translate(-696.326 -4131.185)" fill="#f5c84c"/>
              </g>
            </g>
            <g id="Grupo_59895" data-name="Grupo 59895" transform="translate(58.532 44.36)">
              <g id="Grupo_59894" data-name="Grupo 59894">
                <path id="Trazado_108502" data-name="Trazado 108502" d="M703.434,4169.8a2.943,2.943,0,0,1-2.36-2.312.053.053,0,0,0-.1,0,2.943,2.943,0,0,1-2.36,2.312.051.051,0,0,0,0,.1,2.944,2.944,0,0,1,2.36,2.312.053.053,0,0,0,.1,0,2.943,2.943,0,0,1,2.36-2.312A.052.052,0,0,0,703.434,4169.8Z" transform="translate(-698.564 -4167.44)" fill="#fc657e"/>
              </g>
            </g>
            <g id="Grupo_59897" data-name="Grupo 59897" transform="translate(4.047 48.035)">
              <g id="Grupo_59896" data-name="Grupo 59896">
                <path id="Trazado_108503" data-name="Trazado 108503" d="M645.4,4173.4h.971v-.971a1.315,1.315,0,0,1,2.631,0v.971h.971a1.316,1.316,0,0,1,0,2.631H649V4177a1.315,1.315,0,1,1-2.631,0v-.971H645.4a1.316,1.316,0,1,1,0-2.631Z" transform="translate(-644.079 -4171.115)" fill="#47ecfa"/>
              </g>
            </g>
            <g id="Grupo_59899" data-name="Grupo 59899" transform="translate(0 62.281)">
              <g id="Grupo_59898" data-name="Grupo 59898">
                <circle id="Elipse_4175" data-name="Elipse 4175" cx="1.407" cy="1.407" r="1.407" fill="#2ab9c4"/>
              </g>
            </g>
            <g id="Grupo_59901" data-name="Grupo 59901" transform="translate(51.676)">
              <g id="Grupo_59900" data-name="Grupo 59900">
                <circle id="Elipse_4176" data-name="Elipse 4176" cx="1.407" cy="1.407" r="1.407" fill="#fc657e"/>
              </g>
            </g>
            <g id="Grupo_59903" data-name="Grupo 59903" transform="translate(51.839 40.036)">
              <g id="Grupo_59902" data-name="Grupo 59902">
                <path id="Trazado_108504" data-name="Trazado 108504" d="M697.985,4190.111l-.067,0a1.043,1.043,0,0,1-.974-1.106c.182-2.9-1.277-5.284-2.689-7.593-1.549-2.536-3.152-5.158-1.982-8.083a16.1,16.1,0,0,0,1.2-8.977,1.042,1.042,0,0,1,2.048-.385,18.169,18.169,0,0,1-1.312,10.136c-.744,1.861.209,3.577,1.826,6.222,1.506,2.465,3.214,5.259,2.99,8.812A1.041,1.041,0,0,1,697.985,4190.111Z" transform="translate(-691.871 -4163.116)" fill="#855db5"/>
              </g>
            </g>
            <g id="Grupo_59905" data-name="Grupo 59905" transform="translate(11.833 40)">
              <g id="Grupo_59904" data-name="Grupo 59904">
                <path id="Trazado_108505" data-name="Trazado 108505" d="M652.932,4190.227a1.042,1.042,0,0,1-1.038-.963c-.276-3.615,1.456-6.446,2.984-8.943,1.618-2.644,2.571-4.36,1.827-6.221a18.132,18.132,0,0,1-1.3-10.175,1.042,1.042,0,0,1,2.047.393,16.058,16.058,0,0,0,1.191,9.009c1.17,2.925-.434,5.547-1.985,8.082-1.429,2.336-2.908,4.753-2.683,7.7a1.043,1.043,0,0,1-.96,1.119Z" transform="translate(-651.865 -4163.08)" fill="#855db5"/>
              </g>
            </g>
            <g id="Grupo_59907" data-name="Grupo 59907" transform="translate(49.191 28.957)">
              <g id="Grupo_59906" data-name="Grupo 59906">
                <path id="Trazado_108506" data-name="Trazado 108506" d="M690.859,4166.207a6.478,6.478,0,0,1-.706-.04,1.041,1.041,0,1,1,.224-2.071,4.723,4.723,0,0,0,.482.027,5,5,0,0,0,0-10c-.155,0-.315.009-.476.024a1.042,1.042,0,1,1-.206-2.073,7.084,7.084,0,1,1,.682,14.135Z" transform="translate(-689.223 -4152.037)" fill="#855db5"/>
              </g>
            </g>
            <g id="Grupo_59909" data-name="Grupo 59909" transform="translate(19.908 23.897)">
              <g id="Grupo_59908" data-name="Grupo 59908">
                <path id="Trazado_108507" data-name="Trazado 108507" d="M675.456,4179.626a15.534,15.534,0,0,1-15.516-15.516v-8.62a1.044,1.044,0,0,1,1.328-1c10.8,3.077,18.284-4.438,20.32-6.814a1.98,1.98,0,0,1,1.389-.693,2.036,2.036,0,0,1,1.482.522,11.156,11.156,0,0,0,4.816,2.8,2.171,2.171,0,0,1,1.7,2.117v11.694a15.533,15.533,0,0,1-15.516,15.516Zm-13.432-22.8v7.283a13.432,13.432,0,1,0,26.864,0v-11.694a.1.1,0,0,0-.084-.087,13.114,13.114,0,0,1-5.691-3.234c-2.232,2.584-9.912,10.182-21.089,7.732Zm21.147-7.8" transform="translate(-659.94 -4146.978)" fill="#855db5"/>
              </g>
            </g>
            <g id="Grupo_59911" data-name="Grupo 59911" transform="translate(12.937 30.1)">
              <g id="Grupo_59910" data-name="Grupo 59910">
                <path id="Trazado_108508" data-name="Trazado 108508" d="M660.054,4166.207a7.08,7.08,0,0,1-4.847-12.245,2.877,2.877,0,0,1,3.135-.536,22.686,22.686,0,0,0,2.926,1.062,1.042,1.042,0,0,1-.571,2,24.842,24.842,0,0,1-3.2-1.16.8.8,0,0,0-.868.15,4.942,4.942,0,0,0-1.58,3.64,5.008,5.008,0,0,0,5,5,4.482,4.482,0,0,0,.558-.037,1.042,1.042,0,1,1,.255,2.069,6.61,6.61,0,0,1-.813.052Z" transform="translate(-652.969 -4153.18)" fill="#855db5"/>
              </g>
            </g>
            <g id="Grupo_59914" data-name="Grupo 59914" transform="translate(14.7 7.512)">
              <g id="Grupo_59913" data-name="Grupo 59913">
                <g id="Grupo_59912" data-name="Grupo 59912">
                  <path id="Trazado_108509" data-name="Trazado 108509" d="M655.774,4155.768a1.042,1.042,0,0,1-1.042-1.042v-3.41a20.724,20.724,0,1,1,41.448,0v3.28a1.042,1.042,0,1,1-2.083,0v-3.28a18.641,18.641,0,0,0-37.281,0v3.41A1.042,1.042,0,0,1,655.774,4155.768Z" transform="translate(-654.732 -4130.592)" fill="#855db5"/>
                </g>
              </g>
            </g>
            <g id="Grupo_59916" data-name="Grupo 59916" transform="translate(47.513 72.95)">
              <g id="Grupo_59915" data-name="Grupo 59915">
                <path id="Trazado_108510" data-name="Trazado 108510" d="M698.36,4217.659a10.815,10.815,0,1,1,10.815-10.814A10.826,10.826,0,0,1,698.36,4217.659Zm0-19.546a8.732,8.732,0,1,0,8.731,8.732A8.741,8.741,0,0,0,698.36,4198.113Z" transform="translate(-687.545 -4196.03)" fill="#855db5"/>
              </g>
            </g>
            <g id="Grupo_59918" data-name="Grupo 59918" transform="translate(21.264 63.112)">
              <g id="Grupo_59917" data-name="Grupo 59917">
                <path id="Trazado_108511" data-name="Trazado 108511" d="M674.99,4196.266h-.032a15.828,15.828,0,0,1-13.544-8.551,1.042,1.042,0,1,1,1.849-.96,13.743,13.743,0,0,0,11.757,7.428,1.042,1.042,0,0,1-.03,2.084Z" transform="translate(-661.297 -4186.192)" fill="#855db5"/>
              </g>
            </g>
            <g id="Grupo_59920" data-name="Grupo 59920" transform="translate(46.39 62.914)">
              <g id="Grupo_59919" data-name="Grupo 59919">
                <path id="Trazado_108512" data-name="Trazado 108512" d="M687.463,4190.015a1.041,1.041,0,0,1-.849-1.643,13.794,13.794,0,0,0,1.078-1.8,1.042,1.042,0,1,1,1.864.931,15.822,15.822,0,0,1-1.242,2.074,1.04,1.04,0,0,1-.851.44Z" transform="translate(-686.422 -4185.994)" fill="#855db5"/>
              </g>
            </g>
            <g id="Grupo_59922" data-name="Grupo 59922" transform="translate(15.128 92.663)">
              <g id="Grupo_59921" data-name="Grupo 59921">
                <path id="Trazado_108513" data-name="Trazado 108513" d="M666.1,4221.847h-9.261a1.678,1.678,0,0,1-1.676-1.676v-3.386a1.042,1.042,0,0,1,2.084,0v2.978H666.1a3.4,3.4,0,0,0,2.351-.866,6.006,6.006,0,0,1,4.119-1.634h2.513a1.042,1.042,0,0,1,0,2.084h-2.513a3.927,3.927,0,0,0-2.694,1.071,5.479,5.479,0,0,1-3.776,1.429Z" transform="translate(-655.16 -4215.743)" fill="#855db5"/>
              </g>
            </g>
            <g id="Grupo_59924" data-name="Grupo 59924" transform="translate(3.199 88.932)">
              <g id="Grupo_59923" data-name="Grupo 59923">
                <path id="Trazado_108514" data-name="Trazado 108514" d="M675.323,4229.765h-29.4a2.692,2.692,0,0,1-2.687-2.842l.506-13.907a1.042,1.042,0,0,1,2.083.075l-.507,13.928a.618.618,0,0,0,.165.472.6.6,0,0,0,.44.19h29.4a1.042,1.042,0,0,1,0,2.084Z" transform="translate(-643.231 -4212.012)" fill="#855db5"/>
              </g>
            </g>
          </g>
        </g>
      </g>
      <g id="Grupo_59927" data-name="Grupo 59927" transform="translate(537.504 185.365)">
        <path id="Trazado_108515" data-name="Trazado 108515" d="M920.029,4353.583l25.4,25.4a7.308,7.308,0,0,0,10.336-10.335l-25.4-25.4Z" transform="translate(-859.478 -4282.695)" fill="#c595ff"/>
        <path id="Trazado_108516" data-name="Trazado 108516" d="M935.9,4322.433a36.681,36.681,0,1,1-36.681-36.682A36.681,36.681,0,0,1,935.9,4322.433Z" transform="translate(-859.478 -4282.695)" fill="#95f7ff"/>
        <path id="Trazado_108517" data-name="Trazado 108517" d="M923.059,4322.433a23.843,23.843,0,1,1-23.843-23.843A23.843,23.843,0,0,1,923.059,4322.433Z" transform="translate(-859.478 -4282.695)" fill="#dcbfff"/>
        <path id="Trazado_108518" data-name="Trazado 108518" d="M899.216,4295.533a26.9,26.9,0,1,0,26.9,26.9A26.93,26.93,0,0,0,899.216,4295.533Zm0,47.686A20.786,20.786,0,1,1,920,4322.433,20.81,20.81,0,0,1,899.216,4343.219Z" transform="translate(-859.478 -4282.695)" fill="#855db5"/>
        <path id="Trazado_108519" data-name="Trazado 108519" d="M899.216,4308.678a3.057,3.057,0,1,0,0,6.114,7.651,7.651,0,0,1,7.641,7.641,3.056,3.056,0,0,0,6.113,0A13.77,13.77,0,0,0,899.216,4308.678Z" transform="translate(-859.478 -4282.695)" fill="#855db5"/>
        <path id="Trazado_108520" data-name="Trazado 108520" d="M924.972,4287.585m8.83,15.3a39.958,39.958,0,0,0-21.487-17.967l-7.383-1.807a39.8,39.8,0,0,0-16.559,1.091s-6.063,2.069-5.942,2.221a40.006,40.006,0,0,0-17.793,16.449l-2.815,6.114a39.729,39.729,0,0,0,57.183,47.9l24.261,24.26a10.365,10.365,0,1,0,14.658-14.659l-9.532-9.532a3.056,3.056,0,0,0-4.323,4.322l9.533,9.534a4.252,4.252,0,1,1-6.013,6.013l-23.457-23.459a39.7,39.7,0,0,0,12.476-44.38S933.888,4302.875,933.8,4302.882Zm-34.586,53.175a33.625,33.625,0,1,1,33.624-33.624A33.663,33.663,0,0,1,899.216,4356.057Z" transform="translate(-859.478 -4282.695)" fill="#855db5"/>
        <path id="Trazado_108521" data-name="Trazado 108521" d="M936.819,4349.7a3.056,3.056,0,1,0,2.161-.9A3.083,3.083,0,0,0,936.819,4349.7Z" transform="translate(-859.478 -4282.695)" fill="#855db5"/>
      </g>
      <g id="Grupo_60040" data-name="Grupo 60040" transform="translate(533.806 396.153)">
        <g id="Layer_63" data-name="Layer 63">
          <g id="Grupo_60039" data-name="Grupo 60039">
            <g id="Grupo_59929" data-name="Grupo 59929" transform="translate(23.757 30.215)">
              <g id="Grupo_59928" data-name="Grupo 59928">
                <circle id="Elipse_4177" data-name="Elipse 4177" cx="25.01" cy="25.01" r="25.01" fill="#47ecfa"/>
              </g>
            </g>
            <g id="Grupo_59931" data-name="Grupo 59931" transform="translate(42.809 1.079)">
              <g id="Grupo_59930" data-name="Grupo 59930">
                <circle id="Elipse_4178" data-name="Elipse 4178" cx="5.958" cy="5.958" r="5.958" fill="#feb872"/>
              </g>
            </g>
            <g id="Grupo_59933" data-name="Grupo 59933" transform="translate(38.495 14.227)">
              <g id="Grupo_59932" data-name="Grupo 59932">
                <path id="Trazado_108522" data-name="Trazado 108522" d="M909.622,4507.71h-10.15a5.212,5.212,0,0,0-5.2,5.2v3.58a1.905,1.905,0,0,0,1.9,1.906h16.734a1.906,1.906,0,0,0,1.906-1.906v-3.58A5.214,5.214,0,0,0,909.622,4507.71Z" transform="translate(-894.275 -4507.71)" fill="#f1b0b5"/>
              </g>
            </g>
            <g id="Grupo_59935" data-name="Grupo 59935" transform="translate(42.809 97.454)">
              <g id="Grupo_59934" data-name="Grupo 59934">
                <circle id="Elipse_4179" data-name="Elipse 4179" cx="5.958" cy="5.958" r="5.958" fill="#a57453"/>
              </g>
            </g>
            <g id="Grupo_59937" data-name="Grupo 59937" transform="translate(38.494 85.538)">
              <g id="Grupo_59936" data-name="Grupo 59936">
                <path id="Trazado_108523" data-name="Trazado 108523" d="M912.914,4579.021H896.18a1.906,1.906,0,0,0-1.906,1.906v3.58a5.213,5.213,0,0,0,5.2,5.2h10.149a5.213,5.213,0,0,0,5.2-5.2v-3.58A1.905,1.905,0,0,0,912.914,4579.021Z" transform="translate(-894.274 -4579.021)" fill="#2ab9c4"/>
              </g>
            </g>
            <g id="Grupo_59939" data-name="Grupo 59939" transform="translate(1.076 25.172)">
              <g id="Grupo_59938" data-name="Grupo 59938">
                <path id="Trazado_108524" data-name="Trazado 108524" d="M865.794,4519.454a5.958,5.958,0,1,0,2.181,8.138A5.959,5.959,0,0,0,865.794,4519.454Z" transform="translate(-856.856 -4518.655)" fill="#f9d0b4"/>
              </g>
            </g>
            <g id="Grupo_59941" data-name="Grupo 59941" transform="translate(10.033 27.736)">
              <g id="Grupo_59940" data-name="Grupo 59940">
                <path id="Trazado_108525" data-name="Trazado 108525" d="M881.78,4523.7l-3.1-1.79a5.21,5.21,0,0,0-7.1,1.9l-5.075,8.79a5.214,5.214,0,0,0,1.9,7.1l3.1,1.79a1.906,1.906,0,0,0,2.6-.7l8.367-14.492a1.9,1.9,0,0,0-.7-2.6Z" transform="translate(-865.813 -4521.219)" fill="#f9e478"/>
              </g>
            </g>
            <g id="Grupo_59943" data-name="Grupo 59943" transform="translate(84.54 73.359)">
              <g id="Grupo_59942" data-name="Grupo 59942">
                <path id="Trazado_108526" data-name="Trazado 108526" d="M949.257,4567.641a5.958,5.958,0,1,0,2.181,8.139A5.958,5.958,0,0,0,949.257,4567.641Z" transform="translate(-940.32 -4566.842)" fill="#d68649"/>
              </g>
            </g>
            <g id="Grupo_59945" data-name="Grupo 59945" transform="translate(70.58 62.183)">
              <g id="Grupo_59944" data-name="Grupo 59944">
                <path id="Trazado_108527" data-name="Trazado 108527" d="M940.686,4557.711l-3.1-1.79a1.906,1.906,0,0,0-2.6.7l-8.366,14.492a1.9,1.9,0,0,0,.7,2.6l3.1,1.79a5.213,5.213,0,0,0,7.1-1.9l5.075-8.79a5.213,5.213,0,0,0-1.9-7.1Z" transform="translate(-926.36 -4555.666)" fill="#dcbfff"/>
              </g>
            </g>
            <g id="Grupo_59947" data-name="Grupo 59947" transform="translate(1.076 73.359)">
              <g id="Grupo_59946" data-name="Grupo 59946">
                <path id="Trazado_108528" data-name="Trazado 108528" d="M867.975,4569.822a5.958,5.958,0,1,0-2.181,8.138A5.958,5.958,0,0,0,867.975,4569.822Z" transform="translate(-856.856 -4566.842)" fill="#fce4be"/>
              </g>
            </g>
            <g id="Grupo_59949" data-name="Grupo 59949" transform="translate(10.033 62.182)">
              <g id="Grupo_59948" data-name="Grupo 59948">
                <path id="Trazado_108529" data-name="Trazado 108529" d="M882.478,4571.11l-8.367-14.492a1.905,1.905,0,0,0-2.6-.7l-3.1,1.79a5.214,5.214,0,0,0-1.9,7.1l5.075,8.79a5.213,5.213,0,0,0,7.1,1.9l3.1-1.79a1.906,1.906,0,0,0,.7-2.6Z" transform="translate(-865.813 -4555.665)" fill="#21949d"/>
              </g>
            </g>
            <g id="Grupo_59951" data-name="Grupo 59951" transform="translate(84.539 25.172)">
              <g id="Grupo_59950" data-name="Grupo 59950">
                <path id="Trazado_108530" data-name="Trazado 108530" d="M951.438,4521.635a5.958,5.958,0,1,0-2.181,8.138A5.958,5.958,0,0,0,951.438,4521.635Z" transform="translate(-940.319 -4518.655)" fill="#818182"/>
              </g>
            </g>
            <g id="Grupo_59953" data-name="Grupo 59953" transform="translate(70.58 27.736)">
              <g id="Grupo_59952" data-name="Grupo 59952">
                <path id="Trazado_108531" data-name="Trazado 108531" d="M942.588,4532.6l-5.075-8.79a5.211,5.211,0,0,0-7.1-1.9l-3.1,1.79a1.905,1.905,0,0,0-.7,2.6l8.367,14.492a1.906,1.906,0,0,0,2.6.7l3.1-1.79a5.212,5.212,0,0,0,1.9-7.1Z" transform="translate(-926.36 -4521.219)" fill="#ce666e"/>
              </g>
            </g>
            <g id="Grupo_59956" data-name="Grupo 59956" transform="translate(22.678 29.136)">
              <g id="Grupo_59955" data-name="Grupo 59955">
                <g id="Grupo_59954" data-name="Grupo 59954">
                  <path id="Trazado_108532" data-name="Trazado 108532" d="M904.547,4522.619a26.088,26.088,0,1,0,26.088,26.088A26.118,26.118,0,0,0,904.547,4522.619Zm0,50.019a23.931,23.931,0,1,1,23.931-23.931A23.958,23.958,0,0,1,904.547,4572.638Z" transform="translate(-878.458 -4522.619)" fill="#855db5"/>
                </g>
              </g>
            </g>
            <g id="Grupo_59958" data-name="Grupo 59958" transform="translate(33.998 29.957)">
              <g id="Grupo_59957" data-name="Grupo 59957">
                <path id="Trazado_108533" data-name="Trazado 108533" d="M891.935,4548.707c0-9.861,2.835-19.055,7.223-23.424a1.079,1.079,0,1,0-1.522-1.529c-4.847,4.826-7.858,14.388-7.858,24.953,0,10.5,2.984,20.033,7.786,24.88a1.078,1.078,0,1,0,1.532-1.518c-4.417-4.458-7.161-13.41-7.161-23.362Z" transform="translate(-889.778 -4523.44)" fill="#855db5"/>
              </g>
            </g>
            <g id="Grupo_59960" data-name="Grupo 59960" transform="translate(53.838 29.957)">
              <g id="Grupo_59959" data-name="Grupo 59959">
                <path id="Trazado_108534" data-name="Trazado 108534" d="M911.457,4523.755a1.078,1.078,0,1,0-1.522,1.528c4.388,4.369,7.224,13.564,7.224,23.424,0,9.833-2.824,19.016-7.2,23.4a1.078,1.078,0,1,0,1.527,1.523c4.827-4.835,7.825-14.384,7.825-24.919,0-10.565-3.011-20.126-7.859-24.952Z" transform="translate(-909.617 -4523.44)" fill="#855db5"/>
              </g>
            </g>
            <g id="Grupo_59962" data-name="Grupo 59962" transform="translate(23.516 60.279)">
              <g id="Grupo_59961" data-name="Grupo 59961">
                <path id="Trazado_108535" data-name="Trazado 108535" d="M929.45,4554.149a1.08,1.08,0,0,0-1.525-.008c-4.459,4.418-13.411,7.162-23.362,7.162-9.862,0-19.056-2.835-23.424-7.223a1.078,1.078,0,1,0-1.529,1.521c4.825,4.848,14.387,7.859,24.953,7.859,10.5,0,20.033-2.983,24.88-7.786a1.078,1.078,0,0,0,.007-1.525Z" transform="translate(-879.295 -4553.762)" fill="#855db5"/>
              </g>
            </g>
            <g id="Grupo_59964" data-name="Grupo 59964" transform="translate(23.516 40.439)">
              <g id="Grupo_59963" data-name="Grupo 59963">
                <path id="Trazado_108536" data-name="Trazado 108536" d="M929.481,4541.747c-4.836-4.827-14.384-7.825-24.918-7.825-10.565,0-20.127,3.011-24.953,7.859a1.079,1.079,0,1,0,1.528,1.522c4.369-4.388,13.564-7.223,23.424-7.223,9.833,0,19.016,2.824,23.395,7.195a1.079,1.079,0,0,0,1.524-1.528Z" transform="translate(-879.296 -4533.922)" fill="#855db5"/>
              </g>
            </g>
            <g id="Grupo_59966" data-name="Grupo 59966" transform="translate(47.688 29.572)">
              <g id="Grupo_59965" data-name="Grupo 59965">
                <path id="Trazado_108537" data-name="Trazado 108537" d="M904.547,4523.055a1.079,1.079,0,0,0-1.079,1.079v49.147a1.078,1.078,0,0,0,2.157,0v-49.147A1.079,1.079,0,0,0,904.547,4523.055Z" transform="translate(-903.468 -4523.055)" fill="#855db5"/>
              </g>
            </g>
            <g id="Grupo_59968" data-name="Grupo 59968" transform="translate(23.115 54.146)">
              <g id="Grupo_59967" data-name="Grupo 59967">
                <path id="Trazado_108538" data-name="Trazado 108538" d="M929.12,4547.629H879.973a1.079,1.079,0,0,0,0,2.157H929.12a1.079,1.079,0,1,0,0-2.157Z" transform="translate(-878.895 -4547.629)" fill="#855db5"/>
              </g>
            </g>
            <g id="Grupo_59971" data-name="Grupo 59971" transform="translate(41.73)">
              <g id="Grupo_59970" data-name="Grupo 59970">
                <g id="Grupo_59969" data-name="Grupo 59969">
                  <path id="Trazado_108539" data-name="Trazado 108539" d="M904.547,4493.483a7.037,7.037,0,1,0,7.036,7.037A7.045,7.045,0,0,0,904.547,4493.483Zm0,11.916a4.879,4.879,0,1,1,4.879-4.879A4.885,4.885,0,0,1,904.547,4505.4Z" transform="translate(-897.51 -4493.483)" fill="#855db5"/>
                </g>
              </g>
            </g>
            <g id="Grupo_59974" data-name="Grupo 59974" transform="translate(37.416 13.149)">
              <g id="Grupo_59973" data-name="Grupo 59973">
                <g id="Grupo_59972" data-name="Grupo 59972">
                  <path id="Trazado_108540" data-name="Trazado 108540" d="M909.622,4506.632h-10.15a6.283,6.283,0,0,0-6.276,6.276v3.58a2.988,2.988,0,0,0,2.984,2.985h16.734a2.988,2.988,0,0,0,2.984-2.985v-3.58A6.283,6.283,0,0,0,909.622,4506.632Zm4.119,9.856a.828.828,0,0,1-.827.827H896.18a.828.828,0,0,1-.827-.827v-3.58a4.123,4.123,0,0,1,4.119-4.119h10.149a4.123,4.123,0,0,1,4.119,4.119v3.58Z" transform="translate(-893.196 -4506.632)" fill="#855db5"/>
                </g>
              </g>
            </g>
            <g id="Grupo_59976" data-name="Grupo 59976" transform="translate(53.405 18.974)">
              <g id="Grupo_59975" data-name="Grupo 59975">
                <path id="Trazado_108541" data-name="Trazado 108541" d="M910.264,4512.457a1.078,1.078,0,0,0-1.079,1.078v4.368a1.078,1.078,0,0,0,2.157,0v-4.368A1.078,1.078,0,0,0,910.264,4512.457Z" transform="translate(-909.185 -4512.457)" fill="#855db5"/>
              </g>
            </g>
            <g id="Grupo_59978" data-name="Grupo 59978" transform="translate(41.971 18.974)">
              <g id="Grupo_59977" data-name="Grupo 59977">
                <path id="Trazado_108542" data-name="Trazado 108542" d="M898.83,4512.457a1.078,1.078,0,0,0-1.079,1.078v4.368a1.079,1.079,0,0,0,2.157,0v-4.368A1.078,1.078,0,0,0,898.83,4512.457Z" transform="translate(-897.751 -4512.457)" fill="#855db5"/>
              </g>
            </g>
            <g id="Grupo_59981" data-name="Grupo 59981" transform="translate(41.73 96.375)">
              <g id="Grupo_59980" data-name="Grupo 59980">
                <g id="Grupo_59979" data-name="Grupo 59979">
                  <path id="Trazado_108543" data-name="Trazado 108543" d="M904.547,4589.858a7.037,7.037,0,1,0,7.036,7.037A7.045,7.045,0,0,0,904.547,4589.858Zm0,11.916a4.879,4.879,0,1,1,4.879-4.879A4.885,4.885,0,0,1,904.547,4601.774Z" transform="translate(-897.51 -4589.858)" fill="#855db5"/>
                </g>
              </g>
            </g>
            <g id="Grupo_59984" data-name="Grupo 59984" transform="translate(37.416 84.459)">
              <g id="Grupo_59983" data-name="Grupo 59983">
                <g id="Grupo_59982" data-name="Grupo 59982">
                  <path id="Trazado_108544" data-name="Trazado 108544" d="M912.914,4577.942H896.18a2.987,2.987,0,0,0-2.984,2.985v3.58a6.284,6.284,0,0,0,6.276,6.276h10.149a6.283,6.283,0,0,0,6.276-6.276v-3.58A2.986,2.986,0,0,0,912.914,4577.942Zm.827,6.565a4.124,4.124,0,0,1-4.119,4.119h-10.15a4.124,4.124,0,0,1-4.119-4.119v-3.58a.828.828,0,0,1,.827-.827h16.734a.828.828,0,0,1,.827.827v3.58Z" transform="translate(-893.196 -4577.942)" fill="#855db5"/>
                </g>
              </g>
            </g>
            <g id="Grupo_59986" data-name="Grupo 59986" transform="translate(53.405 84.95)">
              <g id="Grupo_59985" data-name="Grupo 59985">
                <path id="Trazado_108545" data-name="Trazado 108545" d="M910.264,4578.433a1.079,1.079,0,0,0-1.079,1.079v4.367a1.078,1.078,0,1,0,2.157,0v-4.367A1.079,1.079,0,0,0,910.264,4578.433Z" transform="translate(-909.185 -4578.433)" fill="#855db5"/>
              </g>
            </g>
            <g id="Grupo_59988" data-name="Grupo 59988" transform="translate(41.971 84.95)">
              <g id="Grupo_59987" data-name="Grupo 59987">
                <path id="Trazado_108546" data-name="Trazado 108546" d="M898.83,4578.433a1.079,1.079,0,0,0-1.079,1.079v4.367a1.079,1.079,0,1,0,2.157,0v-4.367A1.079,1.079,0,0,0,898.83,4578.433Z" transform="translate(-897.751 -4578.433)" fill="#855db5"/>
              </g>
            </g>
            <g id="Grupo_59991" data-name="Grupo 59991" transform="translate(0 24.091)">
              <g id="Grupo_59990" data-name="Grupo 59990">
                <g id="Grupo_59989" data-name="Grupo 59989">
                  <path id="Trazado_108547" data-name="Trazado 108547" d="M866.333,4518.52a7.036,7.036,0,1,0-3.529,13.133,7.119,7.119,0,0,0,1.833-.243,7.036,7.036,0,0,0,1.7-12.89Zm.707,8.533a4.879,4.879,0,1,1-5.488-7.152,4.842,4.842,0,0,1,3.7.487,4.878,4.878,0,0,1,1.786,6.665Z" transform="translate(-855.78 -4517.574)" fill="#855db5"/>
                </g>
              </g>
            </g>
            <g id="Grupo_59994" data-name="Grupo 59994" transform="translate(8.952 26.655)">
              <g id="Grupo_59993" data-name="Grupo 59993">
                <g id="Grupo_59992" data-name="Grupo 59992">
                  <path id="Trazado_108548" data-name="Trazado 108548" d="M883.71,4524.58a2.957,2.957,0,0,0-1.391-1.812l-3.1-1.79a6.282,6.282,0,0,0-8.573,2.3l-5.075,8.79a6.292,6.292,0,0,0,2.3,8.573l3.1,1.79a2.986,2.986,0,0,0,4.076-1.092l8.367-14.492a2.968,2.968,0,0,0,.3-2.264Zm-2.166,1.185-8.367,14.492a.828.828,0,0,1-1.13.3l-3.1-1.79a4.135,4.135,0,0,1-1.508-5.626l5.075-8.79a4.124,4.124,0,0,1,5.627-1.508l3.1,1.79A.827.827,0,0,1,881.544,4525.765Z" transform="translate(-864.732 -4520.138)" fill="#855db5"/>
                </g>
              </g>
            </g>
            <g id="Grupo_59996" data-name="Grupo 59996" transform="translate(20.086 31.608)">
              <g id="Grupo_59995" data-name="Grupo 59995">
                <path id="Trazado_108549" data-name="Trazado 108549" d="M881.267,4527.42l-3.783-2.184a1.078,1.078,0,0,0-1.078,1.868l3.782,2.184a1.079,1.079,0,0,0,1.079-1.868Z" transform="translate(-875.866 -4525.091)" fill="#855db5"/>
              </g>
            </g>
            <g id="Grupo_59998" data-name="Grupo 59998" transform="translate(14.369 41.51)">
              <g id="Grupo_59997" data-name="Grupo 59997">
                <path id="Trazado_108550" data-name="Trazado 108550" d="M875.55,4537.322l-3.783-2.184a1.078,1.078,0,1,0-1.078,1.868l3.782,2.184a1.079,1.079,0,1,0,1.079-1.868Z" transform="translate(-870.149 -4534.993)" fill="#855db5"/>
              </g>
            </g>
            <g id="Grupo_60001" data-name="Grupo 60001" transform="translate(83.464 72.283)">
              <g id="Grupo_60000" data-name="Grupo 60000">
                <g id="Grupo_59999" data-name="Grupo 59999">
                  <path id="Trazado_108551" data-name="Trazado 108551" d="M949.8,4566.707a7.037,7.037,0,1,0,2.575,9.612A7.044,7.044,0,0,0,949.8,4566.707Zm.707,8.534a4.879,4.879,0,1,1-1.786-6.665A4.851,4.851,0,0,1,950.5,4575.241Z" transform="translate(-939.244 -4565.766)" fill="#855db5"/>
                </g>
              </g>
            </g>
            <g id="Grupo_60004" data-name="Grupo 60004" transform="translate(69.5 61.105)">
              <g id="Grupo_60003" data-name="Grupo 60003">
                <g id="Grupo_60002" data-name="Grupo 60002">
                  <path id="Trazado_108552" data-name="Trazado 108552" d="M941.225,4556.777l-3.1-1.79a2.989,2.989,0,0,0-4.077,1.092l-8.367,14.492a2.984,2.984,0,0,0,1.093,4.076l3.1,1.79a6.281,6.281,0,0,0,8.573-2.3l5.075-8.79a6.284,6.284,0,0,0-2.3-8.573Zm.43,7.494-5.075,8.791a4.125,4.125,0,0,1-5.627,1.507l-3.1-1.79a.828.828,0,0,1-.3-1.13l8.366-14.492a.828.828,0,0,1,1.13-.3l3.1,1.79a4.135,4.135,0,0,1,1.508,5.626Z" transform="translate(-925.28 -4554.588)" fill="#855db5"/>
                </g>
              </g>
            </g>
            <g id="Grupo_60006" data-name="Grupo 60006" transform="translate(77.224 64.597)">
              <g id="Grupo_60005" data-name="Grupo 60005">
                <path id="Trazado_108553" data-name="Trazado 108553" d="M938.405,4560.408l-3.783-2.184a1.078,1.078,0,1,0-1.078,1.868l3.782,2.184a1.063,1.063,0,0,0,.538.145,1.079,1.079,0,0,0,.541-2.013Z" transform="translate(-933.004 -4558.08)" fill="#855db5"/>
              </g>
            </g>
            <g id="Grupo_60008" data-name="Grupo 60008" transform="translate(71.507 74.499)">
              <g id="Grupo_60007" data-name="Grupo 60007">
                <path id="Trazado_108554" data-name="Trazado 108554" d="M932.688,4570.31l-3.783-2.184a1.078,1.078,0,0,0-1.078,1.868l3.782,2.184a1.077,1.077,0,0,0,1.473-.394,1.08,1.08,0,0,0-.394-1.474Z" transform="translate(-927.287 -4567.982)" fill="#855db5"/>
              </g>
            </g>
            <g id="Grupo_60011" data-name="Grupo 60011" transform="translate(0 72.278)">
              <g id="Grupo_60010" data-name="Grupo 60010">
                <g id="Grupo_60009" data-name="Grupo 60009">
                  <path id="Trazado_108555" data-name="Trazado 108555" d="M868.909,4569.283a7.036,7.036,0,1,0-7.916,10.315,7.119,7.119,0,0,0,1.833.243,7.042,7.042,0,0,0,6.083-10.558Zm-1.381,4.781a4.877,4.877,0,1,1-4.721-6.145,4.946,4.946,0,0,1,1.271.168,4.882,4.882,0,0,1,3.45,5.977Z" transform="translate(-855.78 -4565.761)" fill="#855db5"/>
                </g>
              </g>
            </g>
            <g id="Grupo_60014" data-name="Grupo 60014" transform="translate(8.952 61.104)">
              <g id="Grupo_60013" data-name="Grupo 60013">
                <g id="Grupo_60012" data-name="Grupo 60012">
                  <path id="Trazado_108556" data-name="Trazado 108556" d="M883.412,4570.571l-8.367-14.492a2.986,2.986,0,0,0-4.076-1.092l-3.1,1.79a6.291,6.291,0,0,0-2.3,8.573l5.075,8.79a6.281,6.281,0,0,0,8.573,2.3l3.1-1.791a2.984,2.984,0,0,0,1.092-4.076Zm-2.171,2.208-3.1,1.79a4.123,4.123,0,0,1-5.626-1.507l-5.075-8.791a4.134,4.134,0,0,1,1.508-5.626l3.1-1.79a.818.818,0,0,1,.413-.111.833.833,0,0,1,.215.028.82.82,0,0,1,.5.385l8.367,14.492a.828.828,0,0,1-.3,1.13Z" transform="translate(-864.732 -4554.587)" fill="#855db5"/>
                </g>
              </g>
            </g>
            <g id="Grupo_60016" data-name="Grupo 60016" transform="translate(14.369 64.597)">
              <g id="Grupo_60015" data-name="Grupo 60015">
                <path id="Trazado_108557" data-name="Trazado 108557" d="M875.945,4558.62a1.079,1.079,0,0,0-1.474-.4l-3.782,2.184a1.078,1.078,0,0,0,1.078,1.868l3.783-2.184A1.08,1.08,0,0,0,875.945,4558.62Z" transform="translate(-870.149 -4558.08)" fill="#855db5"/>
              </g>
            </g>
            <g id="Grupo_60018" data-name="Grupo 60018" transform="translate(20.086 74.5)">
              <g id="Grupo_60017" data-name="Grupo 60017">
                <path id="Trazado_108558" data-name="Trazado 108558" d="M881.661,4568.521a1.078,1.078,0,0,0-1.473-.394l-3.782,2.184a1.078,1.078,0,0,0,1.078,1.868l3.783-2.184A1.08,1.08,0,0,0,881.661,4568.521Z" transform="translate(-875.866 -4567.982)" fill="#855db5"/>
              </g>
            </g>
            <g id="Grupo_60021" data-name="Grupo 60021" transform="translate(83.464 24.091)">
              <g id="Grupo_60020" data-name="Grupo 60020">
                <g id="Grupo_60019" data-name="Grupo 60019">
                  <path id="Trazado_108559" data-name="Trazado 108559" d="M952.372,4521.1a7.033,7.033,0,1,0-2.575,9.612,6.994,6.994,0,0,0,2.575-9.612Zm-3.654,7.744a4.879,4.879,0,1,1-2.447-9.107,4.952,4.952,0,0,1,1.271.168,4.88,4.88,0,0,1,1.176,8.939Z" transform="translate(-939.244 -4517.574)" fill="#855db5"/>
                </g>
              </g>
            </g>
            <g id="Grupo_60024" data-name="Grupo 60024" transform="translate(69.5 26.655)">
              <g id="Grupo_60023" data-name="Grupo 60023">
                <g id="Grupo_60022" data-name="Grupo 60022">
                  <path id="Trazado_108560" data-name="Trazado 108560" d="M943.523,4532.065l-5.075-8.79a6.283,6.283,0,0,0-8.574-2.3l-3.1,1.79a2.984,2.984,0,0,0-1.092,4.076l8.367,14.492a2.986,2.986,0,0,0,4.076,1.092l3.1-1.79a6.284,6.284,0,0,0,2.3-8.573Zm-1.463,4.2a4.089,4.089,0,0,1-1.914,2.5l-3.1,1.79a.828.828,0,0,1-1.13-.3l-8.367-14.492a.829.829,0,0,1,.3-1.13l3.1-1.79a4.123,4.123,0,0,1,5.627,1.508l5.075,8.79a4.089,4.089,0,0,1,.406,3.124Z" transform="translate(-925.28 -4520.138)" fill="#855db5"/>
                </g>
              </g>
            </g>
            <g id="Grupo_60026" data-name="Grupo 60026" transform="translate(71.507 31.609)">
              <g id="Grupo_60025" data-name="Grupo 60025">
                <path id="Trazado_108561" data-name="Trazado 108561" d="M933.082,4525.631a1.079,1.079,0,0,0-1.473-.4l-3.782,2.184a1.079,1.079,0,0,0,.54,2.013,1.063,1.063,0,0,0,.538-.145l3.783-2.184a1.079,1.079,0,0,0,.394-1.473Z" transform="translate(-927.287 -4525.092)" fill="#855db5"/>
              </g>
            </g>
            <g id="Grupo_60028" data-name="Grupo 60028" transform="translate(77.224 41.51)">
              <g id="Grupo_60027" data-name="Grupo 60027">
                <path id="Trazado_108562" data-name="Trazado 108562" d="M938.8,4535.533a1.078,1.078,0,0,0-1.473-.4l-3.782,2.184a1.079,1.079,0,0,0,.54,2.013,1.063,1.063,0,0,0,.538-.145l3.783-2.184a1.078,1.078,0,0,0,.394-1.473Z" transform="translate(-933.004 -4534.993)" fill="#855db5"/>
              </g>
            </g>
            <g id="Grupo_60030" data-name="Grupo 60030" transform="translate(77.296 88.025)">
              <g id="Grupo_60029" data-name="Grupo 60029">
                <path id="Trazado_108563" data-name="Trazado 108563" d="M938.587,4584.171a3.362,3.362,0,0,1-2.675-2.631c0-.043-.129-.043-.129,0a3.362,3.362,0,0,1-2.675,2.631c-.043,0-.043.087,0,.13a3.365,3.365,0,0,1,2.675,2.632c0,.043.129.043.129,0a3.365,3.365,0,0,1,2.675-2.632C938.63,4584.258,938.63,4584.171,938.587,4584.171Z" transform="translate(-933.076 -4581.508)" fill="#2ab9c4"/>
              </g>
            </g>
            <g id="Grupo_60032" data-name="Grupo 60032" transform="translate(62.441)">
              <g id="Grupo_60031" data-name="Grupo 60031">
                <path id="Trazado_108564" data-name="Trazado 108564" d="M924.393,4495.856h-1.036v-.992a1.363,1.363,0,0,0-1.38-1.381,1.382,1.382,0,0,0-1.381,1.338v1.035H919.6a1.363,1.363,0,0,0-1.381,1.381,1.337,1.337,0,0,0,1.381,1.38h.992v.993a1.363,1.363,0,0,0,1.381,1.38,1.382,1.382,0,0,0,1.38-1.337v-1.036h.993a1.363,1.363,0,0,0,1.38-1.38A1.382,1.382,0,0,0,924.393,4495.856Z" transform="translate(-918.221 -4493.483)" fill="#fc657e"/>
              </g>
            </g>
            <g id="Grupo_60034" data-name="Grupo 60034" transform="translate(33.623 107.515)">
              <g id="Grupo_60033" data-name="Grupo 60033">
                <path id="Trazado_108565" data-name="Trazado 108565" d="M890.87,4601a1.467,1.467,0,1,0,1.467,1.466A1.466,1.466,0,0,0,890.87,4601Z" transform="translate(-889.403 -4600.998)" fill="#31d9e7"/>
              </g>
            </g>
            <g id="Grupo_60036" data-name="Grupo 60036" transform="translate(72.453 11.649)">
              <g id="Grupo_60035" data-name="Grupo 60035">
                <path id="Trazado_108566" data-name="Trazado 108566" d="M929.7,4505.132a1.467,1.467,0,1,0,1.467,1.467A1.467,1.467,0,0,0,929.7,4505.132Z" transform="translate(-928.233 -4505.132)" fill="#f5c84c"/>
              </g>
            </g>
            <g id="Grupo_60038" data-name="Grupo 60038" transform="translate(22.255 95.067)">
              <g id="Grupo_60037" data-name="Grupo 60037">
                <path id="Trazado_108567" data-name="Trazado 108567" d="M885.952,4592.369a4.787,4.787,0,0,1-3.84-3.754c0-.086-.173-.086-.173,0a4.787,4.787,0,0,1-3.839,3.754c-.087,0-.087.129,0,.172a4.788,4.788,0,0,1,3.839,3.754c0,.086.173.086.173,0a4.788,4.788,0,0,1,3.84-3.754C886.038,4592.5,886.038,4592.369,885.952,4592.369Z" transform="translate(-878.035 -4588.55)" fill="#f5c84c"/>
              </g>
            </g>
          </g>
        </g>
      </g>
      <g id="Grupo_60044" data-name="Grupo 60044" transform="translate(303.739 554.008)">
        <g id="Grupo_60043" data-name="Grupo 60043">
          <g id="Grupo_60042" data-name="Grupo 60042" transform="translate(1.56 1.554)">
            <path id="Trazado_108568" data-name="Trazado 108568" d="M694.152,4671.719l16.3-10.217H725.1c.915,0,1.244.651.769,1.4l-4.757,7.425a2.18,2.18,0,0,0,0,2.8l4.757,7.419c.475.745.111,1.4-.769,1.4H695.812c-1.185,0-1.66-.557-1.66-1.66Z" transform="translate(-627.273 -4652.892)" fill="#ce666e" fill-rule="evenodd"/>
            <path id="Trazado_108569" data-name="Trazado 108569" d="M709.02,4673.326H677.847v-20.434H709.02a1.475,1.475,0,0,1,1.437,1.508v17.419A1.475,1.475,0,0,1,709.02,4673.326Z" transform="translate(-627.273 -4652.892)" fill="#f17781" fill-rule="evenodd"/>
            <path id="Trazado_108570" data-name="Trazado 108570" d="M629.256,4727.941H656.98a1.992,1.992,0,0,1,1.982,1.988l.8,5.906-.8,7.583a1.991,1.991,0,0,1-1.982,1.982H629.256a1.988,1.988,0,0,1-1.983-1.982v-13.489A1.993,1.993,0,0,1,629.256,4727.941Z" transform="translate(-627.273 -4652.892)" fill="#31d9e7" fill-rule="evenodd"/>
            <path id="Trazado_108571" data-name="Trazado 108571" d="M673.924,4727.642l5.73-.8,4.915.8a2.8,2.8,0,0,1,2.809,2.609v12.839a2.62,2.62,0,0,1-2.61,2.61H673.12a14.4,14.4,0,0,1-6.926-1.7c-1.308-.716-1-.581-2.546-.581h-4.686v-13.489h7.12c2.059,0,1.5-.135,3.255-.956,1.8-.845,2.317-1.331,4.587-1.331Z" transform="translate(-627.273 -4652.892)" fill="#ffcbbe" fill-rule="evenodd"/>
            <path id="Trazado_108572" data-name="Trazado 108572" d="M683.454,4709.589l-6.2-.8-4.639.8a2.62,2.62,0,0,0-2.61,2.61v12.832a2.62,2.62,0,0,0,2.61,2.61h11.648a14.442,14.442,0,0,0,7.073-1.777,2.343,2.343,0,0,1,1.953-.5h5.138l2.41-7.437-2.41-6.053H691.46c-2.123,0-1.495-.035-3.3-.9-1.824-.88-2.381-1.384-4.7-1.384Z" transform="translate(-627.273 -4652.892)" fill="#ffcbbe" fill-rule="evenodd"/>
            <path id="Trazado_108573" data-name="Trazado 108573" d="M629.256,4691.83H656.98a1.987,1.987,0,0,1,1.982,1.982l.8,6.294-.8,7.2a2,2,0,0,1-1.982,1.988H629.256a1.993,1.993,0,0,1-1.983-1.988v-13.49A1.988,1.988,0,0,1,629.256,4691.83Z" transform="translate(-627.273 -4652.892)" fill="#dcbfff" fill-rule="evenodd"/>
            <path id="Trazado_108574" data-name="Trazado 108574" d="M684.768,4691.531a2.616,2.616,0,0,1,2.61,2.61v12.838a2.623,2.623,0,0,1-2.61,2.61H673.12a14.783,14.783,0,0,1-5.736-1.126c-3.038-1.284-2.106-1.161-5.654-1.161h-2.768v-13.49h8.551c1.056-3.613,5.631-6.873,11.337-7.342a2.544,2.544,0,1,1,.375,5.061Z" transform="translate(-627.273 -4652.892)" fill="#ffcbbe" fill-rule="evenodd"/>
            <path id="Trazado_108575" data-name="Trazado 108575" d="M728.122,4709.888H700.4a1.988,1.988,0,0,0-1.983,1.982v13.49a1.987,1.987,0,0,0,1.983,1.982h27.718a1.986,1.986,0,0,0,1.982-1.982v-13.49A1.987,1.987,0,0,0,728.122,4709.888Z" transform="translate(-627.273 -4652.892)" fill="#f9e478" fill-rule="evenodd"/>
            <path id="Trazado_108576" data-name="Trazado 108576" d="M716.093,4670.323a2.178,2.178,0,0,0,0,2.8l4.75,7.419c.481.745.118,1.4-.762,1.4h5.02c.88,0,1.244-.657.769-1.4l-4.757-7.419a2.18,2.18,0,0,1,0-2.8l4.757-7.425c.475-.745.146-1.4-.769-1.4h-5.02c.915,0,1.243.651.762,1.4Z" transform="translate(-627.273 -4652.892)" fill="#a75259" fill-rule="evenodd"/>
            <path id="Trazado_108577" data-name="Trazado 108577" d="M725.084,4720.34a1.988,1.988,0,0,1-1.982,1.982H698.421v3.038a1.987,1.987,0,0,0,1.983,1.982h27.718a1.986,1.986,0,0,0,1.982-1.982v-13.489a1.987,1.987,0,0,0-1.982-1.983h-3.038Z" transform="translate(-627.273 -4652.892)" fill="#d4c266" fill-rule="evenodd"/>
            <path id="Trazado_108578" data-name="Trazado 108578" d="M653.941,4702.281a2,2,0,0,1-1.988,1.989h-24.68v3.032a1.993,1.993,0,0,0,1.983,1.988H656.98a2,2,0,0,0,1.982-1.988v-13.49a1.987,1.987,0,0,0-1.982-1.982h-3.039Z" transform="translate(-627.273 -4652.892)" fill="#c595ff" fill-rule="evenodd"/>
            <path id="Trazado_108579" data-name="Trazado 108579" d="M653.941,4738.4a1.992,1.992,0,0,1-1.988,1.982h-24.68v3.038a1.988,1.988,0,0,0,1.983,1.983H656.98a1.991,1.991,0,0,0,1.982-1.983v-13.5a1.991,1.991,0,0,0-1.982-1.982h-3.039Z" transform="translate(-627.273 -4652.892)" fill="#2ab9c4" fill-rule="evenodd"/>
            <g id="Grupo_60041" data-name="Grupo 60041" transform="translate(31.688 38.639)">
              <path id="Trazado_108580" data-name="Trazado 108580" d="M693.284,4720.34a6.865,6.865,0,0,0-4.428,1.155,9.437,9.437,0,0,1-4.6,1.126H670v2.41a2.62,2.62,0,0,0,2.609,2.61h1.314c3.531,0,7.1.065,10.628,0a14.368,14.368,0,0,0,6.78-1.777,2.343,2.343,0,0,1,1.953-.5h5.137v-5.02Z" transform="translate(-658.961 -4691.531)" fill="#f7beaf" fill-rule="evenodd"/>
              <path id="Trazado_108581" data-name="Trazado 108581" d="M679.413,4740.68H673.12a9.488,9.488,0,0,1-4.51-1.08,7.386,7.386,0,0,0-4.628-1.2h-5.02v5.021h4.686c1.548,0,1.238-.135,2.546.58a14.385,14.385,0,0,0,6.926,1.7h11.648a2.62,2.62,0,0,0,2.61-2.61v-12.838a2.8,2.8,0,0,0-2.809-2.61c-.388-.059-1.725.023-2.212.023v10.464c0,1.958-1.742,2.551-2.944,2.551Z" transform="translate(-658.961 -4691.531)" fill="#f7beaf" fill-rule="evenodd"/>
              <path id="Trazado_108582" data-name="Trazado 108582" d="M682.357,4701.953c0,2.123-1.02,2.61-3,2.61H673.12a9.885,9.885,0,0,1-3.789-.727c-2.686-1.138-3.425-1.443-5.349-1.525h-5.021v4.991h2.769c3.548,0,2.615-.124,5.654,1.161a14.779,14.779,0,0,0,5.736,1.126h11.648a2.623,2.623,0,0,0,2.61-2.61V4694.14a2.616,2.616,0,0,0-2.61-2.609h-2.411v10.422Z" transform="translate(-658.961 -4691.531)" fill="#f7beaf" fill-rule="evenodd"/>
            </g>
          </g>
          <path id="Trazado_108583" data-name="Trazado 108583" d="M639.6,4743.853a1.551,1.551,0,0,1,0,3.1H629.25a3.544,3.544,0,0,1-3.537-3.537v-13.489a3.544,3.544,0,0,1,3.537-3.537h27.718a3.529,3.529,0,0,1,2.5,1.038,3.38,3.38,0,0,1,.675.945h5.929c1.091,0,1.15-.036,1.461-.211.252-.141.58-.329,1.143-.593.124-.058.294-.141.47-.228a4.163,4.163,0,0,1-.7-2.311V4712.2a4.146,4.146,0,0,1,.334-1.624,15.894,15.894,0,0,1-2-.686c-.58-.247-.9-.393-1.173-.511a7.625,7.625,0,0,0-1.214-.469,10.958,10.958,0,0,0-1.812-.058h-2.428a3.681,3.681,0,0,1-.68.95,3.531,3.531,0,0,1-2.5,1.038H646.622a1.552,1.552,0,0,1,0-3.1h10.346a.44.44,0,0,0,.434-.434v-13.489a.44.44,0,0,0-.434-.434H629.25a.44.44,0,0,0-.434.434V4707.3a.44.44,0,0,0,.434.434H639.6a1.552,1.552,0,0,1,0,3.1H629.25a3.544,3.544,0,0,1-3.537-3.537v-13.49a3.544,3.544,0,0,1,3.537-3.536h27.718a3.529,3.529,0,0,1,2.5,1.038,3.448,3.448,0,0,1,.675.944h6.3a11.6,11.6,0,0,1,4.287-4.686,17.083,17.083,0,0,1,5.56-2.287v-32.393a1.557,1.557,0,0,1,1.554-1.554h12.786a1.552,1.552,0,1,1,0,3.1H679.39v17.337H708.9v-17.337H697.659a1.552,1.552,0,1,1,0-3.1h12.792a1.552,1.552,0,0,1,1.548,1.554v7.056h14.756a1.556,1.556,0,0,1,1.249,2.475l-5.953,9.3,6.006,9.384a1.552,1.552,0,0,1-1.3,2.387H694.146a1.552,1.552,0,0,1-1.554-1.548v-7.062h-13.2v10.012a4.1,4.1,0,0,1,3.924,4.094,4.218,4.218,0,0,1-.124,1h1.566a4.157,4.157,0,0,1,4.165,4.158v12.838a4.123,4.123,0,0,1-.7,2.3c.545.276,1.1.54,1.63.833a3.07,3.07,0,0,0,1.6.212h5.759a3.653,3.653,0,0,1,.681-.951,3.54,3.54,0,0,1,2.5-1.038h27.724a3.544,3.544,0,0,1,3.531,3.537v13.489a3.544,3.544,0,0,1-3.531,3.537H717.77a1.552,1.552,0,1,1,0-3.1h10.346a.439.439,0,0,0,.428-.434v-13.489a.436.436,0,0,0-.428-.435H700.392a.436.436,0,0,0-.428.435v13.489a.436.436,0,0,0,.428.434h10.346a1.552,1.552,0,1,1,0,3.1H700.392a3.538,3.538,0,0,1-2.5-1.038,3.6,3.6,0,0,1-.675-.945H694.1a3.221,3.221,0,0,0-2.018.294,15.091,15.091,0,0,1-3.525,1.431,3.808,3.808,0,0,1,.358,1.612v12.839a4.165,4.165,0,0,1-4.164,4.164H679.39v8.47a1.552,1.552,0,0,1-3.1,0v-8.47h-3.173a16.9,16.9,0,0,1-4.011-.481,15.378,15.378,0,0,1-3.666-1.413c-1.015-.563-1.449-.387-2.622-.387h-2.674a3.463,3.463,0,0,1-.675.944,3.529,3.529,0,0,1-2.5,1.038H646.622a1.551,1.551,0,0,1,0-3.1h10.346a.442.442,0,0,0,.434-.434v-13.49a.441.441,0,0,0-.434-.434H629.25a.44.44,0,0,0-.434.434v13.49a.441.441,0,0,0,.434.434Zm39.618-50.774a1.551,1.551,0,1,1,.012-3.1.981.981,0,0,0,.692-.288,1.008,1.008,0,0,0,.287-.7c0-.733-.569-1.026-1.237-.973a14.326,14.326,0,0,0-6.552,2.152,7.9,7.9,0,0,0-3.39,3.971,1.554,1.554,0,0,1-1.519,1.226h-7v10.4h2.07a12.338,12.338,0,0,1,2.434.117,8.727,8.727,0,0,1,1.824.669,16.413,16.413,0,0,0,3.607,1.238,14.126,14.126,0,0,0,2.674.252h11.642a1.06,1.06,0,0,0,.751-.311,1.078,1.078,0,0,0,.311-.745V4694.14a1.055,1.055,0,0,0-.311-.745,1.068,1.068,0,0,0-.751-.316Zm5.038,33.014a13.982,13.982,0,0,0,3.349-.4c1.741-.44,3-1.472,4.24-1.789a5.586,5.586,0,0,1,1.437-.088h3.584v-10.4h-5.408c-1.988,0-2.041-.023-3.079-.586-.569-.311-1.144-.581-1.724-.874a5.759,5.759,0,0,0-3.2-.815H672.6a1.08,1.08,0,0,0-.745.31,1.057,1.057,0,0,0-.31.751v12.833a1.063,1.063,0,0,0,1.055,1.061Zm0,3.1h-10.34a5.594,5.594,0,0,0-3.068.762c-.6.3-1.2.564-1.788.9-.915.516-1.1.622-2.986.622h-5.565v10.392l3.724-.006a4.365,4.365,0,0,1,1.155.077c1.238.281,2.745,1.4,4.458,1.823a13.593,13.593,0,0,0,3.272.388h11.642a1.072,1.072,0,0,0,1.062-1.062v-12.839a.959.959,0,0,0-.34-.68,1.511,1.511,0,0,0-1.226-.375Zm11.442-54.316v5.507h28.228l-5-7.806a1.544,1.544,0,0,1-.018-1.695l5.014-7.83H712v10.27a1.552,1.552,0,0,1-1.548,1.554Z" transform="translate(-625.713 -4651.338)" fill="#855db5"/>
        </g>
      </g>
      <g id="Grupo_60045" data-name="Grupo 60045" transform="translate(53.318 403.239)">
        <path id="Trazado_108584" data-name="Trazado 108584" d="M473.627,4598.9v-19.862a6.67,6.67,0,0,0-2.843-5.461l-12.532-8.774a5,5,0,0,0-2.868-.9H445.293l.167,28.517a6.962,6.962,0,0,0,4.833,6.484h23.334Z" transform="translate(-375.292 -4500.569)" fill="#fec9a3"/>
        <path id="Trazado_108585" data-name="Trazado 108585" d="M463.627,4598.9H451.96a6.667,6.667,0,0,1-6.667-6.666v-6.667H456.96Z" transform="translate(-375.292 -4500.569)" fill="#fabd91"/>
        <path id="Trazado_108586" data-name="Trazado 108586" d="M420.293,4513.9a8.314,8.314,0,0,0-3.334.7v-12.37h-30a10,10,0,0,0-10,10v30h12.37a8.333,8.333,0,1,1,15.26,0h12.37v-12.37a8.333,8.333,0,1,0,3.334-15.965Z" transform="translate(-375.292 -4500.569)" fill="#2ab9c4"/>
        <path id="Trazado_108587" data-name="Trazado 108587" d="M456.96,4512.236a10,10,0,0,0-10-10h-30v12.37a8.333,8.333,0,1,1,0,15.26v12.371h12.371a8.333,8.333,0,1,0,15.26,0h12.37v-30Z" transform="translate(-375.292 -4500.569)" fill="#f17781"/>
        <path id="Trazado_108588" data-name="Trazado 108588" d="M456.96,4513.188c-9.527,13.253-26.726,20.782-40,24.834v4.215h12.37a8.334,8.334,0,1,0,15.261,0h12.37v-29.047Z" transform="translate(-375.292 -4500.569)" fill="#ce666e"/>
        <path id="Trazado_108589" data-name="Trazado 108589" d="M413.626,4555.57a8.314,8.314,0,0,1,3.333.7v-14.037h-12.37a8.333,8.333,0,1,0-15.26,0h-12.37v30a10,10,0,0,0,10,10h30v-10.7a8.334,8.334,0,1,1-3.333-15.966Z" transform="translate(-375.292 -4500.569)" fill="#f9e478"/>
        <path id="Trazado_108590" data-name="Trazado 108590" d="M376.959,4572.237a10,10,0,0,0,10,10h30v-10.7a8.3,8.3,0,0,1-11.637-7.333,72.889,72.889,0,0,1-28.363,6.308Z" transform="translate(-375.292 -4500.569)" fill="#d4c266"/>
        <path id="Trazado_108591" data-name="Trazado 108591" d="M461.318,4577.071,450.773,4548.9l-11.581,4.361a8.344,8.344,0,1,1-14.286,5.382l-11.58,4.362,4.933,13.182a8.253,8.253,0,0,0-3.366.513,8.357,8.357,0,0,0,5.858,15.652,8.263,8.263,0,0,0,2.875-1.837l3.76,10.052,28.087-10.578A10.039,10.039,0,0,0,461.318,4577.071Z" transform="translate(-375.292 -4500.569)" fill="#dcbfff"/>
        <path id="Trazado_108592" data-name="Trazado 108592" d="M455.88,4562.545c-11.5,17.2-33.059,23.207-45.686,25.276a8.277,8.277,0,0,0,13.432,2.7l3.76,10.052,28.087-10.578a10.041,10.041,0,0,0,5.845-12.917Z" transform="translate(-375.292 -4500.569)" fill="#c595ff"/>
        <path id="Trazado_108593" data-name="Trazado 108593" d="M420.293,4513.9a8.314,8.314,0,0,0-3.334.7v-2.418c-12.48,11.488-29.388,17.833-40,20.925v9.124h12.37a8.333,8.333,0,1,1,15.26,0h12.37v-12.371a8.333,8.333,0,1,0,3.334-15.965Z" transform="translate(-375.292 -4500.569)" fill="#21949d"/>
        <path id="Trazado_108594" data-name="Trazado 108594" d="M453.657,4577.267a4.125,4.125,0,1,0-5.892,5.776c.02.02.038.04.058.058l5.8,5.8a10,10,0,0,0,10,10h10v-1.667Z" transform="translate(-375.292 -4500.569)" fill="#fec9a3"/>
        <path id="Trazado_108595" data-name="Trazado 108595" d="M413.626,4553.765a10,10,0,0,0-4,19.167l1.333-3.053a6.667,6.667,0,0,1,2.667-12.78,6.6,6.6,0,0,1,2.666.563,1.665,1.665,0,0,0,2.334-1.527V4543.9H427.1a9.8,9.8,0,0,0-.142,1.666,10.029,10.029,0,0,0,8,9.8l.666-3.265a6.688,6.688,0,0,1-5.333-6.535,6.6,6.6,0,0,1,.563-2.666,1.666,1.666,0,0,0-.862-2.195,1.648,1.648,0,0,0-.665-.139h-10.7V4532.1a9.82,9.82,0,0,0,1.666.142,10,10,0,1,0,0-20h0a9.821,9.821,0,0,0-1.666.142V4503.9H446.96a8.343,8.343,0,0,1,8.333,8.333v28.334h-10.7a1.667,1.667,0,0,0-1.526,2.333,6.605,6.605,0,0,1,.563,2.667h3.334a9.81,9.81,0,0,0-.142-1.667H456.96a1.666,1.666,0,0,0,1.666-1.666v-30a11.682,11.682,0,0,0-11.666-11.667h-60a11.683,11.683,0,0,0-11.667,11.667V4572.1a11.683,11.683,0,0,0,11.667,11.667h18.333v-3.334H386.959a8.343,8.343,0,0,1-8.334-8.333v-28.2h10.7a1.792,1.792,0,0,0,1.658-1.92,1.763,1.763,0,0,0-.131-.553,6.666,6.666,0,1,1,12.206,0,1.727,1.727,0,0,0,1.527,2.473h10.7v10A9.731,9.731,0,0,0,413.626,4553.765ZM386.959,4503.9h28.334v10.7a1.668,1.668,0,0,0,2.333,1.527,6.591,6.591,0,0,1,2.667-.563,6.667,6.667,0,1,1,0,13.333,6.6,6.6,0,0,1-2.667-.563,1.666,1.666,0,0,0-2.333,1.527v10.565h-8.464a9.8,9.8,0,0,0,.13-1.529v-.138a10,10,0,0,0-20,0v.138a9.676,9.676,0,0,0,.13,1.529h-8.464v-28.2A8.345,8.345,0,0,1,386.959,4503.9Z" transform="translate(-375.292 -4500.569)" fill="#855db5"/>
        <path id="Trazado_108596" data-name="Trazado 108596" d="M471.729,4572.207l-14.012-9.648-5.382-14.379a1.665,1.665,0,0,0-2.143-.98c-.032.012-.062.024-.092.037l-10.833,4.792a1.668,1.668,0,0,0-.884,2.12c.18.466.349.82.527,1.187a12.874,12.874,0,0,1,.545,1.251,6.669,6.669,0,1,1-12.89,2,1.667,1.667,0,0,0-2.253-1.647l-11.581,4.362a1.666,1.666,0,0,0-.973,2.145l4.157,11.1a9.318,9.318,0,0,0-1.617.446,10.022,10.022,0,1,0,8.542,18.052l2.98,7.961a1.668,1.668,0,0,0,2.145.976h0l16.514-6.222a8.95,8.95,0,0,0,5.279,4.713l1.053-3.167a5.624,5.624,0,0,1-3.187-2.723l5.025-1.892a11.633,11.633,0,0,0,10.976,7.736V4597.1a8.386,8.386,0,0,1-8.334-8.333,1.666,1.666,0,0,0-.488-1.179l-5.8-5.8a2.472,2.472,0,0,1-.228-3.215,2.429,2.429,0,0,1,1.792-.977,2.387,2.387,0,0,1,1.913.715l11.637,11.637,2.357-2.357-3.444-3.443a11.62,11.62,0,0,0-.148-7.792l-3.124-8.342,10.072,6.935a5.012,5.012,0,0,1,2.132,4.1v21.529h3.333v-21.53A8.35,8.35,0,0,0,471.729,4572.207Zm-11.484,9.152-5.41-5.408a5.792,5.792,0,1,0-8.294,8.087c.034.035.069.07.1.1l5.271,5.272-23.553,8.871-3.177-8.488a1.667,1.667,0,0,0-1.2-1.042,1.7,1.7,0,0,0-.362-.04,1.666,1.666,0,0,0-1.167.475,6.667,6.667,0,1,1-6.98-11.066,6.408,6.408,0,0,1,1.648-.374,6.179,6.179,0,0,1,1.045-.035,1.667,1.667,0,0,0,1.649-2.248l-4.354-11.624,7.937-2.988a10,10,0,1,0,19.179-5.43c-.153-.41-.292-.735-.425-1.025l7.667-3.4,9.933,26.515A8.32,8.32,0,0,1,460.245,4581.359Z" transform="translate(-375.292 -4500.569)" fill="#855db5"/>
      </g>
      <g id="Grupo_60048" data-name="Grupo 60048" transform="translate(52.103 178.158)">
        <g id="Grupo_60047" data-name="Grupo 60047">
          <path id="Trazado_108597" data-name="Trazado 108597" d="M449.6,4327.283a23.723,23.723,0,1,0,23.723,23.723A23.724,23.724,0,0,0,449.6,4327.283Z" transform="translate(-374.077 -4275.488)" fill="#eefaff"/>
          <path id="Trazado_108598" data-name="Trazado 108598" d="M399.777,4277.465a23.723,23.723,0,1,0,23.723,23.723A23.724,23.724,0,0,0,399.777,4277.465Z" transform="translate(-374.077 -4275.488)" fill="#eefaff"/>
          <path id="Trazado_108599" data-name="Trazado 108599" d="M464.224,4302.374l-11.862,15.815L440.5,4302.374h3.954v-3.954A15.816,15.816,0,0,0,428.64,4282.6h15.815a15.816,15.816,0,0,1,15.815,15.815v3.954Z" transform="translate(-374.077 -4275.488)" fill="#47ecfa"/>
          <path id="Trazado_108600" data-name="Trazado 108600" d="M461.456,4370.775v.779a23.745,23.745,0,0,1-23.723,0v-.779a11.861,11.861,0,1,1,23.723,0Z" transform="translate(-374.077 -4275.488)" fill="#f17781"/>
          <circle id="Elipse_4180" data-name="Elipse 4180" cx="7.908" cy="7.908" r="7.908" transform="translate(67.61 63.657)" fill="#fce8d0"/>
          <path id="Trazado_108601" data-name="Trazado 108601" d="M420.732,4369.589H404.917a15.817,15.817,0,0,1-15.816-15.815v-3.954h-3.953L397.009,4334l11.861,15.815h-3.953v3.954A15.816,15.816,0,0,0,420.732,4369.589Z" transform="translate(-374.077 -4275.488)" fill="#95f7ff"/>
          <path id="Trazado_108602" data-name="Trazado 108602" d="M411.638,4320.957v.779a23.742,23.742,0,0,1-23.723,0v-.779a11.861,11.861,0,0,1,23.723,0Z" transform="translate(-374.077 -4275.488)" fill="#f9e478"/>
          <circle id="Elipse_4181" data-name="Elipse 4181" cx="7.908" cy="7.908" r="7.908" transform="translate(17.792 13.839)" fill="#c3906d"/>
          <g id="Grupo_60046" data-name="Grupo 60046">
            <path id="Trazado_108603" data-name="Trazado 108603" d="M409.661,4297.234a9.885,9.885,0,1,0-9.884,9.885A9.9,9.9,0,0,0,409.661,4297.234Zm-9.884,5.931a5.931,5.931,0,1,1,5.93-5.931A5.938,5.938,0,0,1,399.777,4303.165Z" transform="translate(-374.077 -4275.488)" fill="#855db5"/>
            <path id="Trazado_108604" data-name="Trazado 108604" d="M399.777,4326.888a25.7,25.7,0,1,0-25.7-25.7A25.723,25.723,0,0,0,399.777,4326.888Zm-9.875-6.324a9.882,9.882,0,0,1,19.749,0,21.755,21.755,0,0,1-19.749,0Zm9.875-41.122a21.742,21.742,0,0,1,13.559,38.741,13.84,13.84,0,0,0-27.118,0,21.742,21.742,0,0,1,13.559-38.741Z" transform="translate(-374.077 -4275.488)" fill="#855db5"/>
            <path id="Trazado_108605" data-name="Trazado 108605" d="M459.479,4347.052a9.885,9.885,0,1,0-9.884,9.885A9.9,9.9,0,0,0,459.479,4347.052Zm-9.884,5.931a5.931,5.931,0,1,1,5.93-5.931A5.938,5.938,0,0,1,449.6,4352.983Z" transform="translate(-374.077 -4275.488)" fill="#855db5"/>
            <path id="Trazado_108606" data-name="Trazado 108606" d="M449.6,4325.306a25.7,25.7,0,1,0,25.7,25.7A25.729,25.729,0,0,0,449.6,4325.306Zm-9.875,45.076a9.882,9.882,0,0,1,19.749,0,21.755,21.755,0,0,1-19.749,0ZM463.153,4368a13.84,13.84,0,0,0-27.117,0,21.746,21.746,0,1,1,27.117,0Z" transform="translate(-374.077 -4275.488)" fill="#855db5"/>
            <path id="Trazado_108607" data-name="Trazado 108607" d="M420.732,4367.612a13.853,13.853,0,0,1-13.838-13.838V4351.8h1.976a1.977,1.977,0,0,0,1.582-3.163l-11.861-15.816a1.978,1.978,0,0,0-3.163,0l-11.862,15.816a1.977,1.977,0,0,0,1.582,3.163h1.977v1.977a17.812,17.812,0,0,0,17.792,17.792h15.815a1.977,1.977,0,0,0,0-3.954Zm-15.815,0a13.854,13.854,0,0,1-13.839-13.838v-3.954a1.977,1.977,0,0,0-1.977-1.977l7.908-10.544,7.908,10.544a1.977,1.977,0,0,0-1.977,1.977v3.954a17.766,17.766,0,0,0,6.621,13.838Z" transform="translate(-374.077 -4275.488)" fill="#855db5"/>
            <path id="Trazado_108608" data-name="Trazado 108608" d="M428.64,4284.582a13.854,13.854,0,0,1,13.838,13.838v1.977H440.5a1.978,1.978,0,0,0-1.582,3.163l11.862,15.815a1.976,1.976,0,0,0,3.163,0L465.8,4303.56a1.977,1.977,0,0,0-1.581-3.163h-1.977v-1.977c0-.533-.024-1.071-.071-1.6a1.977,1.977,0,0,0-3.938.352c.036.412.055.832.055,1.248v3.954a1.977,1.977,0,0,0,1.977,1.977l-7.908,10.543-7.907-10.543a1.978,1.978,0,0,0,1.977-1.977v-3.954a17.766,17.766,0,0,0-6.621-13.838h4.644a13.812,13.812,0,0,1,4.605.784,1.977,1.977,0,0,0,1.316-3.728,17.739,17.739,0,0,0-5.921-1.01H428.64a1.977,1.977,0,0,0,0,3.954Z" transform="translate(-374.077 -4275.488)" fill="#855db5"/>
            <circle id="Elipse_4182" data-name="Elipse 4182" cx="1.977" cy="1.977" r="1.977" transform="translate(80.855 11.269)" fill="#855db5"/>
          </g>
        </g>
      </g>
    </g>
  </g>
</svg>
