<svg xmlns="http://www.w3.org/2000/svg" width="179.237" height="163.289" viewBox="0 0 179.237 163.289">
  <g id="Grupo_60075" data-name="Grupo 60075" transform="translate(-629.942 -5170.281)">
    <rect id="Rectángulo_6452" data-name="Rectángulo 6452" width="179.237" height="163.289" transform="translate(629.942 5170.281)" fill="none"/>
    <path id="Trazado_108669" data-name="Trazado 108669" d="M731.429,5303.875H707.692l1.951-28.615h19.835Z" fill="#855db5"/>
    <path id="Trazado_108670" data-name="Trazado 108670" d="M734.54,5299.294a1.55,1.55,0,0,0-1.289-.688H705.87a1.552,1.552,0,0,0-1.289.688l-3.586,5.351a1.552,1.552,0,0,0,1.289,2.415h34.554a1.551,1.551,0,0,0,1.288-2.415Z" fill="#855db5"/>
    <path id="Rectángulo_6453" data-name="Rectángulo 6453" d="M6.68,0H122.918a6.68,6.68,0,0,1,6.68,6.68V80.194a6.681,6.681,0,0,1-6.681,6.681H6.68A6.68,6.68,0,0,1,0,80.195V6.68A6.68,6.68,0,0,1,6.68,0Z" transform="translate(654.762 5195.993)" fill="#855db5"/>
    <rect id="Rectángulo_6454" data-name="Rectángulo 6454" width="117.665" height="74.464" transform="translate(660.728 5201.749)" fill="#f17781"/>
    <path id="Trazado_108671" data-name="Trazado 108671" d="M763.018,5298.315c-13.67-2.534-29.608-5.538-29.651-.244-.041,5,6.017,8.881,11.251,11.359,2.836-1.082,6.038-1.287,9.066-1.755,5.355-.829,10.61.028,15.972.017a21.462,21.462,0,0,0,8.542-6.323S773.553,5300.268,763.018,5298.315Z" fill="#616161"/>
    <path id="Trazado_108672" data-name="Trazado 108672" d="M751.505,5307.8c.434.223-4.792,2.693-4.376,2.9,2.237.7,24.265.828,26.285.308,3.49-.9-6.474-5.231-2.994-5.955,5.724-4.048,8.941-9.345,5.841-10.006-3.5-.745-8.958,1.1-12.492,1.466-2.692.281-4.252.463-6.808-.428l-8.6-.949c-8.819,1.753-10.636,4.927-10.728,4.885,0,1.258,6.434,3.85,12.2,6.905A6.161,6.161,0,0,1,751.505,5307.8Z" fill="#00bad1"/>
    <path id="Trazado_108673" data-name="Trazado 108673" d="M751.505,5307.8c.434.223-4.792,2.693-4.376,2.9,2.237.7,24.265.828,26.285.308,3.49-.9-6.474-5.231-2.994-5.955,5.724-4.048,8.941-9.345,5.841-10.006-3.5-.745-8.958,1.1-12.492,1.466-2.692.281-4.252.463-6.808-.428l-8.6-.949c-8.819,1.753-10.636,4.927-10.728,4.885,0,1.258,6.434,3.85,12.2,6.905A6.161,6.161,0,0,1,751.505,5307.8Z" fill="#21949d" opacity="0.32" style="mix-blend-mode: multiply;isolation: isolate"/>
    <path id="Trazado_108674" data-name="Trazado 108674" d="M748.217,5304.418l2.8,3.787s-3.036,2.122-3.885,2.5-7.709.656-9.507-.723c-1.612-1.237-2.166-2.858-1.34-3.623,1.052-.975,3.6-1.285,4.863-1.452C743.934,5304.536,748.217,5304.418,748.217,5304.418Z"/>
    <path id="Trazado_108675" data-name="Trazado 108675" d="M746.526,5304.556l1.611,5.709s27.084-.4,29.913-4.56c3.634-3.751,5.105-11.125-2.216-11.274a15.779,15.779,0,0,0-4.722.95C761.178,5298.729,746.526,5304.556,746.526,5304.556Z" fill="#2ab9c4"/>
    <path id="Trazado_108676" data-name="Trazado 108676" d="M776.453,5304.169a8.749,8.749,0,0,1-4.488-1.684,19.111,19.111,0,0,0-5.609-2.2c-1.711-.4-3.5-1-4.874-1.466-7.873,2.554-14.956,5.739-14.956,5.739l1.263,4.475c.69.166,1.384.344,2.075.533a14.5,14.5,0,0,1,2.458.385c.171.046.343.079.515.109,7.782-.425,23.464-1.631,25.544-4.685a15.876,15.876,0,0,0,1.266-1.885A14.161,14.161,0,0,1,776.453,5304.169Z" fill="#21949d" opacity="0.32" style="mix-blend-mode: multiply;isolation: isolate"/>
    <path id="Trazado_108677" data-name="Trazado 108677" d="M769.845,5304.763l-2.347,2.976s3.831,2.332,4.629,2.717,6.334.644,8.09-.617c1.575-1.131,2.153-2.66,1.389-3.415-.974-.962-3.39-1.335-4.594-1.533A40.645,40.645,0,0,0,769.845,5304.763Z"/>
    <path id="Trazado_108678" data-name="Trazado 108678" d="M772.565,5304.027l-2.411,6.67s-33.263-2.621-35.969-7.264c-1.617-2.776-1.852-7.1,1.633-8.634,2.144-.947,5.176-1.434,9.488.05C756.028,5298.538,772.565,5304.027,772.565,5304.027Z" fill="#2ab9c4"/>
    <path id="Trazado_108679" data-name="Trazado 108679" d="M759.49,5259.787h-4.709s-.678,6.416-1.907,7.179c0,0-1.516,7.579,4.262,7.579,6.991,0,4.261-7.579,4.261-7.579C760.169,5266.2,759.49,5259.787,759.49,5259.787Z" fill="#e45940"/>
    <g id="Grupo_60071" data-name="Grupo 60071">
      <path id="Trazado_108680" data-name="Trazado 108680" d="M763.259,5261.043c-.653-.75-1.436.392-1.436.392s1.077-4.243,0-6.1-4.569-.881-4.569-.881-3.492-.979-4.568.881,0,6.1,0,6.1-.784-1.142-1.436-.392,1.077,2.643,1.468,2.872c0,0,2.513,4.7,4.536,4.7s4.537-4.7,4.537-4.7C762.182,5263.686,763.912,5261.794,763.259,5261.043Z" fill="#f88667"/>
      <path id="Trazado_108681" data-name="Trazado 108681" d="M756.376,5256.132s-2.643.465-2.937,1.884a5.6,5.6,0,0,0,.141,2.117,13.918,13.918,0,0,1,.226,2.338.4.4,0,0,1-.343-.059,4.79,4.79,0,0,1-.893-1.079c-.5-.735-1.224-.612-1.432-.147,0,0-.587-6.963,2.325-7.208S756.376,5256.132,756.376,5256.132Z" fill="#110239"/>
      <path id="Trazado_108682" data-name="Trazado 108682" d="M758.1,5256.132s2.643.465,2.937,1.884a5.626,5.626,0,0,1-.142,2.117,13.788,13.788,0,0,0-.225,2.338.4.4,0,0,0,.342-.059,4.79,4.79,0,0,0,.893-1.079c.5-.735,1.224-.612,1.432-.147,0,0,.588-6.963-2.325-7.208S758.1,5256.132,758.1,5256.132Z" fill="#110239"/>
      <path id="Trazado_108683" data-name="Trazado 108683" d="M761.982,5254.39a2.129,2.129,0,0,0-1.242-1.856,7.071,7.071,0,0,0-5.955,0c-2.056,1.028-2.68,1.26-3.28.918s-.22-.686-.22-.686-1.346-.012-1.281,2.077,2.633,4.683,5.988,4.683C761.116,5259.526,762.774,5255.944,761.982,5254.39Z" fill="#110239"/>
    </g>
    <path id="Trazado_108684" data-name="Trazado 108684" d="M761.4,5266.966c-.247,6.443-4.262,5.778-4.262,5.778s-4.014.665-4.261-5.778c0,0-6.411,1.772-9.537,3.868a61.933,61.933,0,0,1,1.415,11.874l3.665,14.195,8.718-1.589,8.717,1.589,3.665-14.195a61.93,61.93,0,0,1,1.415-11.874C767.806,5268.738,761.4,5266.966,761.4,5266.966Z" fill="#d0d1de"/>
    <path id="Trazado_108685" data-name="Trazado 108685" d="M768.886,5274.557c-3.985,2.124-5.922,7.009-9.792,9.4-4.005,2.477-6.838-2.528-8.786-5.13a15.134,15.134,0,0,0-6.409-5.1,60.675,60.675,0,0,1,.853,8.979l3.665,14.195,8.718-1.067,8.717,1.067,3.665-14.195a60.4,60.4,0,0,1,.831-8.842C769.842,5274.086,769.347,5274.31,768.886,5274.557Z" fill="#b8b9cd"/>
    <path id="Trazado_108686" data-name="Trazado 108686" d="M743.337,5270.834s-7.266,17.063-7.352,19.413c-.167,4.552,9.788,6.394,14.327,5.558l1.848-.34S745.422,5270.71,743.337,5270.834Z" fill="#d0d1de"/>
    <path id="Trazado_108687" data-name="Trazado 108687" d="M770.917,5270.834s7.336,17.061,7.352,19.413c.03,4.6-9.788,6.394-14.327,5.558l-1.848-.34S768.833,5270.71,770.917,5270.834Z" fill="#d0d1de"/>
    <path id="Trazado_108688" data-name="Trazado 108688" d="M746.427,5276.827a12.029,12.029,0,0,1-.3,2.5c-.7,3.1-1.806,6.328-.647,9.472a50.4,50.4,0,0,0,3.578,7.078,5.785,5.785,0,0,0,1.257-.073l1.848-.34S749.07,5284.117,746.427,5276.827Z" fill="#b8b9cd"/>
    <path id="Trazado_108689" data-name="Trazado 108689" d="M766.582,5295.718a11.141,11.141,0,0,0,.878-4.565c-.106-3.164-.124-6.328-.073-9.493.022-1.368.057-2.693.137-3.99-2.57,7.289-5.43,17.795-5.43,17.795l1.848.34A7.54,7.54,0,0,0,766.582,5295.718Z" fill="#b8b9cd"/>
    <g id="Grupo_60072" data-name="Grupo 60072">
      <rect id="Rectángulo_6455" data-name="Rectángulo 6455" width="22.847" height="1.354" transform="translate(745.712 5295.661)" fill="#110239"/>
      <path id="Trazado_108690" data-name="Trazado 108690" d="M771.919,5279.821H742.352a1.37,1.37,0,0,0-1.322,1.781c.273,1.781,4,14.234,4.752,14.234h22.707c.661,0,4.479-12.453,4.752-14.234A1.37,1.37,0,0,0,771.919,5279.821Z" fill="#110239"/>
      <path id="Trazado_108691" data-name="Trazado 108691" d="M758.359,5288.443a1.224,1.224,0,1,1-1.223-1.224A1.224,1.224,0,0,1,758.359,5288.443Z" fill="#fff"/>
    </g>
    <g id="Grupo_60074" data-name="Grupo 60074">
      <g id="Grupo_60073" data-name="Grupo 60073">
        <path id="Trazado_108692" data-name="Trazado 108692" d="M679.981,5238.981s37.023,46.7,79.159,0C717,5192.277,679.981,5238.981,679.981,5238.981Z" fill="#110239"/>
        <path id="Trazado_108693" data-name="Trazado 108693" d="M685.522,5238.981s31.84,40.165,68.077,0C717.362,5198.816,685.522,5238.981,685.522,5238.981Z" fill="#fff"/>
      </g>
      <circle id="Elipse_4183" data-name="Elipse 4183" cx="17.595" cy="17.595" r="17.595" transform="translate(698.45 5252.151) rotate(-76.959)" fill="#47ecfa"/>
      <path id="Trazado_108694" data-name="Trazado 108694" d="M730.643,5238.981a11.082,11.082,0,1,1-11.082-11.082A11.082,11.082,0,0,1,730.643,5238.981Z" fill="#110239"/>
      <path id="Trazado_108695" data-name="Trazado 108695" d="M732.674,5232a4.507,4.507,0,1,1-4.507-4.507A4.507,4.507,0,0,1,732.674,5232Z" fill="#fff"/>
    </g>
  </g>
</svg>
