<svg xmlns="http://www.w3.org/2000/svg" width="102" height="102" viewBox="0 0 102 102">
  <g id="Grupo_59774" data-name="Grupo 59774" transform="translate(-279.565 -3144.461)">
    <path id="Trazado_108255" data-name="Trazado 108255" d="M341.655,3227.965v-59.148a2.589,2.589,0,0,0-2.589-2.589H302.9a2.59,2.59,0,0,0-2.59,2.589v59.148a2.59,2.59,0,0,0,2.59,2.59h36.161a2.59,2.59,0,0,0,2.589-2.59Z" fill="#c595ff"/>
    <path id="Trazado_108256" data-name="Trazado 108256" d="M347.556,3166.228H338.89a2.589,2.589,0,0,1,2.589,2.589v59.148a2.59,2.59,0,0,1-2.589,2.59h8.666a2.59,2.59,0,0,0,2.589-2.59v-59.148A2.589,2.589,0,0,0,347.556,3166.228Z" fill="#bb83ff"/>
    <path id="Trazado_108257" data-name="Trazado 108257" d="M304.547,3225.4v-54.012a.926.926,0,0,1,.926-.925h39.514a.925.925,0,0,1,.926.925V3225.4a.927.927,0,0,1-.926.926H305.473A.927.927,0,0,1,304.547,3225.4Z" fill="#f5f5f5"/>
    <path id="Trazado_108258" data-name="Trazado 108258" d="M344.987,3170.46h-8.665a.925.925,0,0,1,.925.925V3225.4a.926.926,0,0,1-.925.926h8.665a.926.926,0,0,0,.926-.926v-54.012A.925.925,0,0,0,344.987,3170.46Z" fill="#eaeaea"/>
    <path id="Trazado_108259" data-name="Trazado 108259" d="M330.731,3163.683v-1.363a1.859,1.859,0,0,0-1.86-1.859h-7.282a1.86,1.86,0,0,0-1.86,1.859v1.363a.76.76,0,0,1-.76.76h-3.031a1.826,1.826,0,0,0-1.826,1.826v4.191h22.236v-4.191a1.826,1.826,0,0,0-1.826-1.826h-3.031a.76.76,0,0,1-.76-.76Z" fill="#a271dc"/>
    <g id="Grupo_59764" data-name="Grupo 59764">
      <path id="Trazado_108260" data-name="Trazado 108260" d="M309.931,3185.485v-8.151a1.635,1.635,0,0,1,1.635-1.635h8.151a1.635,1.635,0,0,1,1.635,1.635v8.151a1.635,1.635,0,0,1-1.635,1.635h-8.151A1.635,1.635,0,0,1,309.931,3185.485Z" fill="#a271dc"/>
      <path id="Trazado_108261" data-name="Trazado 108261" d="M309.931,3202.467v-8.151a1.635,1.635,0,0,1,1.635-1.635h8.151a1.635,1.635,0,0,1,1.635,1.635v8.151a1.635,1.635,0,0,1-1.635,1.635h-8.151A1.635,1.635,0,0,1,309.931,3202.467Z" fill="#a271dc"/>
      <path id="Trazado_108262" data-name="Trazado 108262" d="M309.931,3219.448V3211.3a1.635,1.635,0,0,1,1.635-1.635h8.151a1.635,1.635,0,0,1,1.635,1.635v8.151a1.635,1.635,0,0,1-1.635,1.635h-8.151A1.635,1.635,0,0,1,309.931,3219.448Z" fill="#a271dc"/>
    </g>
    <g id="Grupo_59765" data-name="Grupo 59765">
      <path id="Trazado_108263" data-name="Trazado 108263" d="M314.951,3184.329h0a1.475,1.475,0,0,1-1.185-.6l-1.235-1.7a1.058,1.058,0,0,1,1.71-1.246l.716.984,2.094-2.845a1.058,1.058,0,0,1,1.7,1.254l-2.617,3.555A1.475,1.475,0,0,1,314.951,3184.329Z" fill="#f6f9f9"/>
    </g>
    <g id="Grupo_59766" data-name="Grupo 59766">
      <path id="Trazado_108264" data-name="Trazado 108264" d="M314.951,3201.68h0a1.48,1.48,0,0,1-1.185-.6l-1.235-1.7a1.058,1.058,0,1,1,1.71-1.246l.716.984,2.094-2.845a1.058,1.058,0,0,1,1.7,1.254l-2.617,3.555a1.475,1.475,0,0,1-1.184.6Z" fill="#f6f9f9"/>
    </g>
    <g id="Grupo_59767" data-name="Grupo 59767">
      <path id="Trazado_108265" data-name="Trazado 108265" d="M314.951,3218.292h0a1.48,1.48,0,0,1-1.185-.6l-1.235-1.7a1.058,1.058,0,1,1,1.71-1.246l.716.984,2.094-2.845a1.058,1.058,0,1,1,1.7,1.254l-2.617,3.555a1.475,1.475,0,0,1-1.184.6Z" fill="#f6f9f9"/>
    </g>
    <g id="Grupo_59770" data-name="Grupo 59770">
      <g id="Grupo_59768" data-name="Grupo 59768">
        <path id="Trazado_108266" data-name="Trazado 108266" d="M339.7,3180.257H326.619a1.057,1.057,0,1,1,0-2.115H339.7a1.057,1.057,0,1,1,0,2.115Z" fill="#c595ff"/>
      </g>
      <g id="Grupo_59769" data-name="Grupo 59769">
        <path id="Trazado_108267" data-name="Trazado 108267" d="M333.157,3184.678h-6.538a1.058,1.058,0,0,1,0-2.116h6.538a1.058,1.058,0,1,1,0,2.116Z" fill="#c595ff"/>
      </g>
    </g>
    <g id="Grupo_59773" data-name="Grupo 59773">
      <g id="Grupo_59771" data-name="Grupo 59771">
        <path id="Trazado_108268" data-name="Trazado 108268" d="M335.393,3197.239h-8.774a1.058,1.058,0,0,1,0-2.116h8.774a1.058,1.058,0,1,1,0,2.116Z" fill="#c595ff"/>
      </g>
      <g id="Grupo_59772" data-name="Grupo 59772">
        <path id="Trazado_108269" data-name="Trazado 108269" d="M333.157,3201.659h-6.538a1.057,1.057,0,0,1,0-2.115h6.538a1.057,1.057,0,1,1,0,2.115Z" fill="#c595ff"/>
      </g>
    </g>
    <path id="Trazado_108270" data-name="Trazado 108270" d="M356.7,3188.076l-1.038-1.368-3.886-2.461-1.494-.235-19.9,31.443a8.182,8.182,0,0,0-1.043,2.462,6.412,6.412,0,0,1,5.681,3.6,8.2,8.2,0,0,0,1.78-1.995Z" fill="#855db5"/>
    <path id="Trazado_108271" data-name="Trazado 108271" d="M359.51,3178.394l-1.679-1.064a2.8,2.8,0,0,0-3.87.87l-1.54,2.433.491.991,4.673,2.958,1.254.116,1.541-2.435A2.8,2.8,0,0,0,359.51,3178.394Z" fill="#c595ff"/>
    <path id="Trazado_108272" data-name="Trazado 108272" d="M350.285,3184l2.139-3.379,6.42,4.065-2.139,3.378Z" fill="#a271dc"/>
    <path id="Trazado_108273" data-name="Trazado 108273" d="M335.023,3221.515l-5.666,4.565a1.075,1.075,0,0,1-1.72-1.089l1.705-7.074a6.411,6.411,0,0,1,5.681,3.6Z" fill="#c595ff"/>
    <path id="Trazado_108274" data-name="Trazado 108274" d="M333.537,3219.554l20.858-32.938-1.787-1.132-20.859,32.939A6.4,6.4,0,0,1,333.537,3219.554Z" fill="#c595ff"/>
    <rect id="Rectángulo_5525" data-name="Rectángulo 5525" width="102" height="102" transform="translate(279.565 3144.461)" fill="none"/>
  </g>
</svg>
