<svg xmlns="http://www.w3.org/2000/svg" width="102" height="102" viewBox="0 0 102 102">
  <g id="Grupo_59775" data-name="Grupo 59775" transform="translate(-404.016 -3144.461)">
    <path id="Trazado_108275" data-name="Trazado 108275" d="M481.868,3189.223H462.837a4.762,4.762,0,0,1-4.757-4.757v-19.031a4.762,4.762,0,0,1,4.757-4.757h19.031a4.762,4.762,0,0,1,4.757,4.757v19.031A4.762,4.762,0,0,1,481.868,3189.223Z" fill="#c595ff"/>
    <path id="Trazado_108276" data-name="Trazado 108276" d="M481.868,3160.678h-9.516v28.545h9.516a4.762,4.762,0,0,0,4.757-4.757v-19.031A4.762,4.762,0,0,0,481.868,3160.678Z" fill="#dcbfff"/>
    <path id="Trazado_108277" data-name="Trazado 108277" d="M470.43,3180.834a2.033,2.033,0,0,1-1.442-.6l-3.845-3.845a2.039,2.039,0,1,1,2.884-2.883l2.4,2.4,6.248-6.248a2.039,2.039,0,1,1,2.883,2.884l-7.689,7.689a2.033,2.033,0,0,1-1.442.6Z" fill="#dcbfff"/>
    <path id="Trazado_108278" data-name="Trazado 108278" d="M476.678,3169.664l-4.326,4.325v5.767l7.209-7.208a2.039,2.039,0,1,0-2.883-2.884Z" fill="#c595ff"/>
    <path id="Trazado_108279" data-name="Trazado 108279" d="M435.379,3197.379a18.35,18.35,0,1,1,18.351-18.35A18.371,18.371,0,0,1,435.379,3197.379Z" fill="#c595ff"/>
    <path id="Trazado_108280" data-name="Trazado 108280" d="M453.73,3179.029a18.371,18.371,0,0,0-18.351-18.351v36.7A18.371,18.371,0,0,0,453.73,3179.029Z" fill="#dcbfff"/>
    <path id="Trazado_108281" data-name="Trazado 108281" d="M435.379,3189.223a7.484,7.484,0,0,1-7.476-7.476,2.039,2.039,0,1,1,4.078,0,3.4,3.4,0,0,0,6.8,0,2.039,2.039,0,1,1,4.078,0A7.484,7.484,0,0,1,435.379,3189.223Z" fill="#dcbfff"/>
    <path id="Trazado_108282" data-name="Trazado 108282" d="M442.855,3181.747a2.039,2.039,0,1,0-4.078,0,3.4,3.4,0,0,1-3.4,3.4v4.078A7.484,7.484,0,0,0,442.855,3181.747Z" fill="#bb83ff"/>
    <circle id="Elipse_4149" data-name="Elipse 4149" cx="2.039" cy="2.039" r="2.039" transform="translate(438.777 3171.552)" fill="#bb83ff"/>
    <circle id="Elipse_4150" data-name="Elipse 4150" cx="2.039" cy="2.039" r="2.039" transform="translate(427.903 3171.552)" fill="#dcbfff"/>
    <path id="Trazado_108283" data-name="Trazado 108283" d="M468.274,3230.275a18.351,18.351,0,1,1,18.351-18.351A18.371,18.371,0,0,1,468.274,3230.275Z" fill="#a271dc"/>
    <path id="Trazado_108284" data-name="Trazado 108284" d="M486.625,3211.924a18.371,18.371,0,0,0-18.351-18.351v36.7A18.371,18.371,0,0,0,486.625,3211.924Z" fill="#855db5"/>
    <path id="Trazado_108285" data-name="Trazado 108285" d="M473.712,3220.76a2.039,2.039,0,0,1-2.039-2.039,3.4,3.4,0,1,0-6.8,0,2.039,2.039,0,1,1-4.078,0,7.477,7.477,0,1,1,14.953,0A2.039,2.039,0,0,1,473.712,3220.76Z" fill="#dcbfff"/>
    <path id="Trazado_108286" data-name="Trazado 108286" d="M471.673,3218.721a2.039,2.039,0,1,0,4.078,0,7.485,7.485,0,0,0-7.477-7.477v4.078A3.4,3.4,0,0,1,471.673,3218.721Z" fill="#c595ff"/>
    <circle id="Elipse_4151" data-name="Elipse 4151" cx="2.039" cy="2.039" r="2.039" transform="translate(471.673 3204.448)" fill="#dcbfff"/>
    <circle id="Elipse_4152" data-name="Elipse 4152" cx="2.039" cy="2.039" r="2.039" transform="translate(460.798 3204.448)" fill="#dcbfff"/>
    <path id="Trazado_108287" data-name="Trazado 108287" d="M440.816,3230.275h-19.03a4.763,4.763,0,0,1-4.758-4.758v-19.03a4.763,4.763,0,0,1,4.758-4.758h19.03a4.763,4.763,0,0,1,4.758,4.758v19.03A4.763,4.763,0,0,1,440.816,3230.275Z" fill="#a271dc"/>
    <path id="Trazado_108288" data-name="Trazado 108288" d="M440.816,3201.729H431.3v28.546h9.515a4.763,4.763,0,0,0,4.758-4.758v-19.03A4.763,4.763,0,0,0,440.816,3201.729Z" fill="#855db5"/>
    <path id="Trazado_108289" data-name="Trazado 108289" d="M434.184,3216l2.637-2.636a2.039,2.039,0,0,0-2.884-2.884l-2.636,2.636-2.636-2.636a2.039,2.039,0,0,0-2.884,2.884l2.636,2.636-2.636,2.636a2.039,2.039,0,0,0,2.884,2.884l2.636-2.637,2.636,2.637a2.039,2.039,0,0,0,2.884-2.884Z" fill="#dcbfff"/>
    <path id="Trazado_108290" data-name="Trazado 108290" d="M433.937,3221.522a2.039,2.039,0,0,0,2.884-2.884L434.184,3216l2.637-2.636a2.039,2.039,0,0,0-2.884-2.884l-2.636,2.636v5.767Z" fill="#c595ff"/>
    <rect id="Rectángulo_5525" data-name="Rectángulo 5525" width="102" height="102" transform="translate(404.016 3144.461)" fill="none"/>
  </g>
</svg>
