<svg xmlns="http://www.w3.org/2000/svg" width="179.237" height="163.289" viewBox="0 0 179.237 163.289">
  <g id="Grupo_60070" data-name="Grupo 60070" transform="translate(-873.732 -4950.91)">
    <path id="Trazado_108629" data-name="Trazado 108629" d="M1011.811,5071.851c-3.281-3.7-12.969-8.734-10.423-14.506,2.165-4.91,12.556-4.305,11.3-10.224-.74-3.5-1.7-6.49.561-10.471,2.462-4.336,9.822-1.976,12.373-6,2.191-3.459-.658-8.8,3.87-11.115,4.019-2.051,8.876,1.956,9.6,5.508.906,4.441-3.491,6.528-4.056,10.393-.359,2.461,1.882,3.318,3.166,5.041a11.944,11.944,0,0,1,2.416,6.066c.245,6.14-6.485,6.935-9.675,10.839-2.955,3.616,2.494,5.946,1.677,9.878-.881,4.242-6.921,6.559-11.172,6.5C1018.505,5073.711,1013.843,5074.145,1011.811,5071.851Z" fill="#31d9e7"/>
    <g id="Grupo_60055" data-name="Grupo 60055">
      <path id="Trazado_108630" data-name="Trazado 108630" d="M1016.095,5073.874a.305.305,0,0,1-.077-.024.223.223,0,0,1-.1-.335,43.3,43.3,0,0,0,6.414-20.476c.23-7.569,3.375-12.413,5.956-16.386,1.558-2.4,2.917-4.493,3.125-6.59a.341.341,0,0,1,.352-.3.293.293,0,0,1,.29.325c-.228,2.246-1.627,4.4-3.232,6.861-2.542,3.9-5.644,8.667-5.882,16.081a43.8,43.8,0,0,1-6.524,20.717A.32.32,0,0,1,1016.095,5073.874Z" fill="#fff"/>
    </g>
    <g id="Grupo_60056" data-name="Grupo 60056">
      <path id="Trazado_108631" data-name="Trazado 108631" d="M1022.842,5053.068a.266.266,0,0,1-.225-.288.314.314,0,0,1,.336-.258c2.545.152,5.945-1.335,6.973-3.815.124-.3.247-.629.377-.976.622-1.665,1.4-3.756,3.038-4.508a3.611,3.611,0,0,1,2.74-.019.265.265,0,0,1,.158.37.341.341,0,0,1-.408.174,2.928,2.928,0,0,0-2.244-.01c-1.386.639-2.119,2.592-2.7,4.15-.132.353-.259.689-.384.992-1.171,2.814-4.854,4.359-7.612,4.194A.334.334,0,0,1,1022.842,5053.068Z" fill="#fff"/>
    </g>
    <g id="Grupo_60057" data-name="Grupo 60057">
      <path id="Trazado_108632" data-name="Trazado 108632" d="M1021.037,5052.782a4.5,4.5,0,0,1-2.673-1.549c-.945-1.214-1.093-3.043-.417-5.3.067-.224.152-.483.246-.767.53-1.614,1.34-4.08.542-5.448a1.944,1.944,0,0,0-1.289-.9.291.291,0,0,1-.217-.366.329.329,0,0,1,.391-.214h0a2.563,2.563,0,0,1,1.672,1.184c.92,1.585.059,4.192-.505,5.9-.091.278-.175.532-.241.753-.629,2.088-.514,3.755.322,4.832a4.787,4.787,0,0,0,3.705,1.521.269.269,0,0,1,.274.293.313.313,0,0,1-.334.261A8.828,8.828,0,0,1,1021.037,5052.782Z" fill="#fff"/>
    </g>
    <g id="Grupo_60058" data-name="Grupo 60058">
      <path id="Trazado_108633" data-name="Trazado 108633" d="M1019.588,5070.3a2.9,2.9,0,0,1-.978-.357.228.228,0,0,1-.062-.351.325.325,0,0,1,.409-.068c1.524.919,4.622-.275,5.94-1.2a7.911,7.911,0,0,0,1.566-1.777c.937-1.28,1.912-2.612,3.451-2.655a.249.249,0,0,1,.285.25.3.3,0,0,1-.3.267c-1.214.035-2.1,1.239-2.945,2.4a8.3,8.3,0,0,1-1.7,1.907C1024.067,5069.537,1021.484,5070.642,1019.588,5070.3Z" fill="#fff"/>
    </g>
    <g id="Grupo_60059" data-name="Grupo 60059">
      <path id="Trazado_108634" data-name="Trazado 108634" d="M1017.094,5069.74a3.664,3.664,0,0,1-1.054-.372c-1.919-1.02-3.056-3.632-3.353-5.154a8.294,8.294,0,0,1,.346-3.047c.416-1.837.851-3.753-.345-4.627a.254.254,0,0,1-.037-.384.335.335,0,0,1,.43-.041c1.471,1.078.975,3.249.543,5.145a8,8,0,0,0-.347,2.855c.266,1.377,1.338,3.888,3.084,4.819a2.889,2.889,0,0,0,2.137.255.293.293,0,0,1,.358.169.264.264,0,0,1-.211.316A3.617,3.617,0,0,1,1017.094,5069.74Z" fill="#fff"/>
    </g>
    <g id="Grupo_60063" data-name="Grupo 60063">
      <path id="Trazado_108635" data-name="Trazado 108635" d="M914.2,5071.713c-4.9,3.315-8.86,5.762-14.143.806-2.667-2.5-3.625-5.3-3.094-9.2.427-3.142.844-4.568-1.071-7.163-3.011-4.078-7.689-5.669-9.421-10.847-1.9-5.673,3.717-9.48,2.194-14.877-1.346-4.767-4.254-9.2-.817-13.814,2.921-3.92,8.327-2.183,10.047,1.938.979,2.347.915,5.034,2.238,7.235,1.276,2.121,3.289,2.6,5.44,3.295,4.846,1.575,9.075,4.414,8.521,10.554-.332,3.687-.424,6.679,3.175,8.286,3.859,1.723,6.007,2.837,5.732,8.255-.207,4.073-2.189,6.227-4.349,9.2-2.014,2.776-4.025,7.075-7.325,8.333Z" fill="#c2c3d4"/>
      <g id="Grupo_60060" data-name="Grupo 60060">
        <path id="Trazado_108636" data-name="Trazado 108636" d="M914.815,5069.747a5.693,5.693,0,0,1-2.341-.713c-2.927-1.684-3.726-5.969-4.443-9.815a23.56,23.56,0,0,0-1.257-4.969,20.147,20.147,0,0,0-6.807-8.143c-4-3.067-4.8-5.368-5.059-10.406-.224-4.215-.672-8.545-2.378-11.082a.5.5,0,0,1,.148-.652.425.425,0,0,1,.625.055c1.821,2.7,2.28,7.186,2.5,11.534.244,4.875.964,6.961,4.775,9.883a21.212,21.212,0,0,1,7.057,8.451,23.941,23.941,0,0,1,1.308,5.152c.684,3.71,1.445,7.846,4.074,9.353a5.606,5.606,0,0,0,3.827.492.461.461,0,0,1,.546.3.424.424,0,0,1-.4.459A8.69,8.69,0,0,1,914.815,5069.747Z" fill="#fff"/>
      </g>
      <g id="Grupo_60061" data-name="Grupo 60061">
        <path id="Trazado_108637" data-name="Trazado 108637" d="M903.742,5049.212a.451.451,0,0,1-.268-.094.393.393,0,0,1,0-.59c1.559-1.566,1.076-4.154.559-6.924-.455-2.438-.929-4.984.025-7.1a.556.556,0,0,1,.633-.31.392.392,0,0,1,.239.563c-.844,1.858-.4,4.282.032,6.6.529,2.87,1.072,5.8-.833,7.7A.533.533,0,0,1,903.742,5049.212Z" fill="#fff"/>
      </g>
      <g id="Grupo_60062" data-name="Grupo 60062">
        <path id="Trazado_108638" data-name="Trazado 108638" d="M907.538,5054.953a.475.475,0,0,1-.165-.036,9.684,9.684,0,0,1-1.526-.834,5.055,5.055,0,0,0-2.429-.964,12.6,12.6,0,0,0-1.649-.028,6.513,6.513,0,0,1-3.5-.607,16.926,16.926,0,0,1-5.328-4.993c-.244-.328-.542-.844-.858-1.391-.455-.785-1.3-2.25-1.662-2.345a.389.389,0,0,1-.281-.491.448.448,0,0,1,.5-.32c.652.114,1.268,1.106,2.2,2.721.306.53.6,1.03.814,1.326a16.912,16.912,0,0,0,5.094,4.788,5.538,5.538,0,0,0,3.06.5,13.864,13.864,0,0,1,1.78.031,5.926,5.926,0,0,1,2.833,1.093,8.881,8.881,0,0,0,1.4.769.365.365,0,0,1,.18.543A.521.521,0,0,1,907.538,5054.953Z" fill="#fff"/>
      </g>
    </g>
    <path id="Trazado_108639" data-name="Trazado 108639" d="M941.134,4990.412c.517.79,1.026,2.322,1.885,2.825a8.034,8.034,0,0,0,3.987.558c-.724-1.573-.911-5.181.667-6.573-1.038-.634-1.085,1.422-1.866.575-.285-.309-2.473-3.7-2.682-4.081-.6.718-.359,3.184-.947,5.185a2.337,2.337,0,0,1-1.068,1.474Z" fill="#ffbea3"/>
    <path id="Trazado_108640" data-name="Trazado 108640" d="M946.243,4978.693s5.534.619,5.816,2.141-.671,3.387-.7,4.373.814,2.394.8,2.789-1.234.642-1.477.852-1.912,2.787-3.026,3.042-5.21-3.369-5.435-6.011c-.042-.506-.733-1.5-.606-2.091C942.152,4981.273,944.933,4978.82,946.243,4978.693Z" fill="#ffbea3"/>
    <path id="Trazado_108641" data-name="Trazado 108641" d="M945.115,4976.865c-2.291-.359-.893.9-3.438,1.925-1.847.747-1.46,2.707-.9,3.59.225.355.118.706-.223,1.311-.193,1.263,1.974,4.065,2.649,3.208.162-.205-.451-1.507-.41-2.069-.136-.919.68-1.856,1.469-1.033a1.548,1.548,0,0,1,.509,1.015c-.032,1.088.315,1.376.787,1.017.709-.539-.1-2.723.441-3.188a5.3,5.3,0,0,0,1.589-2.325C948.587,4979.212,947.406,4977.224,945.115,4976.865Z" fill="#110239"/>
    <g id="Grupo_60065" data-name="Grupo 60065">
      <rect id="Rectángulo_6425" data-name="Rectángulo 6425" width="102.06" height="65.244" transform="translate(911.774 5017.082)" fill="#e5e6ed"/>
      <g id="Grupo_60064" data-name="Grupo 60064">
        <rect id="Rectángulo_6426" data-name="Rectángulo 6426" width="4.869" height="40.935" transform="translate(917.617 5029.236)" fill="#110239"/>
        <rect id="Rectángulo_6427" data-name="Rectángulo 6427" width="2.386" height="40.935" transform="translate(924.312 5029.236)" fill="#110239"/>
        <rect id="Rectángulo_6428" data-name="Rectángulo 6428" width="4.942" height="40.935" transform="translate(931.275 5029.236)" fill="#110239"/>
        <rect id="Rectángulo_6429" data-name="Rectángulo 6429" width="1.85" height="40.935" transform="translate(938.944 5029.236)" fill="#110239"/>
        <rect id="Rectángulo_6430" data-name="Rectángulo 6430" width="1.589" height="40.935" transform="translate(946.927 5029.236)" fill="#110239"/>
        <rect id="Rectángulo_6431" data-name="Rectángulo 6431" width="1.589" height="40.935" transform="translate(928.202 5029.236)" fill="#110239"/>
        <rect id="Rectángulo_6432" data-name="Rectángulo 6432" width="2.398" height="40.935" transform="translate(942.84 5029.236)" fill="#110239"/>
        <rect id="Rectángulo_6433" data-name="Rectángulo 6433" width="3.798" height="40.935" transform="translate(951.507 5029.236)" fill="#110239"/>
        <rect id="Rectángulo_6434" data-name="Rectángulo 6434" width="2.386" height="40.935" transform="translate(957.058 5029.236)" fill="#110239"/>
        <rect id="Rectángulo_6435" data-name="Rectángulo 6435" width="1.193" height="40.935" transform="translate(961.611 5029.236)" fill="#110239"/>
        <rect id="Rectángulo_6436" data-name="Rectángulo 6436" width="0.828" height="40.935" transform="translate(971.106 5029.236)" fill="#110239"/>
        <rect id="Rectángulo_6437" data-name="Rectángulo 6437" width="2.021" height="40.935" transform="translate(964.946 5029.236)" fill="#110239"/>
        <rect id="Rectángulo_6438" data-name="Rectángulo 6438" width="1.011" height="40.935" transform="translate(976.669 5029.236)" fill="#110239"/>
        <rect id="Rectángulo_6439" data-name="Rectángulo 6439" width="1.4" height="40.935" transform="translate(988.465 5029.236)" fill="#110239"/>
        <rect id="Rectángulo_6440" data-name="Rectángulo 6440" width="1.4" height="40.935" transform="translate(1002.002 5029.236)" fill="#110239"/>
        <rect id="Rectángulo_6441" data-name="Rectángulo 6441" width="0.779" height="40.935" transform="translate(978.605 5029.236)" fill="#110239"/>
        <rect id="Rectángulo_6442" data-name="Rectángulo 6442" width="0.61" height="40.935" transform="translate(986.614 5029.236)" fill="#110239"/>
        <rect id="Rectángulo_6443" data-name="Rectángulo 6443" width="0.914" height="40.935" transform="translate(999.779 5029.236)" fill="#110239"/>
        <rect id="Rectángulo_6444" data-name="Rectángulo 6444" width="2.021" height="40.935" transform="translate(967.795 5029.236)" fill="#110239"/>
        <rect id="Rectángulo_6445" data-name="Rectángulo 6445" width="2.191" height="40.935" transform="translate(973.468 5029.236)" fill="#110239"/>
        <rect id="Rectángulo_6446" data-name="Rectángulo 6446" width="1.714" height="40.935" transform="translate(984.424 5029.236)" fill="#110239"/>
        <rect id="Rectángulo_6447" data-name="Rectángulo 6447" width="2.678" height="40.935" transform="translate(980.723 5029.236)" fill="#110239"/>
        <rect id="Rectángulo_6448" data-name="Rectángulo 6448" width="3.749" height="40.935" transform="translate(990.997 5029.236)" fill="#110239"/>
        <rect id="Rectángulo_6449" data-name="Rectángulo 6449" width="2.24" height="40.935" transform="translate(996.499 5029.236)" fill="#110239"/>
        <rect id="Rectángulo_6450" data-name="Rectángulo 6450" width="2.97" height="40.935" transform="translate(1005.264 5029.236)" fill="#110239"/>
      </g>
    </g>
    <path id="Trazado_108642" data-name="Trazado 108642" d="M951.979,4996.683a4.528,4.528,0,0,1,.814,2.1c1.376,5.877,2.721,13.949,3.321,15.655.726,2.063,5.85,12.687,5.85,12.687l-4.175,2.932s-6.081-11.668-6.857-13.645-4.65-11.952-4.65-11.952Z" fill="#31d9e7"/>
    <path id="Trazado_108643" data-name="Trazado 108643" d="M953.719,5016.5c-2.021-3.679-3.617-10.03-4.334-14.3l-3.1,2.256s3.873,9.975,4.65,11.952,6.857,13.645,6.857,13.645l1.047-.731C957.106,5024.671,956.113,5020.856,953.719,5016.5Z" fill="#2ab9c4"/>
    <path id="Trazado_108644" data-name="Trazado 108644" d="M932.4,5003.029c-1.42,3.364-3.766,12.579-4.578,14.073h20.1c1.125-4.19,2.476-9.315,2.969-11.678a43.377,43.377,0,0,0,1.063-8.787s-3-2.606-5.317-4.177c0,0-2.514,2.375-5.408-2.2,0,0-6.636,1.8-8.078,2.32C932.577,4992.784,933.985,4999.282,932.4,5003.029Z" fill="#31d9e7"/>
    <path id="Trazado_108645" data-name="Trazado 108645" d="M935.14,4997.784c-1.011,1.8-2.25,3.79-3.1,5.424-1.371,3.468-3.213,12.429-4.01,13.894H936.7c-.048-.687-.344-1.816-.344-2.584a15.406,15.406,0,0,1,1.011-6.287c.791-1.835-.216-7.95-.571-8.37C936.217,4999.173,935.67,4998.482,935.14,4997.784Z" fill="#2ab9c4"/>
    <path id="Trazado_108646" data-name="Trazado 108646" d="M1008.234,5015c-13.646,6.515-10.411,5.448-12.627,6.038s-15.274,1.412-15.274,1.412l-1.442,5.6s15.908-.871,18.077-1.37,11.295-3.962,11.295-3.962Z" fill="#f17781"/>
    <path id="Trazado_108647" data-name="Trazado 108647" d="M986.262,5022.808a2.291,2.291,0,0,0,2.14,1.158,55.467,55.467,0,0,0,6.448-.438,17.371,17.371,0,0,0,3.66-.7,45.089,45.089,0,0,0,6.278-2.323,32.432,32.432,0,0,1,3.462-1.118l.013,3.337s-9.127,3.464-11.3,3.962-18.076,1.37-18.076,1.37l1.427-5.547C982.258,5022.7,984.258,5022.8,986.262,5022.808Z" fill="#ce666e"/>
    <path id="Trazado_108648" data-name="Trazado 108648" d="M1010.1,5081.044a11.477,11.477,0,0,1,.585,2.993c.005,1.306-.089,2.693-.489,3.021-.8.656-10.925.74-11.749-.2s-.275-2.449,1.869-2.972c2.3-.561,2.621-.321,4.067-.871a1.9,1.9,0,0,0,1.1-2.176Z" fill="#110239"/>
    <path id="Trazado_108649" data-name="Trazado 108649" d="M1032.312,5079.142a11.494,11.494,0,0,1,1.613,2.589c.47,1.217.876,2.547.619,3-.514.9-9.943,4.586-11.046,4s-1.13-2.19.687-3.443c1.949-1.343,2.334-1.234,3.49-2.263a1.9,1.9,0,0,0,.249-2.424Z" fill="#110239"/>
    <path id="Trazado_108650" data-name="Trazado 108650" d="M1010.169,5038.014l13.642,1.515s-12.2,19.5-13.123,22.636.34,20.16.34,20.16h-6.177s-1.326-20.109-1.023-21.625S1010.169,5038.014,1010.169,5038.014Z" fill="#110239"/>
    <path id="Trazado_108651" data-name="Trazado 108651" d="M1010.688,5039.024h15.574s1.819,4.775.985,8.413a80.007,80.007,0,0,0-1.314,12.732c.076,1.365,7.68,19.554,7.68,19.554l-5.671,2.109s-7.819-17.343-8.577-19.313S1010.688,5039.024,1010.688,5039.024Z" fill="#110239"/>
    <path id="Trazado_108652" data-name="Trazado 108652" d="M1011.347,5006.805a13.85,13.85,0,0,0,3.761-.3,5.585,5.585,0,0,0,1.277-.448c.133,1.565.573,5.216,1.868,6.59,0,0-.177,1.844-3.41,2.3s-3.9-1.945-3.9-1.945A32.336,32.336,0,0,0,1011.347,5006.805Z" fill="#ffbea3"/>
    <path id="Trazado_108653" data-name="Trazado 108653" d="M1018.243,5012.708a1.207,1.207,0,0,1-.034.134l-.006.017a1.745,1.745,0,0,1-.077.2l0,.01a2.177,2.177,0,0,1-.136.25l-.023.036a2.658,2.658,0,0,1-.525.583c-.013.012-.025.023-.039.034a3.459,3.459,0,0,1-.41.284l-.062.035a4.371,4.371,0,0,1-.545.264,4.605,4.605,0,0,0-1.239-2.182,5.763,5.763,0,0,0-3.911-1.666,22.077,22.077,0,0,0,.115-3.9,13.85,13.85,0,0,0,3.761-.3,5.585,5.585,0,0,0,1.277-.448c.133,1.565.573,5.216,1.868,6.59l-.006.04Z" fill="#f3b49a"/>
    <path id="Trazado_108654" data-name="Trazado 108654" d="M1016.6,4997.5s-5.417-1.333-6.209,0-.542,3.418-.854,4.355-1.594,1.969-1.719,2.344.937,1.032,1.094,1.313.833,3.282,1.792,3.907,5.854-1.375,6.979-3.782S1018.066,4998.205,1016.6,4997.5Z" fill="#ffc6aa"/>
    <path id="Trazado_108655" data-name="Trazado 108655" d="M1010.941,5012.458s3.8,1.888,6.891-.381c0,0,5.878,1.028,6.6,1.321.6.243-.973,8.611-.291,12.818s3.41,14.4,3.41,14.4-7.2,5.532-19.554,2.046c0,0-.4-14.294-.271-18.265.193-5.811.233-9.247.233-9.247A35.771,35.771,0,0,1,1010.941,5012.458Z" fill="#f17781"/>
    <path id="Trazado_108656" data-name="Trazado 108656" d="M1019.936,5035.588a16.16,16.16,0,0,0,.528-6.651c-.42-2.475,1.355-5.736,1.687-8.254.355-2.693.631-4.523,2.4-6.013-.119,2.54-.941,8.285-.412,11.546.682,4.206,3.41,14.4,3.41,14.4s-4.572,3.49-12.661,3.164C1018.077,5041.853,1019.043,5039.254,1019.936,5035.588Z" fill="#ce666e"/>
    <path id="Trazado_108657" data-name="Trazado 108657" d="M1014.268,4998.261a5.307,5.307,0,0,0,.689,2.736c.349.624-1.169,2.4-.689,3.15.319.5.746.35,1.092-.684a1.55,1.55,0,0,1,.83-.778c1.282-.626,1.678,1.354.532,2-.8.452-.218,2.509-.218,2.509.912.638,3.789-.314,3.372-2.427-.265-1.345-.379-1.857.081-2.209.832-.636,1.874-2.345.4-3.686-2.037-1.848-.289-2.545-2.567-3S1013.71,4996.876,1014.268,4998.261Z" fill="#110239"/>
    <path id="Trazado_108658" data-name="Trazado 108658" d="M1018.2,4996.94c-.149-.486-1.067-1.079-1.522-1.386a6.469,6.469,0,0,0-2.353-.935,5.955,5.955,0,0,0-2.573.031c-.724.173-1.322.526-2.066.645a2.417,2.417,0,0,1-1.88-.276,4.763,4.763,0,0,0-.014,1.695,5.266,5.266,0,0,0,1.046,1.815,5.549,5.549,0,0,0,6.189,1.379,4.338,4.338,0,0,0,2.324-1.754A5.23,5.23,0,0,1,1018.2,4996.94Z" fill="#110239"/>
    <g id="Grupo_60069" data-name="Grupo 60069">
      <g id="Grupo_60066" data-name="Grupo 60066">
        <path id="Trazado_108659" data-name="Trazado 108659" d="M932.1,5048a5.651,5.651,0,0,1-1.342-.454c-.185-.089-.367-.172-.548-.253a5.809,5.809,0,0,1-2.1-1.36,4.21,4.21,0,0,1-.81-4.521,6.42,6.42,0,0,1,3.539-3.936,6.977,6.977,0,0,1,2.3-.569l.245-.032a5.627,5.627,0,0,0,2.743-1.556l.139-.116c.346-.291.655-.588.982-.9.225-.216.451-.432.69-.647,3.188-2.87,7.75-2.343,11.016-1.392l-.185.637c-3.1-.9-7.426-1.418-10.387,1.249-.233.209-.454.421-.674.633-.321.307-.652.626-1.016.93l-.137.116a6.217,6.217,0,0,1-3.086,1.707l-.247.031a6.419,6.419,0,0,0-2.1.511,5.767,5.767,0,0,0-3.186,3.527c-.512,1.719-.331,2.773.668,3.887a5.223,5.223,0,0,0,1.882,1.2c.185.083.374.169.564.261a7.571,7.571,0,0,0,3.844.507,14.209,14.209,0,0,1,2.392.035,6.587,6.587,0,0,0,5.039-1.563l.12-.092a18.319,18.319,0,0,1,6.538-3.739l.394-.112c1.983-.561,3.294-.932,4.433-2.691a5.724,5.724,0,0,0,.78-5.169,2.843,2.843,0,0,0-2.469-1.549l.068-.661a3.473,3.473,0,0,1,3,1.923c.861,1.8.177,4.275-.822,5.817-1.274,1.968-2.834,2.41-4.809,2.969l-.392.111a17.828,17.828,0,0,0-6.315,3.626l-.12.092a7.2,7.2,0,0,1-5.526,1.7,13.852,13.852,0,0,0-2.283-.029A11.32,11.32,0,0,1,932.1,5048Z" fill="#fff"/>
      </g>
      <g id="Grupo_60067" data-name="Grupo 60067">
        <path id="Trazado_108660" data-name="Trazado 108660" d="M1011.241,5029.44l-48.811-10.121a7.056,7.056,0,0,0-4.251.439l-8.8,3.829a7.058,7.058,0,0,0-4.1,5.041l-.627,3.022a7.062,7.062,0,0,0,1.755,6.255l6.552,7.012a7.073,7.073,0,0,0,3.726,2.094l48.811,10.121a7.061,7.061,0,0,0,8.348-5.481l2.875-13.863A7.062,7.062,0,0,0,1011.241,5029.44Zm-52.853,6.982a4.364,4.364,0,0,1-4.738-7.218,2.484,2.484,0,0,1,.887-.582,4.364,4.364,0,0,1,4.738,7.218A2.462,2.462,0,0,1,958.388,5036.422Z" fill="#2ab9c4"/>
      </g>
      <g id="Grupo_60068" data-name="Grupo 60068">
        <path id="Trazado_108661" data-name="Trazado 108661" d="M955.519,5035.021a2.9,2.9,0,0,1-.624.279,6.523,6.523,0,0,1-1.086,4,6.449,6.449,0,0,1-2.205,1.9,11.623,11.623,0,0,1-1.584.614c.137.18.27.365.406.548a11.9,11.9,0,0,0,1.441-.568,6.619,6.619,0,0,0,3.652-6.771Z" fill="#fff"/>
      </g>
    </g>
    <path id="Trazado_108662" data-name="Trazado 108662" d="M976.388,5021.779c.782-1.016,2.431-.968,3.448-.538.821.347.869,1.24.986,2.545a3.669,3.669,0,0,1-.117,1.984c-1.051.772-1.081-2.177-1.255-2.922,0,0,.4,3.113-.144,3.381-1.027.47-.989-2.408-1.105-3.126a4.791,4.791,0,0,1,.073,2.133c-.006.557-.431.448-.534.385-.524-.317-.522-2.673-.522-2.673,0,.418.323,1.957-.352,1.644-.44-.2-.465-.872-.55-1.228A2.3,2.3,0,0,1,976.388,5021.779Z" fill="#ffbea3"/>
    <path id="Trazado_108663" data-name="Trazado 108663" d="M1021.22,5035.466c-1.07-.043-2.37.16-3.472.16-.5,0-1.023-.074-1.521-.1-.315-.018-.956-.125-1.141.227-.2.386.431.524.68.578.36.079,1.1.029,1.173.511.1.7-1.211.888-1.723,1.111-.474.208-1.73.651-.906,1.114.555.313,1.722-.4,2.2-.591a7.217,7.217,0,0,0-1.718.716c-.322.185-.955.44-.955.8,0,.531,1.173.213,1.463.087a5.187,5.187,0,0,0,1.306-.722c-.493.261-2.3,1.028-1.71,1.654.362.383,1.775-.693,2.338-.922-.309.286-1.237.436-1.161,1.04.038.3.563.062.815-.076.354-.193.671-.474,1.028-.644a5.074,5.074,0,0,0,.767-.512,9.207,9.207,0,0,0,1.773-1.156,20.036,20.036,0,0,1,1.538-1.572C1020.96,5036.787,1022.009,5036.019,1021.22,5035.466Z" fill="#ffbea3"/>
    <path id="Trazado_108664" data-name="Trazado 108664" d="M1019.655,5035.184l1.516,3.5s15.652-5.078,14.918-9.188c-.644-3.607-9.752-15.695-11.735-16.129-2.667-.582-3.735,5.772-2.2,7.312,3.229,3.248,7.837,7.817,7.458,8.553S1019.655,5035.184,1019.655,5035.184Z" fill="#f17781"/>
    <path id="Trazado_108665" data-name="Trazado 108665" d="M936.611,5034.429c.133.421.983,1.133.6,1.642-.192.256-.957-.41-1.115-.665a31.638,31.638,0,0,1-1.9-4.14c-.152-.648-.292-1.277-.476-1.876a9.025,9.025,0,0,0,1.933-1.234c.864.516,1.767,1.2,2.619,1.69.457.261.967.465,1.435.7.3.147.934.385.918.8-.017.456-.663.252-.918.171-.368-.116-1.019-.549-1.332-.147-.454.585.639,1.437.987,1.907.322.435,1.529,1.8.54,1.791a12.326,12.326,0,0,1-1.67-1.526c.039.062.838,1.02.875,1.084.2.335.795,1.053.562,1.351-.5.637-1.774-1.322-1.972-1.587l.481.77c.418.59.667,1.078.248,1.2C937.9,5036.522,937,5034.93,936.611,5034.429Z" fill="#ffbea3"/>
    <path id="Trazado_108666" data-name="Trazado 108666" d="M936.878,5028.287l-3.613,2.235s-7.963-13.824-8.1-17.806c-.114-3.21.548-7.192,3.671-14.254,1.991-4.5,4.154-6.316,5.053-5.958.638.254,4.259,1.869,2.476,7.4-.622,1.93-4.684,10.16-4.749,10.948S936.878,5028.287,936.878,5028.287Z" fill="#31d9e7"/>
    <path id="Trazado_108667" data-name="Trazado 108667" d="M956.087,5029.992c.782,1.017,2.431.969,3.448.54.821-.346.869-1.239.987-2.545a3.658,3.658,0,0,0-.116-1.983c-1.05-.773-1.082,2.176-1.256,2.921,0,0,.406-3.113-.142-3.381-1.027-.471-.991,2.408-1.107,3.125a4.78,4.78,0,0,0,.074-2.133c-.006-.556-.43-.448-.533-.385-.525.317-.524,2.672-.524,2.672,0-.417.324-1.957-.351-1.643-.44.2-.465.871-.551,1.227A2.3,2.3,0,0,0,956.087,5029.992Z" fill="#ffbea3"/>
    <path id="Trazado_108668" data-name="Trazado 108668" d="M954.4,4978.4s1.556,2.238-2.06,3.735-8.817-2.446-8.817-2.446.133-1.963,3.018-2.8c2.155-.628,4.175-.539,5.275.709C953.683,4979.712,954.4,4978.4,954.4,4978.4Z" fill="#110239"/>
    <rect id="Rectángulo_6451" data-name="Rectángulo 6451" width="179.237" height="163.289" transform="translate(873.732 4950.91)" fill="none"/>
  </g>
</svg>
