<svg xmlns="http://www.w3.org/2000/svg" xmlns:xlink="http://www.w3.org/1999/xlink" width="402.266" height="267.821" viewBox="0 0 402.266 267.821">
  <defs>
    <clipPath id="clip-path">
      <rect id="Rectángulo_6276" data-name="Rectángulo 6276" width="21.798" height="12.492" transform="translate(196.579 2113.395)" fill="none"/>
    </clipPath>
    <clipPath id="clip-path-2">
      <rect id="Rectángulo_6281" data-name="Rectángulo 6281" width="21.798" height="12.492" transform="translate(196.579 2138.584)" fill="none"/>
    </clipPath>
    <clipPath id="clip-path-3">
      <rect id="Rectángulo_6286" data-name="Rectángulo 6286" width="21.798" height="12.492" transform="translate(196.579 2163.773)" fill="none"/>
    </clipPath>
  </defs>
  <g id="Grupo_59534" data-name="Grupo 59534" transform="translate(-74.451 -2041.133)">
    <g id="Grupo_56029" data-name="Grupo 56029">
      <path id="Trazado_101095" data-name="Trazado 101095" d="M105.441,2057.832c22.5-17.829,53.222-21.089,79.463-11.179,34.862,13.17,60.521,46.521,94.381,62.537a105.836,105.836,0,0,0,76.022,5.6c12.134-3.724,23.933-9.7,36.527-10.1,11.154-.353,22.172,3.787,31.653,10.244,27.9,19,41.908,59.518,32.5,94.042-5.034,18.485-15.843,34.539-28.435,48-26.012,27.817-60.521,45.9-96.588,50.607-20.131,2.627-40.552,1.2-60.609-2.028-43.709-7.035-86.772-22.973-122.763-51.08-43.085-33.65-85.787-92.346-69.655-153.532C82.453,2083.827,92.253,2068.282,105.441,2057.832Z" fill="#dcbfff"/>
      <path id="Trazado_101096" data-name="Trazado 101096" d="M443.2,2107.257c-1.417-3.623-2.594-8.222-.206-11.169a6.607,6.607,0,0,1,3.48-2.117c6.308-1.7,12.493,3.148,16.892,8.392a74.63,74.63,0,0,1,10.344,16.257,28.6,28.6,0,0,1,2.945,9.551c.3,3.365-.46,6.972-2.6,9.408C459.658,2153.963,447.13,2117.3,443.2,2107.257Z" fill="#dcbfff"/>
    </g>
    <g id="Grupo_59427" data-name="Grupo 59427">
      <g id="Grupo_59389" data-name="Grupo 59389">
        <g id="Grupo_59386" data-name="Grupo 59386">
          <g id="Grupo_59385" data-name="Grupo 59385">
            <rect id="Rectángulo_6271" data-name="Rectángulo 6271" width="169.325" height="120.967" rx="7.177" transform="translate(175.013 2083.069)" fill="#e6e6e6"/>
          </g>
          <path id="Trazado_107738" data-name="Trazado 107738" d="M344.338,2104.384v-14.138a7.177,7.177,0,0,0-7.177-7.177H182.19a7.177,7.177,0,0,0-7.177,7.177v14.138Z" fill="#c4c4c4"/>
        </g>
        <g id="Grupo_59388" data-name="Grupo 59388">
          <g id="Grupo_59387" data-name="Grupo 59387">
            <path id="Trazado_107739" data-name="Trazado 107739" d="M189.46,2090.905a2.717,2.717,0,1,0,2.717,2.717A2.717,2.717,0,0,0,189.46,2090.905Z" fill="#fff"/>
            <path id="Trazado_107740" data-name="Trazado 107740" d="M199.909,2090.905a2.717,2.717,0,1,0,2.717,2.717A2.718,2.718,0,0,0,199.909,2090.905Z" fill="#fff"/>
            <path id="Trazado_107741" data-name="Trazado 107741" d="M210.358,2090.905a2.717,2.717,0,1,0,2.716,2.717A2.717,2.717,0,0,0,210.358,2090.905Z" fill="#fff"/>
          </g>
          <path id="Trazado_107742" data-name="Trazado 107742" d="M329.89,2096.339H227.206a2.718,2.718,0,0,1-2.717-2.717h0a2.718,2.718,0,0,1,2.717-2.717H329.89a2.717,2.717,0,0,1,2.717,2.717h0A2.717,2.717,0,0,1,329.89,2096.339Z" fill="#fff"/>
        </g>
      </g>
      <g id="Grupo_59426" data-name="Grupo 59426">
        <g id="Grupo_59401" data-name="Grupo 59401">
          <g id="Grupo_59393" data-name="Grupo 59393">
            <g id="Grupo_59390" data-name="Grupo 59390">
              <rect id="Rectángulo_6272" data-name="Rectángulo 6272" width="29.656" height="0.938" transform="translate(228.498 2114.05)" fill="#fff"/>
            </g>
            <g id="Grupo_59391" data-name="Grupo 59391">
              <rect id="Rectángulo_6273" data-name="Rectángulo 6273" width="89.59" height="0.938" transform="translate(228.498 2124.196)" fill="#fff"/>
            </g>
            <g id="Grupo_59392" data-name="Grupo 59392">
              <rect id="Rectángulo_6274" data-name="Rectángulo 6274" width="89.59" height="0.938" transform="translate(228.498 2119.123)" fill="#fff"/>
            </g>
          </g>
          <g id="Grupo_59400" data-name="Grupo 59400">
            <g id="Grupo_59399" data-name="Grupo 59399">
              <g id="Grupo_59398" data-name="Grupo 59398" clip-path="url(#clip-path)">
                <g id="Grupo_59397" data-name="Grupo 59397">
                  <g id="Grupo_59396" data-name="Grupo 59396">
                    <rect id="Rectángulo_6275" data-name="Rectángulo 6275" width="23.721" height="13.594" transform="translate(219.339 2126.438) rotate(180)" fill="#c4c4c4"/>
                    <g id="Grupo_59394" data-name="Grupo 59394">
                      <path id="Trazado_107743" data-name="Trazado 107743" d="M195.934,2126.784l-.632-.692,12.1-11.034,12.251,10.979-.626.7-11.619-10.413Z" fill="#fff"/>
                    </g>
                    <g id="Grupo_59395" data-name="Grupo 59395">
                      <path id="Trazado_107744" data-name="Trazado 107744" d="M195.617,2112.844l11.871,8.5,11.85-8.5" fill="#c4c4c4"/>
                      <path id="Trazado_107745" data-name="Trazado 107745" d="M207.489,2121.921l-12.144-8.7.546-.763,11.6,8.305,11.577-8.3.547.762Z" fill="#fff"/>
                    </g>
                  </g>
                </g>
              </g>
            </g>
          </g>
        </g>
        <g id="Grupo_59413" data-name="Grupo 59413">
          <g id="Grupo_59405" data-name="Grupo 59405">
            <g id="Grupo_59402" data-name="Grupo 59402">
              <rect id="Rectángulo_6277" data-name="Rectángulo 6277" width="29.656" height="0.938" transform="translate(228.498 2139.24)" fill="#fff"/>
            </g>
            <g id="Grupo_59403" data-name="Grupo 59403">
              <rect id="Rectángulo_6278" data-name="Rectángulo 6278" width="89.59" height="0.938" transform="translate(228.498 2149.385)" fill="#fff"/>
            </g>
            <g id="Grupo_59404" data-name="Grupo 59404">
              <rect id="Rectángulo_6279" data-name="Rectángulo 6279" width="89.59" height="0.938" transform="translate(228.498 2144.313)" fill="#fff"/>
            </g>
          </g>
          <g id="Grupo_59412" data-name="Grupo 59412">
            <g id="Grupo_59411" data-name="Grupo 59411">
              <g id="Grupo_59410" data-name="Grupo 59410" clip-path="url(#clip-path-2)">
                <g id="Grupo_59409" data-name="Grupo 59409">
                  <g id="Grupo_59408" data-name="Grupo 59408">
                    <rect id="Rectángulo_6280" data-name="Rectángulo 6280" width="23.721" height="13.594" transform="translate(219.339 2151.627) rotate(180)" fill="#c4c4c4"/>
                    <g id="Grupo_59406" data-name="Grupo 59406">
                      <path id="Trazado_107746" data-name="Trazado 107746" d="M195.934,2151.973l-.632-.692,12.1-11.034,12.251,10.979-.626.7-11.619-10.413Z" fill="#fff"/>
                    </g>
                    <g id="Grupo_59407" data-name="Grupo 59407">
                      <path id="Trazado_107747" data-name="Trazado 107747" d="M195.617,2138.033l11.871,8.5,11.85-8.5" fill="#c4c4c4"/>
                      <path id="Trazado_107748" data-name="Trazado 107748" d="M207.489,2147.11l-12.144-8.7.546-.763,11.6,8.305,11.577-8.3.547.762Z" fill="#fff"/>
                    </g>
                  </g>
                </g>
              </g>
            </g>
          </g>
        </g>
        <g id="Grupo_59425" data-name="Grupo 59425">
          <g id="Grupo_59417" data-name="Grupo 59417">
            <g id="Grupo_59414" data-name="Grupo 59414">
              <rect id="Rectángulo_6282" data-name="Rectángulo 6282" width="29.656" height="0.938" transform="translate(228.498 2164.429)" fill="#fff"/>
            </g>
            <g id="Grupo_59415" data-name="Grupo 59415">
              <rect id="Rectángulo_6283" data-name="Rectángulo 6283" width="89.59" height="0.938" transform="translate(228.498 2174.575)" fill="#fff"/>
            </g>
            <g id="Grupo_59416" data-name="Grupo 59416">
              <rect id="Rectángulo_6284" data-name="Rectángulo 6284" width="89.59" height="0.938" transform="translate(228.498 2169.502)" fill="#fff"/>
            </g>
          </g>
          <g id="Grupo_59424" data-name="Grupo 59424">
            <g id="Grupo_59423" data-name="Grupo 59423">
              <g id="Grupo_59422" data-name="Grupo 59422" clip-path="url(#clip-path-3)">
                <g id="Grupo_59421" data-name="Grupo 59421">
                  <g id="Grupo_59420" data-name="Grupo 59420">
                    <rect id="Rectángulo_6285" data-name="Rectángulo 6285" width="23.721" height="13.594" transform="translate(219.339 2176.816) rotate(180)" fill="#c4c4c4"/>
                    <g id="Grupo_59418" data-name="Grupo 59418">
                      <path id="Trazado_107749" data-name="Trazado 107749" d="M195.934,2177.163l-.632-.692,12.1-11.034,12.251,10.979-.626.7L207.407,2166.7Z" fill="#fff"/>
                    </g>
                    <g id="Grupo_59419" data-name="Grupo 59419">
                      <path id="Trazado_107750" data-name="Trazado 107750" d="M195.617,2163.222l11.871,8.5,11.85-8.5" fill="#c4c4c4"/>
                      <path id="Trazado_107751" data-name="Trazado 107751" d="M207.489,2172.3l-12.144-8.7.546-.763,11.6,8.306,11.577-8.305.547.762Z" fill="#fff"/>
                    </g>
                  </g>
                </g>
              </g>
            </g>
          </g>
        </g>
      </g>
    </g>
    <g id="Grupo_59430" data-name="Grupo 59430">
      <path id="Trazado_107752" data-name="Trazado 107752" d="M204.153,2288.7H135.068l-15.973-107.421H188.18Z" fill="#f9e478"/>
      <g id="Grupo_59428" data-name="Grupo 59428">
        <rect id="Rectángulo_6287" data-name="Rectángulo 6287" width="0.938" height="108.602" transform="translate(118.631 2181.348) rotate(-8.458)" fill="#00111c"/>
      </g>
      <g id="Grupo_59429" data-name="Grupo 59429">
        <rect id="Rectángulo_6288" data-name="Rectángulo 6288" width="0.938" height="108.602" transform="translate(122.655 2181.348) rotate(-8.458)" fill="#00111c"/>
      </g>
    </g>
    <g id="Grupo_59431" data-name="Grupo 59431">
      <path id="Trazado_107753" data-name="Trazado 107753" d="M199.459,2288.7h-43.13a20.951,20.951,0,0,1-20.951-20.951h0a20.951,20.951,0,0,1,20.951-20.951h43.13Z" fill="#2ab9c4"/>
    </g>
    <g id="Grupo_59432" data-name="Grupo 59432">
      <path id="Trazado_107754" data-name="Trazado 107754" d="M242.647,2253.719H187.817l-3.656,34.981h58.485Z" fill="#21949d"/>
      <ellipse id="Elipse_4114" data-name="Elipse 4114" cx="17.336" cy="17.346" rx="17.336" ry="17.346" transform="translate(225.463 2253.719)" fill="#21949d"/>
      <path id="Trazado_107755" data-name="Trazado 107755" d="M257.184,2288.7l2.551-14.661-34.178-5.948-3.586,20.609Z" fill="#21949d"/>
    </g>
    <ellipse id="Elipse_4115" data-name="Elipse 4115" cx="17.336" cy="17.346" rx="17.336" ry="17.346" transform="translate(195.435 2254.028)" fill="#2ab9c4"/>
    <path id="Trazado_107756" data-name="Trazado 107756" d="M233.041,2288.7l-3.305-20.136-34.234,5.62,2.383,14.516Z" fill="#2ab9c4"/>
    <path id="Trazado_107757" data-name="Trazado 107757" d="M212.618,2254.028H157.789l-3.656,34.692h58.485Z" fill="#2ab9c4"/>
    <g id="Grupo_59433" data-name="Grupo 59433">
      <rect id="Rectángulo_6289" data-name="Rectángulo 6289" width="0.938" height="16.337" transform="translate(194.353 2271.754) rotate(-9.82)" fill="#00111c"/>
    </g>
    <g id="Grupo_59434" data-name="Grupo 59434">
      <rect id="Rectángulo_6290" data-name="Rectángulo 6290" width="58.357" height="0.938" transform="translate(154.262 2253.56)" fill="#00111c"/>
    </g>
    <g id="Grupo_59436" data-name="Grupo 59436">
      <g id="Grupo_59435" data-name="Grupo 59435">
        <path id="Trazado_107758" data-name="Trazado 107758" d="M195.589,2275.548H159.934a14.612,14.612,0,0,1-4.732-28.436l.3.887a13.674,13.674,0,0,0,4.428,26.611h35.655Z" fill="#00111c"/>
      </g>
    </g>
    <g id="Grupo_59456" data-name="Grupo 59456">
      <path id="Trazado_107759" data-name="Trazado 107759" d="M165.091,2142.439a12.112,12.112,0,1,1-12.129-12.094A12.112,12.112,0,0,1,165.091,2142.439Z" fill="#00111c"/>
      <circle id="Elipse_4116" data-name="Elipse 4116" cx="16.407" cy="16.407" r="16.407" transform="translate(151.481 2164.973) rotate(-61.869)" fill="#00111c"/>
      <g id="Grupo_59437" data-name="Grupo 59437">
        <rect id="Rectángulo_6291" data-name="Rectángulo 6291" width="14.084" height="20.772" transform="translate(167.615 2170.998) rotate(-2.142)" fill="#ff9a54"/>
        <path id="Trazado_107760" data-name="Trazado 107760" d="M182.311,2187.093,167.615,2171l14.074-.526Z" fill="#00111c"/>
      </g>
      <g id="Grupo_59449" data-name="Grupo 59449">
        <path id="Trazado_107761" data-name="Trazado 107761" d="M188.478,2156.971c1.565,8.388.086,20.56-11.307,20.987-10.193.381-13.634-11.342-13.953-19.869S184.727,2136.868,188.478,2156.971Z" fill="#ff9a54"/>
        <g id="Grupo_59440" data-name="Grupo 59440">
          <g id="Grupo_59438" data-name="Grupo 59438">
            <path id="Trazado_107762" data-name="Trazado 107762" d="M184.478,2162.188c.548-.021,1.017.629,1.047,1.45s-.388,1.505-.936,1.525-1.017-.629-1.047-1.45S183.93,2162.208,184.478,2162.188Z" fill="#00111c"/>
            <path id="Trazado_107763" data-name="Trazado 107763" d="M186.679,2160.412l-4.529.17A2.975,2.975,0,0,1,186.679,2160.412Z" fill="#00111c"/>
          </g>
          <g id="Grupo_59439" data-name="Grupo 59439">
            <path id="Trazado_107764" data-name="Trazado 107764" d="M175.445,2162.526c.548-.021,1.017.629,1.048,1.45s-.389,1.5-.936,1.525-1.017-.629-1.048-1.451S174.9,2162.546,175.445,2162.526Z" fill="#00111c"/>
            <path id="Trazado_107765" data-name="Trazado 107765" d="M177.647,2160.75l-4.53.169A2.976,2.976,0,0,1,177.647,2160.75Z" fill="#00111c"/>
          </g>
        </g>
        <g id="Grupo_59445" data-name="Grupo 59445">
          <g id="Grupo_59442" data-name="Grupo 59442">
            <g id="Grupo_59441" data-name="Grupo 59441">
              <path id="Trazado_107766" data-name="Trazado 107766" d="M180.736,2168.512l-.239-.906c1.473-.389,1.563-.74,1.563-.744,0-.15-.556-.556-1.1-.691l-.362-.09.047-2.771.937.016-.034,2.053c.581.228,1.443.725,1.448,1.476C183,2167.8,181.709,2168.255,180.736,2168.512Z" fill="#00111c"/>
            </g>
          </g>
          <g id="Grupo_59444" data-name="Grupo 59444">
            <g id="Grupo_59443" data-name="Grupo 59443">
              <path id="Trazado_107767" data-name="Trazado 107767" d="M180.87,2170.135a15.526,15.526,0,0,1-4.743-.74l.288-.893a14.553,14.553,0,0,0,6.2.59l.115.931A15.344,15.344,0,0,1,180.87,2170.135Z" fill="#00111c"/>
            </g>
          </g>
        </g>
        <g id="Grupo_59448" data-name="Grupo 59448">
          <path id="Trazado_107768" data-name="Trazado 107768" d="M160.675,2165.321a3.934,3.934,0,1,0,3.784-4.078A3.934,3.934,0,0,0,160.675,2165.321Z" fill="#ff9a54"/>
          <g id="Grupo_59447" data-name="Grupo 59447">
            <g id="Grupo_59446" data-name="Grupo 59446">
              <path id="Trazado_107769" data-name="Trazado 107769" d="M164.7,2167.489a2.184,2.184,0,0,1-1.1-2.92c.23-.764-.63-1.141-.666-1.156l.368-.863a1.9,1.9,0,0,1,1.2,2.289c-.288.958-.131,1.4.648,1.827Z" fill="#00111c"/>
            </g>
          </g>
        </g>
      </g>
      <path id="Trazado_107770" data-name="Trazado 107770" d="M161.32,2148.375c10.771-11.292,23.611-4.532,26.907,2.947a35.278,35.278,0,0,1,1.7,7.149s-20.611-1.816-20.615-1.6c-.1,6.176-4.106,8.616-6.535,8.143C158.614,2164.2,157.172,2152.725,161.32,2148.375Z" fill="#00111c"/>
      <g id="Grupo_59455" data-name="Grupo 59455">
        <rect id="Rectángulo_6292" data-name="Rectángulo 6292" width="18.17" height="15.595" transform="matrix(-0.999, -0.036, 0.036, -0.999, 183.987, 2200.299)" fill="#fff"/>
        <g id="Grupo_59454" data-name="Grupo 59454">
          <g id="Grupo_59450" data-name="Grupo 59450">
            <rect id="Rectángulo_6293" data-name="Rectángulo 6293" width="5.841" height="0.937" transform="matrix(0.036, -0.999, 0.999, 0.036, 167.783, 2190.029)" fill="#00111c"/>
          </g>
          <g id="Grupo_59451" data-name="Grupo 59451">
            <rect id="Rectángulo_6294" data-name="Rectángulo 6294" width="5.841" height="0.937" transform="translate(172.539 2190.201) rotate(-87.909)" fill="#00111c"/>
          </g>
          <g id="Grupo_59452" data-name="Grupo 59452">
            <rect id="Rectángulo_6295" data-name="Rectángulo 6295" width="5.841" height="0.937" transform="matrix(0.036, -0.999, 0.999, 0.036, 177.296, 2190.373)" fill="#00111c"/>
          </g>
          <g id="Grupo_59453" data-name="Grupo 59453">
            <rect id="Rectángulo_6296" data-name="Rectángulo 6296" width="5.841" height="0.937" transform="translate(182.052 2190.545) rotate(-87.909)" fill="#00111c"/>
          </g>
        </g>
      </g>
    </g>
    <g id="Grupo_59460" data-name="Grupo 59460">
      <g id="Grupo_59457" data-name="Grupo 59457">
        <path id="Trazado_107771" data-name="Trazado 107771" d="M214.9,2205.288a10.525,10.525,0,1,1-11.144-9.868A10.527,10.527,0,0,1,214.9,2205.288Z" fill="#fff"/>
        <path id="Trazado_107772" data-name="Trazado 107772" d="M234.254,2234.307l6.03-5.211-16.67-17.992-15.644,14.414,7.092,7.7A13.815,13.815,0,0,0,234.254,2234.307Z" fill="#ff9a54"/>
        <rect id="Rectángulo_6297" data-name="Rectángulo 6297" width="21.271" height="20.469" transform="matrix(-0.735, 0.678, -0.678, -0.735, 225.726, 2213.396)" fill="#fff"/>
      </g>
      <path id="Trazado_107773" data-name="Trazado 107773" d="M200.81,2251.512l4.84-40.824L204.1,2195.21l-29.98-4.389-30.454.724.318,56.689Z" fill="#fff"/>
      <g id="Grupo_59458" data-name="Grupo 59458">
        <rect id="Rectángulo_6298" data-name="Rectángulo 6298" width="44.806" height="0.937" transform="translate(200.344 2251.461) rotate(-83.716)" fill="#00111c"/>
      </g>
      <g id="Grupo_59459" data-name="Grupo 59459">
        <rect id="Rectángulo_6299" data-name="Rectángulo 6299" width="0.938" height="42.189" transform="translate(143.422 2206.046) rotate(-0.13)" fill="#00111c"/>
      </g>
    </g>
    <g id="Grupo_59472" data-name="Grupo 59472">
      <g id="Grupo_59462" data-name="Grupo 59462">
        <path id="Trazado_107774" data-name="Trazado 107774" d="M177.853,2220.808l-15.721,17.058-18.622-20.512,16.933-15.53Z" fill="#ff9a54"/>
        <path id="Trazado_107775" data-name="Trazado 107775" d="M169.278,2210.4l-18.238,16.519L135.114,2208.2l17.459-16.011Z" fill="#fff"/>
        <circle id="Elipse_4117" data-name="Elipse 4117" cx="10.525" cy="10.525" r="10.525" transform="translate(133.211 2191.495)" fill="#fff"/>
        <g id="Grupo_59461" data-name="Grupo 59461">
          <path id="Trazado_107776" data-name="Trazado 107776" d="M151.357,2227.267l-.635-.69,17.6-16.189-16.1-17.887.7-.627,16.715,18.576Z" fill="#00111c"/>
        </g>
      </g>
      <g id="Grupo_59468" data-name="Grupo 59468">
        <path id="Trazado_107777" data-name="Trazado 107777" d="M226.66,2212.44h0a3.078,3.078,0,0,1-.863,4.04l-5.712,4.119-11.246-7.088,14.533-2.54A3.077,3.077,0,0,1,226.66,2212.44Z" fill="#ff9a54"/>
        <path id="Trazado_107778" data-name="Trazado 107778" d="M208.579,2230.377a9.985,9.985,0,1,0-1.507-14.04A9.985,9.985,0,0,0,208.579,2230.377Z" fill="#ff9a54"/>
        <g id="Grupo_59467" data-name="Grupo 59467">
          <path id="Trazado_107779" data-name="Trazado 107779" d="M233.295,2224.894h0a2.652,2.652,0,0,1-3.665.621l-8.888-5.238-1.784-6.731,13.12,7.823A2.656,2.656,0,0,1,233.295,2224.894Z" fill="#ff9a54"/>
          <path id="Trazado_107780" data-name="Trazado 107780" d="M223.537,2234.542h0a2.651,2.651,0,0,1-3.665.62l-6.9-4.057,2.443-4.216,6.908,4.128A2.655,2.655,0,0,1,223.537,2234.542Z" fill="#ff9a54"/>
          <g id="Grupo_59463" data-name="Grupo 59463">
            <path id="Trazado_107781" data-name="Trazado 107781" d="M221.535,2236.123a3.588,3.588,0,0,1-1.812-.5l-5.246-3.072.474-.809,5.247,3.072a2.172,2.172,0,0,0,2.992-.476,1.768,1.768,0,0,0,.122-1.493,2.574,2.574,0,0,0-1.142-1.369l.479-.806a3.1,3.1,0,0,1,1.347,4.148A2.8,2.8,0,0,1,221.535,2236.123Z" fill="#00111c"/>
          </g>
          <path id="Trazado_107782" data-name="Trazado 107782" d="M228.769,2232.5h0a2.653,2.653,0,0,1-3.666.621l-8.887-5.238,2.442-4.217,8.894,5.309A2.655,2.655,0,0,1,228.769,2232.5Z" fill="#ff9a54"/>
          <g id="Grupo_59464" data-name="Grupo 59464">
            <path id="Trazado_107783" data-name="Trazado 107783" d="M226.739,2234.068a3.577,3.577,0,0,1-1.812-.5l-8.764-5.164.476-.808,8.764,5.165a1.972,1.972,0,1,0,1.971-3.339l-8.771-5.236.481-.8,8.77,5.236a3.1,3.1,0,0,1,1.346,4.147A2.805,2.805,0,0,1,226.739,2234.068Z" fill="#00111c"/>
          </g>
          <g id="Grupo_59465" data-name="Grupo 59465">
            <path id="Trazado_107784" data-name="Trazado 107784" d="M231.266,2226.459a3.577,3.577,0,0,1-1.812-.5l-8.765-5.165.476-.807,8.764,5.164a1.972,1.972,0,1,0,1.971-3.338l-13.55-8.556.5-.793,13.54,8.549a3.1,3.1,0,0,1,1.335,4.141A2.8,2.8,0,0,1,231.266,2226.459Z" fill="#00111c"/>
          </g>
          <path id="Trazado_107785" data-name="Trazado 107785" d="M233.017,2229.88h0a2.653,2.653,0,0,1-3.665.62l-10.873-6.419,2.442-4.216,10.879,6.49A2.655,2.655,0,0,1,233.017,2229.88Z" fill="#ff9a54"/>
          <g id="Grupo_59466" data-name="Grupo 59466">
            <path id="Trazado_107786" data-name="Trazado 107786" d="M230.96,2231.428a3.579,3.579,0,0,1-1.812-.5l-10.722-6.329.476-.807,10.722,6.329a1.972,1.972,0,1,0,1.971-3.339l-10.728-6.4.48-.8,10.728,6.4a3.1,3.1,0,0,1,1.345,4.147A2.8,2.8,0,0,1,230.96,2231.428Z" fill="#00111c"/>
          </g>
        </g>
      </g>
      <g id="Grupo_59471" data-name="Grupo 59471">
        <g id="Grupo_59470" data-name="Grupo 59470">
          <circle id="Elipse_4118" data-name="Elipse 4118" cx="10.926" cy="10.926" r="10.926" transform="translate(155.328 2234.823) rotate(-62.166)" fill="#ff9a54"/>
          <path id="Trazado_107787" data-name="Trazado 107787" d="M210.009,2213.645l3.342,16.455L172.377,2241l-4.349-21.415Z" fill="#ff9a54"/>
          <g id="Grupo_59469" data-name="Grupo 59469">
            <rect id="Rectángulo_6300" data-name="Rectángulo 6300" width="42.399" height="0.938" transform="matrix(0.99, -0.14, 0.14, 0.99, 167.964, 2219.13)" fill="#00111c"/>
          </g>
        </g>
      </g>
    </g>
    <g id="Grupo_59482" data-name="Grupo 59482">
      <g id="Grupo_59479" data-name="Grupo 59479">
        <g id="Grupo_59473" data-name="Grupo 59473">
          <path id="Trazado_107788" data-name="Trazado 107788" d="M251.592,2233.419H214.156v-3.356l37.437-2.472Z" fill="#00111c"/>
        </g>
        <g id="Grupo_59478" data-name="Grupo 59478">
          <g id="Grupo_59475" data-name="Grupo 59475">
            <g id="Grupo_59474" data-name="Grupo 59474">
              <path id="Trazado_107789" data-name="Trazado 107789" d="M293.708,2226.2H228.237l4.305-49.21h65.471Z" fill="#2ab9c4"/>
            </g>
            <path id="Trazado_107790" data-name="Trazado 107790" d="M263.688,2226.2H252.479l4.036-26.4Z" fill="#21949d"/>
          </g>
          <g id="Grupo_59477" data-name="Grupo 59477">
            <g id="Grupo_59476" data-name="Grupo 59476">
              <path id="Trazado_107791" data-name="Trazado 107791" d="M274.94,2233.419H261.384l-4.686-33.34h13.556Z" fill="#21949d"/>
              <path id="Trazado_107792" data-name="Trazado 107792" d="M275.479,2233.888h-14.5l-4.817-34.277h14.5Zm-13.687-.937H274.4l-4.554-32.4H257.238Z" fill="#00111c"/>
            </g>
          </g>
        </g>
      </g>
      <g id="Grupo_59480" data-name="Grupo 59480">
        <path id="Trazado_107793" data-name="Trazado 107793" d="M296.344,2289.919l-4.7-53.715h-8.6l6.02,53.715Z" fill="#21949d"/>
        <path id="Trazado_107794" data-name="Trazado 107794" d="M190.638,2289.919l6.02-53.715h-8.6l-4.7,53.715Z" fill="#21949d"/>
      </g>
      <rect id="Rectángulo_6301" data-name="Rectángulo 6301" width="141.663" height="6.673" transform="translate(169.021 2231.756)" fill="#2ab9c4"/>
      <g id="Grupo_59481" data-name="Grupo 59481">
        <rect id="Rectángulo_6302" data-name="Rectángulo 6302" width="49.528" height="0.938" transform="translate(227.63 2226.453) rotate(-85.339)" fill="#00111c"/>
      </g>
    </g>
    <path id="Trazado_107795" data-name="Trazado 107795" d="M396.779,2126.543c-.78-3.589-3.852-6.153-6.628-8.913-3.949-3.925-3.531-9.382-5.914-13.881-2.527-4.77-8.388-8-14.694-8-5.871,0-11.544,2.9-14.255,7.254-2.879,4.621-2.19,10.49-6.352,14.629-3.7,3.679-7.84,6.952-6.58,12.8,2.538,11.787,14.656,18.57,26.041,18.57h2.292a29.569,29.569,0,0,0,17.392-5.67C392.8,2139.81,398.153,2132.861,396.779,2126.543Z" fill="#00111c"/>
    <path id="Trazado_107796" data-name="Trazado 107796" d="M357.7,2289.632l1.941-70.905-30.352-1.955-3.241,72.86Z" fill="#2ab9c4"/>
    <path id="Trazado_107797" data-name="Trazado 107797" d="M404.617,2289.632l-11.183-74.207-36.572-1.285,12.05,75.491Z" fill="#2ab9c4"/>
    <path id="Trazado_107798" data-name="Trazado 107798" d="M393.526,2219.916a32.093,32.093,0,1,0-64.186,0C329.34,2221.876,393.526,2221.876,393.526,2219.916Z" fill="#2ab9c4"/>
    <path id="Rectángulo_6303" data-name="Rectángulo 6303" d="M11.207,0H54.9a9.287,9.287,0,0,1,9.287,9.287v4.961A9.287,9.287,0,0,1,54.9,23.535H9.287A9.287,9.287,0,0,1,0,14.248V11.207A11.207,11.207,0,0,1,11.207,0Z" transform="translate(329.34 2206.448)" fill="#2ab9c4"/>
    <path id="Trazado_107799" data-name="Trazado 107799" d="M388.607,2202.838a32.1,32.1,0,0,0-55.256,1.535Z" fill="#21949d"/>
    <g id="Grupo_59483" data-name="Grupo 59483">
      <path id="Trazado_107800" data-name="Trazado 107800" d="M398.118,2287.118c-3.752-25.189-10.968-73.2-11.415-74.613a31.55,31.55,0,0,0-30.753-24.213v-.938a32.46,32.46,0,0,1,31.647,24.875c.436.939,9.613,62.434,11.449,74.751Z" fill="#00111c"/>
    </g>
    <g id="Grupo_59484" data-name="Grupo 59484">
      <rect id="Rectángulo_6304" data-name="Rectángulo 6304" width="10.966" height="0.938" transform="translate(350.521 2229.39)" fill="#00111c"/>
    </g>
    <g id="Grupo_59485" data-name="Grupo 59485">
      <rect id="Rectángulo_6305" data-name="Rectángulo 6305" width="0.938" height="38.015" transform="translate(358.825 2191.844)" fill="#00111c"/>
    </g>
    <g id="Grupo_59486" data-name="Grupo 59486">
      <path id="Trazado_107801" data-name="Trazado 107801" d="M359.293,2230.328a6.324,6.324,0,0,1-6.316-6.318v-23.393h.937v23.393a5.385,5.385,0,0,0,5.379,5.38Z" fill="#00111c"/>
    </g>
    <g id="Grupo_59487" data-name="Grupo 59487">
      <path id="Trazado_107802" data-name="Trazado 107802" d="M388.313,2218.631a6.325,6.325,0,0,1-6.317-6.318v-9.587h.938v9.587a5.385,5.385,0,0,0,5.379,5.38Z" fill="#00111c"/>
    </g>
    <g id="Grupo_59488" data-name="Grupo 59488">
      <rect id="Rectángulo_6306" data-name="Rectángulo 6306" width="60.115" height="0.937" transform="translate(353.335 2289.899) rotate(-87.548)" fill="#00111c"/>
    </g>
    <g id="Grupo_59501" data-name="Grupo 59501">
      <g id="Grupo_59491" data-name="Grupo 59491">
        <rect id="Rectángulo_6307" data-name="Rectángulo 6307" width="19.97" height="25.339" transform="translate(337.872 2192.767) rotate(-170.704)" fill="#bb2700"/>
        <g id="Grupo_59489" data-name="Grupo 59489">
          <path id="Trazado_107803" data-name="Trazado 107803" d="M343.933,2155.737a9.985,9.985,0,1,1-8.241-11.467A9.986,9.986,0,0,1,343.933,2155.737Z" fill="#feeb8a"/>
          <rect id="Rectángulo_6308" data-name="Rectángulo 6308" width="19.97" height="14.122" transform="translate(341.838 2168.533) rotate(-170.704)" fill="#feeb8a"/>
        </g>
        <g id="Grupo_59490" data-name="Grupo 59490">
          <path id="Trazado_107804" data-name="Trazado 107804" d="M342.225,2169.071l-20.632-3.378,2.17-13.257.263-1.159a10.448,10.448,0,0,1,20.5,2.911l.058.01,0,.474Zm-19.556-4.151L341.452,2168l2.158-13.186-.03-.247a9.511,9.511,0,0,0-18.646-3.052l-.252,1.106Z" fill="#afa054"/>
        </g>
      </g>
      <g id="Grupo_59493" data-name="Grupo 59493">
        <circle id="Elipse_4119" data-name="Elipse 4119" cx="9.985" cy="9.985" r="9.985" transform="translate(315.877 2197.728) rotate(-71.327)" fill="#bb2700"/>
        <path id="Trazado_107805" data-name="Trazado 107805" d="M306.329,2158.779l-10.791,10.91,25.873,28.844,14.044-14.2Z" fill="#bb2700"/>
        <g id="Grupo_59492" data-name="Grupo 59492">
          <rect id="Rectángulo_6309" data-name="Rectángulo 6309" width="0.938" height="38.748" transform="translate(306.019 2159.131) rotate(-48.734)" fill="#00111c"/>
        </g>
      </g>
      <g id="Grupo_59500" data-name="Grupo 59500">
        <path id="Trazado_107806" data-name="Trazado 107806" d="M288.059,2155.285l.729,18.255,9.016.366.87-18.11Z" fill="#bb2700"/>
        <path id="Trazado_107807" data-name="Trazado 107807" d="M300.522,2173.589a10.017,10.017,0,1,1,7.413-12.072A10.017,10.017,0,0,1,300.522,2173.589Z" fill="#bb2700"/>
        <path id="Trazado_107808" data-name="Trazado 107808" d="M277.463,2170.8h0a2.494,2.494,0,0,0,2.489,2.48l8.837.259.071-4.992-8.874-.2A2.488,2.488,0,0,0,277.463,2170.8Z" fill="#bb2700"/>
        <path id="Trazado_107809" data-name="Trazado 107809" d="M274.911,2165.9h0a2.493,2.493,0,0,0,2.489,2.48l12.707.282-1.761-5-10.911-.213A2.486,2.486,0,0,0,274.911,2165.9Z" fill="#bb2700"/>
        <g id="Grupo_59494" data-name="Grupo 59494">
          <path id="Trazado_107810" data-name="Trazado 107810" d="M298.212,2174.325c-.14,0-.281,0-.422-.009l-17.852-.567a2.965,2.965,0,0,1-2.943-2.95,2.886,2.886,0,0,1,.885-2.074,3.017,3.017,0,0,1,2.109-.846l7.941.107-.013.938-7.937-.107h-.011a2.047,2.047,0,0,0-1.436.58,1.965,1.965,0,0,0-.6,1.406,2.029,2.029,0,0,0,2.025,2.009l17.867.568a9.516,9.516,0,0,0,9.823-8.18l.928.132a10.45,10.45,0,0,1-10.363,8.993Z" fill="#00111c"/>
        </g>
        <g id="Grupo_59495" data-name="Grupo 59495">
          <path id="Trazado_107811" data-name="Trazado 107811" d="M288.484,2168.877l-11.086-.028a2.97,2.97,0,0,1-2.956-2.951,2.89,2.89,0,0,1,.886-2.074,2.974,2.974,0,0,1,2.109-.845l10.918.213-.018.937-10.912-.213a2.132,2.132,0,0,0-1.444.58,1.966,1.966,0,0,0-.6,1.406,2.03,2.03,0,0,0,2.026,2.01l11.081.028Z" fill="#00111c"/>
        </g>
        <path id="Trazado_107812" data-name="Trazado 107812" d="M275.585,2156.651h0a2.493,2.493,0,0,0,2.422,2.545l10.868.515,5.677-5.515-16.379.071A2.485,2.485,0,0,0,275.585,2156.651Z" fill="#bb2700"/>
        <path id="Trazado_107813" data-name="Trazado 107813" d="M293.318,2148.8c-1.718.454-2.533,2.907-1.511,4.533l2.878,4.578,9.828-1.8c-1.251-.949-8.567-6.839-9.788-7.241A2.449,2.449,0,0,0,293.318,2148.8Z" fill="#bb2700"/>
        <g id="Grupo_59496" data-name="Grupo 59496">
          <path id="Trazado_107814" data-name="Trazado 107814" d="M277.989,2159.665a2.97,2.97,0,0,1-2.873-3.029,2.9,2.9,0,0,1,.921-2.031,2.947,2.947,0,0,1,2.151-.807l14.143-.133.009.938-14.162.132a2.053,2.053,0,0,0-1.5.554,1.959,1.959,0,0,0-.625,1.376,2.029,2.029,0,0,0,1.97,2.063Z" fill="#00111c"/>
        </g>
        <path id="Trazado_107815" data-name="Trazado 107815" d="M272.955,2161.242h0a2.493,2.493,0,0,0,2.422,2.546l13.345.64-.235-5.047-12.944-.523A2.486,2.486,0,0,0,272.955,2161.242Z" fill="#bb2700"/>
        <g id="Grupo_59497" data-name="Grupo 59497">
          <path id="Trazado_107816" data-name="Trazado 107816" d="M288.261,2164.837l-12.906-.581a2.968,2.968,0,0,1-2.869-3.029,2.9,2.9,0,0,1,.921-2.03,2.945,2.945,0,0,1,2.152-.807l12.947.523-.038.936-12.944-.522a2.067,2.067,0,0,0-1.475.553,1.961,1.961,0,0,0-.625,1.377,2.028,2.028,0,0,0,1.97,2.063l12.909.58Z" fill="#00111c"/>
        </g>
        <g id="Grupo_59498" data-name="Grupo 59498">
          <rect id="Rectángulo_6310" data-name="Rectángulo 6310" width="0.938" height="17.952" transform="translate(287.764 2155.611) rotate(-1.777)" fill="#00111c"/>
        </g>
        <g id="Grupo_59499" data-name="Grupo 59499">
          <path id="Trazado_107817" data-name="Trazado 107817" d="M300.631,2174.045l-.218-.912a9.548,9.548,0,0,0,3.114-17.205l-.677-.53c-2.206-1.733-7.372-5.795-8.272-6.091a1.982,1.982,0,0,0-1.141-.059,2.172,2.172,0,0,0-1.4,1.373,2.783,2.783,0,0,0,.17,2.459l3.488,6.152-.816.462-3.477-6.134a3.676,3.676,0,0,1-.237-3.283,3.091,3.091,0,0,1,2.036-1.935,2.929,2.929,0,0,1,1.673.074c.975.321,4.929,3.392,8.559,6.246l.648.509a10.484,10.484,0,0,1-3.447,18.874Z" fill="#00111c"/>
        </g>
      </g>
    </g>
    <g id="Grupo_59502" data-name="Grupo 59502">
      <path id="Trazado_107818" data-name="Trazado 107818" d="M413.78,2188.477l13.935-14.572L408.9,2158.876l-12.543,15.54Z" fill="#bb2700"/>
      <rect id="Rectángulo_6311" data-name="Rectángulo 6311" width="19.97" height="17.073" transform="translate(409.51 2159.367) rotate(128.908)" fill="#feeb8a"/>
    </g>
    <g id="Grupo_59505" data-name="Grupo 59505">
      <path id="Trazado_107819" data-name="Trazado 107819" d="M391.395,2147.079l-28.2-3.943-30.339.721,2.046,49.982,53.347,3.078,3.862-30.451.267.016c5.5.317,8.09-3.354,8.408-8.86h0A9.985,9.985,0,0,0,391.395,2147.079Z" fill="#f9e478"/>
      <g id="Grupo_59503" data-name="Grupo 59503">
        <rect id="Rectángulo_6312" data-name="Rectángulo 6312" width="30.694" height="0.937" transform="translate(387.782 2196.857) rotate(-82.754)" fill="#f9e478"/>
      </g>
      <g id="Grupo_59504" data-name="Grupo 59504">
        <rect id="Rectángulo_6313" data-name="Rectángulo 6313" width="0.937" height="50.023" transform="translate(332.39 2143.876) rotate(-2.345)" fill="#f9e478"/>
      </g>
    </g>
    <g id="Grupo_59514" data-name="Grupo 59514">
      <g id="Grupo_59507" data-name="Grupo 59507">
        <path id="Trazado_107820" data-name="Trazado 107820" d="M429.427,2186.617a9.985,9.985,0,1,1-3.107-13.775A9.985,9.985,0,0,1,429.427,2186.617Z" fill="#bb2700"/>
        <path id="Trazado_107821" data-name="Trazado 107821" d="M386.9,2201.27l10.17,11.491,30.5-23.9L414.33,2173.9Z" fill="#bb2700"/>
        <g id="Grupo_59506" data-name="Grupo 59506">
          <rect id="Rectángulo_6314" data-name="Rectángulo 6314" width="38.747" height="0.938" transform="translate(386.563 2200.934) rotate(-44.914)" fill="#00111c"/>
        </g>
      </g>
      <g id="Grupo_59513" data-name="Grupo 59513">
        <path id="Trazado_107822" data-name="Trazado 107822" d="M378.031,2195.848h0a3.078,3.078,0,0,0,.862,4.04l5.713,4.119,11.246-7.088-14.533-2.54A3.076,3.076,0,0,0,378.031,2195.848Z" fill="#bb2700"/>
        <path id="Trazado_107823" data-name="Trazado 107823" d="M396.112,2213.785a9.985,9.985,0,1,1,1.507-14.04A9.985,9.985,0,0,1,396.112,2213.785Z" fill="#bb2700"/>
        <g id="Grupo_59512" data-name="Grupo 59512">
          <path id="Trazado_107824" data-name="Trazado 107824" d="M371.395,2208.3h0a2.654,2.654,0,0,0,3.666.621l8.888-5.238,1.784-6.731-13.12,7.823A2.657,2.657,0,0,0,371.395,2208.3Z" fill="#bb2700"/>
          <path id="Trazado_107825" data-name="Trazado 107825" d="M381.153,2217.95h0a2.653,2.653,0,0,0,3.666.621l6.9-4.058-2.442-4.216-6.909,4.128A2.657,2.657,0,0,0,381.153,2217.95Z" fill="#bb2700"/>
          <g id="Grupo_59508" data-name="Grupo 59508">
            <path id="Trazado_107826" data-name="Trazado 107826" d="M383.155,2219.531a2.8,2.8,0,0,1-2.46-1.308,3.1,3.1,0,0,1,1.346-4.147l.48.805a1.972,1.972,0,1,0,1.971,3.339l5.247-3.073.474.809-5.246,3.072A3.575,3.575,0,0,1,383.155,2219.531Z" fill="#00111c"/>
          </g>
          <path id="Trazado_107827" data-name="Trazado 107827" d="M375.922,2215.911h0a2.652,2.652,0,0,0,3.665.621l8.888-5.238-2.442-4.217-8.894,5.309A2.656,2.656,0,0,0,375.922,2215.911Z" fill="#bb2700"/>
          <g id="Grupo_59509" data-name="Grupo 59509">
            <path id="Trazado_107828" data-name="Trazado 107828" d="M377.951,2217.476a2.8,2.8,0,0,1-2.46-1.309,3.1,3.1,0,0,1,1.346-4.147l8.769-5.235.481.805-8.77,5.236a2.576,2.576,0,0,0-1.142,1.368,1.77,1.77,0,0,0,.122,1.494,2.171,2.171,0,0,0,2.991.477l8.764-5.165.476.808-8.764,5.164A3.581,3.581,0,0,1,377.951,2217.476Z" fill="#00111c"/>
          </g>
          <g id="Grupo_59510" data-name="Grupo 59510">
            <path id="Trazado_107829" data-name="Trazado 107829" d="M373.425,2209.867a2.8,2.8,0,0,1-2.46-1.308,3.1,3.1,0,0,1,1.346-4.148l13.529-8.542.5.793-13.54,8.548a1.974,1.974,0,1,0,1.961,3.346l8.764-5.165.475.808-8.764,5.164A3.574,3.574,0,0,1,373.425,2209.867Z" fill="#00111c"/>
          </g>
          <path id="Trazado_107830" data-name="Trazado 107830" d="M371.673,2213.288h0a2.654,2.654,0,0,0,3.666.62l10.873-6.419-2.443-4.216-10.878,6.49A2.657,2.657,0,0,0,371.673,2213.288Z" fill="#bb2700"/>
          <g id="Grupo_59511" data-name="Grupo 59511">
            <path id="Trazado_107831" data-name="Trazado 107831" d="M373.73,2214.836a2.8,2.8,0,0,1-2.46-1.309,3.1,3.1,0,0,1,1.347-4.147l10.726-6.4.481.8-10.727,6.4a1.972,1.972,0,1,0,1.97,3.339l10.722-6.329.476.808-10.722,6.329A3.578,3.578,0,0,1,373.73,2214.836Z" fill="#00111c"/>
          </g>
        </g>
      </g>
    </g>
    <g id="Grupo_59530" data-name="Grupo 59530">
      <circle id="Elipse_4120" data-name="Elipse 4120" cx="16.314" cy="16.314" r="16.314" transform="matrix(0.378, -0.926, 0.926, 0.378, 348.997, 2123.18)" fill="#00111c"/>
      <g id="Grupo_59528" data-name="Grupo 59528">
        <g id="Grupo_59515" data-name="Grupo 59515">
          <rect id="Rectángulo_6315" data-name="Rectángulo 6315" width="14.084" height="20.772" transform="translate(370.37 2147.901) rotate(-169.589)" fill="#bb2700"/>
          <path id="Trazado_107832" data-name="Trazado 107832" d="M357.266,2141.285l16.858-13.814-13.852-2.545Z" fill="#00111c"/>
        </g>
        <g id="Grupo_59527" data-name="Grupo 59527">
          <path id="Trazado_107833" data-name="Trazado 107833" d="M355.494,2110.589c-2.755,8.076-3.041,20.334,8.172,22.395,10.032,1.843,15.123-9.264,16.665-17.656S362.1,2091.235,355.494,2110.589Z" fill="#bb2700"/>
          <g id="Grupo_59518" data-name="Grupo 59518">
            <g id="Grupo_59516" data-name="Grupo 59516">
              <path id="Trazado_107834" data-name="Trazado 107834" d="M358.7,2116.327c-.539-.1-1.1.476-1.245,1.285s.168,1.544.707,1.643,1.1-.476,1.245-1.285S359.242,2116.426,358.7,2116.327Z" fill="#00111c"/>
              <path id="Trazado_107835" data-name="Trazado 107835" d="M356.78,2114.253l4.458.819A2.976,2.976,0,0,0,356.78,2114.253Z" fill="#00111c"/>
            </g>
            <g id="Grupo_59517" data-name="Grupo 59517">
              <path id="Trazado_107836" data-name="Trazado 107836" d="M367.593,2117.96c-.539-.1-1.1.476-1.245,1.285s.168,1.545.707,1.644,1.1-.476,1.245-1.285S368.132,2118.059,367.593,2117.96Z" fill="#00111c"/>
              <path id="Trazado_107837" data-name="Trazado 107837" d="M365.67,2115.887l4.458.819A2.975,2.975,0,0,0,365.67,2115.887Z" fill="#00111c"/>
            </g>
          </g>
          <g id="Grupo_59523" data-name="Grupo 59523">
            <g id="Grupo_59520" data-name="Grupo 59520">
              <g id="Grupo_59519" data-name="Grupo 59519">
                <path id="Trazado_107838" data-name="Trazado 107838" d="M361.5,2123.123c-.927-.394-2.142-1.027-2-1.964.113-.743,1.038-1.111,1.646-1.252l.261-2.037.929.119-.352,2.749-.371.036c-.557.056-1.164.378-1.186.527,0,0,.037.363,1.439.96Z" fill="#00111c"/>
              </g>
            </g>
            <g id="Grupo_59522" data-name="Grupo 59522">
              <g id="Grupo_59521" data-name="Grupo 59521">
                <path id="Trazado_107839" data-name="Trazado 107839" d="M363.373,2124.873a15.447,15.447,0,0,1-4.062-.541l.246-.9a14.549,14.549,0,0,0,6.217.307l.156.925A15.381,15.381,0,0,1,363.373,2124.873Z" fill="#00111c"/>
              </g>
            </g>
          </g>
          <g id="Grupo_59526" data-name="Grupo 59526">
            <path id="Trazado_107840" data-name="Trazado 107840" d="M381.807,2122.851a3.933,3.933,0,1,1-3.157-4.58A3.934,3.934,0,0,1,381.807,2122.851Z" fill="#bb2700"/>
            <g id="Grupo_59525" data-name="Grupo 59525">
              <g id="Grupo_59524" data-name="Grupo 59524">
                <path id="Trazado_107841" data-name="Trazado 107841" d="M377.517,2124.418l-.325-.879c.831-.308,1.051-.725.9-1.715a1.9,1.9,0,0,1,1.513-2.093l.24.907c-.038.01-.943.259-.826,1.047A2.184,2.184,0,0,1,377.517,2124.418Z" fill="#00111c"/>
              </g>
            </g>
          </g>
          <path id="Trazado_107842" data-name="Trazado 107842" d="M382.307,2108.522a16.584,16.584,0,0,0-8.607-7.98c-5.317-2.058-13.2,1.445-13.2,1.445,4.637,9.606,13,16.228,23.155,19.49C384.269,2117.225,384.249,2112.353,382.307,2108.522Z" fill="#00111c"/>
        </g>
      </g>
      <g id="Grupo_59529" data-name="Grupo 59529">
        <path id="Trazado_107843" data-name="Trazado 107843" d="M364.132,2146.72l-6.828-6.928-6.084,6.272,7.849,5.875Z" fill="#d4c266"/>
        <path id="Trazado_107844" data-name="Trazado 107844" d="M363.329,2146.627l8.349-5.169,4.355,7.482-9.08,3.913Z" fill="#d4c266"/>
      </g>
    </g>
  </g>
</svg>
