<svg xmlns="http://www.w3.org/2000/svg" width="179.237" height="163.289" viewBox="0 0 179.237 163.289">
  <g id="Grupo_60054" data-name="Grupo 60054" transform="translate(-631.217 -4950.91)">
    <rect id="Rectángulo_6405" data-name="Rectángulo 6405" width="179.237" height="163.289" transform="translate(631.217 4950.91)" fill="none"/>
    <g id="Grupo_60053" data-name="Grupo 60053">
      <rect id="Rectángulo_6406" data-name="Rectángulo 6406" width="4.241" height="23.764" transform="translate(673.29 5059.842)" fill="#110239"/>
      <rect id="Rectángulo_6407" data-name="Rectángulo 6407" width="4.241" height="23.764" transform="translate(753.454 5059.842)" fill="#110239"/>
      <rect id="Rectángulo_6408" data-name="Rectángulo 6408" width="139.099" height="85.505" transform="translate(645.943 4976.5)" fill="#d0d1de"/>
      <rect id="Rectángulo_6409" data-name="Rectángulo 6409" width="125.803" height="74.05" transform="translate(652.591 4982.228)" fill="#fff"/>
      <path id="Trazado_108609" data-name="Trazado 108609" d="M740.213,5049.322H660.866s.394-29.9,10.134-34.195,16.256,17.331,20.839,17.617,4.179-17.706,10.849-20.374c17.187-6.874,15.433,20.231,18.584,19.944s5.977-25.028,10.312-25.028C742.218,5007.286,740.213,5049.322,740.213,5049.322Z" fill="#e4e5ec"/>
      <path id="Trazado_108610" data-name="Trazado 108610" d="M740.213,5049.322H660.866s2-25.494,11.745-29.79,14.036,16.327,18.619,16.614,8.88-14.323,16.041-14.9,12.031,16.9,15.182,16.614,4.832-27.785,9.167-27.785C740.213,5010.079,740.213,5049.322,740.213,5049.322Z" fill="#47ecfa"/>
      <path id="Trazado_108611" data-name="Trazado 108611" d="M740.213,5049.322H660.866s2.579-12.6,12.318-16.9,14.895,7.591,19.478,7.877,6.446-16.972,13.607-17.545,3.187,20.839,14.537,20.839c8.235,0,6.98-17.616,11.315-17.616C740.714,5025.977,740.213,5049.322,740.213,5049.322Z" fill="#a271dc"/>
      <rect id="Rectángulo_6410" data-name="Rectángulo 6410" width="23.524" height="4.123" transform="translate(749.449 5005.956)" fill="#e4e5ec"/>
      <rect id="Rectángulo_6411" data-name="Rectángulo 6411" width="23.524" height="4.123" transform="translate(749.449 5015.13)" fill="#e4e5ec"/>
      <rect id="Rectángulo_6412" data-name="Rectángulo 6412" width="23.524" height="4.123" transform="translate(749.449 5024.304)" fill="#2ab9c4"/>
      <rect id="Rectángulo_6413" data-name="Rectángulo 6413" width="23.524" height="4.123" transform="translate(749.449 5033.478)" fill="#e4e5ec"/>
      <rect id="Rectángulo_6414" data-name="Rectángulo 6414" width="23.524" height="4.123" transform="translate(749.449 5042.651)" fill="#f17781"/>
      <rect id="Rectángulo_6415" data-name="Rectángulo 6415" width="4.296" height="4.296" transform="translate(658.728 4986.677)" fill="#47ecfa"/>
      <rect id="Rectángulo_6416" data-name="Rectángulo 6416" width="19.484" height="4.296" transform="translate(667.166 4986.677)" fill="#e4e5ec"/>
      <rect id="Rectángulo_6417" data-name="Rectángulo 6417" width="4.296" height="4.296" transform="translate(658.728 4993.887)" fill="#47ecfa"/>
      <rect id="Rectángulo_6418" data-name="Rectángulo 6418" width="19.484" height="4.296" transform="translate(667.166 4993.887)" fill="#e4e5ec"/>
      <rect id="Rectángulo_6419" data-name="Rectángulo 6419" width="4.296" height="4.296" transform="translate(658.728 5001.098)" fill="#47ecfa"/>
      <rect id="Rectángulo_6420" data-name="Rectángulo 6420" width="19.484" height="4.296" transform="translate(667.166 5001.098)" fill="#e4e5ec"/>
      <rect id="Rectángulo_6421" data-name="Rectángulo 6421" width="61.168" height="5.983" transform="translate(711.805 4986.677)" fill="#e4e5ec"/>
      <rect id="Rectángulo_6422" data-name="Rectángulo 6422" width="30.684" height="5.063" transform="translate(695.119 4999.411)" fill="#e4e5ec"/>
      <rect id="Rectángulo_6423" data-name="Rectángulo 6423" width="11.269" height="4.201" transform="translate(669.775 5080.587)" fill="#d0d1de"/>
      <rect id="Rectángulo_6424" data-name="Rectángulo 6424" width="11.27" height="4.201" transform="translate(749.94 5080.587)" fill="#d0d1de"/>
      <g id="Grupo_60052" data-name="Grupo 60052">
        <g id="Grupo_60051" data-name="Grupo 60051">
          <path id="Trazado_108612" data-name="Trazado 108612" d="M699.682,4987.818c1.535.115,2.935.771,2.945,2.305l-2.558.015c-.017-.58-.613-.7-.986-.7-.235,0-.995.006-.993.476.007,1.051,4.714-.069,4.732,2.9.01,1.783-1.382,2.455-3.1,2.589l.122,1.894-1.563.01.086-1.909c-1.591-.157-3.075-.894-3.084-2.5l2.558-.015v.055c.018.705.806.839,1.207.836s1.148-.034,1.144-.546c-.006-1.092-4.714-.068-4.731-2.944-.009-1.659,1.272-2.3,2.861-2.45l-.107-1.907,1.562-.01Z" fill="#47ecfa"/>
        </g>
      </g>
      <path id="Trazado_108613" data-name="Trazado 108613" d="M709.663,4990.313l-2.407-4.685-2.407,4.685H706.5v7h1.531v-7Z" fill="#f17781"/>
      <path id="Trazado_108614" data-name="Trazado 108614" d="M776.352,5015.494a12.963,12.963,0,0,0-4.149,5.15c-1.892,3.776-3.074,5.8-3.3,5.62-1.007-.805-3.666-3.081-7.556-9.181-.473-.741.017-1.221.033-1.8s.793-1.922.625-2.3-.641-.29-1.1.625-.3,1.48-.671,1.22a10.059,10.059,0,0,1-1.556-1.861c-.29-.473-1.205-1.4-1.449-1.251s-.287.394,1.091,2.371c-.5-.7-1.732-2.336-2.159-1.943-.318.292.895,1.756,1.444,2.406-.471-.545-1.542-1.7-1.925-1.316-.464.462,1.819,2.2,1.819,2.2s-1.7-1.35-1.933-.954.763,1.274,1.739,1.823,1.151.747,1.546.946a4.007,4.007,0,0,1,.893,1.155c.015.031,7.151,15.308,9.711,13.9s5.967-6.413,5.967-6.413a11.911,11.911,0,0,0,1.318-4A15.368,15.368,0,0,0,776.352,5015.494Z" fill="#ffbea3"/>
      <path id="Trazado_108615" data-name="Trazado 108615" d="M770.8,5022.042c.517-1.208,3.5-7.257,5.636-8.165l2.86,1.118c1.261,1.571-.349,5.3-.87,5.72-.44.356-2.558,4.714-3,5.169A37.084,37.084,0,0,1,770.8,5022.042Z" fill="#f17781"/>
      <path id="Trazado_108616" data-name="Trazado 108616" d="M781.579,5005.146l4.1.639a9.388,9.388,0,0,0,.615,6.755s-2.947,3.193-5,2.349a2.419,2.419,0,0,1-1.378-3.122S782.151,5010,781.579,5005.146Z" fill="#ffc6aa"/>
      <path id="Trazado_108617" data-name="Trazado 108617" d="M789.792,5081.763s1.106,4.389.475,5.1-9.827,2.285-10.714,1.556-.611-2.187,1.262-2.979c2.008-.849,3.1-.415,4.338-1.129s.622-2.725.622-2.725Z" fill="#110239"/>
      <path id="Trazado_108618" data-name="Trazado 108618" d="M778.358,5081.01s.222,5.5-.511,6.113-10.061.751-10.826-.1-.32-2.078,1.57-2.5c1.7-.377,2.966-.044,4.278-.6,1.15-.491,1.725-3.072,1.725-3.072Z" fill="#110239"/>
      <path id="Trazado_108619" data-name="Trazado 108619" d="M774.422,5035.124l11.99-2.132s-4.538,24.684-5.141,27.531-2.392,21.61-2.392,21.61l-5.226-.614s.06-20.507.323-22.332S774.422,5035.124,774.422,5035.124Z" fill="#2ab9c4"/>
      <path id="Trazado_108620" data-name="Trazado 108620" d="M778.851,5044.95c-.594-3.871-.193-6.879-1.049-8.766-.339-.749-1.446-.555-1.7-1.32a2.293,2.293,0,0,0,.372-.589l9.957-1.491s-4.515,21.278-5.687,26.5C780.748,5059.282,779.324,5048.039,778.851,5044.95Z" fill="#21949d"/>
      <path id="Trazado_108621" data-name="Trazado 108621" d="M779.4,5033.927l9.628,2.451a18.37,18.37,0,0,1,.582,7.985c-.792,5.356-.87,13.757-.967,14.9s1.8,19.239,1.946,23.571l-5.188.221s-3.978-22.675-4.21-23.172S779.4,5033.927,779.4,5033.927Z" fill="#2ab9c4"/>
      <path id="Trazado_108622" data-name="Trazado 108622" d="M774.944,5025.494c.2-4.057-.894-10.177,1.488-11.617,2-1.206,3.645-2.184,3.645-2.184a2.817,2.817,0,0,0,2.018,1.643c1.42.191,3.677-1.948,3.677-1.948s2.6,1.531,4.94,2.577c-.567,1.88.6,3.566.6,5.44a11.369,11.369,0,0,0,.407,3.054,23.238,23.238,0,0,0-2.075,5.465c-.519,3.7,1.15,9.373,1.15,9.373a64.941,64.941,0,0,1-8.919,1.352,28.4,28.4,0,0,1-8.8-1.046A111.821,111.821,0,0,0,774.944,5025.494Z" fill="#f17781"/>
      <path id="Trazado_108623" data-name="Trazado 108623" d="M791.713,5022.454c-.074-.275-.118-.562-.173-.845-.041-.209-.1-.411-.128-.626a11,11,0,0,1-.1-1.578c0-.919-.062-1.9-.068-2.885-.486.356-1.079,1.208-1.666.864-2.76-1.619-3.138,5.774-3.138,9.5s-.094,8.072-1.564,11.446c3.538-.455,5.918-1.031,5.918-1.031s-.234-.8-.5-1.991c-.133-.6-.274-1.292-.4-2.035-.041-.247-.08-.5-.116-.757-.109-.77-.191-1.571-.222-2.352a12.658,12.658,0,0,1,.086-2.238A23.3,23.3,0,0,1,791.713,5022.454Z" fill="#ce666e"/>
      <path id="Trazado_108624" data-name="Trazado 108624" d="M785.6,4998.381s-5.871-.89-6.546-.239-.788,3.015-.76,5.013-.813,5.821,1.52,6.528,6.781-1.473,8.356-5.431C790.177,4999.213,786,4998.439,785.6,4998.381Z" fill="#ffc6aa"/>
      <path id="Trazado_108625" data-name="Trazado 108625" d="M786.6,4997.912s-2.777.094-3.264,4.277c-.22,1.885-.694,3.339-.113,3.432a.98.98,0,0,0,1.182-.844c0-.544.169-2.319,1.275-1.825s.732,2.632-.675,3.251a1.765,1.765,0,0,0,.835,1.876,7.856,7.856,0,0,0,3.348-5.127C789.606,4999.666,788.368,4997.818,786.6,4997.912Z" fill="#110239"/>
      <path id="Trazado_108626" data-name="Trazado 108626" d="M787.708,4998.281a4.027,4.027,0,0,0-3.752-2.832,7.7,7.7,0,0,0-7.053,4.127s.844,1.482,4.033,1.669a11.712,11.712,0,0,0,4.858-.9A3.462,3.462,0,0,0,787.708,4998.281Z" fill="#110239"/>
      <path id="Trazado_108627" data-name="Trazado 108627" d="M795.668,5032.233c-.192-.943-1.079-6.5-1.39-8.559-1.8.594-3.462,1.209-5.317,1.7a51.306,51.306,0,0,1,1.974,7.614c.2,1.879-.651,10.177-.907,13.051h0c-.02.231-.038.426-.052.587a4.014,4.014,0,0,1-.663,1.7c-.421.528-1.828,2.248-1.588,3s1.411-.622,1.84-1.09.5,1.094.4,1.935-1.8,2.247-1.619,2.824c.126.4.644.112,1.3-.632-.308.462-.542.91-.37,1.027.23.158.653-.132,1.112-.628-.246.381-.4.723-.242.807.241.126.724-.275,1.164-.757-.229.347-.385.679-.223.782.306.193,1.3-.715,1.672-1.905.307-.965-.423-3.685-.684-5.076a2.457,2.457,0,0,1,.086-1.238C792.956,5044.966,796.205,5034.872,795.668,5032.233Z" fill="#ffbea3"/>
      <path id="Trazado_108628" data-name="Trazado 108628" d="M788.961,5027.191a30.627,30.627,0,0,0,6.479-1.947c-.5-3.5-1.726-8.3-3.531-10.211-.5-.532-1.393-1.505-2.207-1.226-1.07.366-2.44,1.828-2.548,4.665a32.279,32.279,0,0,0,1.072,6.179C788.447,5025.245,788.666,5026.333,788.961,5027.191Z" fill="#f17781"/>
    </g>
  </g>
</svg>
