<svg xmlns="http://www.w3.org/2000/svg" width="102" height="102" viewBox="0 0 102 102">
  <g id="Grupo_56712" data-name="Grupo 56712" transform="translate(-445.906 -44.77)">
    <g id="Grupo_56780" data-name="Grupo 56780">
      <g id="Grupo_56779" data-name="Grupo 56779">
        <g id="Grupo_56735" data-name="Grupo 56735">
          <path id="Trazado_105056" data-name="Trazado 105056" d="M515.409,134.839H463.2a3.121,3.121,0,0,1-3.121-3.121V60.543a3.121,3.121,0,0,1,3.121-3.122h40.519L518.53,72.23v59.488A3.121,3.121,0,0,1,515.409,134.839Z" fill="#eadefc"/>
        </g>
        <g id="Grupo_56736" data-name="Grupo 56736">
          <path id="Trazado_105057" data-name="Trazado 105057" d="M463.2,131.718V60.543a3.122,3.122,0,0,1,3.122-3.122H463.2a3.121,3.121,0,0,0-3.121,3.122v71.175a3.121,3.121,0,0,0,3.121,3.121h3.122A3.121,3.121,0,0,1,463.2,131.718Z" fill="#dcbfff"/>
        </g>
        <g id="Grupo_56737" data-name="Grupo 56737">
          <path id="Trazado_105058" data-name="Trazado 105058" d="M515.409,69.108v62.61a3.121,3.121,0,0,1-3.122,3.121h3.122a3.121,3.121,0,0,0,3.121-3.121V72.23Z" fill="#dcbfff"/>
        </g>
        <g id="Grupo_56738" data-name="Grupo 56738">
          <path id="Trazado_105059" data-name="Trazado 105059" d="M515.409,135.464H463.2a3.751,3.751,0,0,1-3.746-3.746V60.543A3.75,3.75,0,0,1,463.2,56.8h40.519a.627.627,0,0,1,.442.183l14.808,14.808a.625.625,0,0,1,.183.442v59.488a3.751,3.751,0,0,1-3.746,3.746ZM463.2,58.046a2.5,2.5,0,0,0-2.5,2.5v71.175a2.5,2.5,0,0,0,2.5,2.5h52.206a2.5,2.5,0,0,0,2.5-2.5V72.488L503.464,58.046Z" fill="#855db5"/>
        </g>
        <g id="Grupo_56739" data-name="Grupo 56739">
          <path id="Trazado_105060" data-name="Trazado 105060" d="M463.2,81.034a.625.625,0,0,1-.624-.625V76.663a.624.624,0,0,1,1.249,0v3.746A.625.625,0,0,1,463.2,81.034Z" fill="#855db5"/>
        </g>
        <g id="Grupo_56740" data-name="Grupo 56740">
          <path id="Trazado_105061" data-name="Trazado 105061" d="M503.722,57.421V69.108a3.122,3.122,0,0,0,3.122,3.122H518.53Z" fill="#a271dc"/>
        </g>
        <g id="Grupo_56741" data-name="Grupo 56741">
          <path id="Trazado_105062" data-name="Trazado 105062" d="M518.53,72.854H506.844a3.75,3.75,0,0,1-3.746-3.746V57.421a.624.624,0,0,1,1.066-.441l14.808,14.808a.625.625,0,0,1-.442,1.066ZM504.346,58.929V69.108a2.5,2.5,0,0,0,2.5,2.5h10.179Z" fill="#855db5"/>
        </g>
        <g id="Grupo_56742" data-name="Grupo 56742">
          <circle id="Elipse_4054" data-name="Elipse 4054" cx="7.931" cy="7.931" r="7.931" transform="translate(475.13 70.528)" fill="#bb83ff"/>
        </g>
        <g id="Grupo_56743" data-name="Grupo 56743">
          <path id="Trazado_105063" data-name="Trazado 105063" d="M483.05,70.527v7.929h7.929A7.929,7.929,0,0,0,483.05,70.527Z" fill="#f4efed"/>
        </g>
        <g id="Grupo_56744" data-name="Grupo 56744">
          <path id="Trazado_105064" data-name="Trazado 105064" d="M490.979,79.081H483.05a.625.625,0,0,1-.624-.625V70.527a.624.624,0,0,1,.624-.624,8.564,8.564,0,0,1,8.554,8.553A.625.625,0,0,1,490.979,79.081Zm-7.3-1.249h6.654a7.317,7.317,0,0,0-6.654-6.654Z" fill="#855db5"/>
        </g>
        <g id="Grupo_56745" data-name="Grupo 56745">
          <path id="Trazado_105065" data-name="Trazado 105065" d="M483.05,86.385a7.929,7.929,0,0,0,7.929-7.929H483.05Z" fill="#a271dc"/>
        </g>
        <g id="Grupo_56746" data-name="Grupo 56746">
          <path id="Trazado_105066" data-name="Trazado 105066" d="M483.05,87.01a.624.624,0,0,1-.624-.625V78.456a.624.624,0,0,1,.624-.624h7.929a.624.624,0,0,1,.624.624A8.562,8.562,0,0,1,483.05,87.01Zm.624-7.93v6.654a7.316,7.316,0,0,0,6.654-6.654Z" fill="#855db5"/>
        </g>
        <g id="Grupo_56747" data-name="Grupo 56747">
          <path id="Trazado_105067" data-name="Trazado 105067" d="M521.652,79.151h7.966v48.031h-7.966Z" fill="#dcbfff"/>
        </g>
        <g id="Grupo_56748" data-name="Grupo 56748">
          <path id="Trazado_105068" data-name="Trazado 105068" d="M527.824,79.151h1.794v48.031h-1.794Z" fill="#c595ff"/>
        </g>
        <g id="Grupo_56749" data-name="Grupo 56749">
          <path id="Trazado_105069" data-name="Trazado 105069" d="M521.652,79.151h1.793v48.031h-1.793Z" fill="#eadefc"/>
        </g>
        <g id="Grupo_56750" data-name="Grupo 56750">
          <path id="Trazado_105070" data-name="Trazado 105070" d="M521.652,127.182l3.983,7.657,3.983-7.657Z" fill="#dcbfff"/>
        </g>
        <g id="Grupo_56751" data-name="Grupo 56751">
          <path id="Trazado_105071" data-name="Trazado 105071" d="M525.635,135.464a.626.626,0,0,1-.554-.336L521.1,127.47a.624.624,0,0,1,.554-.912h7.966a.624.624,0,0,1,.554.912l-3.983,7.658A.626.626,0,0,1,525.635,135.464Zm-2.954-7.658,2.954,5.681,2.954-5.681Z" fill="#855db5"/>
        </g>
        <g id="Grupo_56752" data-name="Grupo 56752">
          <path id="Trazado_105072" data-name="Trazado 105072" d="M521.652,107.441h7.966V122.2h-7.966Z" fill="#a271dc"/>
        </g>
        <g id="Grupo_56753" data-name="Grupo 56753">
          <path id="Trazado_105073" data-name="Trazado 105073" d="M525.635,72.23a2.8,2.8,0,0,1,2.8,2.8v4.119h-5.6V75.032A2.8,2.8,0,0,1,525.635,72.23Z" fill="#a271dc"/>
        </g>
        <g id="Grupo_56755" data-name="Grupo 56755">
          <g id="Grupo_56754" data-name="Grupo 56754">
            <path id="Trazado_105074" data-name="Trazado 105074" d="M532.706,99.633a1.025,1.025,0,0,1-1.025-1.025V87.066a1.537,1.537,0,0,0-1.537-1.537h-.526v-2.05h.526a3.587,3.587,0,0,1,3.587,3.587V98.608a1.025,1.025,0,0,1-1.025,1.025Z" fill="#bb83ff"/>
          </g>
        </g>
        <g id="Grupo_56757" data-name="Grupo 56757">
          <g id="Grupo_56756" data-name="Grupo 56756">
            <path id="Trazado_105075" data-name="Trazado 105075" d="M532.706,100.257a1.651,1.651,0,0,1-1.649-1.649V87.066a.915.915,0,0,0-.913-.913h-.526a.624.624,0,0,1-.624-.624v-2.05a.624.624,0,0,1,.624-.624h.526a4.216,4.216,0,0,1,4.211,4.211V98.608a1.651,1.651,0,0,1-1.649,1.649Zm-2.464-15.351a2.164,2.164,0,0,1,2.063,2.16V98.608a.4.4,0,0,0,.8,0V87.066a2.966,2.966,0,0,0-2.864-2.961v.8Z" fill="#855db5"/>
          </g>
        </g>
        <g id="Grupo_56758" data-name="Grupo 56758">
          <path id="Trazado_105076" data-name="Trazado 105076" d="M521.652,83.135h7.966v2.737h-7.966Z" fill="#c595ff"/>
        </g>
        <g id="Grupo_56759" data-name="Grupo 56759">
          <path id="Trazado_105077" data-name="Trazado 105077" d="M525.635,72.23a2.819,2.819,0,0,0-.641.076,2.8,2.8,0,0,1,2.162,2.726v4.119h1.281V75.032A2.8,2.8,0,0,0,525.635,72.23Z" fill="#c595ff"/>
        </g>
        <g id="Grupo_56760" data-name="Grupo 56760">
          <path id="Trazado_105078" data-name="Trazado 105078" d="M525.635,72.23a2.826,2.826,0,0,1,.641.076,2.8,2.8,0,0,0-2.162,2.726v4.119h-1.281V75.032A2.8,2.8,0,0,1,525.635,72.23Z" fill="#c595ff"/>
        </g>
        <g id="Grupo_56761" data-name="Grupo 56761">
          <path id="Trazado_105079" data-name="Trazado 105079" d="M527.824,107.441h1.794V122.2h-1.794Z" fill="#bb83ff"/>
        </g>
        <g id="Grupo_56762" data-name="Grupo 56762">
          <path id="Trazado_105080" data-name="Trazado 105080" d="M521.652,107.441h1.793V122.2h-1.793Z" fill="#c595ff"/>
        </g>
        <g id="Grupo_56763" data-name="Grupo 56763">
          <path id="Trazado_105081" data-name="Trazado 105081" d="M527.824,83.135h1.794v2.737h-1.794Z" fill="#bb83ff"/>
        </g>
        <g id="Grupo_56764" data-name="Grupo 56764">
          <path id="Trazado_105082" data-name="Trazado 105082" d="M521.652,83.135h1.793v2.737h-1.793Z" fill="#a271dc"/>
        </g>
        <g id="Grupo_56765" data-name="Grupo 56765">
          <path id="Trazado_105083" data-name="Trazado 105083" d="M528.437,79.775h-5.6a.624.624,0,0,1-.624-.624V75.032a3.427,3.427,0,1,1,6.853,0v4.119A.624.624,0,0,1,528.437,79.775Zm-4.98-1.248h4.356v-3.5a2.178,2.178,0,0,0-4.356,0v3.5Z" fill="#855db5"/>
        </g>
        <g id="Grupo_56766" data-name="Grupo 56766">
          <path id="Trazado_105084" data-name="Trazado 105084" d="M529.362,83.76h-7.454a.625.625,0,0,1,0-1.249h7.454a.625.625,0,0,1,0,1.249Z" fill="#855db5"/>
        </g>
        <g id="Grupo_56767" data-name="Grupo 56767">
          <path id="Trazado_105085" data-name="Trazado 105085" d="M529.362,86.5h-7.454a.624.624,0,1,1,0-1.248h7.454a.624.624,0,1,1,0,1.248Z" fill="#855db5"/>
        </g>
        <g id="Grupo_56768" data-name="Grupo 56768">
          <path id="Trazado_105086" data-name="Trazado 105086" d="M529.618,127.806h-7.966a.624.624,0,0,1-.624-.624V79.151a.624.624,0,0,1,.624-.624h7.966a.624.624,0,0,1,.624.624v48.031A.624.624,0,0,1,529.618,127.806Zm-7.342-1.248h6.718V79.775h-6.718Z" fill="#855db5"/>
        </g>
        <g id="Grupo_56769" data-name="Grupo 56769">
          <path id="Trazado_105087" data-name="Trazado 105087" d="M529.362,108.065h-7.454a.625.625,0,0,1,0-1.249h7.454a.625.625,0,0,1,0,1.249Z" fill="#855db5"/>
        </g>
        <g id="Grupo_56770" data-name="Grupo 56770">
          <path id="Trazado_105088" data-name="Trazado 105088" d="M529.362,122.825h-7.454a.624.624,0,1,1,0-1.248h7.454a.624.624,0,1,1,0,1.248Z" fill="#855db5"/>
        </g>
        <g id="Grupo_56772" data-name="Grupo 56772">
          <g id="Grupo_56771" data-name="Grupo 56771">
            <path id="Trazado_105089" data-name="Trazado 105089" d="M497.67,80.9v-4.9h-2.71a12.08,12.08,0,0,0-1.76-4.238l1.919-1.919-3.463-3.463-1.919,1.919a12.078,12.078,0,0,0-4.238-1.759v-2.71h-4.9v2.71a12.078,12.078,0,0,0-4.238,1.759l-1.919-1.919-3.463,3.463,1.919,1.919a12.079,12.079,0,0,0-1.76,4.238h-2.71v4.9h2.71a12.079,12.079,0,0,0,1.76,4.238l-1.919,1.919,3.463,3.464,1.918-1.919a12.109,12.109,0,0,0,4.239,1.759v2.71h4.9v-2.71a12.1,12.1,0,0,0,4.239-1.759l1.919,1.919,3.463-3.464L493.2,85.143a12.1,12.1,0,0,0,1.759-4.238Zm-14.62,5.48a7.929,7.929,0,1,1,7.929-7.929A7.929,7.929,0,0,1,483.05,86.385Z" fill="#bb83ff"/>
          </g>
        </g>
        <g id="Grupo_56774" data-name="Grupo 56774">
          <g id="Grupo_56773" data-name="Grupo 56773">
            <path id="Trazado_105090" data-name="Trazado 105090" d="M485.5,93.7h-4.9a.625.625,0,0,1-.624-.624V90.865a12.642,12.642,0,0,1-3.526-1.464l-1.566,1.566a.643.643,0,0,1-.883,0L470.539,87.5a.624.624,0,0,1,0-.883l1.566-1.566a12.624,12.624,0,0,1-1.464-3.526H468.43a.624.624,0,0,1-.624-.624v-4.9a.625.625,0,0,1,.624-.624h2.211a12.624,12.624,0,0,1,1.464-3.526l-1.566-1.566a.623.623,0,0,1,0-.882L474,65.946a.624.624,0,0,1,.883,0l1.566,1.565a12.627,12.627,0,0,1,3.526-1.463V63.837a.625.625,0,0,1,.624-.625h4.9a.625.625,0,0,1,.624.625v2.211a12.639,12.639,0,0,1,3.526,1.463l1.566-1.565a.624.624,0,0,1,.883,0l3.462,3.463a.623.623,0,0,1,0,.882l-1.566,1.566a12.624,12.624,0,0,1,1.464,3.526h2.211a.624.624,0,0,1,.624.624v4.9a.624.624,0,0,1-.624.624h-2.211a12.624,12.624,0,0,1-1.464,3.526l1.566,1.565a.624.624,0,0,1,0,.883L492.1,90.967a.643.643,0,0,1-.883,0L489.649,89.4a12.654,12.654,0,0,1-3.526,1.464v2.21a.624.624,0,0,1-.624.625Zm-4.273-1.249h3.648V90.365a.624.624,0,0,1,.5-.611,11.436,11.436,0,0,0,4.02-1.669.623.623,0,0,1,.785.08l1.477,1.477,2.581-2.58-1.478-1.477a.625.625,0,0,1-.08-.786,11.417,11.417,0,0,0,1.669-4.02.624.624,0,0,1,.612-.5h2.086V76.632H494.96a.624.624,0,0,1-.612-.5,11.394,11.394,0,0,0-1.669-4.019.625.625,0,0,1,.08-.786l1.478-1.477-2.581-2.58-1.477,1.477a.624.624,0,0,1-.786.08,11.423,11.423,0,0,0-4.019-1.669.624.624,0,0,1-.5-.611V64.461h-3.648v2.086a.624.624,0,0,1-.5.611,11.416,11.416,0,0,0-4.019,1.669.625.625,0,0,1-.786-.08l-1.477-1.477-2.581,2.58,1.478,1.477a.624.624,0,0,1,.079.786,11.429,11.429,0,0,0-1.668,4.019.625.625,0,0,1-.612.5h-2.086V80.28h2.086a.624.624,0,0,1,.612.5A11.41,11.41,0,0,0,473.42,84.8a.624.624,0,0,1-.079.786l-1.478,1.477,2.581,2.58,1.477-1.477a.624.624,0,0,1,.785-.079,11.407,11.407,0,0,0,4.02,1.668.625.625,0,0,1,.5.612Zm1.824-5.441a8.554,8.554,0,1,1,8.553-8.554A8.564,8.564,0,0,1,483.05,87.01Zm0-15.859a7.305,7.305,0,1,0,7.305,7.305A7.313,7.313,0,0,0,483.05,71.151Z" fill="#855db5"/>
          </g>
        </g>
        <g id="Grupo_56775" data-name="Grupo 56775">
          <path id="Trazado_105091" data-name="Trazado 105091" d="M510.492,101.6H468.12a.625.625,0,0,1,0-1.249h42.372a.625.625,0,0,1,0,1.249Z" fill="#855db5"/>
        </g>
        <g id="Grupo_56776" data-name="Grupo 56776">
          <path id="Trazado_105092" data-name="Trazado 105092" d="M510.492,110.75H468.12a.625.625,0,0,1,0-1.249h42.372a.625.625,0,0,1,0,1.249Z" fill="#855db5"/>
        </g>
        <g id="Grupo_56777" data-name="Grupo 56777">
          <path id="Trazado_105093" data-name="Trazado 105093" d="M510.492,119.9H468.12a.624.624,0,0,1,0-1.248h42.372a.624.624,0,0,1,0,1.248Z" fill="#855db5"/>
        </g>
        <g id="Grupo_56778" data-name="Grupo 56778">
          <path id="Trazado_105094" data-name="Trazado 105094" d="M510.492,129.048H468.12a.624.624,0,0,1,0-1.248h42.372a.624.624,0,0,1,0,1.248Z" fill="#855db5"/>
        </g>
      </g>
    </g>
    <rect id="Rectángulo_5525" data-name="Rectángulo 5525" width="102" height="102" transform="translate(445.906 44.77)" fill="none"/>
  </g>
</svg>
