<svg xmlns="http://www.w3.org/2000/svg" width="80.428" height="80.427" viewBox="0 0 80.428 80.427">
  <g id="Grupo_60080" data-name="Grupo 60080" transform="translate(-269.621 -2636.12)">
    <circle id="Elipse_4097" data-name="Elipse 4097" cx="40.214" cy="40.214" r="40.214" transform="translate(269.621 2636.12)" fill="#855db5"/>
    <g id="Grupo_56712" data-name="Grupo 56712" transform="translate(277.519 2647.055)">
      <g id="Grupo_57846" data-name="Grupo 57846" transform="translate(1.47 3.057)">
        <path id="Trazado_106147" data-name="Trazado 106147" d="M241.131,1064.3a19.8,19.8,0,1,1-39.6,0v-17.836a.6.6,0,0,1,.595-.595h.238a10.7,10.7,0,0,0,10.7-10.7v-1.011a.6.6,0,0,1,.595-.594H229a.6.6,0,0,1,.595.594v1.288a10.7,10.7,0,0,0,10.7,10.7h.238a.6.6,0,0,1,.595.595Z" transform="translate(-200.655 -1032.675)" fill="#dcbfff"/>
        <path id="Trazado_106148" data-name="Trazado 106148" d="M220.874,1036.682v43.46a16.171,16.171,0,0,1-16.171-16.172v-15.636a11.275,11.275,0,0,0,11.276-11.276v-.376Z" transform="translate(-200.256 -1032.282)" fill="#bb83ff"/>
        <path id="Trazado_106149" data-name="Trazado 106149" d="M239.113,1046.746V1064.3a19.8,19.8,0,0,1-19.8,19.8q-.9,0-1.784-.079a19.8,19.8,0,0,0,18.014-19.719v-17.558a.594.594,0,0,0-.595-.595h-.238a10.7,10.7,0,0,1-10.7-10.7v-1.288a.594.594,0,0,0-.593-.594h3.566a.6.6,0,0,1,.595.594v1.288a10.7,10.7,0,0,0,10.7,10.7h.238A.6.6,0,0,1,239.113,1046.746Z" transform="translate(-198.638 -1032.675)" fill="#bb83ff"/>
        <path id="Trazado_106150" data-name="Trazado 106150" d="M220.925,1067.915h-6.242a1.427,1.427,0,0,1-1.427-1.428v-15.338a1.426,1.426,0,0,1,1.427-1.427h6.242Z" transform="translate(-199.177 -1030.637)" fill="#dcbfff"/>
        <path id="Trazado_106151" data-name="Trazado 106151" d="M245.144,1071.692h4.4a2.126,2.126,0,0,0,2.135-2.121,2.082,2.082,0,0,0-2.08-2.042h3.146a2.717,2.717,0,0,0,2.738-2.578,2.676,2.676,0,0,0-2.675-2.773h2.077a2.715,2.715,0,0,0,2.738-2.578,2.675,2.675,0,0,0-2.673-2.772h-2.14a2.675,2.675,0,0,0,2.673-2.774,2.718,2.718,0,0,0-2.738-2.578h-7.36a.594.594,0,0,1-.595-.594L244.787,1040a3.27,3.27,0,0,0-6.54,0v2.8a5.945,5.945,0,0,1-2.753,5.016l-4.872,3.1a3.561,3.561,0,0,1-1.914.557h-3.064l1.038,18.365,1.9,1.075a5.942,5.942,0,0,0,2.931.774h13.573" transform="translate(-197.614 -1032.276)" fill="#fff"/>
        <path id="Trazado_106152" data-name="Trazado 106152" d="M225.84,1069.9h-4.993a1.783,1.783,0,0,1-1.784-1.783v-18.193a1.784,1.784,0,0,1,1.784-1.784h4.993a1.784,1.784,0,0,1,1.784,1.784v18.193A1.783,1.783,0,0,1,225.84,1069.9Z" transform="translate(-198.444 -1030.837)" fill="#fff7e6"/>
        <path id="Trazado_106153" data-name="Trazado 106153" d="M255.316,1057.951a2.72,2.72,0,0,1-2.739,2.578H250.5a2.675,2.675,0,0,1,2.673,2.773,2.718,2.718,0,0,1-2.739,2.579h-3.145a2.082,2.082,0,0,1,2.081,2.042,2.127,2.127,0,0,1-2.136,2.119h-3.566a2.126,2.126,0,0,0,2.135-2.119,2.082,2.082,0,0,0-2.081-2.042h3.146a2.72,2.72,0,0,0,2.739-2.579,2.677,2.677,0,0,0-2.675-2.773h2.076a2.718,2.718,0,0,0,2.739-2.578,2.675,2.675,0,0,0-2.673-2.773h-2.141a2.677,2.677,0,0,0,2.675-2.773,2.72,2.72,0,0,0-2.739-2.579h3.566a2.719,2.719,0,0,1,2.739,2.579,2.675,2.675,0,0,1-2.673,2.773h2.14A2.677,2.677,0,0,1,255.316,1057.951Z" transform="translate(-195.341 -1030.624)" fill="#dcbfff"/>
        <path id="Trazado_106154" data-name="Trazado 106154" d="M243.8,1051.479h-3.56a.594.594,0,0,1-.595-.594L239.643,1040a3.258,3.258,0,0,0-1.486-2.739A3.269,3.269,0,0,1,243.21,1040l.007,10.881A.593.593,0,0,0,243.8,1051.479Z" transform="translate(-196.036 -1032.276)" fill="#dcbfff"/>
        <path id="Trazado_106155" data-name="Trazado 106155" d="M227.264,1049.922v18.193a1.784,1.784,0,0,1-1.784,1.783h-3.566a1.784,1.784,0,0,0,1.784-1.783v-18.193a1.785,1.785,0,0,0-1.784-1.784h3.566A1.785,1.785,0,0,1,227.264,1049.922Z" transform="translate(-198.085 -1030.837)" fill="#e8e8e8"/>
        <path id="Trazado_106156" data-name="Trazado 106156" d="M260.633,1057.528a1.665,1.665,0,0,1-1.142-3,3.63,3.63,0,0,0-3.63-3.437H248.8l-.007-10.584a4.162,4.162,0,0,0-8.323,0v2.8a5.055,5.055,0,0,1-.431,2.045,9.819,9.819,0,0,1-9.438-9.8v-1.288a1.488,1.488,0,0,0-1.487-1.486H213.774a1.488,1.488,0,0,0-1.487,1.486v1.011a9.82,9.82,0,0,1-9.81,9.809h-.238a1.488,1.488,0,0,0-1.487,1.486V1064.4a20.692,20.692,0,0,0,39.475,8.68h12.433a3.069,3.069,0,0,0,2.176-.917,2.917,2.917,0,0,0,.6-3.245h.425a3.631,3.631,0,0,0,3.63-3.437,3.543,3.543,0,0,0-.55-2.037,3.613,3.613,0,0,0,2.689-3.314A3.541,3.541,0,0,0,260.633,1057.528Zm-39.19,25.782a18.927,18.927,0,0,1-18.906-18.906v-17.539a11.607,11.607,0,0,0,11.534-11.592v-.714h14.743v.991a11.611,11.611,0,0,0,10.008,11.484,5.076,5.076,0,0,1-.695.534l-4.873,3.1a2.667,2.667,0,0,1-1.436.419h-1.1a2.679,2.679,0,0,0-2.561-1.9h-4.994a2.679,2.679,0,0,0-2.521,1.784h-4.375a2.322,2.322,0,0,0-2.319,2.319v15.338a2.321,2.321,0,0,0,2.319,2.319h4.221v8.774a15.3,15.3,0,0,1-14.386-15.254v-14.776a12.185,12.185,0,0,0,11.265-11.621h3.122v7.848a.892.892,0,0,0,1.784,0v-8.74a.891.891,0,0,0-.892-.892H216.49a.891.891,0,0,0-.892.892v.376a10.4,10.4,0,0,1-10.384,10.385.891.891,0,0,0-.892.891v15.636a17.083,17.083,0,0,0,17.062,17.063.892.892,0,0,0,.892-.892v-8a2.419,2.419,0,0,0,.654.091h5.232a2.673,2.673,0,0,0,2.14-1.071l.952.538a6.842,6.842,0,0,0,3.372.89h3.618A18.893,18.893,0,0,1,221.443,1083.31Zm-.952-14.149h-4.221a.536.536,0,0,1-.535-.536v-15.338a.535.535,0,0,1,.535-.535h4.221ZM258,1061.788h-6.952a.892.892,0,1,0,0,1.784h4.875a1.783,1.783,0,0,1,1.783,1.849,1.833,1.833,0,0,1-1.847,1.719h-3.146l-.06,0-.059,0h-1.546a.891.891,0,1,0,0,1.783H252.6l.059,0,.06,0a1.2,1.2,0,0,1,1.189,1.167,1.152,1.152,0,0,1-.34.83,1.278,1.278,0,0,1-.9.382H234.625a5.068,5.068,0,0,1-2.492-.657l-1.3-.735v-2.017a.891.891,0,1,0-1.783,0v2.161a.892.892,0,0,1-.892.891H222.93a.655.655,0,0,1-.654-.653v-18.43a.893.893,0,0,1,.892-.892h4.994a.893.893,0,0,1,.892.892v11.87a.891.891,0,1,0,1.783,0v-10.86h.983a4.453,4.453,0,0,0,2.394-.7l4.872-3.1a6.8,6.8,0,0,0,3.167-5.768v-2.8a2.378,2.378,0,0,1,4.756,0l.007,10.88a1.489,1.489,0,0,0,1.487,1.485h7.36a1.833,1.833,0,0,1,1.847,1.718,1.784,1.784,0,0,1-1.783,1.849h-4.875a.892.892,0,1,0,0,1.784h7.016a1.782,1.782,0,0,1,1.782,1.849A1.831,1.831,0,0,1,258,1061.788Z" transform="translate(-200.754 -1032.775)" fill="#a271dc"/>
      </g>
      <rect id="Rectángulo_5525" data-name="Rectángulo 5525" width="64.632" height="58.559" transform="translate(0 0)" fill="none"/>
    </g>
  </g>
</svg>
