<svg xmlns="http://www.w3.org/2000/svg" width="201" height="199" viewBox="0 0 201 199">
  <g id="Grupo_59819" data-name="Grupo 59819" transform="translate(-72.193 -75.357)">
    <rect id="Rectángulo_6365" data-name="Rectángulo 6365" width="201" height="199" transform="translate(72.193 75.357)" fill="none"/>
    <g id="Grupo_59800" data-name="Grupo 59800" transform="translate(-52.231 -2786.736)">
      <path id="Trazado_108104" data-name="Trazado 108104" d="M165.67,3033.4h-10.9a13.621,13.621,0,0,1-13.621-13.621V2903.409a13.621,13.621,0,0,1,13.621-13.621h140.3a13.621,13.621,0,0,1,13.621,13.621v116.368a13.621,13.621,0,0,1-13.621,13.621H165.67Z" fill="#efe1ff"/>
      <path id="Trazado_108105" data-name="Trazado 108105" d="M295.076,2889.788h-140.3a13.621,13.621,0,0,0-13.621,13.621v10.9H308.7v-10.9A13.621,13.621,0,0,0,295.076,2889.788Z" fill="#a271dc"/>
      <path id="Trazado_108106" data-name="Trazado 108106" d="M144.831,2913.86H306.585" transform="translate(0.068 0.447)" fill="#231f20"/>
      <path id="Trazado_108107" data-name="Trazado 108107" d="M212.114,2905.291h76.939a3.406,3.406,0,0,0,0-6.811H212.114a3.406,3.406,0,1,0,0,6.811Z" transform="translate(1.254 0.161)" fill="#dcbfff"/>
      <path id="Trazado_108108" data-name="Trazado 108108" d="M172.641,2905.291a3.408,3.408,0,1,0-2.408-1A3.431,3.431,0,0,0,172.641,2905.291Z" transform="translate(0.521 0.161)" fill="#dcbfff"/>
      <path id="Trazado_108109" data-name="Trazado 108109" d="M159.268,2905.291a3.408,3.408,0,1,0-2.408-1A3.429,3.429,0,0,0,159.268,2905.291Z" transform="translate(0.273 0.161)" fill="#dcbfff"/>
      <path id="Trazado_108110" data-name="Trazado 108110" d="M186.014,2905.291a3.406,3.406,0,1,0-2.408-1A3.431,3.431,0,0,0,186.014,2905.291Z" transform="translate(0.77 0.161)" fill="#dcbfff"/>
      <path id="Trazado_108112" data-name="Trazado 108112" d="M185.1,2935.388a3.4,3.4,0,1,0-2.411-1A3.437,3.437,0,0,0,185.1,2935.388Z" transform="translate(0.753 0.72)" fill="#bb83ff"/>
      <path id="Trazado_108113" data-name="Trazado 108113" d="M156.593,2935.388h16.346a3.406,3.406,0,0,0,0-6.812H156.593a3.406,3.406,0,0,0,0,6.812Z" transform="translate(0.223 0.72)" fill="#bb83ff"/>
      <path id="Trazado_108114" data-name="Trazado 108114" d="M172.939,2951.436a3.406,3.406,0,0,0,0-6.811H156.593a3.406,3.406,0,0,0,0,6.811Z" transform="translate(0.223 1.018)" fill="#bb83ff"/>
    </g>
    <path id="Trazado_108342" data-name="Trazado 108342" d="M1043.254,2429.385a10.481,10.481,0,0,0-10.032,13.532l-23.68,21.059a10.455,10.455,0,0,0-13.982,3.736l-19.537-4.618a10.481,10.481,0,0,0-20.684,3.321l-23.358,14.339a10.492,10.492,0,1,0,5.273,7.067l22.677-13.924a10.454,10.454,0,0,0,14.059-2.262l20.575,4.864a10.483,10.483,0,0,0,20.211-5.428l24.285-21.594a10.484,10.484,0,1,0,4.193-20.092Zm-116.261,62.3a1.706,1.706,0,1,1,1.706-1.705A1.708,1.708,0,0,1,926.993,2491.682Zm38.753-24.8a1.706,1.706,0,1,1,1.707-1.707A1.709,1.709,0,0,1,965.746,2466.883Zm38.755,7.99a1.707,1.707,0,1,1,1.706-1.706A1.709,1.709,0,0,1,1004.5,2474.873Zm38.753-33.3a1.706,1.706,0,1,1,1.707-1.707A1.708,1.708,0,0,1,1043.254,2441.578Z" transform="translate(-812.039 -2275.456)" fill="#855db5"/>
  </g>
</svg>
