<svg xmlns="http://www.w3.org/2000/svg" width="201" height="199" viewBox="0 0 201 199">
  <g id="Grupo_59820" data-name="Grupo 59820" transform="translate(-569.227 -3556.817)">
    <rect id="Rectángulo_6365" data-name="Rectángulo 6365" width="201" height="199" transform="translate(569.227 3556.817)" fill="none"/>
    <g id="Grupo_59824" data-name="Grupo 59824">
      <path id="Trazado_108365" data-name="Trazado 108365" d="M698.941,3665.258a9.866,9.866,0,0,0-4.895-8.523l-31.9-18.61H637.074l-31.9,18.61a9.868,9.868,0,0,0-4.895,8.523v61.667h81.4l17.266-4.934Z" fill="#bb83ff"/>
      <rect id="Rectángulo_6379" data-name="Rectángulo 6379" width="17.267" height="49.333" transform="translate(686.608 3667.725)" fill="#2ab9c4"/>
      <rect id="Rectángulo_6380" data-name="Rectángulo 6380" width="17.267" height="22.2" transform="translate(669.341 3687.458)" fill="#21949d"/>
      <rect id="Rectángulo_6381" data-name="Rectángulo 6381" width="17.267" height="83.867" transform="translate(721.141 3633.191)" fill="#47ecfa"/>
      <rect id="Rectángulo_6382" data-name="Rectángulo 6382" width="17.267" height="69.067" transform="translate(703.875 3647.991)" fill="#31d9e7"/>
      <path id="Trazado_108366" data-name="Trazado 108366" d="M666.875,3709.658a2.466,2.466,0,0,1-2.858,2l-31.352-5.532a12.316,12.316,0,0,1-10.19-12.146v-13.922h4.933v13.922a7.392,7.392,0,0,0,6.114,7.288l31.352,5.532a2.467,2.467,0,0,1,2,2.858Z" fill="#4976f2"/>
      <path id="Trazado_108367" data-name="Trazado 108367" d="M600.275,3726.925v-27.134a27.133,27.133,0,0,0,27.133,27.134Z" fill="#bb83ff"/>
      <path id="Trazado_108368" data-name="Trazado 108368" d="M671.808,3596.192a7.4,7.4,0,0,0-7.4-7.4h-7.4v19.733h14.8Z" fill="#bb83ff"/>
      <path id="Trazado_108369" data-name="Trazado 108369" d="M627.408,3608.525v-7.4a17.267,17.267,0,0,1,17.267-17.267h9.867a7.4,7.4,0,0,1,7.4,7.4v17.267Z" fill="#c595ff"/>
      <path id="Trazado_108370" data-name="Trazado 108370" d="M649.608,3652.925h0a22.2,22.2,0,0,0,22.2-22.2v-24.667l-5.656-5.656a5.955,5.955,0,0,0-4.21-1.744h0a5.955,5.955,0,0,0-4.211,1.744l-3.912,3.912a5.954,5.954,0,0,1-4.211,1.744h0a5.956,5.956,0,0,1-4.211-1.744l-3.911-3.912a5.959,5.959,0,0,0-4.211-1.744h0a5.959,5.959,0,0,0-4.211,1.744l-5.656,5.656v24.667A22.2,22.2,0,0,0,649.608,3652.925Z" fill="#ffceb6"/>
      <path id="Trazado_108371" data-name="Trazado 108371" d="M666.875,3709.658l15.288-10.92a4.036,4.036,0,0,1,4.153-.326h0a4.038,4.038,0,0,1,2.154,4.4l-1.862,9.309,4.127,2.063A19.731,19.731,0,0,0,702.8,3716l6.16-1.026a3.172,3.172,0,0,1,3.359,1.71h0a3.173,3.173,0,0,1-1.419,4.256h0l-7.8,3.9a19.734,19.734,0,0,1-8.825,2.084H666.875Z" fill="#ffceb6"/>
      <rect id="Rectángulo_6383" data-name="Rectángulo 6383" width="9.867" height="9.867" transform="translate(661.942 3665.258)" fill="#f9e478"/>
      <rect id="Rectángulo_6384" data-name="Rectángulo 6384" width="9.867" height="9.867" transform="translate(681.675 3645.525)" fill="#f9e478"/>
      <rect id="Rectángulo_6385" data-name="Rectángulo 6385" width="9.867" height="9.867" transform="translate(701.408 3625.792)" fill="#f9e478"/>
      <rect id="Rectángulo_6386" data-name="Rectángulo 6386" width="9.867" height="4.933" transform="translate(634.808 3613.458)" fill="#855db5"/>
      <path id="Trazado_108372" data-name="Trazado 108372" d="M644.675,3640.591h2.467a7.408,7.408,0,0,0,7.4-7.4v-4.933h-4.934v4.933a2.469,2.469,0,0,1-2.466,2.467h-2.467Z" fill="#855db5"/>
      <circle id="Elipse_4158" data-name="Elipse 4158" cx="2.467" cy="2.467" r="2.467" transform="translate(637.275 3620.858)" fill="#855db5"/>
      <rect id="Rectángulo_6387" data-name="Rectángulo 6387" width="9.867" height="4.933" transform="translate(654.542 3613.458)" fill="#855db5"/>
      <circle id="Elipse_4159" data-name="Elipse 4159" cx="2.467" cy="2.467" r="2.467" transform="translate(657.008 3620.858)" fill="#855db5"/>
      <path id="Trazado_108373" data-name="Trazado 108373" d="M740.875,3633.191a2.467,2.467,0,0,0-2.467-2.466H721.141a2.466,2.466,0,0,0-2.466,2.466v12.334h-14.8a2.466,2.466,0,0,0-2.467,2.466v17.267a12.373,12.373,0,0,0-6.119-10.653l-1.281-.747v-7.311l8.422-8.422h8.845a2.467,2.467,0,0,0,2.466-2.467v-8.845l5.955-5.955h16.245v-4.933H718.675a2.472,2.472,0,0,0-1.745.722l-6.677,6.678h-8.845a2.468,2.468,0,0,0-2.467,2.467v8.844l-8.421,8.422h-8.845a2.466,2.466,0,0,0-2.448,2.177l-7.215-4.209a24.511,24.511,0,0,0,2.263-10.3v-34.533a9.878,9.878,0,0,0-9.867-9.867h-1.327a9.868,9.868,0,0,0-8.539-4.933h-9.867a19.755,19.755,0,0,0-19.733,19.733v29.6a24.494,24.494,0,0,0,2.262,10.3L603.927,3654.6a12.375,12.375,0,0,0-6.119,10.653v61.667a2.467,2.467,0,0,0,2.467,2.466h94.008a22.307,22.307,0,0,0,9.928-2.344l7.8-3.9a5.6,5.6,0,0,0,2.828-3.261c.04-.12.07-.243.1-.364h30.871v-4.934h-4.933Zm-51.8,64.205v-27.205h12.333V3713.7a17.144,17.144,0,0,1-9.57-1.721l-2.442-1.221,1.493-7.461A6.522,6.522,0,0,0,689.075,3697.4Zm-4.934-1.866a6.489,6.489,0,0,0-3.412,1.2l-8.921,6.372v-13.178h12.333Zm19.734-67.272h4.933v4.933h-4.933Zm-19.734,19.733h4.934v4.934h-4.934Zm-54.266-17.266V3607.08l4.933-4.933a3.488,3.488,0,0,1,4.933,0h0l3.911,3.911a8.422,8.422,0,0,0,11.91,0l3.912-3.911a3.487,3.487,0,0,1,4.932,0h0l4.933,4.933v23.645a19.733,19.733,0,0,1-39.466,0Zm39.466-34.533v3.911l-1.444-1.445a8.392,8.392,0,0,0-3.489-2.1v-5.3A4.939,4.939,0,0,1,669.341,3596.192Zm-24.666-9.867h9.867a4.939,4.939,0,0,1,4.933,4.933v5.3a8.392,8.392,0,0,0-3.489,2.1l-3.911,3.912a3.489,3.489,0,0,1-4.933,0h0l-3.912-3.912a8.421,8.421,0,0,0-11.91,0l-1.4,1.4A14.817,14.817,0,0,1,644.675,3586.325Zm-41.933,138.133v-8.324a29.826,29.826,0,0,0,8.324,8.324Zm61.666,0h-37a24.694,24.694,0,0,1-24.666-24.667v-34.533a7.425,7.425,0,0,1,3.671-6.392l23.295-13.589a24.632,24.632,0,0,0,39.8,0l9.7,5.659v3.433l-8.422,8.422h-8.844a2.467,2.467,0,0,0-2.467,2.467v2.467h-14.8v4.933h14.8v2.467a2.466,2.466,0,0,0,2.467,2.466h9.866a2.467,2.467,0,0,0,2.467-2.466v-8.845l8.422-8.422h8.378l1.729,1.008a7.427,7.427,0,0,1,3.671,6.392h-9.867a2.468,2.468,0,0,0-2.467,2.467v17.266h-14.8a2.467,2.467,0,0,0-2.466,2.467v19.169l-.591.422-32.762-5.781a7.392,7.392,0,0,1-6.114-7.288v-13.922h-4.933v13.922a12.316,12.316,0,0,0,10.19,12.146l31.743,5.6Zm4.933-56.733v4.933h-4.933v-4.933Zm40.814,50.6a.691.691,0,0,1-.354.408l-7.8,3.9a17.349,17.349,0,0,1-7.722,1.823H669.341v-13.531l14.255-10.182a1.572,1.572,0,0,1,2.455,1.587l-1.862,9.309a2.467,2.467,0,0,0,1.316,2.69l4.127,2.063a22.06,22.06,0,0,0,13.578,2.042l6.159-1.026a.7.7,0,0,1,.812.579.714.714,0,0,1-.026.34Zm-1.6-5.786-2.217.37v-62.455h12.334v64.133h-4.783a5.606,5.606,0,0,0-5.334-2.048Zm15.05,2.048v-78.933h12.333v78.933Z" fill="#855db5"/>
      <rect id="Rectángulo_6388" data-name="Rectángulo 6388" width="7.4" height="4.933" transform="translate(726.075 3724.458)" fill="#855db5"/>
      <rect id="Rectángulo_6389" data-name="Rectángulo 6389" width="7.4" height="4.933" transform="translate(711.275 3724.458)" fill="#855db5"/>
      <rect id="Rectángulo_6390" data-name="Rectángulo 6390" width="4.933" height="4.933" transform="translate(740.875 3615.925)"/>
      <rect id="Rectángulo_6391" data-name="Rectángulo 6391" width="4.933" height="4.933" transform="translate(634.808 3667.725)" fill="#855db5"/>
    </g>
  </g>
</svg>
