<svg xmlns="http://www.w3.org/2000/svg" width="179.237" height="163.289" viewBox="0 0 179.237 163.289">
  <g id="Grupo_60077" data-name="Grupo 60077" transform="translate(-851.981 -5170.281)">
    <rect id="Rectángulo_6456" data-name="Rectángulo 6456" width="179.237" height="163.289" transform="translate(851.981 5170.281)" fill="none"/>
    <path id="Trazado_108696" data-name="Trazado 108696" d="M955.95,5304.371H935.906l1.647-24.163H954.3Z" fill="#855db5"/>
    <path id="Trazado_108697" data-name="Trazado 108697" d="M958.577,5300.5a1.31,1.31,0,0,0-1.088-.581H934.368a1.313,1.313,0,0,0-1.089.581l-3.028,4.519a1.31,1.31,0,0,0,1.088,2.039h29.178a1.309,1.309,0,0,0,1.088-2.039Z" fill="#a271dc"/>
    <rect id="Rectángulo_6457" data-name="Rectángulo 6457" width="109.435" height="73.358" rx="5.641" transform="translate(891.211 5213.273)" fill="#a271dc"/>
    <rect id="Rectángulo_6458" data-name="Rectángulo 6458" width="99.358" height="62.878" transform="translate(896.249 5218.134)" fill="#fefefe"/>
    <rect id="Rectángulo_6459" data-name="Rectángulo 6459" width="94.393" height="56.031" transform="translate(898.731 5224.981)" fill="#e5e6ed"/>
    <rect id="Rectángulo_6460" data-name="Rectángulo 6460" width="94.393" height="4.635" transform="translate(898.731 5224.981)" fill="#b3eef6"/>
    <rect id="Rectángulo_6461" data-name="Rectángulo 6461" width="29.315" height="3.87" transform="translate(959.228 5244.735)" fill="#fefefe"/>
    <rect id="Rectángulo_6462" data-name="Rectángulo 6462" width="29.315" height="3.87" transform="translate(959.228 5251.576)" fill="#fefefe"/>
    <rect id="Rectángulo_6463" data-name="Rectángulo 6463" width="29.315" height="3.869" transform="translate(959.228 5258.417)" fill="#fefefe"/>
    <rect id="Rectángulo_6464" data-name="Rectángulo 6464" width="29.315" height="3.87" transform="translate(907.437 5234.269)" fill="#fefefe"/>
    <rect id="Rectángulo_6465" data-name="Rectángulo 6465" width="29.315" height="3.869" transform="translate(907.437 5241.109)" fill="#fefefe"/>
    <path id="Trazado_108698" data-name="Trazado 108698" d="M935.386,5242.305H880.041a3.509,3.509,0,0,0-3.509,3.509v17.847a3.509,3.509,0,0,0,3.509,3.509h34.673l13.207,11.229-6.271-11.229h13.736a3.509,3.509,0,0,0,3.509-3.509v-17.847A3.509,3.509,0,0,0,935.386,5242.305Z" fill="#f17781"/>
    <rect id="Rectángulo_6466" data-name="Rectángulo 6466" width="37.297" height="2.147" transform="translate(897.387 5247.118)" fill="#fff"/>
    <rect id="Rectángulo_6467" data-name="Rectángulo 6467" width="37.297" height="2.147" transform="translate(897.387 5251.499)" fill="#fff"/>
    <rect id="Rectángulo_6468" data-name="Rectángulo 6468" width="37.297" height="2.147" transform="translate(897.387 5255.88)" fill="#fff"/>
    <rect id="Rectángulo_6469" data-name="Rectángulo 6469" width="24.755" height="2.147" transform="translate(897.387 5260.261)" fill="#fff"/>
    <path id="Trazado_108699" data-name="Trazado 108699" d="M894.434,5254.354a7.2,7.2,0,1,1-7.2-7.195A7.2,7.2,0,0,1,894.434,5254.354Z" fill="#855db5"/>
    <ellipse id="Elipse_4184" data-name="Elipse 4184" cx="2.031" cy="2.094" rx="2.031" ry="2.094" transform="translate(885.208 5250.121)" fill="#fff"/>
    <path id="Trazado_108700" data-name="Trazado 108700" d="M887.275,5254.624H887.2a3.6,3.6,0,0,0-3.605,3.6v2.3a7,7,0,0,0,7.283,0v-2.3A3.6,3.6,0,0,0,887.275,5254.624Z" fill="#fff"/>
    <path id="Trazado_108701" data-name="Trazado 108701" d="M1002.533,5195.993H947.188a3.509,3.509,0,0,0-3.509,3.509v17.847a3.509,3.509,0,0,0,3.509,3.509h16.024l-4.293,11.23,11.229-11.23h32.385a3.509,3.509,0,0,0,3.509-3.509V5199.5A3.509,3.509,0,0,0,1002.533,5195.993Z" fill="#d0d1de"/>
    <rect id="Rectángulo_6470" data-name="Rectángulo 6470" width="37.297" height="2.148" transform="translate(964.533 5200.806)" fill="#fff"/>
    <rect id="Rectángulo_6471" data-name="Rectángulo 6471" width="37.297" height="2.147" transform="translate(964.533 5205.187)" fill="#fff"/>
    <rect id="Rectángulo_6472" data-name="Rectángulo 6472" width="37.297" height="2.147" transform="translate(964.533 5209.568)" fill="#fff"/>
    <rect id="Rectángulo_6473" data-name="Rectángulo 6473" width="24.755" height="2.147" transform="translate(964.533 5213.95)" fill="#fff"/>
    <path id="Trazado_108702" data-name="Trazado 108702" d="M961.58,5208.042a7.2,7.2,0,1,1-7.2-7.195A7.2,7.2,0,0,1,961.58,5208.042Z" fill="#855db5"/>
    <path id="Trazado_108703" data-name="Trazado 108703" d="M956.415,5205.9a2.031,2.031,0,1,1-2.03-2.094A2.063,2.063,0,0,1,956.415,5205.9Z" fill="#fff"/>
    <path id="Trazado_108704" data-name="Trazado 108704" d="M954.421,5208.312h-.072a3.6,3.6,0,0,0-3.6,3.6v2.3a7,7,0,0,0,7.282,0v-2.3A3.6,3.6,0,0,0,954.421,5208.312Z" fill="#fff"/>
    <rect id="Rectángulo_6474" data-name="Rectángulo 6474" width="28.417" height="9.019" rx="3.233" transform="translate(961.829 5268.575)" fill="#f17781"/>
    <g id="Grupo_60076" data-name="Grupo 60076">
      <path id="Trazado_108705" data-name="Trazado 108705" d="M973.193,5271.972a.975.975,0,0,1-.759.953,1.085,1.085,0,0,1,.9,1.109c0,.752-.658,1.222-1.693,1.222h-2.168v-4.393h2.087C972.56,5270.863,973.193,5271.295,973.193,5271.972Zm-1.178.2c0-.263-.2-.42-.515-.413h-.878v.853h.878C971.82,5272.612,972.015,5272.448,972.015,5272.172Zm.137,1.718c0-.276-.251-.452-.652-.445h-.878v.921h.878C971.9,5274.366,972.152,5274.191,972.152,5273.89Z" fill="#fff"/>
      <path id="Trazado_108706" data-name="Trazado 108706" d="M975.928,5274.329a.832.832,0,0,0,.859-.915v-2.551h1.147v2.551a2.029,2.029,0,0,1-4.049,0v-2.551h1.148v2.551A.856.856,0,0,0,975.928,5274.329Z" fill="#fff"/>
      <path id="Trazado_108707" data-name="Trazado 108707" d="M981.014,5273.852v1.4h-1.147v-1.372l-1.618-3.021H979.4l1.041,1.887,1.015-1.887H982.6Z" fill="#fff"/>
    </g>
    <path id="Trazado_108708" data-name="Trazado 108708" d="M949.278,5239.956a16.33,16.33,0,0,1-4.441.2,6.611,6.611,0,0,1-1.559-.34c.072,1.849.086,6.183-1.23,7.977,0,0,.474,2.131,4.321,2.194s4.281-2.839,4.281-2.839A38.029,38.029,0,0,1,949.278,5239.956Z" fill="#f88667"/>
    <path id="Trazado_108709" data-name="Trazado 108709" d="M942.069,5247.858a1.571,1.571,0,0,0,.059.151l.009.019a1.952,1.952,0,0,0,.119.224l.006.011a2.682,2.682,0,0,0,.2.273l.033.039a3.171,3.171,0,0,0,.7.606l.051.033a4.029,4.029,0,0,0,.52.273l.078.032a5.107,5.107,0,0,0,.675.23,5.428,5.428,0,0,1,1.134-2.731,6.8,6.8,0,0,1,4.332-2.515,25.93,25.93,0,0,1-.7-4.547,16.33,16.33,0,0,1-4.441.2,6.611,6.611,0,0,1-1.559-.34c.072,1.849.086,6.183-1.23,7.977l.013.046Z" fill="#e45940"/>
    <path id="Trazado_108710" data-name="Trazado 108710" d="M943.948,5229.578s6.3-1.862,7.308-.335.822,3.994,1.24,5.08,1.983,2.232,2.15,2.667-1.048,1.264-1.217,1.6-.8,3.908-1.9,4.695-6.965-1.3-8.419-4.075S942.257,5230.491,943.948,5229.578Z" fill="#f88667"/>
    <path id="Trazado_108711" data-name="Trazado 108711" d="M946.819,5230.685a6.253,6.253,0,0,1-.664,3.257c-.377.754,1.506,2.759.981,3.671-.349.606-.859.453-1.322-.746a1.822,1.822,0,0,0-1.019-.871c-1.543-.667-1.9,1.684-.519,2.382.969.489.393,2.941.393,2.941-1.04.8-4.478-.164-4.1-2.674.24-1.6.346-2.206-.214-2.6-1.013-.7-2.332-2.66-.664-4.318,2.3-2.285.2-3.011,2.859-3.67S947.4,5229.025,946.819,5230.685Z" fill="#110239"/>
    <path id="Trazado_108712" data-name="Trazado 108712" d="M942.116,5229.342c.149-.58,1.2-1.327,1.716-1.714a7.673,7.673,0,0,1,2.72-1.227,7.029,7.029,0,0,1,3.03-.1c.862.165,1.585.548,2.467.648a2.847,2.847,0,0,0,2.2-.426,5.639,5.639,0,0,1,.108,1.994,6.236,6.236,0,0,1-1.134,2.193c-1.278,1.908-4.758,2.965-7.21,1.956a5.114,5.114,0,0,1-2.831-1.939A6.179,6.179,0,0,0,942.116,5229.342Z" fill="#110239"/>
    <path id="Trazado_108713" data-name="Trazado 108713" d="M975.765,5233.452l6.094,13.527s-1.784,2.007-2.378,1.561-9.737-11.421-10.629-11.991S975.765,5233.452,975.765,5233.452Z" fill="#bb83ff"/>
    <path id="Trazado_108714" data-name="Trazado 108714" d="M960.652,5235.137s.025,3.89,2.4,4.781c0,0,12.189-5.05,14.642-5.535s11.372-.559,11.372-.559l-8.994-16.055s-4.31,8.622-8.25,11.447S960.652,5235.137,960.652,5235.137Z" fill="#f17781"/>
    <path id="Trazado_108715" data-name="Trazado 108715" d="M968.558,5237.689c.964-.383,1.97-.779,2.961-1.162a12.408,12.408,0,0,1-2.566-5.5c-.924.53-1.882,1.04-2.809,1.515A11.181,11.181,0,0,0,968.558,5237.689Z" fill="#bb83ff"/>
    <path id="Trazado_108716" data-name="Trazado 108716" d="M992.388,5221.9c2.539,6.124,1.642,12.314-2,13.825s-8.659-2.227-11.2-8.351-1.642-12.313,2-13.825S989.85,5215.775,992.388,5221.9Z" fill="#2ab9c4"/>
    <path id="Trazado_108717" data-name="Trazado 108717" d="M991.9,5222.1c2.159,5.21,1.4,10.475-1.7,11.761s-7.367-1.9-9.526-7.1-1.4-10.475,1.7-11.761S989.737,5216.893,991.9,5222.1Z" fill="#a271dc"/>
    <path id="Trazado_108718" data-name="Trazado 108718" d="M974.964,5243.193c-.29-.176-.208-1.265-.15-1.548.093-.443.4-1.021.092-1.445-.544-.75-1.309,1.267-1.408,1.559a2.119,2.119,0,0,0-.14,1.344,5.31,5.31,0,0,0,1.166,1.762c-.056.2-.118.409-.194.631a13.348,13.348,0,0,1,1.469.744c.588.339.557.759,1.108,1.137l.55-1.264A26.026,26.026,0,0,0,974.964,5243.193Z" fill="#f88667"/>
    <path id="Trazado_108719" data-name="Trazado 108719" d="M978.868,5238.766c-.526-.567-1.347-.349-1.984.115-.466.34-1.806,1.425-1.445,2.211.3.653,2.025-.793,2.025-.793-.635.546-1.819.983-1.522,1.53.333.611,1.839-.259,2.168-.5-.338.087-2.02,1.108-1.347,1.641.462.364,1.7-.4,2.069-.662-.5.151-1.172.591-1.041,1.279.216.376.966.127,1.384-.043.63-.256,1.223-.354,1.274-1.138a3.477,3.477,0,0,0,.022-.425,4.286,4.286,0,0,0-.555-1.7A7.408,7.408,0,0,0,978.868,5238.766Z" fill="#f88667"/>
    <path id="Trazado_108720" data-name="Trazado 108720" d="M914.7,5243.256a6.923,6.923,0,0,1-.7-1.5c-.157-.449-.268-.908-.423-1.357a3.509,3.509,0,0,1-.3-1.329,3.83,3.83,0,0,1,.163-.811c.09-.345.216-.681.287-1.03.063-.311.036-.613.1-.923a5.491,5.491,0,0,1,.537-1.7,6.368,6.368,0,0,1,.783-1.078,4.116,4.116,0,0,1,.463-.5,1.22,1.22,0,0,0,.425-.522.5.5,0,0,0-.364-.673,1.871,1.871,0,0,0-1.728.565c-.459.632-.675,1.406-1.187,2.015-1.563,1.862-3.03-.33-4.855-1.119a10.9,10.9,0,0,1-1.762-1.136c-.327-.245-1.727-1.576-2.389-1.229-.487.255.466,1.373.927,1.646.182.108,1.745,1.377,1.949,1.438a9.9,9.9,0,0,1-2.621-1.623c-.692-.541-1.362-1.074-1.74-.766-1.16.952,3.394,3.128,3.75,3.328-.38.032-3.945-2.493-4.283-1.565-.185.51.555,1.016,1.16,1.345.759.413,2.032.708,2.319.931-.537.182-2.9-1.424-2.9-.444,0,.642,1.466,1.122,2.018,1.29.568.173,2.238,1.309,2.767,1.561,1.763.84,2.49.742,3.185,1.8.443.673,1.232,4.227,1.871,5.58Z" fill="#f88667"/>
    <path id="Trazado_108721" data-name="Trazado 108721" d="M974.2,5245.013c-1.571,4.575-4.933,12.669-6.042,12.1-2.081-1.066-6.561-4.729-9.907-6.969a23.472,23.472,0,0,0-3.892-2.242l2.33,11.046s11.043,8.387,13.356,7.1c1.819-1.011,6.3-13.764,7.878-19.049C977.926,5247,974.229,5245.033,974.2,5245.013Z" fill="#2ab9c4"/>
    <path id="Trazado_108722" data-name="Trazado 108722" d="M963.046,5260.769a74.883,74.883,0,0,0-7.279-7.258l.371,5.239s11.131,8.368,13.595,7.323C967.612,5264.709,964.558,5262.732,963.046,5260.769Z" fill="#21949d"/>
    <path id="Trazado_108723" data-name="Trazado 108723" d="M935.4,5248.488s-13.58,5.482-15.058,5.1-6.4-14.387-6.4-14.387l-4.113,1.671s4.393,20.195,7.22,21.139,19.683-3.925,19.683-3.925A28.579,28.579,0,0,0,935.4,5248.488Z" fill="#2ab9c4"/>
    <path id="Trazado_108724" data-name="Trazado 108724" d="M923.818,5260.748c-1.2.429-2.415.852-3.638,1.212,5.761-.761,16.554-3.878,16.554-3.878a29.623,29.623,0,0,0-.295-5.133C933.095,5256.57,928.34,5259.125,923.818,5260.748Z" fill="#21949d"/>
    <path id="Trazado_108725" data-name="Trazado 108725" d="M985.461,5225.831a3.448,3.448,0,0,0-4.175-2.48,2.906,2.906,0,0,0-1.4,1.016,16.827,16.827,0,0,0,.784,2.392,16.2,16.2,0,0,0,2.1,3.655,2.835,2.835,0,0,0,.773-.126A3.447,3.447,0,0,0,985.461,5225.831Z" fill="#d0d1de"/>
    <path id="Trazado_108726" data-name="Trazado 108726" d="M935.427,5265.007c-.48,4.714-.853,14.621-1.135,16.005h22.282a206.331,206.331,0,0,0-.1-22.063,42.684,42.684,0,0,0-2.33-11.046s-1.664-.526-3.637-1.286c0,0-4.1,2.507-7.92.034,0,0-6.894,1.633-7.728,2.031C934.165,5249.012,935.939,5259.974,935.427,5265.007Z" fill="#2ab9c4"/>
    <path id="Trazado_108727" data-name="Trazado 108727" d="M941.32,5271.46a17.581,17.581,0,0,0-1.275-6.429,5.773,5.773,0,0,1-.409-1.442,9.569,9.569,0,0,0-.943-3.292c-.5-.752-1-1.5-1.495-2.258-.274-.37-.561-.763-.878-1.226a21.153,21.153,0,0,1-1.361-2.408c.261,3.461.724,8.083.468,10.6-.48,4.714-.853,14.621-1.135,16.005h10.37a19.322,19.322,0,0,1-2.916-6.349A11.41,11.41,0,0,1,941.32,5271.46Z" fill="#21949d"/>
  </g>
</svg>
