<svg xmlns="http://www.w3.org/2000/svg" width="409.114" height="266.284" viewBox="0 0 409.114 266.284">
  <g id="Grupo_59714" data-name="Grupo 59714" transform="translate(-106.823 -2382.076)">
    <g id="Grupo_59632" data-name="Grupo 59632" transform="translate(160.301 2382.076)">
      <rect id="Rectángulo_6333" data-name="Rectángulo 6333" width="324.842" height="149.368" rx="7.177" fill="#dcbfff"/>
    </g>
    <g id="Grupo_59633" data-name="Grupo 59633" transform="translate(223.339 2426.681)">
      <path id="Trazado_107946" data-name="Trazado 107946" d="M231.37,2448.385h30.184A30.185,30.185,0,1,1,231.37,2418.2h0Z" transform="translate(-201.184 -2418.2)" fill="#a271dc"/>
    </g>
    <g id="Grupo_59634" data-name="Grupo 59634" transform="translate(253.524 2426.681)">
      <path id="Trazado_107947" data-name="Trazado 107947" d="M225.63,2448.385V2418.2a30.186,30.186,0,0,1,30.184,30.186H225.63Z" transform="translate(-225.63 -2418.2)" fill="#c595ff"/>
    </g>
    <g id="Grupo_59635" data-name="Grupo 59635" transform="translate(396.597 2426.469)">
      <path id="Trazado_107948" data-name="Trazado 107948" d="M371.691,2448.214l-28.708-9.328a30.185,30.185,0,1,0,38.035-19.379,28.665,28.665,0,0,0-9.328-1.478Z" transform="translate(-341.498 -2418.028)" fill="#855db5"/>
    </g>
    <g id="Grupo_59636" data-name="Grupo 59636" transform="translate(397.969 2426.474)">
      <path id="Trazado_107949" data-name="Trazado 107949" d="M371.317,2448.217v-30.185a29.709,29.709,0,0,0-28.708,20.857Z" transform="translate(-342.609 -2418.032)" fill="#c595ff"/>
    </g>
    <g id="Grupo_59637" data-name="Grupo 59637" transform="translate(309.96 2426.469)">
      <path id="Trazado_107950" data-name="Trazado 107950" d="M301.528,2448.214l28.708-9.328a30.185,30.185,0,1,1-38.035-19.379,28.666,28.666,0,0,1,9.328-1.478Z" transform="translate(-271.335 -2418.028)" fill="#c595ff"/>
    </g>
    <g id="Grupo_59638" data-name="Grupo 59638" transform="translate(340.267 2426.474)">
      <path id="Trazado_107951" data-name="Trazado 107951" d="M295.879,2448.217v-30.185a29.709,29.709,0,0,1,28.708,20.857Z" transform="translate(-295.879 -2418.032)" fill="#855db5"/>
    </g>
    <path id="Trazado_107952" data-name="Trazado 107952" d="M203.252,2612.317l-2.4-87.553,37.449-.908,4.031,88.461Z" transform="translate(22.078 33.288)" fill="#2ab9c4"/>
    <path id="Trazado_107953" data-name="Trazado 107953" d="M155.882,2613.222l13.809-91.63,45.158-1.586-14.879,93.216Z" transform="translate(11.518 32.384)" fill="#2ab9c4"/>
    <path id="Trazado_107954" data-name="Trazado 107954" d="M166.973,2533.316a39.627,39.627,0,1,1,79.255,0C246.228,2535.735,166.973,2535.735,166.973,2533.316Z" transform="translate(14.122 26.205)" fill="#2ab9c4"/>
    <path id="Trazado_107955" data-name="Trazado 107955" d="M180.317,2512.313h50.2a15.715,15.715,0,0,1,15.715,15.716h0a13.344,13.344,0,0,1-13.344,13.344H180.317a13.345,13.345,0,0,1-13.344-13.344v-2.372A13.344,13.344,0,0,1,180.317,2512.313Z" transform="translate(14.122 30.578)" fill="#2ab9c4"/>
    <path id="Trazado_107956" data-name="Trazado 107956" d="M171.892,2512.228a39.635,39.635,0,0,1,68.229,1.9Z" transform="translate(15.277 26.205)" fill="#21949d"/>
    <g id="Grupo_59639" data-name="Grupo 59639" transform="translate(174.279 2519.314)">
      <path id="Trazado_107957" data-name="Trazado 107957" d="M162.6,2616.406l-1.146-.17c2.267-15.209,13.6-91.142,14.173-92.405a40.028,40.028,0,0,1,39.042-30.612v1.158a38.926,38.926,0,0,0-37.952,29.83C176.142,2526.019,167.232,2585.3,162.6,2616.406Z" transform="translate(-161.453 -2493.219)" fill="#00111c"/>
    </g>
    <g id="Grupo_59640" data-name="Grupo 59640" transform="translate(220.657 2571.219)">
      <rect id="Rectángulo_6334" data-name="Rectángulo 6334" width="13.54" height="1.158" fill="#00111c"/>
    </g>
    <g id="Grupo_59641" data-name="Grupo 59641" transform="translate(222.786 2524.858)">
      <rect id="Rectángulo_6335" data-name="Rectángulo 6335" width="1.158" height="46.939" fill="#00111c"/>
    </g>
    <g id="Grupo_59642" data-name="Grupo 59642" transform="translate(223.365 2535.69)">
      <path id="Trazado_107958" data-name="Trazado 107958" d="M201.205,2543.168v-1.158a6.65,6.65,0,0,0,6.643-6.642v-28.887h1.157v28.887A7.809,7.809,0,0,1,201.205,2543.168Z" transform="translate(-201.205 -2506.481)" fill="#00111c"/>
    </g>
    <g id="Grupo_59643" data-name="Grupo 59643" transform="translate(187.532 2537.079)">
      <path id="Trazado_107959" data-name="Trazado 107959" d="M172.186,2528.46V2527.3a6.649,6.649,0,0,0,6.642-6.642l-.007-13.053h1.158l.007,13.054A7.81,7.81,0,0,1,172.186,2528.46Z" transform="translate(-172.186 -2507.606)" fill="#00111c"/>
    </g>
    <g id="Grupo_59644" data-name="Grupo 59644" transform="translate(226.397 2571.773)">
      <rect id="Rectángulo_6336" data-name="Rectángulo 6336" width="1.157" height="74.23" transform="matrix(0.999, -0.043, 0.043, 0.999, 0, 0.049)" fill="#00111c"/>
    </g>
    <g id="Grupo_59657" data-name="Grupo 59657" transform="translate(241.437 2465.374)">
      <g id="Grupo_59647" data-name="Grupo 59647">
        <rect id="Rectángulo_6337" data-name="Rectángulo 6337" width="24.659" height="31.288" transform="translate(3.325 29.747) rotate(-9.296)" fill="#bb2700"/>
        <g id="Grupo_59645" data-name="Grupo 59645" transform="translate(0.664 0.577)">
          <path id="Trazado_107960" data-name="Trazado 107960" d="M216.6,2464.325a12.33,12.33,0,1,0,10.176-14.159A12.331,12.331,0,0,0,216.6,2464.325Z" transform="translate(-216.366 -2450.002)" fill="#fff"/>
          <rect id="Rectángulo_6338" data-name="Rectángulo 6338" width="24.659" height="17.438" transform="translate(0 12.914) rotate(-9.296)" fill="#fff"/>
        </g>
        <g id="Grupo_59646" data-name="Grupo 59646">
          <path id="Trazado_107961" data-name="Trazado 107961" d="M218.845,2480.9l-3-18.351.16-.026a12.9,12.9,0,0,1,25.307-3.624l.326,1.424,2.687,16.407Zm-1.676-17.4,2.63,16.066,23.193-3.8-2.493-15.229-.311-1.359a11.744,11.744,0,0,0-23.016,3.8l.023.515Z" transform="translate(-215.841 -2449.535)" fill="#00111c"/>
        </g>
      </g>
      <g id="Grupo_59649" data-name="Grupo 59649" transform="translate(4.601 18.229)">
        <circle id="Elipse_4130" data-name="Elipse 4130" cx="12.329" cy="12.329" r="12.329" transform="translate(0 49.136) rotate(-73.603)" fill="#bb2700"/>
        <path id="Trazado_107962" data-name="Trazado 107962" d="M261.008,2464.643l13.325,13.471-31.947,35.616L225.045,2496.2Z" transform="translate(-218.281 -2464.217)" fill="#bb2700"/>
        <g id="Grupo_59648" data-name="Grupo 59648" transform="translate(6.375)">
          <rect id="Rectángulo_6339" data-name="Rectángulo 6339" width="47.845" height="1.158" transform="matrix(0.752, -0.659, 0.659, 0.752, 0, 31.539)" fill="#00111c"/>
        </g>
      </g>
      <g id="Grupo_59656" data-name="Grupo 59656" transform="translate(42.165 5.658)">
        <path id="Trazado_107963" data-name="Trazado 107963" d="M274.932,2461.15l-.9,22.541-11.133.452-1.075-22.362Z" transform="translate(-247.21 -2452.466)" fill="#bb2700"/>
        <circle id="Elipse_4131" data-name="Elipse 4131" cx="12.369" cy="12.369" r="12.369" transform="translate(0 10.615) rotate(-15.402)" fill="#bb2700"/>
        <path id="Trazado_107964" data-name="Trazado 107964" d="M285.712,2477.241h0a3.079,3.079,0,0,1-3.075,3.062l-10.911.32-.088-6.163,10.956-.247A3.07,3.07,0,0,1,285.712,2477.241Z" transform="translate(-244.905 -2449.399)" fill="#bb2700"/>
        <path id="Trazado_107965" data-name="Trazado 107965" d="M289.156,2472.34h0a3.08,3.08,0,0,1-3.073,3.064l-15.69.348,2.174-6.177,13.473-.263A3.07,3.07,0,0,1,289.156,2472.34Z" transform="translate(-245.198 -2450.55)" fill="#bb2700"/>
        <g id="Grupo_59650" data-name="Grupo 59650" transform="translate(2.39 20.926)">
          <path id="Trazado_107966" data-name="Trazado 107966" d="M264.721,2482.331a12.9,12.9,0,0,1-12.8-11.1l1.146-.164a11.75,11.75,0,0,0,12.127,10.1l22.053-.7a2.508,2.508,0,0,0,2.512-2.482,2.419,2.419,0,0,0-.743-1.735,2.529,2.529,0,0,0-1.777-.716h-.014l-9.8.131-.016-1.157,9.8-.132a3.837,3.837,0,0,1,2.609,1.044,3.565,3.565,0,0,1,1.093,2.561,3.665,3.665,0,0,1-3.646,3.644l-22.034.7C265.066,2482.328,264.893,2482.331,264.721,2482.331Z" transform="translate(-251.924 -2471.064)" fill="#00111c"/>
        </g>
        <g id="Grupo_59651" data-name="Grupo 59651" transform="translate(27.194 18.184)">
          <path id="Trazado_107967" data-name="Trazado 107967" d="M272.016,2476.127l0-1.157,13.689-.036a2.5,2.5,0,0,0,2.5-2.482,2.419,2.419,0,0,0-.726-1.719,2.532,2.532,0,0,0-1.793-.732h-.016l-13.464.263-.022-1.157,13.473-.263h.022a3.684,3.684,0,0,1,2.615,1.067,3.575,3.575,0,0,1,1.069,2.537,3.664,3.664,0,0,1-3.646,3.643Z" transform="translate(-272.012 -2468.844)" fill="#00111c"/>
        </g>
        <path id="Trazado_107968" data-name="Trazado 107968" d="M289.367,2463.091h0a3.079,3.079,0,0,1-2.991,3.144l-13.42.636-7.01-6.811,20.223.088A3.071,3.071,0,0,1,289.367,2463.091Z" transform="translate(-246.242 -2452.722)" fill="#bb2700"/>
        <path id="Trazado_107969" data-name="Trazado 107969" d="M269.81,2454.677c2.121.561,3.128,3.59,1.866,5.6l-3.554,5.654-12.137-2.229c1.545-1.17,10.58-8.445,12.087-8.94A3.025,3.025,0,0,1,269.81,2454.677Z" transform="translate(-248.581 -2454.007)" fill="#bb2700"/>
        <g id="Grupo_59652" data-name="Grupo 59652" transform="translate(22.437 6.684)">
          <path id="Trazado_107970" data-name="Trazado 107970" d="M285.879,2466.938l-.043-1.156a2.506,2.506,0,0,0,2.432-2.547,2.413,2.413,0,0,0-.772-1.7,2.542,2.542,0,0,0-1.826-.686l-17.512-.162.011-1.158,17.487.163a3.679,3.679,0,0,1,2.633,1,3.572,3.572,0,0,1,1.136,2.506A3.664,3.664,0,0,1,285.879,2466.938Z" transform="translate(-268.159 -2459.53)" fill="#00111c"/>
        </g>
        <path id="Trazado_107971" data-name="Trazado 107971" d="M291.246,2467.667h0a3.08,3.08,0,0,1-2.991,3.144l-16.478.79.29-6.233,15.983-.645A3.07,3.07,0,0,1,291.246,2467.667Z" transform="translate(-244.873 -2451.628)" fill="#bb2700"/>
        <g id="Grupo_59653" data-name="Grupo 59653" transform="translate(27.171 12.515)">
          <path id="Trazado_107972" data-name="Trazado 107972" d="M272.3,2472.216l-.052-1.157,15.935-.717a2.506,2.506,0,0,0,2.437-2.547,2.417,2.417,0,0,0-.772-1.7,2.6,2.6,0,0,0-1.826-.685l-15.978.646-.047-1.157,15.983-.645a3.69,3.69,0,0,1,2.661,1,3.579,3.579,0,0,1,1.137,2.508,3.668,3.668,0,0,1-3.548,3.74Z" transform="translate(-271.993 -2464.253)" fill="#00111c"/>
        </g>
        <g id="Grupo_59654" data-name="Grupo 59654" transform="translate(26.24 9.05)">
          <rect id="Rectángulo_6340" data-name="Rectángulo 6340" width="22.168" height="1.158" transform="translate(0 22.157) rotate(-88.21)" fill="#00111c"/>
        </g>
        <g id="Grupo_59655" data-name="Grupo 59655" transform="translate(2.26)">
          <path id="Trazado_107973" data-name="Trazado 107973" d="M261.758,2485.966a12.947,12.947,0,0,1-4.223-23.331l.784-.617c4.475-3.517,9.349-7.3,10.55-7.7a3.588,3.588,0,0,1,2.067-.091,3.815,3.815,0,0,1,2.513,2.388,4.544,4.544,0,0,1-.306,4.077l-4.279,7.552-1.008-.571,4.293-7.574a3.448,3.448,0,0,0,.222-3.06,2.678,2.678,0,0,0-1.731-1.694,2.457,2.457,0,0,0-1.41.073c-1.109.364-7.477,5.37-10.2,7.507l-.82.643a11.791,11.791,0,0,0,3.812,21.268Z" transform="translate(-251.819 -2454.117)" fill="#00111c"/>
        </g>
      </g>
    </g>
    <g id="Grupo_59660" data-name="Grupo 59660" transform="translate(171.528 2464.14)">
      <path id="Trazado_107974" data-name="Trazado 107974" d="M171.312,2453.869,206.131,2449l37.462.891-2.526,61.716-65.872,3.8-4.769-37.6-.33.019c-6.8.393-9.989-4.142-10.382-10.939h0A12.329,12.329,0,0,1,171.312,2453.869Z" transform="translate(-159.114 -2448.427)" fill="#fff"/>
      <g id="Grupo_59659" data-name="Grupo 59659">
        <g id="Grupo_59658" data-name="Grupo 59658">
          <path id="Trazado_107975" data-name="Trazado 107975" d="M174.8,2516.126l-4.769-37.6c-6.516.3-10.339-3.79-10.783-11.495a12.924,12.924,0,0,1,12.119-13.629l34.8-4.865,38.145.9-2.572,62.83Zm-3.756-38.818,4.769,37.6,64.809-3.739,2.481-60.6-36.873-.877-34.772,4.867a11.766,11.766,0,0,0-11.054,12.408c.288,4.983,2.2,10.819,9.771,10.395Z" transform="translate(-159.224 -2448.536)" fill="#00111c"/>
        </g>
      </g>
    </g>
    <g id="Grupo_59676" data-name="Grupo 59676" transform="translate(167.774 2394.414)">
      <path id="Trazado_107976" data-name="Trazado 107976" d="M216.673,2424.467a21.606,21.606,0,1,1-22.814-20.326A21.606,21.606,0,0,1,216.673,2424.467Z" transform="translate(-152.12 -2389.241)" fill="#00111c"/>
      <path id="Trazado_107977" data-name="Trazado 107977" d="M187.682,2406.921a15.762,15.762,0,1,0-14.827,16.644A15.762,15.762,0,0,0,187.682,2406.921Z" transform="translate(-156.184 -2392.067)" fill="#00111c"/>
      <g id="Grupo_59674" data-name="Grupo 59674" transform="translate(25.068 16.905)">
        <g id="Grupo_59661" data-name="Grupo 59661" transform="translate(12.211 30.909)">
          <rect id="Rectángulo_6341" data-name="Rectángulo 6341" width="17.391" height="25.649" transform="translate(0 3.143) rotate(-10.411)" fill="#bb2700"/>
          <path id="Trazado_107978" data-name="Trazado 107978" d="M207.191,2450.991l-20.816-17.057,17.1-3.143Z" transform="translate(-186.375 -2430.791)" fill="#00111c"/>
        </g>
        <g id="Grupo_59673" data-name="Grupo 59673">
          <path id="Trazado_107979" data-name="Trazado 107979" d="M210.855,2418.627c3.4,9.972,3.756,25.108-10.089,27.651-12.387,2.276-18.674-11.437-20.578-21.8S202.7,2394.728,210.855,2418.627Z" transform="translate(-175.642 -2405.42)" fill="#bb2700"/>
          <g id="Grupo_59664" data-name="Grupo 59664" transform="translate(17.145 16.904)">
            <g id="Grupo_59662" data-name="Grupo 59662" transform="translate(10.977)">
              <path id="Trazado_107980" data-name="Trazado 107980" d="M201.971,2422.194c.666-.122,1.355.589,1.537,1.587s-.207,1.908-.873,2.03-1.355-.588-1.537-1.587S201.305,2422.316,201.971,2422.194Z" transform="translate(-198.84 -2418.807)" fill="#00111c"/>
              <path id="Trazado_107981" data-name="Trazado 107981" d="M204.766,2420.275l-5.5,1.011A3.674,3.674,0,0,1,204.766,2420.275Z" transform="translate(-199.261 -2419.448)" fill="#00111c"/>
            </g>
            <g id="Grupo_59663" data-name="Grupo 59663" transform="translate(0 2.016)">
              <path id="Trazado_107982" data-name="Trazado 107982" d="M193.081,2423.827c.666-.122,1.353.588,1.537,1.587s-.207,1.906-.873,2.029-1.355-.587-1.537-1.586S192.415,2423.95,193.081,2423.827Z" transform="translate(-189.95 -2420.439)" fill="#00111c"/>
              <path id="Trazado_107983" data-name="Trazado 107983" d="M195.876,2421.908l-5.5,1.012A3.674,3.674,0,0,1,195.876,2421.908Z" transform="translate(-190.371 -2421.081)" fill="#00111c"/>
            </g>
          </g>
          <g id="Grupo_59669" data-name="Grupo 59669" transform="translate(22.329 22.196)">
            <g id="Grupo_59666" data-name="Grupo 59666" transform="translate(4.442)">
              <g id="Grupo_59665" data-name="Grupo 59665">
                <path id="Trazado_107984" data-name="Trazado 107984" d="M199.2,2430.222l-.453-1.064c1.731-.737,1.778-1.183,1.778-1.187-.028-.184-.778-.582-1.464-.65l-.458-.047-.435-3.393,1.147-.147.322,2.515c.751.174,1.892.63,2.031,1.546C201.844,2428.953,200.343,2429.735,199.2,2430.222Z" transform="translate(-198.166 -2423.734)" fill="#00111c"/>
              </g>
            </g>
            <g id="Grupo_59668" data-name="Grupo 59668" transform="translate(0 6.864)">
              <g id="Grupo_59667" data-name="Grupo 59667">
                <path id="Trazado_107985" data-name="Trazado 107985" d="M197.724,2431.076a18.99,18.99,0,0,1-3.155-.262l.193-1.142a17.946,17.946,0,0,0,7.677-.379l.3,1.116A19.1,19.1,0,0,1,197.724,2431.076Z" transform="translate(-194.569 -2429.293)" fill="#00111c"/>
              </g>
            </g>
          </g>
          <g id="Grupo_59672" data-name="Grupo 59672" transform="translate(1.559 21.528)">
            <circle id="Elipse_4132" data-name="Elipse 4132" cx="4.857" cy="4.857" r="4.857" transform="translate(0 2.494) rotate(-14.879)" fill="#bb2700"/>
            <g id="Grupo_59671" data-name="Grupo 59671" transform="translate(3.582 2.967)">
              <g id="Grupo_59670" data-name="Grupo 59670">
                <path id="Trazado_107986" data-name="Trazado 107986" d="M183.529,2431.383c-1.547-.574-2.12-1.615-1.86-3.373.146-.975-.972-1.283-1.02-1.3l.3-1.119a2.352,2.352,0,0,1,1.868,2.584c-.183,1.223.089,1.736,1.116,2.118Z" transform="translate(-180.649 -2425.596)" fill="#00111c"/>
              </g>
            </g>
          </g>
          <path id="Trazado_107987" data-name="Trazado 107987" d="M178.591,2416.412a20.486,20.486,0,0,1,10.629-9.854c6.565-2.541,16.3,1.785,16.3,1.785-5.726,11.86-16.052,20.037-28.592,24.065C176.169,2427.159,176.195,2421.143,178.591,2416.412Z" transform="translate(-176.486 -2405.758)" fill="#00111c"/>
        </g>
      </g>
      <g id="Grupo_59675" data-name="Grupo 59675" transform="translate(34.922 66.171)">
        <path id="Trazado_107988" data-name="Trazado 107988" d="M196.367,2454.211l8.431-8.554,7.513,7.745-9.692,7.253Z" transform="translate(-181.672 -2445.657)" fill="#fff"/>
        <path id="Trazado_107989" data-name="Trazado 107989" d="M200.152,2453.705l-10.309-6.383-5.377,9.239,11.212,4.831Z" transform="translate(-184.466 -2445.265)" fill="#fff"/>
      </g>
    </g>
    <g id="Grupo_59680" data-name="Grupo 59680" transform="translate(159.646 2469.146)">
      <g id="Grupo_59678" data-name="Grupo 59678" transform="translate(0 8.162)">
        <rect id="Rectángulo_6342" data-name="Rectángulo 6342" width="24.659" height="31.288" transform="translate(23.716 52.686) rotate(-164.108)" fill="#bb2700"/>
        <g id="Grupo_59677" data-name="Grupo 59677" transform="translate(8.303)">
          <rect id="Rectángulo_6343" data-name="Rectángulo 6343" width="24.659" height="17.438" transform="translate(23.716 23.523) rotate(-164.108)" fill="#fff"/>
        </g>
      </g>
      <g id="Grupo_59679" data-name="Grupo 59679" transform="translate(7.589)">
        <path id="Trazado_107990" data-name="Trazado 107990" d="M180.576,2484.99l-24.828-7.068,4.542-15.955.488-1.383a12.9,12.9,0,0,1,24.661,6.989l-.311,1.427Zm-23.4-7.865,22.6,6.435,4.225-14.841.3-1.363A11.744,11.744,0,0,0,161.858,2461l-.466,1.32Z" transform="translate(-155.748 -2452.59)" fill="#00111c"/>
      </g>
    </g>
    <g id="Grupo_59690" data-name="Grupo 59690" transform="translate(106.823 2469.133)">
      <g id="Grupo_59682" data-name="Grupo 59682" transform="translate(27.113 14.309)">
        <path id="Trazado_107991" data-name="Trazado 107991" d="M154.315,2511.937a12.329,12.329,0,1,1,17.176-3A12.329,12.329,0,0,1,154.315,2511.937Z" transform="translate(-124.017 -2458.216)" fill="#bb2700"/>
        <path id="Trazado_107992" data-name="Trazado 107992" d="M143.565,2464.483l-14.784,11.851,27.645,39.05,19.24-15.423Z" transform="translate(-128.781 -2464.094)" fill="#bb2700"/>
        <g id="Grupo_59681" data-name="Grupo 59681" transform="translate(14.355)">
          <rect id="Rectángulo_6344" data-name="Rectángulo 6344" width="1.158" height="47.845" transform="matrix(0.742, -0.671, 0.671, 0.742, 0, 0.777)" fill="#00111c"/>
        </g>
      </g>
      <g id="Grupo_59689" data-name="Grupo 59689">
        <path id="Trazado_107993" data-name="Trazado 107993" d="M123.329,2458.914l-1.694,22.5,11.007,1.727,3.636-22.09Z" transform="translate(-103.346 -2451.093)" fill="#bb2700"/>
        <circle id="Elipse_4133" data-name="Elipse 4133" cx="12.369" cy="12.369" r="12.369" transform="matrix(0.167, -0.986, 0.986, 0.167, 16.938, 29.889)" fill="#bb2700"/>
        <path id="Trazado_107994" data-name="Trazado 107994" d="M110.7,2473.617h0a3.079,3.079,0,0,0,2.7,3.4l10.8,1.571.8-6.112-10.856-1.5A3.071,3.071,0,0,0,110.7,2473.617Z" transform="translate(-105.917 -2448.268)" fill="#bb2700"/>
        <path id="Trazado_107995" data-name="Trazado 107995" d="M108.73,2468.456h0a3.077,3.077,0,0,0,2.7,3.395L126.978,2474l-1.451-6.385-13.353-1.808A3.07,3.07,0,0,0,108.73,2468.456Z" transform="translate(-106.381 -2449.479)" fill="#bb2700"/>
        <g id="Grupo_59683" data-name="Grupo 59683" transform="translate(4.185 22.096)">
          <path id="Trazado_107996" data-name="Trazado 107996" d="M137.277,2481.081a13.305,13.305,0,0,1-2.03-.157l-21.816-3.228a3.663,3.663,0,0,1-3.193-4.037,3.57,3.57,0,0,1,1.38-2.419,3.682,3.682,0,0,1,2.707-.738l9.724,1.258-.148,1.148-9.719-1.257a2.527,2.527,0,0,0-1.857.506,2.418,2.418,0,0,0-.937,1.639,2.506,2.506,0,0,0,2.2,2.752l21.835,3.23a11.752,11.752,0,0,0,13.21-8.64l1.119.294a12.882,12.882,0,0,1-10.98,9.56A12.719,12.719,0,0,1,137.277,2481.081Z" transform="translate(-110.212 -2470.474)" fill="#00111c"/>
        </g>
        <g id="Grupo_59684" data-name="Grupo 59684" transform="translate(1.75 15.724)">
          <path id="Trazado_107997" data-name="Trazado 107997" d="M125.066,2474.144l-13.594-1.607a3.666,3.666,0,0,1-3.207-4.041,3.568,3.568,0,0,1,1.352-2.4,3.675,3.675,0,0,1,2.735-.759l13.363,1.81-.156,1.147-13.354-1.809a2.541,2.541,0,0,0-1.873.521,2.424,2.424,0,0,0-.919,1.624,2.507,2.507,0,0,0,2.2,2.754l13.59,1.606Z" transform="translate(-108.24 -2465.313)" fill="#00111c"/>
        </g>
        <path id="Trazado_107998" data-name="Trazado 107998" d="M110.464,2459.33h0a3.078,3.078,0,0,0,2.609,3.466l13.259,2.173,7.745-5.96-20.1-2.236A3.069,3.069,0,0,0,110.464,2459.33Z" transform="translate(-105.976 -2451.603)" fill="#bb2700"/>
        <path id="Trazado_107999" data-name="Trazado 107999" d="M129.516,2453.076c-2.171.313-3.518,3.207-2.5,5.347l2.881,6.023,12.312-.819c-1.4-1.341-9.539-9.6-10.98-10.27A3.028,3.028,0,0,0,129.516,2453.076Z" transform="translate(-102.163 -2452.469)" fill="#bb2700"/>
        <g id="Grupo_59685" data-name="Grupo 59685" transform="translate(3.877 4.555)">
          <path id="Trazado_108000" data-name="Trazado 108000" d="M113.1,2463.479a3.667,3.667,0,0,1-3.094-4.123,3.575,3.575,0,0,1,1.418-2.361,3.663,3.663,0,0,1,2.754-.684l17.366,1.842-.122,1.152-17.391-1.846a2.541,2.541,0,0,0-1.916.466,2.416,2.416,0,0,0-.962,1.6,2.5,2.5,0,0,0,2.125,2.809Z" transform="translate(-109.963 -2456.268)" fill="#00111c"/>
        </g>
        <path id="Trazado_108001" data-name="Trazado 108001" d="M107.324,2463.589h0a3.078,3.078,0,0,0,2.609,3.466l16.279,2.678.427-6.224-15.8-2.478A3.072,3.072,0,0,0,107.324,2463.589Z" transform="translate(-106.713 -2450.603)" fill="#bb2700"/>
        <g id="Grupo_59686" data-name="Grupo 59686" transform="translate(0 9.814)">
          <path id="Trazado_108002" data-name="Trazado 108002" d="M125.7,2470.279l-15.748-2.542a3.666,3.666,0,0,1-3.089-4.122,3.568,3.568,0,0,1,1.445-2.381,3.685,3.685,0,0,1,2.726-.666l15.808,2.478-.179,1.143-15.8-2.477a2.545,2.545,0,0,0-1.869.457,2.419,2.419,0,0,0-.98,1.613,2.5,2.5,0,0,0,2.124,2.81l15.752,2.542Z" transform="translate(-106.823 -2460.528)" fill="#00111c"/>
        </g>
        <g id="Grupo_59687" data-name="Grupo 59687" transform="translate(17.708 8.179)">
          <rect id="Rectángulo_6345" data-name="Rectángulo 6345" width="22.167" height="1.158" transform="translate(0 22.088) rotate(-85.162)" fill="#00111c"/>
        </g>
        <g id="Grupo_59688" data-name="Grupo 59688" transform="translate(23.926)">
          <path id="Trazado_108003" data-name="Trazado 108003" d="M135.016,2485.194l-.138-1.149a11.788,11.788,0,0,0,6.26-20.662l-.747-.737c-2.462-2.442-8.227-8.162-9.291-8.653a2.466,2.466,0,0,0-1.392-.233,2.675,2.675,0,0,0-1.915,1.484,3.436,3.436,0,0,0-.141,3.04l3.406,8.041-1.066.452-3.4-8.019a4.54,4.54,0,0,1,.175-4.06,3.816,3.816,0,0,1,2.772-2.084,3.589,3.589,0,0,1,2.041.329c1.152.532,5.57,4.864,9.62,8.882l.715.708a12.945,12.945,0,0,1-6.9,22.662Z" transform="translate(-126.2 -2452.58)" fill="#00111c"/>
        </g>
      </g>
    </g>
    <g id="Grupo_59691" data-name="Grupo 59691" transform="translate(341.146 2605.081)">
      <path id="Trazado_108004" data-name="Trazado 108004" d="M314.079,2562.678h67.7l4.514,43.195H314.079Z" transform="translate(-292.485 -2562.678)" fill="#21949d"/>
      <ellipse id="Elipse_4134" data-name="Elipse 4134" cx="21.406" cy="21.419" rx="21.406" ry="21.419" transform="translate(0)" fill="#21949d"/>
      <path id="Trazado_108005" data-name="Trazado 108005" d="M300.141,2602.5l-3.15-18.1,42.2-7.344,4.428,25.448Z" transform="translate(-296.497 -2559.303)" fill="#21949d"/>
    </g>
    <g id="Grupo_59692" data-name="Grupo 59692" transform="translate(355.609 2615.953)">
      <path id="Trazado_108006" data-name="Trazado 108006" d="M311.683,2603.833c-.1-.438-2.507-10.786-3.094-14.313-.8-4.8.094-8.93,2.586-11.945,3.18-3.848,8.813-5.9,16.744-6.091H390.01v1.157H327.943c-7.578.187-12.921,2.094-15.877,5.671-2.3,2.788-3.089,6.495-2.336,11.018.582,3.491,3.055,14.135,3.08,14.242Z" transform="translate(-308.303 -2571.483)" fill="#00111c"/>
    </g>
    <g id="Grupo_59697" data-name="Grupo 59697" transform="translate(435.375 2464.071)">
      <circle id="Elipse_4135" data-name="Elipse 4135" cx="14.955" cy="14.955" r="14.955" transform="matrix(0.963, -0.27, 0.27, 0.963, 24.235, 11.436)" fill="#00111c"/>
      <circle id="Elipse_4136" data-name="Elipse 4136" cx="20.259" cy="20.259" r="20.259" transform="translate(0 9.851) rotate(-14.072)" fill="#00111c"/>
      <g id="Grupo_59693" data-name="Grupo 59693" transform="translate(7.695 38.592)">
        <rect id="Rectángulo_6346" data-name="Rectángulo 6346" width="17.391" height="25.649" transform="translate(17.244 27.69) rotate(-172.54)" fill="#ff9a54"/>
        <path id="Trazado_108007" data-name="Trazado 108007" d="M379.673,2500.1l19.91-18.106-17.244-2.258Z" transform="translate(-379.009 -2479.734)" fill="#00111c"/>
      </g>
      <path id="Trazado_108008" data-name="Trazado 108008" d="M376.6,2467.961c-2.884,10.134-2.458,25.267,11.5,27.1,12.489,1.635,18.061-12.385,19.428-22.831S383.508,2443.674,376.6,2467.961Z" transform="translate(-372.371 -2446.744)" fill="#ff9a54"/>
      <path id="Trazado_108009" data-name="Trazado 108009" d="M411.069,2461.288c-11.949-15.117-32.474-9.783-36.329,9.139,0,0,8.753,6.554,8.83,6.806C394.941,2514.85,415.671,2467.109,411.069,2461.288Z" transform="translate(-372.472 -2447.531)" fill="#00111c"/>
      <path id="Trazado_108010" data-name="Trazado 108010" d="M379.607,2471.661c-.421,11.181,7.42,20.536,17.513,20.895s18.614-8.415,19.035-19.6-7.419-20.536-17.512-20.894S380.028,2460.48,379.607,2471.661Z" transform="translate(-371.333 -2447.641)" fill="#00111c"/>
      <g id="Grupo_59696" data-name="Grupo 59696" transform="translate(6.265 26.616)">
        <path id="Trazado_108011" data-name="Trazado 108011" d="M387.356,2474.838a4.693,4.693,0,1,1-4.726-4.8A4.8,4.8,0,0,1,387.356,2474.838Z" transform="translate(-377.977 -2470.036)" fill="#ff9a54"/>
        <g id="Grupo_59695" data-name="Grupo 59695" transform="translate(4.111 1.545)">
          <g id="Grupo_59694" data-name="Grupo 59694">
            <path id="Trazado_108012" data-name="Trazado 108012" d="M381.923,2477.455l-.617-.979c.794-.5,1.116-1,.672-2.305a2.378,2.378,0,0,1,1.305-2.883l.52,1.035c-.011.006-1.047.538-.729,1.478C383.64,2475.468,383.285,2476.6,381.923,2477.455Z" transform="translate(-381.306 -2471.287)" fill="#00111c"/>
          </g>
        </g>
      </g>
    </g>
    <g id="Grupo_59698" data-name="Grupo 59698" transform="translate(289.264 2581.949)">
      <path id="Trazado_108013" data-name="Trazado 108013" d="M426.929,2610.271l-5.8-66.327H410.509l7.434,66.327Z" transform="translate(-217.962 -2543.944)" fill="#21949d"/>
      <path id="Trazado_108014" data-name="Trazado 108014" d="M263.56,2610.271l7.434-66.327H260.377l-5.8,66.327Z" transform="translate(-254.574 -2543.944)" fill="#21949d"/>
    </g>
    <rect id="Rectángulo_6347" data-name="Rectángulo 6347" width="244.38" height="8.24" transform="translate(271.557 2576.456)" fill="#2ab9c4"/>
    <path id="Trazado_108015" data-name="Trazado 108015" d="M258.952,2492.985l9.678,53.554h84.892l-9.678-53.554Z" transform="translate(35.718 26.04)" fill="#c595ff"/>
    <rect id="Rectángulo_6348" data-name="Rectángulo 6348" width="120.555" height="5.091" transform="translate(304.372 2571.347)" fill="#855db5"/>
    <path id="Trazado_108016" data-name="Trazado 108016" d="M339.619,2496H262.863l8.169,45.205h76.756Z" transform="translate(36.636 26.747)" fill="#fff"/>
    <path id="Trazado_108017" data-name="Trazado 108017" d="M324.725,2498.64H266.613l6.185,34.224H330.91Z" transform="translate(37.517 27.368)" fill="#e6e6e6"/>
    <path id="Trazado_108018" data-name="Trazado 108018" d="M325.543,2503.17l-.819-4.531H266.613l.819,4.531Z" transform="translate(37.517 27.368)" fill="#c4c4c4"/>
    <g id="Grupo_59710" data-name="Grupo 59710" transform="translate(312.852 2515.799)">
      <g id="Grupo_59700" data-name="Grupo 59700" transform="translate(63.736)">
        <path id="Trazado_108019" data-name="Trazado 108019" d="M325.294,2526.118l19.065,21.378,23.406-24.947-20.592-19.516Z" transform="translate(-325.294 -2487.4)" fill="#ff9a54"/>
        <path id="Trazado_108020" data-name="Trazado 108020" d="M334.038,2515.677l22.182,20.764,20.042-22.793-21.231-20.122Z" transform="translate(-323.24 -2489.632)" fill="#fff"/>
        <circle id="Elipse_4137" data-name="Elipse 4137" cx="14.571" cy="14.571" r="14.571" transform="translate(26.398 0.959) rotate(-1.478)" fill="#fff"/>
        <g id="Grupo_59699" data-name="Grupo 59699" transform="translate(9.975)">
          <path id="Trazado_108021" data-name="Trazado 108021" d="M356.419,2538.013l-23.047-21.575,21.547-22.432a15.34,15.34,0,0,1,10.067-3.633,15.168,15.168,0,0,1,14.9,15.4,15.01,15.01,0,0,1-3.084,8.891Zm-21.4-21.618,21.316,19.954,19.568-22.417a13.85,13.85,0,0,0,2.824-8.181h0a13.977,13.977,0,0,0-23.016-10.9Z" transform="translate(-333.372 -2490.373)" fill="#00111c"/>
        </g>
      </g>
      <g id="Grupo_59706" data-name="Grupo 59706" transform="translate(0 13.684)">
        <path id="Trazado_108022" data-name="Trazado 108022" d="M281.5,2503.548h0a4.079,4.079,0,0,0,1.234,5.333l7.662,5.327,14.738-9.646-19.311-3.035A4.079,4.079,0,0,0,281.5,2503.548Z" transform="translate(-271.961 -2501.455)" fill="#ff9a54"/>
        <path id="Trazado_108023" data-name="Trazado 108023" d="M305.259,2526.509a13.23,13.23,0,1,1,1.677-18.635A13.232,13.232,0,0,1,305.259,2526.509Z" transform="translate(-271.359 -2501.063)" fill="#ff9a54"/>
        <g id="Grupo_59705" data-name="Grupo 59705" transform="translate(0 1.978)">
          <path id="Trazado_108024" data-name="Trazado 108024" d="M274.589,2519.555h0a3.516,3.516,0,0,0,4.871.738l11.655-7.141,2.212-8.957-17.206,10.662A3.519,3.519,0,0,0,274.589,2519.555Z" transform="translate(-273.559 -2502.79)" fill="#ff9a54"/>
          <path id="Trazado_108025" data-name="Trazado 108025" d="M285.236,2528.769h0a3.516,3.516,0,0,0,4.871.739l9.052-5.532-3.331-5.531-9.06,5.627A3.519,3.519,0,0,0,285.236,2528.769Z" transform="translate(-271.059 -2499.444)" fill="#ff9a54"/>
          <g id="Grupo_59701" data-name="Grupo 59701" transform="translate(13.106 24.207)">
            <path id="Trazado_108026" data-name="Trazado 108026" d="M287.974,2529.787a3.658,3.658,0,0,1-3.177-1.658,3.529,3.529,0,0,1-.319-2.972,4.617,4.617,0,0,1,1.994-2.5l.609.986a3.454,3.454,0,0,0-1.5,1.862,2.389,2.389,0,0,0,.2,2.011,2.917,2.917,0,0,0,4.032.577l6.883-4.19.6.989-6.881,4.188A4.691,4.691,0,0,1,287.974,2529.787Z" transform="translate(-284.291 -2522.661)" fill="#00111c"/>
          </g>
          <path id="Trazado_108027" data-name="Trazado 108027" d="M279.587,2526.984h0a3.515,3.515,0,0,0,4.87.738l11.655-7.141-3.331-5.531-11.661,7.234A3.519,3.519,0,0,0,279.587,2526.984Z" transform="translate(-272.386 -2500.241)" fill="#ff9a54"/>
          <g id="Grupo_59702" data-name="Grupo 59702" transform="translate(6.166 14.468)">
            <path id="Trazado_108028" data-name="Trazado 108028" d="M282.352,2529.035a3.657,3.657,0,0,1-3.176-1.66,3.525,3.525,0,0,1-.319-2.971,4.609,4.609,0,0,1,1.994-2.5l11.5-7.135.61.984-11.5,7.135a3.454,3.454,0,0,0-1.5,1.862,2.39,2.39,0,0,0,.2,2.011,2.915,2.915,0,0,0,4.032.576l11.493-7.041.6.988-11.493,7.041A4.69,4.69,0,0,1,282.352,2529.035Z" transform="translate(-278.67 -2514.774)" fill="#00111c"/>
          </g>
          <g id="Grupo_59703" data-name="Grupo 59703">
            <path id="Trazado_108029" data-name="Trazado 108029" d="M277.356,2521.807a3.661,3.661,0,0,1-3.177-1.658,4.067,4.067,0,0,1,1.676-5.468l17.732-11.624.633.968-17.743,11.633a2.656,2.656,0,1,0,2.719,4.459l11.493-7.041.6.988L279.8,2521.1A4.7,4.7,0,0,1,277.356,2521.807Z" transform="translate(-273.677 -2503.057)" fill="#00111c"/>
          </g>
          <path id="Trazado_108030" data-name="Trazado 108030" d="M274.979,2524.553h0a3.516,3.516,0,0,0,4.871.738l14.258-8.751-3.331-5.53-14.266,8.845A3.52,3.52,0,0,0,274.979,2524.553Z" transform="translate(-273.468 -2501.19)" fill="#ff9a54"/>
          <g id="Grupo_59704" data-name="Grupo 59704" transform="translate(0.514 9.479)">
            <path id="Trazado_108031" data-name="Trazado 108031" d="M277.775,2526.582a3.659,3.659,0,0,1-3.177-1.66,3.526,3.526,0,0,1-.317-2.971,4.605,4.605,0,0,1,1.994-2.5l14.065-8.722.61.984-14.067,8.721a3.454,3.454,0,0,0-1.5,1.862,2.389,2.389,0,0,0,.2,2.011,2.916,2.916,0,0,0,4.032.578l14.061-8.629.605.987-14.061,8.629A4.7,4.7,0,0,1,277.775,2526.582Z" transform="translate(-274.093 -2510.734)" fill="#00111c"/>
          </g>
        </g>
      </g>
      <g id="Grupo_59709" data-name="Grupo 59709" transform="translate(21.913 16.032)">
        <g id="Grupo_59708" data-name="Grupo 59708">
          <circle id="Elipse_4138" data-name="Elipse 4138" cx="13.491" cy="13.491" r="13.491" transform="translate(34.968 24.243) rotate(-12.345)" fill="#ff9a54"/>
          <path id="Trazado_108032" data-name="Trazado 108032" d="M301.3,2503.781l-9.877,18.229,44.46,27.643,12.854-23.724Z" transform="translate(-291.423 -2503.257)" fill="#ff9a54"/>
          <g id="Grupo_59707" data-name="Grupo 59707" transform="translate(9.632)">
            <rect id="Rectángulo_6349" data-name="Rectángulo 6349" width="1.158" height="52.353" transform="translate(0 1.049) rotate(-64.971)" fill="#00111c"/>
          </g>
        </g>
      </g>
    </g>
    <path id="Trazado_108033" data-name="Trazado 108033" d="M342.183,2622.88h85.305l19.724-132.642H361.906Z" transform="translate(55.26 25.395)" fill="#f9e478"/>
    <g id="Grupo_59712" data-name="Grupo 59712" transform="translate(396.869 2515.055)">
      <g id="Grupo_59711" data-name="Grupo 59711">
        <path id="Trazado_108034" data-name="Trazado 108034" d="M342.864,2623.075l-1.146-.17,19.8-133.136h85.8v1.157H362.515Z" transform="translate(-341.719 -2489.77)" fill="#00111c"/>
      </g>
    </g>
    <path id="Trazado_108035" data-name="Trazado 108035" d="M272.234,2382.076H248.255a18.369,18.369,0,0,0-18.314,18.314h0a18.368,18.368,0,0,0,18.267,18.313v12.459l18.064-12.458h5.962a18.367,18.367,0,0,0,18.313-18.314h0A18.368,18.368,0,0,0,272.234,2382.076Z" transform="translate(28.907)" fill="#2ab9c4"/>
    <g id="Grupo_59713" data-name="Grupo 59713" transform="translate(267.718 2395.025)">
      <path id="Trazado_108036" data-name="Trazado 108036" d="M268.515,2392.563a5.365,5.365,0,1,1-5.365,5.365A5.4,5.4,0,0,1,268.515,2392.563Z" transform="translate(-231.015 -2392.563)" fill="#fff"/>
      <path id="Trazado_108037" data-name="Trazado 108037" d="M255.5,2392.563a5.365,5.365,0,1,1-5.365,5.365A5.4,5.4,0,0,1,255.5,2392.563Z" transform="translate(-234.07 -2392.563)" fill="#fff"/>
      <path id="Trazado_108038" data-name="Trazado 108038" d="M242.49,2392.563a5.365,5.365,0,1,1-5.365,5.365A5.4,5.4,0,0,1,242.49,2392.563Z" transform="translate(-237.125 -2392.563)" fill="#fff"/>
    </g>
  </g>
</svg>
