<svg xmlns="http://www.w3.org/2000/svg" width="102" height="102" viewBox="0 0 102 102">
  <g id="Grupo_59780" data-name="Grupo 59780" transform="translate(-690.188 -3144.461)">
    <rect id="Rectángulo_5525" data-name="Rectángulo 5525" width="102" height="102" transform="translate(690.188 3144.461)" fill="none"/>
    <g id="Grupo_59779" data-name="Grupo 59779">
      <g id="Giftbox-Hands-Purchase-Buy-Commerce">
        <path id="Trazado_108308" data-name="Trazado 108308" d="M774.309,3223.85v10.815h-21.63V3223.85h21.63Z" fill="#c595ff"/>
        <path id="Trazado_108309" data-name="Trazado 108309" d="M759.439,3172.479v18.926a2.713,2.713,0,0,1-2.7,2.7H724.29a2.713,2.713,0,0,1-2.7-2.7v-18.926h14.871v5.407l4.055-2.7,4.056,2.7v-5.407Z" fill="#c595ff"/>
        <path id="Trazado_108310" data-name="Trazado 108310" d="M754.031,3156.256l5.408,8.112H721.586l5.408-8.112Z" fill="#c595ff"/>
        <path id="Trazado_108311" data-name="Trazado 108311" d="M748.624,3210.331h-4.056v10.815h-8.111v-10.815H732.4l8.111-8.111Z" fill="#c595ff"/>
        <path id="Trazado_108312" data-name="Trazado 108312" d="M729.7,3223.85v10.815h-21.63V3223.85H729.7Z" fill="#c595ff"/>
        <g id="Grupo_59778" data-name="Grupo 59778">
          <path id="Trazado_108313" data-name="Trazado 108313" d="M760.561,3163.624l-5.408-8.111a1.354,1.354,0,0,0-1.122-.609H726.994a1.351,1.351,0,0,0-1.122.609l-5.408,8.111a1.316,1.316,0,0,0-.23.744v27.037a4.069,4.069,0,0,0,4.056,4.056h32.445a4.067,4.067,0,0,0,4.055-4.056v-27.037A1.306,1.306,0,0,0,760.561,3163.624Zm-32.837-6.016H753.3l3.61,5.408h-32.8Zm15.492,8.111v9.639l-1.96-1.3a1.3,1.3,0,0,0-1.487,0l-1.96,1.3v-9.639Zm-20.278,0H735.1v5.408H722.938Zm35.149,25.686a1.352,1.352,0,0,1-1.352,1.352H724.29a1.352,1.352,0,0,1-1.352-1.352v-17.574H735.1v4.055a1.33,1.33,0,0,0,.716,1.19,1.3,1.3,0,0,0,1.379-.068l3.312-2.2,3.312,2.2a1.352,1.352,0,0,0,2.1-1.122v-4.055h12.167Zm0-20.278H745.92v-5.408h12.167Z" fill="#855db5"/>
          <path id="Trazado_108314" data-name="Trazado 108314" d="M741.468,3201.264a1.351,1.351,0,0,0-1.911,0l-8.112,8.111a1.353,1.353,0,0,0,.956,2.308h2.7v9.463h2.7v-10.815a1.353,1.353,0,0,0-1.352-1.352h-.793l4.848-4.847,4.848,4.847h-.792a1.352,1.352,0,0,0-1.352,1.352v16.223h2.7v-14.871h2.7a1.352,1.352,0,0,0,.955-2.308Z" fill="#855db5"/>
          <path id="Trazado_108315" data-name="Trazado 108315" d="M766.2,3157.608h2.7v8.111h-2.7Z" fill="#855db5"/>
          <path id="Trazado_108316" data-name="Trazado 108316" d="M766.2,3168.423h2.7v2.7h-2.7Z" fill="#855db5"/>
          <path id="Trazado_108317" data-name="Trazado 108317" d="M774.309,3161.664h2.7v5.407h-2.7Z" fill="#855db5"/>
          <path id="Trazado_108318" data-name="Trazado 108318" d="M774.309,3169.775h2.7v2.7h-2.7Z" fill="#855db5"/>
          <path id="Trazado_108319" data-name="Trazado 108319" d="M712.123,3157.608h2.7v8.111h-2.7Z" fill="#855db5"/>
          <path id="Trazado_108320" data-name="Trazado 108320" d="M712.123,3168.423h2.7v2.7h-2.7Z" fill="#855db5"/>
          <path id="Trazado_108321" data-name="Trazado 108321" d="M704.012,3161.664h2.7v5.407h-2.7Z" fill="#855db5"/>
          <path id="Trazado_108322" data-name="Trazado 108322" d="M704.012,3169.775h2.7v2.7h-2.7Z" fill="#855db5"/>
          <path id="Trazado_108323" data-name="Trazado 108323" d="M756.735,3227.906h2.7v2.7h-2.7Z" fill="#855db5"/>
          <path id="Trazado_108324" data-name="Trazado 108324" d="M772.957,3176.534a5.408,5.408,0,0,0-5.407,5.408v11.41a4.623,4.623,0,0,0-.595.094,5.412,5.412,0,0,0-3.285,2.528l-9.463,16.385a1.429,1.429,0,0,0-.176.676v9.463h-1.352a1.352,1.352,0,0,0-1.352,1.352v10.815a1.352,1.352,0,0,0,1.352,1.352h21.63a1.352,1.352,0,0,0,1.352-1.352V3223.85a1.352,1.352,0,0,0-1.352-1.352h-1.352v-.879l5.11-6.394a1.328,1.328,0,0,0,.3-.838v-32.445a5.408,5.408,0,0,0-5.408-5.408Zm0,56.779H754.031V3225.2h18.926Zm2.7-19.4-5.11,6.394a1.319,1.319,0,0,0-.3.838v1.352H756.735v-9.1l9.287-16.074a2.7,2.7,0,0,1,4.792,2.507c-.036.067-.074.133-.114.2l-6.76,11.707,2.339,1.352,6.759-11.707a5.418,5.418,0,0,0-1.973-7.4,6.261,6.261,0,0,0-.811-.365v-11.68a2.7,2.7,0,1,1,5.407,0Z" fill="#855db5"/>
          <path id="Trazado_108325" data-name="Trazado 108325" d="M729.7,3222.5h-1.352v-9.463a1.438,1.438,0,0,0-.175-.676l-9.463-16.385a5.4,5.4,0,0,0-3.88-2.622v-11.41a5.408,5.408,0,1,0-10.815,0v32.445a1.321,1.321,0,0,0,.3.838l5.11,6.394v.879h-1.352a1.352,1.352,0,0,0-1.352,1.352v10.815a1.352,1.352,0,0,0,1.352,1.352H729.7a1.352,1.352,0,0,0,1.352-1.352V3223.85A1.352,1.352,0,0,0,729.7,3222.5Zm-22.982-8.584v-31.972a2.7,2.7,0,0,1,5.408,0v11.68a7.2,7.2,0,0,0-.811.365,5.407,5.407,0,0,0-1.978,7.387l0,.008,6.759,11.707,2.339-1.352-6.759-11.707a2.7,2.7,0,0,1,4.563-2.9c.041.064.079.13.114.2l9.288,16.074v9.1H712.123v-1.352a1.32,1.32,0,0,0-.3-.838Zm21.63,19.4H709.419V3225.2h18.926Z" fill="#855db5"/>
          <path id="Trazado_108326" data-name="Trazado 108326" d="M722.938,3227.906h2.7v2.7h-2.7Z" fill="#855db5"/>
          <path id="Trazado_108327" data-name="Trazado 108327" d="M743.216,3229.257h2.7v2.7h-2.7Z" fill="#855db5"/>
          <path id="Trazado_108328" data-name="Trazado 108328" d="M735.1,3223.85h2.7v2.7h-2.7Z" fill="#855db5"/>
        </g>
      </g>
    </g>
  </g>
</svg>
