<svg xmlns="http://www.w3.org/2000/svg" width="102" height="102" viewBox="0 0 102 102">
  <g id="Grupo_56712" data-name="Grupo 56712" transform="translate(-463.177 -108.686)">
    <rect id="Rectángulo_5525" data-name="Rectángulo 5525" width="102" height="102" transform="translate(463.177 108.686)" fill="none"/>
    <g id="Grupo_56721" data-name="Grupo 56721">
      <g id="Grupo_56720" data-name="Grupo 56720">
        <g id="Grupo_56718" data-name="Grupo 56718">
          <path id="Trazado_105001" data-name="Trazado 105001" d="M537.833,182.939l-12.721-4.49a4.926,4.926,0,0,1-3.287-4.645v-6.368h-14.78V173.8a4.926,4.926,0,0,1-3.287,4.645l-12.72,4.49a7.39,7.39,0,0,0-4.931,6.969v4.624h56.656v-4.624A7.39,7.39,0,0,0,537.833,182.939Z" fill="#fff"/>
          <path id="Trazado_105002" data-name="Trazado 105002" d="M507.045,167.436V173.8a4.927,4.927,0,0,1-3.287,4.646l-1.161.409,1.228,3.485,1.162-.41a8.579,8.579,0,0,0,5.213-5.12,3.245,3.245,0,0,1,.828-1.29,2.978,2.978,0,0,1,2.214-.736,19.394,19.394,0,0,0,8.583-1.417v-5.935Z" fill="#f0e8fc"/>
          <path id="Trazado_105003" data-name="Trazado 105003" d="M537.833,182.939l-12.039-4.249-6.011,1.192a6.165,6.165,0,0,0-2.351,2.962l-1.844,4.918a1.231,1.231,0,0,1-2.306,0l-1.845-4.918a6.158,6.158,0,0,0-2.35-2.962l-5.1-1.533c-.077.031-.148.073-.227.1l-12.721,4.49a7.39,7.39,0,0,0-4.93,6.969l3.7,8.319h39.413l2.463-1.367,2.463,1.367h8.622v-8.319A7.391,7.391,0,0,0,537.833,182.939Z" fill="#a271dc"/>
          <path id="Trazado_105004" data-name="Trazado 105004" d="M489.8,189.908a3.7,3.7,0,0,1,2.466-3.485l13.882-4.9-1-2.825-1.168-.351c-.077.031-.148.073-.227.1l-12.721,4.489a7.391,7.391,0,0,0-4.93,6.969v8.319h3.7v-8.319Z" fill="#bb83ff"/>
          <path id="Trazado_105005" data-name="Trazado 105005" d="M509.087,179.882l-4.9-3.264a1.231,1.231,0,0,0-1.554.154l-2.981,2.981,3.006,6.012a1.232,1.232,0,0,0,1.882.4l6-4.912a6.153,6.153,0,0,0-1.46-1.373Z" fill="#dcbfff"/>
          <path id="Trazado_105006" data-name="Trazado 105006" d="M519.789,179.882l4.9-3.264a1.231,1.231,0,0,1,1.554.154l2.981,2.981-3.006,6.012a1.231,1.231,0,0,1-1.881.4l-6-4.912a6.167,6.167,0,0,1,1.459-1.373Z" fill="#dcbfff"/>
          <path id="Trazado_105007" data-name="Trazado 105007" d="M531.128,163.023l-8.137,1.35v8.755a4.926,4.926,0,0,0,3.287,4.646l2.46.868a2.464,2.464,0,0,1,1.643,2.323l1.3,17.262h2.463c0-9.853,3.7-12.316,3.7-19.706,0-7.989-4.866-10.31-6.708-15.5Z" fill="#d48c64"/>
          <path id="Trazado_105008" data-name="Trazado 105008" d="M531.128,163.023l-8.137,1.35v8.755a4.926,4.926,0,0,0,3.287,4.646l2.46.868a2.464,2.464,0,0,1,1.643,2.323l2.529,17.262h1.232c0-9.853,3.694-12.316,3.694-19.706C537.836,170.532,532.97,168.211,531.128,163.023Z" fill="#dcbfff"/>
          <path id="Trazado_105009" data-name="Trazado 105009" d="M528.8,175.833l-2.459-.869a1.232,1.232,0,0,1-.822-1.16v-1.768a1.176,1.176,0,0,1,.453-.961,19.879,19.879,0,0,0,5.789-6.6,12.139,12.139,0,0,1-1.331-5.665l-8.606,1.231V173.8a4.927,4.927,0,0,0,3.287,4.646l2.46.868a2.463,2.463,0,0,1,1.643,2.323v16.586h3.695V181.64a6.166,6.166,0,0,0-4.109-5.807Z" fill="#bb83ff"/>
          <path id="Trazado_105010" data-name="Trazado 105010" d="M514.435,171.131v-.351a15.715,15.715,0,0,1-16.011-15.66V135.413h32.023V155.12a16.011,16.011,0,0,1-16.012,16.011Z" fill="#fff"/>
          <path id="Trazado_105011" data-name="Trazado 105011" d="M506.315,150.938a30.834,30.834,0,0,0,17.6-14.966l.284-.559H498.424V155.12a15.975,15.975,0,0,0,21.5,15.025l-2.838-.44a14.683,14.683,0,0,1-12.5-14.585v-1.834a2.5,2.5,0,0,1,1.733-2.348Z" fill="#f0e8fc"/>
          <path id="Trazado_105012" data-name="Trazado 105012" d="M523.057,126.792l-4.927,9.853c2.115,2.622,6.514,6.182,9.966,8.8a5.953,5.953,0,0,1,2.35,4.748h2.464V136.645A9.853,9.853,0,0,0,523.057,126.792Z" fill="#a271dc"/>
          <path id="Trazado_105013" data-name="Trazado 105013" d="M497.192,148.961c13.1-.585,24.041-10.016,25.865-22.169H505.814a9.853,9.853,0,0,0-9.854,9.853v12.316Z" fill="#bb83ff"/>
          <path id="Trazado_105014" data-name="Trazado 105014" d="M509.457,158.815a.87.87,0,0,0-.778,1.243,6.339,6.339,0,0,0,11.512,0,.87.87,0,0,0-.778-1.243Z" fill="#fff"/>
          <path id="Trazado_105015" data-name="Trazado 105015" d="M537.836,158.815H532.91v-9.854h4.926a2.464,2.464,0,0,1,2.464,2.464v4.926A2.464,2.464,0,0,1,537.836,158.815Z" fill="#dcbfff"/>
          <path id="Trazado_105016" data-name="Trazado 105016" d="M507.045,166.205h-1.231a2.463,2.463,0,1,0,0,4.926h1.231a2.463,2.463,0,0,0,0-4.926Z" fill="#bb83ff"/>
          <path id="Trazado_105017" data-name="Trazado 105017" d="M491.034,158.815h4.926v-9.854h-4.926a2.463,2.463,0,0,0-2.463,2.464v4.926A2.462,2.462,0,0,0,491.034,158.815Z" fill="#dcbfff"/>
          <g id="Grupo_56717" data-name="Grupo 56717">
            <path id="Trazado_105018" data-name="Trazado 105018" d="M497.192,160.046h-2.463a1.232,1.232,0,0,1-1.232-1.231v-9.854a1.232,1.232,0,0,1,1.232-1.231h2.463a1.232,1.232,0,0,1,1.232,1.231v9.854A1.232,1.232,0,0,1,497.192,160.046Z" fill="#bb83ff"/>
            <path id="Trazado_105019" data-name="Trazado 105019" d="M534.142,160.046h-2.464a1.231,1.231,0,0,1-1.231-1.231v-9.854a1.231,1.231,0,0,1,1.231-1.231h2.464a1.231,1.231,0,0,1,1.231,1.231v9.854A1.231,1.231,0,0,1,534.142,160.046Z" fill="#bb83ff"/>
          </g>
        </g>
        <g id="Grupo_56719" data-name="Grupo 56719">
          <path id="Trazado_105020" data-name="Trazado 105020" d="M508.2,152.656v-1.231a1.152,1.152,0,1,0-2.3,0v1.231a1.152,1.152,0,1,0,2.3,0Z" fill="#855db5"/>
          <path id="Trazado_105021" data-name="Trazado 105021" d="M521.825,150.272a1.153,1.153,0,0,0-1.152,1.153v1.231a1.152,1.152,0,1,0,2.3,0v-1.231A1.152,1.152,0,0,0,521.825,150.272Z" fill="#855db5"/>
          <path id="Trazado_105022" data-name="Trazado 105022" d="M523.057,146.577h-2.464a1.153,1.153,0,0,0,0,2.305h2.464a1.153,1.153,0,0,0,0-2.305Z" fill="#855db5"/>
          <path id="Trazado_105023" data-name="Trazado 105023" d="M538.7,182.042a21.02,21.02,0,0,0,.288-3.521c0-5.458-2.178-8.531-4.1-11.243a15.57,15.57,0,0,1-3.077-6.079h2.315a2.385,2.385,0,0,0,2.085-1.232h1.61a3.62,3.62,0,0,0,3.615-3.616v-4.926A3.62,3.62,0,0,0,538.973,148V136.645a15.95,15.95,0,0,0-15.932-15.932H505.8a15.951,15.951,0,0,0-15.933,15.932V148a3.623,3.623,0,0,0-2.463,3.427v4.926a3.62,3.62,0,0,0,3.616,3.616h1.311v.079a9.784,9.784,0,0,0,9.774,9.774h.268a3.623,3.623,0,0,0,3.427,2.464h.1v1.52a3.749,3.749,0,0,1-.656,2.127l-.407-.272a2.391,2.391,0,0,0-3.009.3l-3.02,3.02-8.147,2.876a8.555,8.555,0,0,0-5.7,8.055v8.319a1.152,1.152,0,1,0,2.3,0v-8.319a6.247,6.247,0,0,1,4.162-5.882l7.72-2.725,2.483,4.966a2.385,2.385,0,0,0,3.659.765l4.938-4.115c.049.109.1.219.138.332l1.844,4.918a2.384,2.384,0,0,0,4.464,0l1.844-4.918c.043-.112.09-.222.139-.331l4.937,4.115a2.374,2.374,0,0,0,1.522.553,2.435,2.435,0,0,0,.493-.051,2.373,2.373,0,0,0,1.644-1.268l.816-1.633v13.593a1.152,1.152,0,1,0,2.3,0V181.64a3.62,3.62,0,0,0-2.412-3.409l-2.46-.868a3.781,3.781,0,0,1-2.518-3.559v-3.811a17.291,17.291,0,0,0,6.835-7.288,19.489,19.489,0,0,0,3.2,5.906c1.891,2.667,3.676,5.186,3.676,9.91a22.733,22.733,0,0,1-1.589,7.97,32.98,32.98,0,0,0-2.106,11.736,1.152,1.152,0,1,0,2.3,0,30.584,30.584,0,0,1,1.986-11c.322-.959.637-1.9.908-2.882a6.249,6.249,0,0,1,3.423,5.565v8.319a1.152,1.152,0,1,0,2.3,0v-8.319a8.556,8.556,0,0,0-5.214-7.866Zm.431-30.617v4.926a1.313,1.313,0,0,1-1.311,1.311H536.51v-7.548h1.311A1.313,1.313,0,0,1,539.132,151.425Zm-46.8,6.237h-1.311a1.312,1.312,0,0,1-1.311-1.311v-4.926a1.312,1.312,0,0,1,1.311-1.311h1.311Zm.3-9.853h-.457V136.645A13.643,13.643,0,0,1,505.8,123.017h17.243a13.643,13.643,0,0,1,13.627,13.628v11.164h-.457a2.385,2.385,0,0,0-2.085-1.232h-.064v-9.932a11.018,11.018,0,0,0-11.005-11.006H505.814a11.018,11.018,0,0,0-11.006,11.006v9.932h-.1a2.385,2.385,0,0,0-2.086,1.232Zm7.125-3.9a1.154,1.154,0,0,0,1.134.95,1.168,1.168,0,0,0,.2-.018,22.145,22.145,0,0,0,17.658-16.9h2.681a24.715,24.715,0,0,1-22.217,19.782,2.383,2.383,0,0,0-2.035-1.149h-.063v-9.932a8.711,8.711,0,0,1,8.7-8.7h10.563a19.833,19.833,0,0,1-15.692,14.631,1.153,1.153,0,0,0-.933,1.337Zm-5.119,14.9v-9.854a.08.08,0,0,1,.08-.079h2.463a.079.079,0,0,1,.079.079v9.854a.079.079,0,0,1-.079.079h-2.463A.08.08,0,0,1,494.633,158.815Zm7.738,8.7H502.1a7.479,7.479,0,0,1-7.38-6.316h2.453a2.37,2.37,0,0,0,1.1-.27,17.194,17.194,0,0,0,4.144,6.458c-.016.043-.031.085-.046.128Zm3.427,2.464a1.311,1.311,0,0,1,0-2.622h1.231a1.311,1.311,0,1,1,0,2.622Zm-1.991,15.283a.073.073,0,0,1-.067.016.078.078,0,0,1-.055-.042l-2.628-5.256,2.394-2.393a.079.079,0,0,1,.1-.01l4.9,3.264q.183.123.354.259Zm19.58-6.4a6.079,6.079,0,0,0,1.342.671l2.459.868a1.3,1.3,0,0,1,.326.173l-2.329,4.659a.072.072,0,0,1-.055.043.077.077,0,0,1-.067-.017L520.07,181.1q.169-.137.352-.26Zm5.891-29.9v6.182a14.877,14.877,0,0,1-14.858,14.836,1.152,1.152,0,0,0,0,2.3,17.058,17.058,0,0,0,6.253-1.18v2.7a6.072,6.072,0,0,0,1.045,3.4l-2.575,1.716a7.269,7.269,0,0,0-2.789,3.516l-1.845,4.918c-.01.029-.019.052-.074.052s-.063-.023-.074-.052l-1.844-4.918a7.277,7.277,0,0,0-2.79-3.516l-2.572-1.714A6.032,6.032,0,0,0,508.2,173.8v-1.715a3.615,3.615,0,0,0-1.169-7.036H505.8a3.593,3.593,0,0,0-1.911.548,14.9,14.9,0,0,1-4.327-10.462V150.01A27.023,27.023,0,0,0,519.039,139a35.4,35.4,0,0,0,7.1,6.306,1.152,1.152,0,0,0,1.222-1.954,34.116,34.116,0,0,1-7-6.348,26.811,26.811,0,0,0,3.4-9.027,8.71,8.71,0,0,1,7.99,8.669v9.933h-.1a2.387,2.387,0,0,0-2.384,2.384Zm2.3,9.854v-9.854a.08.08,0,0,1,.079-.079h2.464a.08.08,0,0,1,.079.079v9.854a.08.08,0,0,1-.079.079h-2.464A.08.08,0,0,1,531.583,158.815Z" fill="#855db5"/>
          <path id="Trazado_105024" data-name="Trazado 105024" d="M520.593,157.662H508.277a1.152,1.152,0,0,0-1.128,1.386,7.464,7.464,0,0,0,14.573,0,1.153,1.153,0,0,0-1.129-1.386Zm-6.158,4.927a5.172,5.172,0,0,1-4.513-2.622h9.026a5.172,5.172,0,0,1-4.513,2.622Z" fill="#855db5"/>
        </g>
      </g>
    </g>
  </g>
</svg>
