<svg xmlns="http://www.w3.org/2000/svg" width="102" height="102" viewBox="0 0 102 102">
  <g id="Grupo_56712" data-name="Grupo 56712" transform="translate(-728.599 -44.77)">
    <g id="Grupo_56782" data-name="Grupo 56782">
      <circle id="Elipse_4056" data-name="Elipse 4056" cx="16.309" cy="16.309" r="16.309" transform="translate(740.271 100.001)" fill="#dcbfff"/>
      <path id="Trazado_105110" data-name="Trazado 105110" d="M793.747,107.9a8.258,8.258,0,0,0-8.155-8.243h-3.709a8.259,8.259,0,0,0-8.229,8.243v10.068h4.578v13.454a6.056,6.056,0,0,1,8.125,2.708,2.708,2.708,0,0,0,2.709-2.708V117.973h4.622Z" fill="#c595ff"/>
      <path id="Trazado_105111" data-name="Trazado 105111" d="M790.155,92.244a6.462,6.462,0,1,1-6.462-6.462h.015a6.446,6.446,0,0,1,6.447,6.447Z" fill="#c595ff"/>
      <path id="Trazado_105112" data-name="Trazado 105112" d="M807.259,71.356l-11.5,10.275h6.595v52.46h9.8V81.631h6.579Z" fill="#dcbfff"/>
      <g id="Grupo_56781" data-name="Grupo 56781">
        <path id="Trazado_105113" data-name="Trazado 105113" d="M783.708,100.163a7.934,7.934,0,1,1,7.919-7.949v.03A7.949,7.949,0,0,1,783.708,100.163Zm0-12.909a4.99,4.99,0,1,0,4.975,5v-.014A4.989,4.989,0,0,0,783.708,87.254Z" fill="#855db5"/>
        <path id="Trazado_105114" data-name="Trazado 105114" d="M780.985,135.563a4.181,4.181,0,0,1-4.225-4.136V108.656a1.472,1.472,0,1,1,2.944,0v22.727a1.251,1.251,0,0,0,2.488,0V120.152a1.472,1.472,0,1,1,2.944,0v11.231A4.2,4.2,0,0,1,780.985,135.563Z" fill="#855db5"/>
        <path id="Trazado_105115" data-name="Trazado 105115" d="M786.416,135.563a4.181,4.181,0,0,1-4.18-4.18h0V120.152a1.472,1.472,0,1,1,2.944,0v11.231a1.237,1.237,0,0,0,2.473,0V108.656a1.472,1.472,0,1,1,2.944,0v22.727a4.181,4.181,0,0,1-4.181,4.18Z" fill="#855db5"/>
        <path id="Trazado_105116" data-name="Trazado 105116" d="M793.747,119.4a1.472,1.472,0,0,1-1.472-1.472V107.846a6.772,6.772,0,0,0-6.683-6.756h-3.709a6.771,6.771,0,0,0-6.757,6.756v10.083a1.472,1.472,0,1,1-2.944,0V107.846a9.716,9.716,0,0,1,9.7-9.7h3.709a9.714,9.714,0,0,1,9.7,9.7v10.083a1.472,1.472,0,0,1-1.47,1.474Z" fill="#855db5"/>
        <path id="Trazado_105117" data-name="Trazado 105117" d="M817.975,135.563H743.744a1.472,1.472,0,1,1,0-2.944h74.231a1.472,1.472,0,1,1,0,2.944Z" fill="#855db5"/>
        <path id="Trazado_105118" data-name="Trazado 105118" d="M756.58,134.091a1.472,1.472,0,0,1-1.472-1.472V101.164a1.472,1.472,0,0,1,2.944,0v31.455A1.472,1.472,0,0,1,756.58,134.091Z" fill="#855db5"/>
        <path id="Trazado_105119" data-name="Trazado 105119" d="M758.935,129.587h-5.549c-4.622,0-8.39-3.253-8.39-7.257a1.472,1.472,0,1,1,2.943,0c0,2.385,2.444,4.313,5.447,4.313h5.549c2.944,0,5.446-1.928,5.446-4.313v-.309a3.5,3.5,0,0,0-2.826-3.135l-11.467-2.355A6.271,6.271,0,0,1,745,110.643v-.309c0-4,3.768-7.257,8.39-7.257h5.549c4.637,0,8.405,3.253,8.405,7.257a1.472,1.472,0,0,1-2.944,0c0-2.37-2.444-4.313-5.461-4.313h-5.549c-2.944,0-5.447,1.943-5.447,4.313v.309a3.328,3.328,0,0,0,2.724,3.047l11.466,2.355a6.417,6.417,0,0,1,5.2,6.02v.309C767.325,126.334,763.513,129.587,758.935,129.587Z" fill="#855db5"/>
      </g>
      <path id="Trazado_105120" data-name="Trazado 105120" d="M746.806,92.273a1.478,1.478,0,0,1-.265-2.944c.383-.074,36.961-7.1,57.406-28.806l-4.416.9a1.5,1.5,0,1,1-.574-2.944l8.6-1.663a1.459,1.459,0,0,1,1.354,2.369C798.28,72.328,782,80.615,770.225,85.266a141.2,141.2,0,0,1-23.139,6.992Z" fill="#855db5"/>
      <path id="Trazado_105121" data-name="Trazado 105121" d="M812.161,135.563h-9.8a1.472,1.472,0,0,1-1.472-1.472V83.162h-5.123a1.472,1.472,0,0,1-.971-2.576l11.481-10.3a1.472,1.472,0,0,1,1.958,0l11.5,10.3a1.472,1.472,0,0,1-.987,2.576h-5.107v50.929a1.472,1.472,0,0,1-1.472,1.472Zm-8.332-2.944h6.86V81.69a1.472,1.472,0,0,1,1.472-1.472h2.723L807.259,73.4l-7.639,6.815h2.738a1.472,1.472,0,0,1,1.471,1.472Z" fill="#855db5"/>
    </g>
    <rect id="Rectángulo_5525" data-name="Rectángulo 5525" width="102" height="102" transform="translate(728.599 44.77)" fill="none"/>
  </g>
</svg>
