<svg xmlns="http://www.w3.org/2000/svg" width="201" height="199" viewBox="0 0 201 199">
  <g id="Grupo_59801" data-name="Grupo 59801" transform="translate(-72.193 -75.357)">
    <rect id="Rectángulo_6365" data-name="Rectángulo 6365" width="201" height="199" transform="translate(72.193 75.357)" fill="none"/>
    <g id="Grupo_59802" data-name="Grupo 59802" transform="translate(-287.87 -2549.782)">
      <path id="Trazado_108115" data-name="Trazado 108115" d="M528.525,2718.687H389.056a15.273,15.273,0,0,0-15.273,15.273v40.31a15.273,15.273,0,0,0,15.273,15.272h46.749a4.414,4.414,0,0,1,3.522,1.754l16.755,22.2a3.393,3.393,0,0,0,5.418,0l16.755-22.2a4.413,4.413,0,0,1,3.522-1.754h46.749A15.273,15.273,0,0,0,543.8,2774.27v-40.31a15.273,15.273,0,0,0-15.273-15.273Z" transform="translate(0 -7.638)" fill="#2ab9c4"/>
      <path id="Trazado_108116" data-name="Trazado 108116" d="M531.683,2719.043a15.31,15.31,0,0,1,.321,3.123v36.953a18.629,18.629,0,0,1-18.628,18.628H377.261a15.343,15.343,0,0,1-3.122-.321,15.277,15.277,0,0,0,14.952,12.151H435.84a4.414,4.414,0,0,1,3.523,1.754l16.755,22.2a3.393,3.393,0,0,0,5.418,0l16.755-22.2a4.413,4.413,0,0,1,3.522-1.754h46.749a15.273,15.273,0,0,0,15.273-15.272V2734a15.279,15.279,0,0,0-12.151-14.953Z" transform="translate(-0.035 -7.674)" fill="#21949d"/>
      <path id="Trazado_108117" data-name="Trazado 108117" d="M441.88,2728.271a28.513,28.513,0,0,0-28.1-23.688H402.433a28.514,28.514,0,0,0-27.653,21.581,1.7,1.7,0,0,0,1.65,2.107Z" transform="translate(-0.094 -6.241)" fill="#95d6a4"/>
      <path id="Trazado_108118" data-name="Trazado 108118" d="M433.508,2728.271h11.416a28.513,28.513,0,0,0-28.1-23.688H405.444a28.513,28.513,0,0,1,28.064,23.687Z" transform="translate(-3.137 -6.241)" fill="#78c2a4"/>
      <path id="Trazado_108119" data-name="Trazado 108119" d="M497.178,2728.271a28.512,28.512,0,0,0-28.1-23.688H457.731a28.513,28.513,0,0,0-28.1,23.688Z" transform="translate(-5.534 -6.241)" fill="#dd5790"/>
      <path id="Trazado_108120" data-name="Trazado 108120" d="M488.849,2728.271h11.416a28.512,28.512,0,0,0-28.1-23.688H460.786a28.513,28.513,0,0,1,28.063,23.687Z" transform="translate(-8.62 -6.241)" fill="#da387d"/>
      <path id="Trazado_108121" data-name="Trazado 108121" d="M552.392,2728.271a1.7,1.7,0,0,0,1.651-2.107,28.515,28.515,0,0,0-27.654-21.581H515.037a28.512,28.512,0,0,0-28.1,23.688Z" transform="translate(-11.211 -6.241)" fill="#335995"/>
      <path id="Trazado_108122" data-name="Trazado 108122" d="M415.526,2712.619h-9.648a4.981,4.981,0,0,1-4.981-4.981v-14.629h19.61v14.629A4.98,4.98,0,0,1,415.526,2712.619Z" transform="translate(-2.686 -5.094)" fill="#904f40"/>
      <path id="Trazado_108123" data-name="Trazado 108123" d="M470.866,2713.141h-9.647a4.981,4.981,0,0,1-4.981-4.981v-14.628h19.61v14.628A4.98,4.98,0,0,1,470.866,2713.141Z" transform="translate(-8.169 -5.146)" fill="#eaac9d"/>
      <circle id="Elipse_4147" data-name="Elipse 4147" cx="22.219" cy="22.219" r="22.219" transform="translate(487.283 2729.642)" fill="#f4fbff"/>
      <path id="Trazado_108124" data-name="Trazado 108124" d="M535.347,2743.921a22.213,22.213,0,0,1-30.988,30.988,22.216,22.216,0,1,0,30.988-30.988Z" transform="translate(-12.937 -10.139)" fill="#e4f6ff"/>
      <path id="Trazado_108125" data-name="Trazado 108125" d="M511.192,2762.344l8.6,8.6L536,2754.738" transform="translate(-13.614 -11.21)" fill="none" stroke="#21949d" stroke-linecap="round" stroke-linejoin="round" stroke-width="7"/>
      <g id="Grupo_59728" data-name="Grupo 59728" transform="translate(390.16 2742.311)">
        <g id="Grupo_59724" data-name="Grupo 59724" transform="translate(65.745 2.282)">
          <path id="Trazado_108126" data-name="Trazado 108126" d="M464.936,2755.92v16.422" transform="translate(-464.936 -2755.92)" fill="none" stroke="#fff" stroke-linecap="round" stroke-linejoin="round" stroke-width="7"/>
          <path id="Trazado_108127" data-name="Trazado 108127" d="M473.827,2756.15l-8.308,7.636,8.891,8.579" transform="translate(-464.994 -2755.943)" fill="none" stroke="#fff" stroke-linecap="round" stroke-linejoin="round" stroke-width="7"/>
        </g>
        <g id="Grupo_59725" data-name="Grupo 59725" transform="translate(0 0.4)">
          <path id="Trazado_108128" data-name="Trazado 108128" d="M391.961,2753.831h4.192v19.614" transform="translate(-391.961 -2753.831)" fill="none" stroke="#fff" stroke-linecap="round" stroke-linejoin="round" stroke-width="7"/>
        </g>
        <g id="Grupo_59726" data-name="Grupo 59726" transform="translate(16.146 0.113)">
          <path id="Trazado_108129" data-name="Trazado 108129" d="M420.657,2773.465s-9.543.12-9.995-.031.725-.947,6.981-9.885a12.636,12.636,0,0,0,2.086-4.259l.1-.759a5.02,5.02,0,0,0-9.944-.973" transform="translate(-409.883 -2753.513)" fill="none" stroke="#fff" stroke-linecap="round" stroke-linejoin="round" stroke-width="7"/>
        </g>
        <g id="Grupo_59727" data-name="Grupo 59727" transform="translate(37.692)">
          <path id="Trazado_108130" data-name="Trazado 108130" d="M445.142,2768.13a5.672,5.672,0,1,1-11.344,0v-9.07a5.672,5.672,0,1,1,11.344,0Z" transform="translate(-433.798 -2753.387)" fill="none" stroke="#fff" stroke-linecap="round" stroke-linejoin="round" stroke-width="7"/>
        </g>
      </g>
      <path id="Trazado_108131" data-name="Trazado 108131" d="M546.154,2728.271h9.324a1.7,1.7,0,0,0,1.65-2.107,28.514,28.514,0,0,0-27.653-21.581H518.091a28.512,28.512,0,0,1,28.063,23.687Z" transform="translate(-14.297 -6.241)" fill="#21386b"/>
      <path id="Trazado_108132" data-name="Trazado 108132" d="M528.172,2713.141h-9.648a4.98,4.98,0,0,1-4.98-4.981v-14.628h19.609v14.628a4.981,4.981,0,0,1-4.981,4.981Z" transform="translate(-13.847 -5.146)" fill="#eaac9d"/>
      <path id="Trazado_108133" data-name="Trazado 108133" d="M415.432,2693.009v14.519a5.091,5.091,0,0,1-5.091,5.091h6.12a4.98,4.98,0,0,0,4.981-4.98v-14.629Z" transform="translate(-3.622 -5.094)" fill="#784033"/>
      <path id="Trazado_108134" data-name="Trazado 108134" d="M470.773,2693.531v14.518a5.091,5.091,0,0,1-5.091,5.091h6.12a4.98,4.98,0,0,0,4.981-4.98v-14.629Z" transform="translate(-9.105 -5.146)" fill="#df9380"/>
      <path id="Trazado_108135" data-name="Trazado 108135" d="M528.078,2693.531v14.518a5.091,5.091,0,0,1-5.091,5.091h6.121a4.98,4.98,0,0,0,4.98-4.98v-14.629Z" transform="translate(-14.782 -5.146)" fill="#df9380"/>
      <circle id="Elipse_4148" data-name="Elipse 4148" cx="7.508" cy="7.508" r="7.508" transform="translate(450.366 2641.589)" fill="#aa7a63"/>
      <path id="Trazado_108136" data-name="Trazado 108136" d="M466.837,2641.589a7.462,7.462,0,0,0-2.579.465,7.5,7.5,0,0,1,0,14.087,7.505,7.505,0,1,0,2.579-14.552Z" transform="translate(-8.964)" fill="#986b54"/>
      <path id="Trazado_108137" data-name="Trazado 108137" d="M481.234,2677.431h-.62v-4.208l-1.018-5.582H450l-1.018,5.582v4.208h-.62a4.681,4.681,0,0,0-4.682,4.682v1.523a5.477,5.477,0,0,0,5.477,5.478H450.2a21.147,21.147,0,0,0,4.84,7.75l1.2,1.222a11.934,11.934,0,0,0,5.083,3.081s2.038.067,3.315.034c1.2-.031,2.867.234,4.013-.153a11.95,11.95,0,0,0,4.71-2.962l1.2-1.222a21.147,21.147,0,0,0,4.84-7.75h1.041a5.478,5.478,0,0,0,5.477-5.478v-1.523a4.683,4.683,0,0,0-4.683-4.682Z" transform="translate(-6.925 -2.581)" fill="#ffcbbe"/>
      <path id="Trazado_108138" data-name="Trazado 108138" d="M483.173,2677.431h-.62v-4.208l-1.018-5.582H475.6v14.408a21.153,21.153,0,0,1-6.055,14.816l-1.2,1.222a11.942,11.942,0,0,1-5.084,3.081,11.992,11.992,0,0,0,12.038-3.081l1.2-1.222a21.148,21.148,0,0,0,4.841-7.75h1.041a5.478,5.478,0,0,0,5.477-5.478v-1.523a4.683,4.683,0,0,0-4.683-4.682Z" transform="translate(-8.865 -2.581)" fill="#eaac9d"/>
      <path id="Trazado_108139" data-name="Trazado 108139" d="M425.893,2676.851h-.62V2673.2l-1.018-2.235H394.661l-1.018,2.235v3.652h-.619a4.682,4.682,0,0,0-4.683,4.682v1.524a5.477,5.477,0,0,0,5.478,5.477h1.04a21.166,21.166,0,0,0,4.841,7.751l1.2,1.222a11.954,11.954,0,0,0,5.084,3.081s2,.093,3.186.089a13.9,13.9,0,0,0,4.088-.191,11.93,11.93,0,0,0,4.764-2.979l1.2-1.222a21.142,21.142,0,0,0,4.84-7.751H425.1a5.477,5.477,0,0,0,5.477-5.477v-1.524A4.684,4.684,0,0,0,425.893,2676.851Z" transform="translate(-1.442 -2.91)" fill="#a55e4d"/>
      <path id="Trazado_108140" data-name="Trazado 108140" d="M427.832,2676.851h-.62V2673.2l-1.018-2.235h-5.936v10.5a21.154,21.154,0,0,1-6.055,14.817l-1.2,1.222a11.927,11.927,0,0,1-5.083,3.08,11.989,11.989,0,0,0,12.038-3.08l1.2-1.222a21.156,21.156,0,0,0,4.841-7.751h1.04a5.477,5.477,0,0,0,5.478-5.477v-1.524a4.683,4.683,0,0,0-4.683-4.682Z" transform="translate(-3.382 -2.91)" fill="#904f40"/>
      <path id="Trazado_108141" data-name="Trazado 108141" d="M538.539,2676.851h-.62V2673.2l-1.018-2.235H507.308l-1.018,2.235v3.652h-.62a4.682,4.682,0,0,0-4.682,4.682v1.524a5.477,5.477,0,0,0,5.477,5.477h1.041a21.151,21.151,0,0,0,4.84,7.751l1.2,1.222a11.951,11.951,0,0,0,5.083,3.081s2.159.073,3.433.042a14.149,14.149,0,0,0,3.895-.162,11.954,11.954,0,0,0,4.711-2.961l1.2-1.222a21.165,21.165,0,0,0,4.841-7.751h1.04a5.477,5.477,0,0,0,5.478-5.477v-1.524a4.684,4.684,0,0,0-4.684-4.682Z" transform="translate(-12.603 -2.91)" fill="#ffcbbe"/>
      <path id="Trazado_108142" data-name="Trazado 108142" d="M538.5,2671.721v-7.868a7.806,7.806,0,0,0-7.806-7.807H514.679a7.806,7.806,0,0,0-7.806,7.807v7.868Z" transform="translate(-13.186 -1.432)" fill="#ffd064"/>
      <path id="Trazado_108143" data-name="Trazado 108143" d="M540.478,2676.851h-.62V2673.2l-1.018-2.235H532.9v10.5a21.153,21.153,0,0,1-6.055,14.817l-1.2,1.222a11.935,11.935,0,0,1-5.084,3.08,11.989,11.989,0,0,0,12.038-3.08l1.2-1.222a21.145,21.145,0,0,0,4.841-7.751h1.041a5.477,5.477,0,0,0,5.477-5.477v-1.524a4.682,4.682,0,0,0-4.683-4.682Z" transform="translate(-14.542 -2.91)" fill="#eaac9d"/>
      <path id="Trazado_108144" data-name="Trazado 108144" d="M532.551,2656.047H525.6a7.806,7.806,0,0,1,7.806,7.807v7.868h6.954v-7.868A7.806,7.806,0,0,0,532.551,2656.047Z" transform="translate(-15.041 -1.432)" fill="#ffc250"/>
      <path id="Trazado_108145" data-name="Trazado 108145" d="M425.856,2671.721v-7.868a7.806,7.806,0,0,0-7.806-7.807H402.033a7.807,7.807,0,0,0-7.806,7.807v7.868Z" transform="translate(-2.025 -1.432)" fill="#7a402b"/>
      <path id="Trazado_108146" data-name="Trazado 108146" d="M419.905,2656.047h-6.954a7.806,7.806,0,0,1,7.806,7.807v7.868h6.954v-7.868A7.806,7.806,0,0,0,419.905,2656.047Z" transform="translate(-3.881 -1.432)" fill="#523838"/>
      <path id="Trazado_108147" data-name="Trazado 108147" d="M465.382,2668.165A35.137,35.137,0,0,1,481.2,2671.9v-5.889a11.713,11.713,0,0,0-9.553-11.511l-2.566.258-2.481-.456h-5.32a11.71,11.71,0,0,0-11.709,11.709v5.889a35.139,35.139,0,0,1,15.815-3.736Z" transform="translate(-7.508 -1.259)" fill="#aa7a63"/>
      <g id="Grupo_59729" data-name="Grupo 59729" transform="translate(455.024 2653.043)">
        <path id="Trazado_108148" data-name="Trazado 108148" d="M470.913,2654.3h-6.955a11.71,11.71,0,0,1,11.709,11.709v3.279a35.144,35.144,0,0,1,6.955,2.61v-5.889A11.71,11.71,0,0,0,470.913,2654.3Z" transform="translate(-463.958 -2654.303)" fill="#986b54"/>
      </g>
    </g>
  </g>
</svg>
