<svg xmlns="http://www.w3.org/2000/svg" width="456.32" height="303.809" viewBox="0 0 456.32 303.809">
  <g id="Grupo_59630" data-name="Grupo 59630" transform="translate(-594.086 -2041.133)">
    <g id="Grupo_59535" data-name="Grupo 59535" transform="translate(594.086 2041.133)">
      <g id="Grupo_56029" data-name="Grupo 56029">
        <path id="Trazado_101095" data-name="Trazado 101095" d="M629.24,2060.076c25.523-20.225,60.374-23.923,90.141-12.682,39.547,14.94,68.653,52.772,107.063,70.94a120.057,120.057,0,0,0,86.237,6.358c13.764-4.225,27.149-11,41.435-11.457,12.653-.4,25.151,4.3,35.906,11.62,31.649,21.553,47.539,67.516,36.867,106.679-5.71,20.969-17.972,39.181-32.256,54.45-29.507,31.555-68.654,52.068-109.567,57.407-22.836,2.98-46,1.361-68.753-2.3-49.582-7.98-98.432-26.06-139.259-57.944-48.875-38.172-97.315-104.755-79.015-174.163C603.163,2089.564,614.28,2071.93,629.24,2060.076Z" transform="translate(-594.086 -2041.133)" fill="#dcbfff"/>
        <path id="Trazado_101096" data-name="Trazado 101096" d="M963.046,2109.089c-1.607-4.11-2.943-9.327-.234-12.67a7.5,7.5,0,0,1,3.948-2.4c7.156-1.928,14.172,3.571,19.162,9.52a84.743,84.743,0,0,1,11.734,18.442,32.47,32.47,0,0,1,3.341,10.834c.34,3.817-.522,7.909-2.949,10.672C981.716,2162.071,967.5,2120.477,963.046,2109.089Z" transform="translate(-544.747 -2034.079)" fill="#dcbfff"/>
      </g>
    </g>
    <g id="Grupo_59543" data-name="Grupo 59543" transform="translate(797.757 2088.751)">
      <g id="Grupo_59540" data-name="Grupo 59540">
        <g id="Grupo_59537" data-name="Grupo 59537">
          <g id="Grupo_59536" data-name="Grupo 59536" transform="translate(0.001)">
            <rect id="Rectángulo_6317" data-name="Rectángulo 6317" width="199.168" height="137.221" rx="7.177" fill="#e6e6e6"/>
          </g>
          <path id="Trazado_107845" data-name="Trazado 107845" d="M972.8,2107.29v-16.039a8.141,8.141,0,0,0-8.141-8.14H781.772a8.141,8.141,0,0,0-8.141,8.14v16.039Z" transform="translate(-773.631 -2083.111)" fill="#c4c4c4"/>
        </g>
        <g id="Grupo_59539" data-name="Grupo 59539" transform="translate(13.307 8.889)">
          <g id="Grupo_59538" data-name="Grupo 59538">
            <path id="Trazado_107846" data-name="Trazado 107846" d="M788.444,2090.947a3.081,3.081,0,1,0,3.082,3.082A3.082,3.082,0,0,0,788.444,2090.947Z" transform="translate(-785.362 -2090.947)" fill="#fff"/>
            <path id="Trazado_107847" data-name="Trazado 107847" d="M798.893,2090.947a3.081,3.081,0,1,0,3.081,3.082A3.081,3.081,0,0,0,798.893,2090.947Z" transform="translate(-783.958 -2090.947)" fill="#fff"/>
            <path id="Trazado_107848" data-name="Trazado 107848" d="M809.341,2090.947a3.081,3.081,0,1,0,3.082,3.082A3.081,3.081,0,0,0,809.341,2090.947Z" transform="translate(-782.554 -2090.947)" fill="#fff"/>
          </g>
          <path id="Trazado_107849" data-name="Trazado 107849" d="M950.6,2097.11H819.94a3.081,3.081,0,0,1-3.082-3.081h0a3.081,3.081,0,0,1,3.082-3.082H950.6a3.082,3.082,0,0,1,3.082,3.082h0A3.081,3.081,0,0,1,950.6,2097.11Z" transform="translate(-781.13 -2090.947)" fill="#fff"/>
        </g>
      </g>
      <g id="Grupo_59542" data-name="Grupo 59542" transform="translate(11.991 30.187)">
        <rect id="Rectángulo_6318" data-name="Rectángulo 6318" width="175.187" height="94.963" rx="4.128" fill="#c4c4c4"/>
        <g id="Grupo_59541" data-name="Grupo 59541" transform="translate(7.275 15.808)">
          <path id="Trazado_107850" data-name="Trazado 107850" d="M791.182,2178.827l-.567-.9,40.378-25.454.3.25,20.242,17.089,61.966-46.155,38.972,29.856-.647.844-38.334-29.366-62,46.177L830.9,2153.787Z" transform="translate(-790.614 -2123.658)" fill="#fff"/>
        </g>
      </g>
    </g>
    <path id="Trazado_107851" data-name="Trazado 107851" d="M840.393,2118.127h22.028a16.873,16.873,0,0,1,16.824,16.824h0a16.873,16.873,0,0,1-16.781,16.823v11.446l-16.6-11.445h-5.476a16.874,16.874,0,0,1-16.825-16.824h0A16.874,16.874,0,0,1,840.393,2118.127Z" transform="translate(30.836 10.346)" fill="#2ab9c4"/>
    <g id="Grupo_59544" data-name="Grupo 59544" transform="translate(862.554 2140.368)">
      <path id="Trazado_107852" data-name="Trazado 107852" d="M835.681,2128.613a4.929,4.929,0,1,0,4.929,4.93A4.961,4.961,0,0,0,835.681,2128.613Z" transform="translate(-830.752 -2128.613)" fill="#fff"/>
      <path id="Trazado_107853" data-name="Trazado 107853" d="M848.693,2128.613a4.929,4.929,0,1,0,4.929,4.93A4.961,4.961,0,0,0,848.693,2128.613Z" transform="translate(-829.004 -2128.613)" fill="#fff"/>
      <path id="Trazado_107854" data-name="Trazado 107854" d="M861.706,2128.613a4.929,4.929,0,1,0,4.929,4.93A4.96,4.96,0,0,0,861.706,2128.613Z" transform="translate(-827.255 -2128.613)" fill="#fff"/>
    </g>
    <g id="Grupo_59545" data-name="Grupo 59545" transform="translate(731.092 2219.05)">
      <path id="Trazado_107855" data-name="Trazado 107855" d="M722.7,2213.641a7.833,7.833,0,1,1,7.833-7.834A7.843,7.843,0,0,1,722.7,2213.641Zm0-14.6a6.769,6.769,0,1,0,6.769,6.769A6.776,6.776,0,0,0,722.7,2199.038Z" transform="translate(-714.863 -2197.974)" fill="#fff"/>
    </g>
    <g id="Grupo_59547" data-name="Grupo 59547" transform="translate(750.718 2169.592)">
      <g id="Grupo_59546" data-name="Grupo 59546">
        <path id="Trazado_107856" data-name="Trazado 107856" d="M755.987,2164.306a11.972,11.972,0,1,1-13.839-9.754A11.973,11.973,0,0,1,755.987,2164.306Z" transform="translate(-732.157 -2154.375)" fill="#c4c4c4"/>
        <rect id="Rectángulo_6319" data-name="Rectángulo 6319" width="23.944" height="12.011" transform="matrix(-0.985, 0.171, -0.171, -0.985, 31.503, 54.262)" fill="#bb2700"/>
        <path id="Trazado_107857" data-name="Trazado 107857" d="M738.185,2200.8l28.286-3.841-10.714-35.028-23.593,4.084Z" transform="translate(-732.164 -2153.36)" fill="#c4c4c4"/>
      </g>
    </g>
    <path id="Trazado_107858" data-name="Trazado 107858" d="M675.649,2226.863l-5.5,74.881h32.2l4.887-49.077h10l3.255,49.077h32.2l-5.432-80.091Z" transform="translate(10.222 24.258)" fill="#2ab9c4"/>
    <path id="Trazado_107859" data-name="Trazado 107859" d="M747.6,2235.268,746.7,2222.5l-70.974-7.162-1.33,22.452Z" transform="translate(10.792 23.409)" fill="#21949d"/>
    <g id="Grupo_59548" data-name="Grupo 59548" transform="translate(685.957 2239.466)">
      <rect id="Rectángulo_6320" data-name="Rectángulo 6320" width="86.778" height="1.063" transform="translate(0 86.49) rotate(-85.334)" fill="#00111c"/>
    </g>
    <g id="Grupo_59549" data-name="Grupo 59549" transform="translate(717.479 2247.627)">
      <path id="Trazado_107860" data-name="Trazado 107860" d="M703.556,2252.648q-.344,0-.694-.03l.087-1.058a7.464,7.464,0,0,0,8.04-6.839l1.741-21.555,1.058.087-1.741,21.556A8.537,8.537,0,0,1,703.556,2252.648Z" transform="translate(-702.862 -2223.166)" fill="#00111c"/>
    </g>
    <g id="Grupo_59550" data-name="Grupo 59550" transform="translate(712.065 2244.416)">
      <rect id="Rectángulo_6321" data-name="Rectángulo 6321" width="81.912" height="1.064" transform="translate(0 81.536) rotate(-84.506)" fill="#00111c"/>
    </g>
    <path id="Trazado_107861" data-name="Trazado 107861" d="M681.669,2151.625l34.709-.906,34.4,4.725-.386,85.082-78.7-6.444Z" transform="translate(10.427 14.726)" fill="#fff"/>
    <g id="Grupo_59551" data-name="Grupo 59551" transform="translate(681.518 2164.913)">
      <path id="Trazado_107862" data-name="Trazado 107862" d="M750.988,2241.167l-.573-.048-79.254-6.489,10.1-83.463,35.168-.918,34.946,4.8Zm-78.638-7.506,77.58,6.351.382-84.041-33.935-4.661-34.165.9Z" transform="translate(-671.161 -2150.25)" fill="#00111c"/>
    </g>
    <g id="Grupo_59565" data-name="Grupo 59565" transform="translate(708.437 2109.593)">
      <path id="Trazado_107863" data-name="Trazado 107863" d="M721.443,2153.254l-17.167.5-.441-22.456,17.167-.5Z" transform="translate(-693.689 -2097.544)" fill="#bb2700"/>
      <path id="Trazado_107864" data-name="Trazado 107864" d="M721.6,2151.073l-17.619-14.849-.145-4.921,17.167-.5Z" transform="translate(-693.689 -2097.544)" fill="#00111c"/>
      <path id="Trazado_107865" data-name="Trazado 107865" d="M728.317,2116.794c1.527,10.293,1.475,24.9-12.277,26.941-12.3,1.825-18.042-11.925-19.569-22.218s5.021-15.273,13.814-16.578S726.79,2106.5,728.317,2116.794Z" transform="translate(-694.709 -2101.058)" fill="#bb2700"/>
      <g id="Grupo_59554" data-name="Grupo 59554" transform="translate(12.783 19.443)">
        <g id="Grupo_59552" data-name="Grupo 59552" transform="translate(10.904)">
          <path id="Trazado_107866" data-name="Trazado 107866" d="M718.562,2121.571c.661-.1,1.317.627,1.464,1.619s-.27,1.875-.931,1.974-1.317-.627-1.463-1.619S717.9,2121.67,718.562,2121.571Z" transform="translate(-715.526 -2118.228)" fill="#00111c"/>
          <path id="Trazado_107867" data-name="Trazado 107867" d="M721.239,2119.52l-5.467.811A3.627,3.627,0,0,1,721.239,2119.52Z" transform="translate(-715.772 -2118.623)" fill="#00111c"/>
        </g>
        <g id="Grupo_59553" data-name="Grupo 59553" transform="translate(0 1.617)">
          <path id="Trazado_107868" data-name="Trazado 107868" d="M708.951,2123c.661-.1,1.316.626,1.463,1.619s-.27,1.875-.931,1.973-1.316-.626-1.463-1.618S708.289,2123.1,708.951,2123Z" transform="translate(-705.914 -2119.653)" fill="#00111c"/>
          <path id="Trazado_107869" data-name="Trazado 107869" d="M711.628,2120.945l-5.468.811A3.629,3.629,0,0,1,711.628,2120.945Z" transform="translate(-706.16 -2120.048)" fill="#00111c"/>
        </g>
      </g>
      <g id="Grupo_59559" data-name="Grupo 59559" transform="translate(0.282 24.425)">
        <g id="Grupo_59558" data-name="Grupo 59558">
          <g id="Grupo_59557" data-name="Grupo 59557">
            <path id="Trazado_107870" data-name="Trazado 107870" d="M695.192,2128.516a4.8,4.8,0,1,0,4.041-5.448A4.8,4.8,0,0,0,695.192,2128.516Z" transform="translate(-695.14 -2123.014)" fill="#bb2700"/>
            <g id="Grupo_59556" data-name="Grupo 59556" transform="translate(3.005 1.567)">
              <g id="Grupo_59555" data-name="Grupo 59555">
                <path id="Trazado_107871" data-name="Trazado 107871" d="M700.834,2130.508c-1.407-.31-2.214-.764-2.54-1.433a2.459,2.459,0,0,1,.3-2.167c.183-.379.39-.81.3-.994-.034-.067-.213-.3-1.107-.474l.2-1.043c1.007.2,1.6.529,1.854,1.041a2.183,2.183,0,0,1-.289,1.931c-.234.484-.454.941-.309,1.241.094.194.456.562,1.813.86Z" transform="translate(-697.789 -2124.396)" fill="#00111c"/>
              </g>
            </g>
          </g>
        </g>
      </g>
      <g id="Grupo_59564" data-name="Grupo 59564" transform="translate(17.456 24.556)">
        <g id="Grupo_59561" data-name="Grupo 59561" transform="translate(4.812)">
          <g id="Grupo_59560" data-name="Grupo 59560">
            <path id="Trazado_107872" data-name="Trazado 107872" d="M715.273,2129.49l-.383-.992c1.79-.691,1.82-1.148,1.82-1.153-.026-.222-.784-.635-1.458-.726l-.419-.056-.312-3.333,1.058-.1.236,2.523c.725.189,1.843.668,1.95,1.569C717.9,2128.341,716.406,2129.053,715.273,2129.49Z" transform="translate(-714.521 -2123.13)" fill="#00111c"/>
          </g>
        </g>
        <g id="Grupo_59563" data-name="Grupo 59563" transform="translate(0 6.933)">
          <g id="Grupo_59562" data-name="Grupo 59562">
            <path id="Trazado_107873" data-name="Trazado 107873" d="M714.332,2131.246a9.569,9.569,0,0,1-4.053-.933l.448-.964a8.135,8.135,0,0,0,7.369-.108l.486.946A9.254,9.254,0,0,1,714.332,2131.246Z" transform="translate(-710.279 -2129.242)" fill="#00111c"/>
          </g>
        </g>
      </g>
      <path id="Trazado_107874" data-name="Trazado 107874" d="M697.725,2126.632c4.623,1.125,8.622-1.719,4.4-9.305,0,0,28.91,5.164,27.755-7.136C728.45,2094.931,683.32,2099.311,697.725,2126.632Z" transform="translate(-694.891 -2101.483)" fill="#00111c"/>
      <path id="Trazado_107875" data-name="Trazado 107875" d="M728.133,2154.88l-5.57-10.442-9.8,7.183-8.946-8.219-7.027,10.311,10.385,5.747,5.526-6.7,4.754,7.265Z" transform="translate(-694.636 -2095.85)" fill="#fff"/>
    </g>
    <path id="Trazado_107876" data-name="Trazado 107876" d="M752,2193h0a4.113,4.113,0,0,0-2.766,4.779l1.974,9.2,15.434.68-10.066-13.171A4.113,4.113,0,0,0,752,2193Z" transform="translate(20.835 20.381)" fill="#bb2700"/>
    <path id="Trazado_107877" data-name="Trazado 107877" d="M725.657,2220.5l24.579,4.136a3.351,3.351,0,0,0,3.729-2.426l9.323-35.919a2.714,2.714,0,0,0-2.21-3.426l-24.578-4.136a3.352,3.352,0,0,0-3.729,2.426l-9.323,35.92A2.714,2.714,0,0,0,725.657,2220.5Z" transform="translate(17.37 18.483)" fill="#2ab9c4"/>
    <g id="Grupo_59566" data-name="Grupo 59566" transform="translate(755.435 2215.012)">
      <path id="Trazado_107878" data-name="Trazado 107878" d="M741.236,2204.714a5.284,5.284,0,0,1-.881-.075,4.753,4.753,0,0,1-3.864-5.985,5.756,5.756,0,0,1,6.4-4.165,4.756,4.756,0,0,1,3.865,5.986A5.793,5.793,0,0,1,741.236,2204.714Zm.769-9.235a4.7,4.7,0,0,0-4.484,3.443h0a3.689,3.689,0,0,0,3.011,4.669,4.683,4.683,0,0,0,5.2-3.383,3.692,3.692,0,0,0-3.011-4.67A4.34,4.34,0,0,0,742.005,2195.479Z" transform="translate(-736.323 -2194.415)" fill="#00111c"/>
    </g>
    <path id="Trazado_107879" data-name="Trazado 107879" d="M736.728,2178.768a3.352,3.352,0,0,0-3.729,2.426l-9.323,35.92a2.7,2.7,0,0,0,1.81,3.316l-1.529-.258a2.715,2.715,0,0,1-2.21-3.426l9.323-35.919a3.353,3.353,0,0,1,3.729-2.426" transform="translate(17.141 18.44)" fill="#00111c"/>
    <circle id="Elipse_4121" data-name="Elipse 4121" cx="11.972" cy="11.972" r="11.972" transform="translate(763.088 2225.987) rotate(-14.466)" fill="#bb2700"/>
    <g id="Grupo_59571" data-name="Grupo 59571" transform="translate(753.955 2221.713)">
      <path id="Trazado_107880" data-name="Trazado 107880" d="M737.926,2204.128h0a3.183,3.183,0,0,0,3.4,2.887l12.369.05,5.965-5.842-18.316.02A3.184,3.184,0,0,0,737.926,2204.128Z" transform="translate(-734.626 -2200.201)" fill="#bb2700"/>
      <path id="Trazado_107881" data-name="Trazado 107881" d="M741.577,2218.165h0a3.183,3.183,0,0,0,3.4,2.887l9.6.05.067-5.842-9.649.02A3.184,3.184,0,0,0,741.577,2218.165Z" transform="translate(-734.136 -2198.314)" fill="#bb2700"/>
      <g id="Grupo_59567" data-name="Grupo 59567" transform="translate(6.832 16.433)">
        <path id="Trazado_107882" data-name="Trazado 107882" d="M752.209,2221.693l-7.291-.05a3.446,3.446,0,1,1,.022-6.835v1.064a2.394,2.394,0,1,0-.016,4.708l7.292.05Z" transform="translate(-741.04 -2214.808)" fill="#00111c"/>
      </g>
      <path id="Trazado_107883" data-name="Trazado 107883" d="M737.926,2213.486h0a3.183,3.183,0,0,0,3.4,2.887l12.369.05.068-5.842-12.419.019A3.184,3.184,0,0,0,737.926,2213.486Z" transform="translate(-734.626 -2198.943)" fill="#bb2700"/>
      <g id="Grupo_59568" data-name="Grupo 59568" transform="translate(2.73 11.106)">
        <path id="Trazado_107884" data-name="Trazado 107884" d="M753.5,2217.018l-12.2-.05a3.447,3.447,0,1,1,.019-6.837l12.244-.019,0,1.063-12.246.02a2.394,2.394,0,1,0-.016,4.709l12.2.05Z" transform="translate(-737.424 -2210.112)" fill="#00111c"/>
      </g>
      <g id="Grupo_59569" data-name="Grupo 59569" transform="translate(2.73)">
        <path id="Trazado_107885" data-name="Trazado 107885" d="M753.5,2207.717l-12.2-.05a3.446,3.446,0,1,1,.019-6.836l19.179-.509.028,1.063-19.192.509a2.4,2.4,0,1,0-.029,4.71l12.2.05Z" transform="translate(-737.424 -2200.322)" fill="#00111c"/>
      </g>
      <path id="Trazado_107886" data-name="Trazado 107886" d="M735.485,2208.807h0a3.182,3.182,0,0,0,3.4,2.887l15.138.05.068-5.842-15.189.019A3.184,3.184,0,0,0,735.485,2208.807Z" transform="translate(-734.954 -2199.572)" fill="#bb2700"/>
      <g id="Grupo_59570" data-name="Grupo 59570" transform="translate(0 5.798)">
        <path id="Trazado_107887" data-name="Trazado 107887" d="M753.824,2212.339l-14.927-.051a3.446,3.446,0,1,1,.018-6.836l14.976-.019,0,1.064-14.977.018a2.395,2.395,0,1,0-.016,4.71l14.928.05Z" transform="translate(-735.017 -2205.433)" fill="#00111c"/>
      </g>
    </g>
    <g id="Grupo_59583" data-name="Grupo 59583" transform="translate(640.517 2166.085)">
      <g id="Grupo_59573" data-name="Grupo 59573" transform="translate(8.015)">
        <path id="Trazado_107888" data-name="Trazado 107888" d="M672.748,2155.466a12.176,12.176,0,1,0,17.218-.29A12.175,12.175,0,0,0,672.748,2155.466Z" transform="translate(-638.422 -2151.22)" fill="#fff"/>
        <path id="Trazado_107889" data-name="Trazado 107889" d="M660.648,2203.126l-18.565-15.879,12.551-12.368,17.507,16.927Z" transform="translate(-642.083 -2148.113)" fill="#bb2700"/>
        <path id="Trazado_107890" data-name="Trazado 107890" d="M672.095,2196.992l-21.682-19.325,25.858-23.535,17.507,16.927Z" transform="translate(-640.963 -2150.901)" fill="#fff"/>
        <g id="Grupo_59572" data-name="Grupo 59572" transform="translate(8.654)">
          <path id="Trazado_107891" data-name="Trazado 107891" d="M672.244,2198.136l-22.532-20.082,26.663-24.268.087.084a12.7,12.7,0,0,1,18.051,17.448l.022.02-.256.445ZM651.3,2178.045l20.834,18.567,21.069-25.2.183-.356a11.637,11.637,0,0,0-16.621-16.071l-.366.3-.045-.043Z" transform="translate(-649.712 -2151.284)" fill="#00111c"/>
        </g>
      </g>
      <g id="Grupo_59582" data-name="Grupo 59582" transform="translate(0 30.424)">
        <g id="Grupo_59575" data-name="Grupo 59575">
          <circle id="Elipse_4122" data-name="Elipse 4122" cx="12.176" cy="12.176" r="12.176" transform="translate(0 14.031) rotate(-35.182)" fill="#bb2700"/>
          <path id="Trazado_107892" data-name="Trazado 107892" d="M685.466,2227.7,670,2238.237l-28.883-37.4,20.127-13.709Z" transform="translate(-634.197 -2176.89)" fill="#bb2700"/>
          <g id="Grupo_59574" data-name="Grupo 59574" transform="translate(26.59 9.969)">
            <rect id="Rectángulo_6322" data-name="Rectángulo 6322" width="1.063" height="47.251" transform="matrix(0.859, -0.513, 0.513, 0.859, 0, 0.545)" fill="#00111c"/>
          </g>
        </g>
        <g id="Grupo_59581" data-name="Grupo 59581" transform="translate(29.839 39.008)">
          <path id="Trazado_107893" data-name="Trazado 107893" d="M693.418,2220.073h0a3.753,3.753,0,0,1-2.23,4.517l-7.987,3.156L672.033,2216l17.939,1.354A3.753,3.753,0,0,1,693.418,2220.073Z" transform="translate(-659.882 -2212.02)" fill="#bb2700"/>
          <circle id="Elipse_4123" data-name="Elipse 4123" cx="12.176" cy="12.176" r="12.176" transform="translate(0 11.682) rotate(-28.668)" fill="#bb2700"/>
          <g id="Grupo_59580" data-name="Grupo 59580" transform="translate(11.758 5.765)">
            <path id="Trazado_107894" data-name="Trazado 107894" d="M696.113,2236.419h0a3.235,3.235,0,0,1-4.518-.365l-8.935-8.856-.092-8.49,13.164,13.18A3.238,3.238,0,0,1,696.113,2236.419Z" transform="translate(-670.225 -2217.421)" fill="#bb2700"/>
            <path id="Trazado_107895" data-name="Trazado 107895" d="M683.149,2243.155h0a3.234,3.234,0,0,1-4.519-.365l-6.942-6.864,4.151-4.253,6.929,6.951A3.238,3.238,0,0,1,683.149,2243.155Z" transform="translate(-671.687 -2215.678)" fill="#bb2700"/>
            <g id="Grupo_59576" data-name="Grupo 59576" transform="translate(1.379 21.618)">
              <path id="Trazado_107896" data-name="Trazado 107896" d="M681.109,2243.841a4.2,4.2,0,0,1-2.928-1.25l-5.278-5.2.746-.758,5.279,5.2a2.444,2.444,0,1,0,3.388-3.411l.751-.753a3.742,3.742,0,0,1,.349,5.25A3.222,3.222,0,0,1,681.109,2243.841Z" transform="translate(-672.903 -2236.63)" fill="#00111c"/>
            </g>
            <path id="Trazado_107897" data-name="Trazado 107897" d="M689.375,2242.65h0a3.234,3.234,0,0,1-4.518-.366l-8.935-8.855,4.151-4.253,8.922,8.942A3.239,3.239,0,0,1,689.375,2242.65Z" transform="translate(-671.118 -2216.014)" fill="#bb2700"/>
            <g id="Grupo_59577" data-name="Grupo 59577" transform="translate(4.615 12.973)">
              <path id="Trazado_107898" data-name="Trazado 107898" d="M687.494,2244a4.2,4.2,0,0,1-2.928-1.249l-8.811-8.732.749-.756,8.811,8.732a2.689,2.689,0,0,0,3.734.334,2.2,2.2,0,0,0,.6-1.76,3.172,3.172,0,0,0-.951-1.984l-8.8-8.82.753-.751,8.8,8.818a4.238,4.238,0,0,1,1.259,2.654,3.161,3.161,0,0,1-3.219,3.514Z" transform="translate(-675.755 -2229.009)" fill="#00111c"/>
            </g>
            <g id="Grupo_59578" data-name="Grupo 59578" transform="translate(11.741)">
              <path id="Trazado_107899" data-name="Trazado 107899" d="M694.28,2237.9a4.2,4.2,0,0,1-2.928-1.25l-8.811-8.731.749-.756,8.811,8.731a2.445,2.445,0,1,0,3.388-3.414L682.037,2218.3l.771-.731,13.442,14.163a3.736,3.736,0,0,1,.338,5.239A3.223,3.223,0,0,1,694.28,2237.9Z" transform="translate(-682.037 -2217.573)" fill="#00111c"/>
            </g>
            <path id="Trazado_107900" data-name="Trazado 107900" d="M694.731,2241.274h0a3.234,3.234,0,0,1-4.518-.365l-10.929-10.847,4.152-4.252,10.914,10.932A3.238,3.238,0,0,1,694.731,2241.274Z" transform="translate(-670.666 -2216.466)" fill="#bb2700"/>
            <g id="Grupo_59579" data-name="Grupo 59579" transform="translate(8.429 9.154)">
              <path id="Trazado_107901" data-name="Trazado 107901" d="M692.821,2242.592a4.2,4.2,0,0,1-2.928-1.249l-10.775-10.7.749-.755,10.777,10.695a2.687,2.687,0,0,0,3.733.334,2.2,2.2,0,0,0,.6-1.76,3.171,3.171,0,0,0-.951-1.984l-10.763-10.782.753-.751,10.762,10.781a4.236,4.236,0,0,1,1.258,2.655,3.16,3.16,0,0,1-3.219,3.513Z" transform="translate(-679.118 -2225.643)" fill="#00111c"/>
            </g>
          </g>
        </g>
      </g>
    </g>
    <path id="Trazado_107902" data-name="Trazado 107902" d="M865.677,2305.472h78.368l18.12-121.856H883.8Z" transform="translate(36.495 19.146)" fill="#d4c266"/>
    <g id="Grupo_59584" data-name="Grupo 59584" transform="translate(979.965 2202.691)">
      <rect id="Rectángulo_6323" data-name="Rectángulo 6323" width="123.195" height="1.064" transform="translate(0 121.841) rotate(-81.497)" fill="#00111c"/>
    </g>
    <g id="Grupo_59585" data-name="Grupo 59585" transform="translate(975.4 2202.691)">
      <rect id="Rectángulo_6324" data-name="Rectángulo 6324" width="123.195" height="1.064" transform="translate(0 121.841) rotate(-81.497)" fill="#00111c"/>
    </g>
    <path id="Trazado_107903" data-name="Trazado 107903" d="M928.553,2173.717c-1.542-3.871-5.458-6.167-9.078-8.738-5.149-3.656-5.7-9.842-9.2-14.431-3.717-4.866-10.878-7.392-17.934-6.216-6.568,1.093-12.376,5.4-14.6,10.773-2.361,5.707-.495,12.146-4.381,17.552-3.455,4.807-7.477,9.241-4.978,15.55,5.037,12.716,19.86,18.049,32.6,15.928l2.565-.428a33.544,33.544,0,0,0,18.405-9.584C926.574,2189.3,931.267,2180.53,928.553,2173.717Z" transform="translate(36.753 13.829)" fill="#00111c"/>
    <g id="Grupo_59586" data-name="Grupo 59586" transform="translate(907.497 2277.085)">
      <path id="Trazado_107904" data-name="Trazado 107904" d="M870.371,2296.669H919.3a23.766,23.766,0,0,0,23.766-23.766h0a23.767,23.767,0,0,0-23.766-23.767H870.371Z" transform="translate(-870.371 -2249.135)" fill="#2ab9c4"/>
    </g>
    <g id="Grupo_59587" data-name="Grupo 59587" transform="translate(838.667 2284.937)">
      <path id="Trazado_107905" data-name="Trazado 107905" d="M827.183,2256.056h62.2l4.147,39.682H827.183Z" transform="translate(-807.345 -2256.056)" fill="#21949d"/>
      <ellipse id="Elipse_4124" data-name="Elipse 4124" cx="19.665" cy="19.677" rx="19.665" ry="19.677" fill="#21949d"/>
      <path id="Trazado_107906" data-name="Trazado 107906" d="M812.988,2293.807l-2.894-16.632,38.771-6.747,4.068,23.378Z" transform="translate(-809.641 -2254.125)" fill="#21949d"/>
    </g>
    <ellipse id="Elipse_4125" data-name="Elipse 4125" cx="19.665" cy="19.677" rx="19.665" ry="19.677" transform="translate(872.731 2285.288)" fill="#2ab9c4"/>
    <path id="Trazado_107907" data-name="Trazado 107907" d="M836.789,2293.743l3.75-22.841,38.834,6.375-2.7,16.467Z" transform="translate(32.613 30.875)" fill="#2ab9c4"/>
    <path id="Trazado_107908" data-name="Trazado 107908" d="M857.212,2256.366h62.2l4.147,39.354H857.212Z" transform="translate(35.357 28.922)" fill="#2ab9c4"/>
    <g id="Grupo_59588" data-name="Grupo 59588" transform="translate(909.078 2305.214)">
      <rect id="Rectángulo_6325" data-name="Rectángulo 6325" width="18.532" height="1.064" transform="matrix(0.171, -0.985, 0.985, 0.171, 0, 18.26)" fill="#00111c"/>
    </g>
    <g id="Grupo_59589" data-name="Grupo 59589" transform="translate(892.569 2284.755)">
      <rect id="Rectángulo_6326" data-name="Rectángulo 6326" width="66.198" height="1.063" fill="#00111c"/>
    </g>
    <g id="Grupo_59591" data-name="Grupo 59591" transform="translate(911.885 2277.444)">
      <g id="Grupo_59590" data-name="Grupo 59590">
        <path id="Trazado_107909" data-name="Trazado 107909" d="M914.687,2281.706H874.24v-1.063h40.447a15.512,15.512,0,0,0,5.023-30.187l.344-1.005a16.574,16.574,0,0,1-5.367,32.255Z" transform="translate(-874.24 -2249.451)" fill="#00111c"/>
      </g>
    </g>
    <g id="Grupo_59595" data-name="Grupo 59595" transform="translate(861.186 2213.587)">
      <g id="Grupo_59592" data-name="Grupo 59592" transform="translate(0 5.195)">
        <path id="Trazado_107910" data-name="Trazado 107910" d="M854.932,2208.955a11.94,11.94,0,1,0,12.641-11.194A11.939,11.939,0,0,0,854.932,2208.955Z" transform="translate(-826.138 -2197.738)" fill="#fff"/>
        <path id="Trazado_107911" data-name="Trazado 107911" d="M836.386,2239.762l-6.84-5.91,18.91-20.41,17.745,16.351-8.044,8.731A15.671,15.671,0,0,1,836.386,2239.762Z" transform="translate(-829.546 -2195.628)" fill="#bb2700"/>
        <rect id="Rectángulo_6327" data-name="Rectángulo 6327" width="24.13" height="23.22" transform="matrix(0.735, 0.678, -0.678, 0.735, 32.248, 3.338)" fill="#fff"/>
      </g>
      <path id="Trazado_107912" data-name="Trazado 107912" d="M869.67,2262.005l-5.49-46.31,1.756-17.559,34.008-4.979,34.546.821-.36,64.307Z" transform="translate(-824.892 -2193.158)" fill="#fff"/>
      <g id="Grupo_59593" data-name="Grupo 59593" transform="translate(38.686 18.267)">
        <rect id="Rectángulo_6328" data-name="Rectángulo 6328" width="1.063" height="50.827" transform="translate(0 0.116) rotate(-6.284)" fill="#00111c"/>
      </g>
      <g id="Grupo_59594" data-name="Grupo 59594" transform="translate(108.711 17.268)">
        <rect id="Rectángulo_6329" data-name="Rectángulo 6329" width="47.859" height="1.063" transform="translate(0 47.859) rotate(-89.884)" fill="#00111c"/>
      </g>
    </g>
    <g id="Grupo_59607" data-name="Grupo 59607" transform="translate(868.216 2214.352)">
      <g id="Grupo_59597" data-name="Grupo 59597" transform="translate(63.789)">
        <path id="Trazado_107913" data-name="Trazado 107913" d="M891.977,2225.7l17.834,19.35,21.124-23.268-19.209-17.616Z" transform="translate(-891.977 -2192.445)" fill="#bb2700"/>
        <path id="Trazado_107914" data-name="Trazado 107914" d="M900.552,2215.188l20.688,18.739,18.066-21.239-19.8-18.163Z" transform="translate(-890.824 -2193.74)" fill="#fff"/>
        <circle id="Elipse_4126" data-name="Elipse 4126" cx="11.94" cy="11.94" r="11.94" transform="translate(26.762)" fill="#fff"/>
        <g id="Grupo_59596" data-name="Grupo 59596" transform="translate(9.321 0.43)">
          <path id="Trazado_107915" data-name="Trazado 107915" d="M920.929,2234.36l-20.736-19.075,18.961-21.073.791.711-18.259,20.292,19.962,18.364Z" transform="translate(-900.193 -2194.211)" fill="#00111c"/>
        </g>
      </g>
      <g id="Grupo_59603" data-name="Grupo 59603" transform="translate(0 19.831)">
        <path id="Trazado_107916" data-name="Trazado 107916" d="M843.226,2214.984h0a3.492,3.492,0,0,0,.979,4.583l6.48,4.672,12.757-8.042-16.486-2.88A3.49,3.49,0,0,0,843.226,2214.984Z" transform="translate(-834.801 -2211.055)" fill="#bb2700"/>
        <circle id="Elipse_4127" data-name="Elipse 4127" cx="11.327" cy="11.327" r="11.327" transform="translate(6.369 19.659) rotate(-60.207)" fill="#bb2700"/>
        <g id="Grupo_59602" data-name="Grupo 59602" transform="translate(0 3.951)">
          <path id="Trazado_107917" data-name="Trazado 107917" d="M836.573,2228.757h0a3.01,3.01,0,0,0,4.159.7l10.082-5.942,2.024-7.634-14.883,8.874A3.013,3.013,0,0,0,836.573,2228.757Z" transform="translate(-835.677 -2214.652)" fill="#bb2700"/>
          <path id="Trazado_107918" data-name="Trazado 107918" d="M846.331,2237.908h0a3.01,3.01,0,0,0,4.159.7l7.831-4.6-2.771-4.782-7.836,4.683A3.013,3.013,0,0,0,846.331,2237.908Z" transform="translate(-834.365 -2212.859)" fill="#bb2700"/>
          <g id="Grupo_59598" data-name="Grupo 59598" transform="translate(11.035 20.652)">
            <path id="Trazado_107919" data-name="Trazado 107919" d="M848.673,2239.194a3.179,3.179,0,0,1-2.791-1.485,3.06,3.06,0,0,1-.231-2.579,3.99,3.99,0,0,1,1.759-2.127l.542.916a2.237,2.237,0,1,0,2.237,3.786l5.952-3.485.539.917-5.951,3.485A4.063,4.063,0,0,1,848.673,2239.194Z" transform="translate(-845.471 -2233.004)" fill="#00111c"/>
          </g>
          <path id="Trazado_107920" data-name="Trazado 107920" d="M841.1,2236.028h0a3.009,3.009,0,0,0,4.159.7l10.081-5.941-2.77-4.784-10.089,6.022A3.012,3.012,0,0,0,841.1,2236.028Z" transform="translate(-835.068 -2213.292)" fill="#bb2700"/>
          <g id="Grupo_59599" data-name="Grupo 59599" transform="translate(5.131 12.384)">
            <path id="Trazado_107921" data-name="Trazado 107921" d="M843.47,2237.843a3.181,3.181,0,0,1-2.792-1.485,3.056,3.056,0,0,1-.231-2.577,3.975,3.975,0,0,1,1.759-2.127l9.947-5.938.546.913-9.95,5.938a2.237,2.237,0,1,0,2.236,3.788l9.94-5.859.541.918-9.942,5.859A4.074,4.074,0,0,1,843.47,2237.843Z" transform="translate(-840.267 -2225.715)" fill="#00111c"/>
          </g>
          <g id="Grupo_59600" data-name="Grupo 59600">
            <path id="Trazado_107922" data-name="Trazado 107922" d="M838.943,2230.678a3.18,3.18,0,0,1-2.791-1.485,3.517,3.517,0,0,1,1.527-4.705l15.348-9.69.567.9-15.359,9.7a2.238,2.238,0,1,0,2.223,3.795l9.942-5.859.541.917L841,2230.106A4.073,4.073,0,0,1,838.943,2230.678Z" transform="translate(-835.744 -2214.798)" fill="#00111c"/>
          </g>
          <path id="Trazado_107923" data-name="Trazado 107923" d="M836.851,2233.563h0a3.01,3.01,0,0,0,4.159.7l12.334-7.281-2.771-4.784-12.34,7.362A3.014,3.014,0,0,0,836.851,2233.563Z" transform="translate(-835.639 -2213.803)" fill="#bb2700"/>
          <g id="Grupo_59601" data-name="Grupo 59601" transform="translate(0.344 8.069)">
            <path id="Trazado_107924" data-name="Trazado 107924" d="M839.248,2235.359a3.181,3.181,0,0,1-2.791-1.486,3.06,3.06,0,0,1-.231-2.577,3.979,3.979,0,0,1,1.759-2.127l12.167-7.258.546.912-12.17,7.26a2.925,2.925,0,0,0-1.3,1.553,2.01,2.01,0,0,0,.14,1.7,2.462,2.462,0,0,0,3.392.54l12.163-7.18.54.915-12.162,7.18A4.078,4.078,0,0,1,839.248,2235.359Z" transform="translate(-836.047 -2221.911)" fill="#00111c"/>
          </g>
        </g>
      </g>
      <g id="Grupo_59606" data-name="Grupo 59606" transform="translate(23.522 24.6)">
        <g id="Grupo_59605" data-name="Grupo 59605">
          <circle id="Elipse_4128" data-name="Elipse 4128" cx="12.394" cy="12.394" r="12.394" transform="matrix(0.884, -0.467, 0.467, 0.884, 32.326, 14.204)" fill="#bb2700"/>
          <path id="Trazado_107925" data-name="Trazado 107925" d="M860.27,2215.982l-3.791,18.666,46.479,12.367,4.933-24.292Z" transform="translate(-856.48 -2215.457)" fill="#bb2700"/>
          <g id="Grupo_59604" data-name="Grupo 59604" transform="translate(3.716)">
            <rect id="Rectángulo_6330" data-name="Rectángulo 6330" width="1.063" height="48.095" transform="translate(0 1.052) rotate(-81.943)" fill="#00111c"/>
          </g>
        </g>
      </g>
    </g>
    <g id="Grupo_59623" data-name="Grupo 59623" transform="translate(914.845 2160.22)">
      <path id="Trazado_107926" data-name="Trazado 107926" d="M876.957,2166.6a18.506,18.506,0,1,0,16.416-20.382A18.5,18.5,0,0,0,876.957,2166.6Z" transform="translate(-876.849 -2146.114)" fill="#00111c"/>
      <g id="Grupo_59621" data-name="Grupo 59621" transform="translate(0.827 2.325)">
        <g id="Grupo_59608" data-name="Grupo 59608" transform="translate(8.089 29.993)">
          <rect id="Rectángulo_6331" data-name="Rectángulo 6331" width="15.977" height="23.563" transform="translate(15.974 23.827) rotate(-179.044)" fill="#bb2700"/>
          <path id="Trazado_107927" data-name="Trazado 107927" d="M884.777,2193.469l16.289-18.6-15.974-.267Z" transform="translate(-884.699 -2174.603)" fill="#00111c"/>
        </g>
        <g id="Grupo_59620" data-name="Grupo 59620">
          <path id="Trazado_107928" data-name="Trazado 107928" d="M878.043,2162.719c-1.578,9.55.386,23.32,13.316,23.536,11.57.193,15.2-13.184,15.358-22.861S881.825,2139.832,878.043,2162.719Z" transform="translate(-877.578 -2147.879)" fill="#bb2700"/>
          <g id="Grupo_59611" data-name="Grupo 59611" transform="translate(2.586 17.555)">
            <g id="Grupo_59609" data-name="Grupo 59609">
              <path id="Trazado_107929" data-name="Trazado 107929" d="M882.232,2166.379c-.622-.011-1.138.738-1.154,1.67s.475,1.7,1.1,1.707,1.138-.737,1.154-1.67S882.853,2166.389,882.232,2166.379Z" transform="translate(-879.694 -2163.271)" fill="#00111c"/>
              <path id="Trazado_107930" data-name="Trazado 107930" d="M879.858,2164.784l5.141.086A3.375,3.375,0,0,0,879.858,2164.784Z" transform="translate(-879.858 -2163.639)" fill="#00111c"/>
            </g>
            <g id="Grupo_59610" data-name="Grupo 59610" transform="translate(10.251 0.171)">
              <path id="Trazado_107931" data-name="Trazado 107931" d="M891.27,2166.53c-.622-.011-1.139.736-1.154,1.67s.475,1.7,1.1,1.707,1.139-.738,1.155-1.67S891.891,2166.54,891.27,2166.53Z" transform="translate(-888.731 -2163.422)" fill="#00111c"/>
              <path id="Trazado_107932" data-name="Trazado 107932" d="M888.9,2164.936l5.141.086A3.375,3.375,0,0,0,888.9,2164.936Z" transform="translate(-888.895 -2163.79)" fill="#00111c"/>
            </g>
          </g>
          <g id="Grupo_59616" data-name="Grupo 59616" transform="translate(6.914 21.845)">
            <g id="Grupo_59613" data-name="Grupo 59613">
              <g id="Grupo_59612" data-name="Grupo 59612">
                <path id="Trazado_107933" data-name="Trazado 107933" d="M886.275,2173.324c-1.111-.269-2.587-.751-2.6-1.826-.012-.852.954-1.437,1.607-1.708l-.087-2.329,1.063-.04.118,3.141-.408.111c-.614.166-1.233.64-1.231.81,0,0,.111.4,1.791.806Z" transform="translate(-883.673 -2167.421)" fill="#00111c"/>
              </g>
            </g>
            <g id="Grupo_59615" data-name="Grupo 59615" transform="translate(0.382 5.79)">
              <g id="Grupo_59614" data-name="Grupo 59614">
                <path id="Trazado_107934" data-name="Trazado 107934" d="M885.754,2174.485q-.876,0-1.744-.087l.107-1.059a16.512,16.512,0,0,0,7.014-.814l.348,1.006A17.652,17.652,0,0,1,885.754,2174.485Z" transform="translate(-884.01 -2172.525)" fill="#00111c"/>
              </g>
            </g>
          </g>
          <g id="Grupo_59619" data-name="Grupo 59619" transform="translate(21.423 17.275)">
            <circle id="Elipse_4129" data-name="Elipse 4129" cx="4.462" cy="4.462" r="4.462" transform="matrix(0.721, -0.693, 0.693, 0.721, 0, 6.18)" fill="#bb2700"/>
            <g id="Grupo_59618" data-name="Grupo 59618" transform="translate(5.734 3.303)">
              <g id="Grupo_59617" data-name="Grupo 59617">
                <path id="Trazado_107935" data-name="Trazado 107935" d="M902.047,2171.936l-.529-.922c.874-.5,1.041-1.009.692-2.087a2.161,2.161,0,0,1,1.3-2.624l.439.969c-.041.018-1.008.467-.728,1.327A2.478,2.478,0,0,1,902.047,2171.936Z" transform="translate(-901.518 -2166.303)" fill="#00111c"/>
              </g>
            </g>
          </g>
          <path id="Trazado_107936" data-name="Trazado 107936" d="M907.131,2155.694a18.81,18.81,0,0,0-11.118-7.324c-6.333-1.312-14.5,4.076-14.5,4.076,6.979,9.885,17.57,15.736,29.541,17.494C910.948,2165.067,910.018,2159.62,907.131,2155.694Z" transform="translate(-877.049 -2148.163)" fill="#00111c"/>
        </g>
      </g>
      <g id="Grupo_59622" data-name="Grupo 59622" transform="translate(3.12 48.691)">
        <path id="Trazado_107937" data-name="Trazado 107937" d="M894.169,2196.234l-8.931-6.48-5.639,8.152,9.878,5.11Z" transform="translate(-879.599 -2188.94)" fill="#fff"/>
        <path id="Trazado_107938" data-name="Trazado 107938" d="M891.636,2196.376l8.378-7.34,6.267,7.561-9.431,6.07Z" transform="translate(-877.982 -2189.037)" fill="#fff"/>
      </g>
    </g>
    <g id="Grupo_59626" data-name="Grupo 59626" transform="translate(781.326 2260.022)">
      <g id="Grupo_59625" data-name="Grupo 59625">
        <g id="Grupo_59624" data-name="Grupo 59624" transform="translate(16.267 5.047)">
          <path id="Trazado_107939" data-name="Trazado 107939" d="M773.486,2299.475l5.331-60.933h9.754l-6.829,60.933Z" transform="translate(-773.486 -2238.542)" fill="#00111c"/>
          <path id="Trazado_107940" data-name="Trazado 107940" d="M880,2299.475l-6.829-60.933h9.754l5.331,60.933Z" transform="translate(-760.091 -2238.542)" fill="#00111c"/>
        </g>
        <rect id="Rectángulo_6332" data-name="Rectángulo 6332" width="160.699" height="7.57" transform="translate(160.699 7.57) rotate(180)" fill="#004f93"/>
      </g>
    </g>
    <path id="Trazado_107941" data-name="Trazado 107941" d="M837.443,2184.49l11.735,49.522,32.038,1.886.709,5.159H778.975l-12.934-56.568Z" transform="translate(23.106 19.264)" fill="#f9e478"/>
    <g id="Grupo_59627" data-name="Grupo 59627" transform="translate(822.627 2223.024)">
      <path id="Trazado_107942" data-name="Trazado 107942" d="M803.613,2216.2c-3.732,0-7.3-3.262-7.954-7.275a6.727,6.727,0,0,1,1.356-5.472,5.63,5.63,0,0,1,4.371-1.97c3.732,0,7.3,3.262,7.955,7.272a6.734,6.734,0,0,1-1.355,5.474A5.636,5.636,0,0,1,803.613,2216.2Zm-2.228-13.655a4.581,4.581,0,0,0-3.561,1.6,5.67,5.67,0,0,0-1.116,4.612c.574,3.519,3.672,6.381,6.905,6.381a4.585,4.585,0,0,0,3.561-1.6,5.67,5.67,0,0,0,1.116-4.615C807.716,2205.4,804.619,2202.541,801.385,2202.541Z" transform="translate(-795.555 -2201.478)" fill="#00111c"/>
    </g>
    <g id="Grupo_59628" data-name="Grupo 59628" transform="translate(860.033 2203.63)">
      <path id="Trazado_107943" data-name="Trazado 107943" d="M872.788,2236.444l-32.433-1.91-11.826-49.907,1.035-.246,11.644,49.138,31.642,1.863Z" transform="translate(-828.529 -2184.381)" fill="#00111c"/>
    </g>
    <g id="Grupo_59629" data-name="Grupo 59629" transform="translate(750.43 2088.22)">
      <path id="Trazado_107944" data-name="Trazado 107944" d="M749.462,2154.67v-12.729h-2.141a15.429,15.429,0,0,1-15.412-15.413v-28.475a15.43,15.43,0,0,1,15.412-15.412H775.8a15.43,15.43,0,0,1,15.413,15.412v28.475a15.429,15.429,0,0,1-15.413,15.413h-7.879Zm-2.141-70.964a14.363,14.363,0,0,0-14.347,14.348v28.475a14.365,14.365,0,0,0,14.347,14.35h3.2v11.767l17.063-11.767H775.8a14.366,14.366,0,0,0,14.349-14.35v-28.475a14.364,14.364,0,0,0-14.349-14.348Z" transform="translate(-731.91 -2082.642)" fill="#855db5"/>
    </g>
    <path id="Trazado_107945" data-name="Trazado 107945" d="M771.606,2109.475l-19.977,13.6v-25.256Z" transform="translate(21.17 7.617)" fill="#f9e478"/>
  </g>
</svg>
