<svg xmlns="http://www.w3.org/2000/svg" width="201" height="199" viewBox="0 0 201 199">
  <g id="Grupo_59803" data-name="Grupo 59803" transform="translate(-72.193 -75.357)">
    <rect id="Rectángulo_6365" data-name="Rectángulo 6365" width="201" height="199" transform="translate(72.193 75.357)" fill="none"/>
    <g id="Grupo_59804" data-name="Grupo 59804" transform="translate(-559.723 -2540.762)">
      <path id="Trazado_108149" data-name="Trazado 108149" d="M792.883,2694.949H645.636v-23.786H792.883Z" transform="translate(0 -4.768)" fill="#c595ff"/>
      <path id="Trazado_108150" data-name="Trazado 108150" d="M721.663,2699.969H645.636v100.785H792.883v-86.1" transform="translate(0 -9.799)" fill="#dcbfff"/>
      <path id="Trazado_108151" data-name="Trazado 108151" d="M790.6,2647.685H745.376a7.623,7.623,0,0,0-7.624,7.623V2697.9a7.623,7.623,0,0,0,7.624,7.625h10.451l13.309,13.83,11.995-13.83h42.986a7.624,7.624,0,0,0,7.624-7.625V2655.31a7.625,7.625,0,0,0-7.624-7.625h-6.4" transform="translate(-16.089 -0.667)" fill="#47ecfa"/>
      <g id="Grupo_59732" data-name="Grupo 59732" transform="translate(739.329 2668.878)">
        <path id="Trazado_108152" data-name="Trazado 108152" d="M771.356,2680.271a6.1,6.1,0,1,1-6.1-6.1A6.1,6.1,0,0,1,771.356,2680.271Z" transform="translate(-759.156 -2674.171)" fill="#fff"/>
        <path id="Trazado_108153" data-name="Trazado 108153" d="M799.5,2680.271a6.1,6.1,0,1,1-6.1-6.1A6.1,6.1,0,0,1,799.5,2680.271Z" transform="translate(-764.072 -2674.171)" fill="#fff"/>
        <path id="Trazado_108154" data-name="Trazado 108154" d="M827.643,2680.271a6.1,6.1,0,1,1-6.1-6.1A6.1,6.1,0,0,1,827.643,2680.271Z" transform="translate(-768.987 -2674.171)" fill="#fff"/>
      </g>
      <path id="Trazado_108155" data-name="Trazado 108155" d="M683.812,2789.111a35.689,35.689,0,0,1-19.318-5.66,25.815,25.815,0,0,0,3.006.174,25.291,25.291,0,0,0,15.654-5.4,12.618,12.618,0,0,1-11.774-8.753,12.616,12.616,0,0,0,5.691-.216,12.61,12.61,0,0,1-10.11-12.516h0a12.515,12.515,0,0,0,5.708,1.578,12.612,12.612,0,0,1-3.9-16.824,35.78,35.78,0,0,0,25.976,13.165,12.608,12.608,0,0,1,21.477-11.492,25.249,25.249,0,0,0,8-3.06,12.646,12.646,0,0,1-5.541,6.973l.659,3.152a14.68,14.68,0,0,1,.326,3v.016c0,16.653-12.676,35.856-35.856,35.856" transform="translate(-3.294 -16.649)" fill="#bbeafd"/>
      <path id="Trazado_108156" data-name="Trazado 108156" d="M660.251,2688.583l.075.023a3.5,3.5,0,1,0,2.013-6.7l-.076-.024a3.5,3.5,0,1,0-2.012,6.7Z" transform="translate(-2.117 -6.615)" fill="#dcbfff"/>
      <path id="Trazado_108157" data-name="Trazado 108157" d="M676.326,2688.584l.076.023a3.5,3.5,0,1,0,2.008-6.7l-.076-.022a3.5,3.5,0,1,0-2.008,6.7Z" transform="translate(-4.925 -6.615)" fill="#dcbfff"/>
      <path id="Trazado_108158" data-name="Trazado 108158" d="M692.4,2688.584l.075.023a3.5,3.5,0,1,0,2.008-6.7l-.075-.022a3.5,3.5,0,1,0-2.008,6.7Z" transform="translate(-7.732 -6.615)" fill="#dcbfff"/>
      <path id="Trazado_108159" data-name="Trazado 108159" d="M754.92,2679.962a9.6,9.6,0,1,0,9.6-9.6A9.605,9.605,0,0,0,754.92,2679.962Zm12.2,0a2.6,2.6,0,1,1-2.6-2.6A2.606,2.606,0,0,1,767.119,2679.962Z" transform="translate(-19.087 -4.629)" fill="#21949d"/>
      <path id="Trazado_108160" data-name="Trazado 108160" d="M792.659,2670.365a9.6,9.6,0,1,0,9.6,9.6A9.607,9.607,0,0,0,792.659,2670.365Zm0,12.2a2.6,2.6,0,1,1,2.6-2.6A2.607,2.607,0,0,1,792.659,2682.565Z" transform="translate(-24.003 -4.629)" fill="#21949d"/>
      <path id="Trazado_108161" data-name="Trazado 108161" d="M820.8,2689.557a9.6,9.6,0,1,0-9.6-9.594A9.606,9.606,0,0,0,820.8,2689.557Zm0-12.2a2.6,2.6,0,1,1-2.6,2.6A2.607,2.607,0,0,1,820.8,2677.358Z" transform="translate(-28.919 -4.629)" fill="#21949d"/>
      <path id="Trazado_108162" data-name="Trazado 108162" d="M816.132,2650.71l.07.021a3.5,3.5,0,1,0,2.015-6.7l-.07-.022a3.5,3.5,0,0,0-2.015,6.7Z" transform="translate(-29.344 0)" fill="#21949d"/>
      <path id="Trazado_108163" data-name="Trazado 108163" d="M735.8,2797.047l-.077-.022a3.5,3.5,0,1,0-2.012,6.7l.077.023a3.5,3.5,0,0,0,2.012-6.7Z" transform="translate(-14.948 -26.724)" fill="#dcbfff"/>
    </g>
  </g>
</svg>
