<svg xmlns="http://www.w3.org/2000/svg" width="102" height="102" viewBox="0 0 102 102">
  <g id="Grupo_59777" data-name="Grupo 59777" transform="translate(-547.102 -3144.461)">
    <path id="Trazado_108291" data-name="Trazado 108291" d="M620.965,3178.1v23.843a7.086,7.086,0,0,1-7.073,7.1h-29.84l-7.437,8.754-7.439-8.754h-2.337a7.086,7.086,0,0,1-7.073-7.1V3178.1a7.085,7.085,0,0,1,7.073-7.1h47.053a7.085,7.085,0,0,1,7.073,7.1Z" fill="#bb83ff"/>
    <path id="Trazado_108292" data-name="Trazado 108292" d="M620.965,3178.1v23.843a7.086,7.086,0,0,1-7.073,7.1h-3.085a7.086,7.086,0,0,0,7.073-7.1V3178.1a7.085,7.085,0,0,0-7.073-7.1h3.085a7.085,7.085,0,0,1,7.073,7.1Z" fill="#a271dc"/>
    <path id="Trazado_108293" data-name="Trazado 108293" d="M596.575,3229.964a3.827,3.827,0,0,1-3.823,3.831H563.589a3.831,3.831,0,0,1,0-7.663h1.024l2.948-4.072,2.947,4.072h22.244a3.827,3.827,0,0,1,3.823,3.832Z" fill="#dcbfff"/>
    <path id="Trazado_108294" data-name="Trazado 108294" d="M596.575,3229.964a3.827,3.827,0,0,1-3.823,3.831h-3.085a3.831,3.831,0,0,0,0-7.663h3.085a3.827,3.827,0,0,1,3.823,3.832Z" fill="#c595ff"/>
    <path id="Trazado_108295" data-name="Trazado 108295" d="M636.435,3160.957a3.827,3.827,0,0,1-3.823,3.831h-1.024l-.187.259-2.761,3.815-2.947-4.074H603.449a3.832,3.832,0,0,1,0-7.663h29.163A3.827,3.827,0,0,1,636.435,3160.957Z" fill="#c595ff"/>
    <g id="Grupo_59776" data-name="Grupo 59776">
      <path id="Trazado_108296" data-name="Trazado 108296" d="M636.435,3160.957a3.827,3.827,0,0,1-3.823,3.831h-1.024l-.187.259c-.319-.306-.486-.519-.387-.56a3.834,3.834,0,0,0-1.487-7.362h3.085a3.827,3.827,0,0,1,3.823,3.832Z" fill="#dcbfff"/>
    </g>
    <path id="Trazado_108297" data-name="Trazado 108297" d="M634.2,3214.207l2.235-.356v-4.622l-2.237-.355-1.257-3.034,1.33-1.835L631,3200.738l-1.831,1.331-3.036-1.257-.355-2.237-3.125,0h-1.495l-.353,2.237-3.034,1.259-1.833-1.33-3.264,3.269,1.33,1.833-1.256,3.036-2.236.356,0,4.623,2.237.354,1.257,3.036-1.33,1.834,3.269,3.267,1.83-1.331,3.036,1.256.354,2.236h4.621l.354-2.239,3.033-1.257,1.833,1.33,3.264-3.27-1.33-1.832Zm-15.637-2.663a4.912,4.912,0,1,1,4.913,4.912A4.913,4.913,0,0,1,618.564,3211.544Z" fill="#c595ff"/>
    <path id="Trazado_108298" data-name="Trazado 108298" d="M632.946,3217.244l1.329,1.831-3.264,3.271-1.833-1.33-3.032,1.257-.355,2.239h-3.124l.7-4.427,6.114-2.536,2.483-6.007-2.489-6.009L623.361,3203l-.705-4.426,3.126,0,.354,2.237,3.036,1.257,1.831-1.331,3.268,3.267-1.33,1.835,1.257,3.034,2.237.355v4.622l-2.235.356Z" fill="#bb83ff"/>
    <path id="Trazado_108299" data-name="Trazado 108299" d="M577.71,3172.167h36.182a5.934,5.934,0,0,1,5.916,5.939v15.821a1.157,1.157,0,0,0,2.314,0v-15.821a8.251,8.251,0,0,0-8.23-8.253H577.71a1.157,1.157,0,1,0,0,2.314Z" fill="#855db5"/>
    <path id="Trazado_108300" data-name="Trazado 108300" d="M605.871,3207.888H584.053a1.158,1.158,0,0,0-.882.408l-6.555,7.716-6.556-7.716a1.157,1.157,0,0,0-.882-.408h-2.337a5.935,5.935,0,0,1-5.916-5.94v-23.842a5.934,5.934,0,0,1,5.916-5.939h5.5a1.157,1.157,0,1,0,0-2.314h-5.5a8.251,8.251,0,0,0-8.23,8.253v23.842a8.251,8.251,0,0,0,8.23,8.254h1.8l7.091,8.346a1.157,1.157,0,0,0,1.764,0l7.09-8.346h21.283a1.157,1.157,0,1,0,0-2.314Z" fill="#855db5"/>
    <path id="Trazado_108301" data-name="Trazado 108301" d="M592.754,3224.976H582.236a1.157,1.157,0,1,0,0,2.314h10.518a2.674,2.674,0,0,1,0,5.348H563.591a2.674,2.674,0,0,1,0-5.348h1.023a1.157,1.157,0,0,0,.938-.479l2.01-2.778,2.011,2.778a1.155,1.155,0,0,0,.937.479h6.376a1.157,1.157,0,1,0,0-2.314H571.1l-2.6-3.595a1.158,1.158,0,0,0-1.875,0l-2.6,3.595h-.433a4.988,4.988,0,0,0,0,9.976h29.163a4.988,4.988,0,0,0,0-9.976Z" fill="#855db5"/>
    <path id="Trazado_108302" data-name="Trazado 108302" d="M603.449,3165.945H607.8a1.157,1.157,0,0,0,0-2.314h-4.352a2.674,2.674,0,0,1,0-5.348h29.163a2.674,2.674,0,0,1,0,5.348h-1.024a1.156,1.156,0,0,0-.937.479l-2.01,2.778-2.011-2.778a1.159,1.159,0,0,0-.937-.479H613.151a1.157,1.157,0,0,0,0,2.314H625.1l2.6,3.595a1.157,1.157,0,0,0,1.875,0l2.6-3.595h.433a4.988,4.988,0,0,0,0-9.976H603.449a4.988,4.988,0,0,0,0,9.976Z" fill="#855db5"/>
    <path id="Trazado_108303" data-name="Trazado 108303" d="M575.558,3195.142a1.157,1.157,0,0,0,0,2.314h6.17a1.156,1.156,0,0,0,1.157-1.157v-6.17a1.157,1.157,0,0,0-1.157-1.157h-5.013v-3.857h5.013a1.157,1.157,0,0,0,0-2.314h-6.17a1.157,1.157,0,0,0-1.157,1.157v6.171a1.157,1.157,0,0,0,1.157,1.157h5.013v3.856Z" fill="#fff"/>
    <path id="Trazado_108304" data-name="Trazado 108304" d="M593.3,3185.115a1.157,1.157,0,0,0,0-2.314h-6.17a1.157,1.157,0,0,0-1.157,1.157V3196.3a1.156,1.156,0,0,0,1.157,1.157h6.17a1.157,1.157,0,0,0,0-2.314h-5.013v-3.856H593.3a1.157,1.157,0,0,0,0-2.314h-5.013v-3.857Z" fill="#fff"/>
    <path id="Trazado_108305" data-name="Trazado 108305" d="M598.7,3182.8a1.157,1.157,0,0,0-1.157,1.157V3196.3a1.156,1.156,0,0,0,1.157,1.157h6.171a1.156,1.156,0,0,0,1.157-1.157v-12.341a1.157,1.157,0,0,0-1.157-1.157Zm5.014,12.341h-3.857v-10.027h3.857Z" fill="#fff"/>
    <path id="Trazado_108306" data-name="Trazado 108306" d="M637.592,3209.228a1.158,1.158,0,0,0-.976-1.143l-1.6-.253-.762-1.839.949-1.309a1.157,1.157,0,0,0-.119-1.5l-3.267-3.268a1.158,1.158,0,0,0-1.5-.117l-1.306.949-1.838-.761-.254-1.6a1.158,1.158,0,0,0-1.143-.975h0l-4.62,0a1.156,1.156,0,0,0-1.142.976l-.253,1.6-1.836.762-1.308-.949a1.155,1.155,0,0,0-1.5.118l-3.266,3.27a1.156,1.156,0,0,0-.117,1.5l.949,1.309-.76,1.84-1.6.254a1.158,1.158,0,0,0-.975,1.143l0,4.622a1.157,1.157,0,0,0,.976,1.143l1.6.253.762,1.838-.949,1.31a1.155,1.155,0,0,0,.119,1.5l3.267,3.268a1.156,1.156,0,0,0,1.5.117l1.307-.949,1.838.761.254,1.6a1.157,1.157,0,0,0,1.142.975h0l4.619,0a1.158,1.158,0,0,0,1.143-.976l.253-1.6,1.836-.762,1.308.949a1.157,1.157,0,0,0,1.5-.118l3.265-3.27a1.157,1.157,0,0,0,.118-1.5l-.95-1.309.761-1.84,1.595-.254a1.156,1.156,0,0,0,.975-1.143Zm-3.572,3.836a1.155,1.155,0,0,0-.887.7l-1.256,3.037a1.155,1.155,0,0,0,.133,1.122l.75,1.033-1.87,1.872-1.032-.749a1.156,1.156,0,0,0-1.123-.133l-3.033,1.259a1.156,1.156,0,0,0-.7.888l-.2,1.262h-2.644l-.2-1.261a1.156,1.156,0,0,0-.7-.887l-3.034-1.257a1.158,1.158,0,0,0-1.123.133l-1.032.75-1.87-1.87.75-1.035a1.157,1.157,0,0,0,.132-1.122l-1.258-3.035a1.156,1.156,0,0,0-.888-.7l-1.26-.2v-2.647l1.259-.2a1.153,1.153,0,0,0,.887-.7l1.256-3.037a1.153,1.153,0,0,0-.133-1.121l-.75-1.034,1.869-1.872,1.033.75a1.157,1.157,0,0,0,1.123.132l3.033-1.258a1.158,1.158,0,0,0,.7-.888l.2-1.262h2.644l.2,1.261a1.156,1.156,0,0,0,.7.887l3.035,1.257a1.159,1.159,0,0,0,1.123-.134l1.031-.749,1.871,1.87-.75,1.034a1.157,1.157,0,0,0-.132,1.122l1.257,3.036a1.161,1.161,0,0,0,.888.7l1.261.2v2.647Z" fill="#855db5"/>
    <path id="Trazado_108307" data-name="Trazado 108307" d="M628.389,3210.387a1.157,1.157,0,0,0-1.157,1.157,3.751,3.751,0,1,1-2.2-3.42,1.157,1.157,0,1,0,.959-2.106,6.07,6.07,0,1,0,3.557,5.526,1.157,1.157,0,0,0-1.157-1.157Z" fill="#855db5"/>
    <rect id="Rectángulo_5525" data-name="Rectángulo 5525" width="102" height="102" transform="translate(547.102 3144.461)" fill="none"/>
  </g>
</svg>
