<svg xmlns="http://www.w3.org/2000/svg" width="201" height="199" viewBox="0 0 201 199">
  <g id="Grupo_59820" data-name="Grupo 59820" transform="translate(-558.975 -3822.996)">
    <rect id="Rectángulo_6365" data-name="Rectángulo 6365" width="201" height="199" transform="translate(558.975 3822.996)" fill="none"/>
    <g id="Grupo_59833" data-name="Grupo 59833">
      <g id="Grupo_59832" data-name="Grupo 59832">
        <path id="Trazado_108465" data-name="Trazado 108465" d="M683.971,3895.278h10.887V3922.5H683.971Z" fill="#c595ff"/>
        <path id="Trazado_108466" data-name="Trazado 108466" d="M722.076,3854.451h10.887V3922.5H722.076Z" fill="#c595ff"/>
        <path id="Trazado_108467" data-name="Trazado 108467" d="M634.979,3922.5h10.887v27.218H634.979Z" fill="#c595ff"/>
        <path id="Trazado_108468" data-name="Trazado 108468" d="M596.874,3922.5h10.887v68.045H596.874Z" fill="#c595ff"/>
      </g>
      <path id="Trazado_108469" data-name="Trazado 108469" d="M735.685,3919.774v-68.045H719.354v68.045h-2.722V3873.5H700.3v46.27H697.58v-27.218H681.249v27.218h-2.722v-13.609H662.2v13.609H583.265v-8.165h5.443v-5.444h-5.443V3898h5.443v-5.444h-5.443v-8.165h5.443v-5.444h-5.443v-8.165h5.443v-5.444h-5.443v-8.165h5.443v-5.444h-5.443v-10.887h-5.444V4004.15h5.444v-10.888h5.443v-5.443h-5.443v-8.165h5.443v-5.444h-5.443v-8.165h5.443V3960.6h-5.443v-8.165h5.443v-5.444h-5.443v-8.165h5.443v-5.444h-5.443v-8.165h10.887v68.044h16.331v-68.044H613.2v46.27h16.331v-46.27h2.722v27.218h16.331v-27.218h2.721v13.609H667.64v-13.609h73.489v-5.444Zm-130.646,68.045h-5.444v-62.6h5.444Zm19.053-21.774h-5.444v-40.827h5.444Zm19.052-19.053H637.7v-21.774h5.443Zm19.053-13.609h-5.444v-8.165H662.2Zm5.443-13.609v-8.165h5.444v8.165Zm19.053,0V3898h5.443v21.774Zm19.052,0v-40.827h5.444v40.827Zm19.053,0v-62.6h5.443v62.6Z" fill="#855db5"/>
    </g>
  </g>
</svg>
