<svg xmlns="http://www.w3.org/2000/svg" width="222.819" height="199.312" viewBox="0 0 222.819 199.312">
  <g id="Grupo_59761" data-name="Grupo 59761" transform="translate(-801.749 -2897.242)">
    <path id="Trazado_108241" data-name="Trazado 108241" d="M986.271,2985.151h20.89a13.055,13.055,0,0,0,13.056-13.056v-57.446a13.055,13.055,0,0,0-13.056-13.055h-188a13.055,13.055,0,0,0-13.056,13.055v57.446a13.055,13.055,0,0,0,13.056,13.056Z" fill="#dcbfff"/>
    <path id="Trazado_108242" data-name="Trazado 108242" d="M966.293,3053l36.16,36.16a10.4,10.4,0,0,0,14.715-14.713l-36.16-36.162Z" fill="#c595ff"/>
    <path id="Trazado_108243" data-name="Trazado 108243" d="M988.884,3008.651a52.223,52.223,0,1,1-52.223-52.223A52.224,52.224,0,0,1,988.884,3008.651Z" fill="#fff"/>
    <path id="Trazado_108244" data-name="Trazado 108244" d="M970.606,3008.651a33.945,33.945,0,1,1-33.945-33.945A33.945,33.945,0,0,1,970.606,3008.651Z" fill="#dcbfff"/>
    <path id="Trazado_108245" data-name="Trazado 108245" d="M936.661,2970.354a38.3,38.3,0,1,0,38.3,38.3A38.34,38.34,0,0,0,936.661,2970.354Zm0,67.89a29.593,29.593,0,1,1,29.593-29.593A29.626,29.626,0,0,1,936.661,3038.244Z" fill="#855db5"/>
    <path id="Trazado_108246" data-name="Trazado 108246" d="M936.661,2989.069a4.352,4.352,0,1,0,0,8.7,10.891,10.891,0,0,1,10.878,10.878,4.352,4.352,0,1,0,8.7,0A19.6,19.6,0,0,0,936.661,2989.069Z" fill="#855db5"/>
    <path id="Trazado_108247" data-name="Trazado 108247" d="M828.577,2930.056a4.352,4.352,0,1,0-7.73,4l11.714,22.63a4.352,4.352,0,0,0,7.788-.117l7.092-14.766,7.7,14.883a4.354,4.354,0,0,0,3.865,2.351h.065a4.356,4.356,0,0,0,3.859-2.468l10.868-22.63a4.351,4.351,0,1,0-7.845-3.767l-7.093,14.766-7.7-14.884a4.352,4.352,0,0,0-7.788.118l-7.09,14.766Z" fill="#855db5"/>
    <path id="Trazado_108248" data-name="Trazado 108248" d="M856.579,2905.946a4.355,4.355,0,1,0-3.076-1.275A4.383,4.383,0,0,0,856.579,2905.946Z" fill="#855db5"/>
    <path id="Trazado_108249" data-name="Trazado 108249" d="M1024.568,2972.095v-57.446a17.427,17.427,0,0,0-17.407-17.407h-132.3a4.352,4.352,0,0,0,0,8.7h132.3a8.714,8.714,0,0,1,8.7,8.7v57.446a8.714,8.714,0,0,1-8.7,8.7h-20.89c-.125,0-.248.008-.37.019a56.879,56.879,0,0,0-30.591-25.58l6.451-13.431,7.7,14.881a4.347,4.347,0,0,0,3.864,2.351h.067a4.353,4.353,0,0,0,3.857-2.468l10.868-22.63a4.351,4.351,0,1,0-7.845-3.767l-7.091,14.766-7.7-14.884a4.353,4.353,0,0,0-7.788.118L950.6,2944.94l-7.7-14.884a4.353,4.353,0,0,0-7.731,4l9.632,18.606a56.661,56.661,0,0,0-23.575,1.554l9.739-20.277a4.352,4.352,0,0,0-7.846-3.767l-7.092,14.766-7.7-14.884a4.353,4.353,0,0,0-7.788.118l-7.09,14.766-7.705-14.884a4.352,4.352,0,0,0-7.73,4l11.715,22.63a4.352,4.352,0,0,0,7.788-.117l7.092-14.764,7.7,14.881a4.344,4.344,0,0,0,.459.692,56.957,56.957,0,0,0-25.331,23.419H819.157a8.714,8.714,0,0,1-8.7-8.7v-57.446a8.714,8.714,0,0,1,8.7-8.7H837a4.352,4.352,0,0,0,0-8.7h-17.84a17.428,17.428,0,0,0-17.408,17.407v57.446a17.427,17.427,0,0,0,17.408,17.408h64.268a56.562,56.562,0,0,0,81.411,68.2l34.541,34.54a14.757,14.757,0,0,0,20.868-20.871l-13.57-13.57a4.351,4.351,0,0,0-6.154,6.153l13.571,13.573a6.053,6.053,0,1,1-8.56,8.561l-33.4-33.4A56.521,56.521,0,0,0,989.9,2989.5h17.264A17.427,17.427,0,0,0,1024.568,2972.095Zm-87.907,84.428a47.871,47.871,0,1,1,47.871-47.872A47.926,47.926,0,0,1,936.661,3056.523Z" fill="#855db5"/>
    <path id="Trazado_108250" data-name="Trazado 108250" d="M990.2,3047.475a4.35,4.35,0,1,0,3.077-1.275A4.381,4.381,0,0,0,990.2,3047.475Z" fill="#855db5"/>
  </g>
</svg>
