<svg xmlns="http://www.w3.org/2000/svg" width="201" height="199" viewBox="0 0 201 199">
  <g id="Grupo_59820" data-name="Grupo 59820" transform="translate(-72.299 -3822.996)">
    <g id="Grupo_59830" data-name="Grupo 59830">
      <path id="Trazado_108439" data-name="Trazado 108439" d="M99.067,3976.677H144.05v5.292H99.067Z" fill="#c595ff"/>
      <path id="Trazado_108440" data-name="Trazado 108440" d="M230.149,3857.372a23.588,23.588,0,0,1,3.868,10.564,20.627,20.627,0,0,1-2.453,11.182,108.786,108.786,0,0,0-5.556,16.205c-.837,3.151-1.363,5.557-1.782,7.478-.984,4.5-1.526,6.972-4.214,9.613a22.5,22.5,0,0,1-15.584,5.615,26.073,26.073,0,0,1-11.235-2.474c-7.591-3.651-11.06-10.463-13.849-15.937-2.361-4.636-3.927-7.484-6.322-7.621-1.143-.048-1.852.5-3.551,2.148a22.416,22.416,0,0,1-8.65,5.645c-14.165,4.979-28.314-5.216-28.9-5.653-10.261-7.427-18.353-21.515-14.146-32.211,1.381-3.484,3.895-6.471,10.77-9.624-4.557.242-8.733,2.146-15.149,5.062-6.454,2.938-10.331,4.737-12.924,7.343.77,1.429,1.588,2.972,2.545,4.764,2.718,5.13,6.438,12.15,11.586,21.224,12.171,21.494,16.263,25.82,22.366,27.908a33.762,33.762,0,0,0,6.494,1.386c3.742.53,7.61,1.083,10.584,4.739,4.933,6.039,3.922,15.943.157,21.651-3.271,4.961-9.3,8.118-17.571,9.224a16.811,16.811,0,0,0,9.322,5.292c6.685,1.678,13.622.795,17.692-2.214a11.791,11.791,0,0,0,2.911-3.26,12.3,12.3,0,0,1,5.494-4.959,15.589,15.589,0,0,1,6.559-1.376,34.961,34.961,0,0,1,14.17,4.025,65.652,65.652,0,0,1,19.171,13.643,240.7,240.7,0,0,0,24.187,21.169c-6.792-8.4-13.569-18.6-9.753-25.731a9.877,9.877,0,0,1,6.68-4.59,14.5,14.5,0,0,0,6.982-3.938c6.115-6.328,6.978-16.973,4.689-23.778a23.532,23.532,0,0,0-2.718-5.264,48.151,48.151,0,0,1-5.208-10.584c-2.54-7.168-4.217-11.907-2.707-17.463a15.428,15.428,0,0,1,7.294-8.984,12.648,12.648,0,0,0,5.974-6.968c3.126-9.981.591-15.627-2.09-18.609A16.458,16.458,0,0,0,230.149,3857.372Zm-5.279,92.421a7.189,7.189,0,0,1-3.987,1.187c-3.373,0-6.934-2.154-10.64-4.4-5.5-3.329-12.392-7.463-21.05-6.956a40.027,40.027,0,0,0-4.406.563c-2.956.492-6.02,1.013-8.272-1.4a10.674,10.674,0,0,1-1.522-9.744,14.46,14.46,0,0,1,7.82-10.408c4.527-1.7,7.89,1.018,11.786,4.165a42,42,0,0,0,16.308,9,66.825,66.825,0,0,0,7.11,1.453c4.81.793,8.961,1.469,10.522,5.418A9.772,9.772,0,0,1,224.87,3949.793Z" fill="#c595ff"/>
      <path id="Trazado_108441" data-name="Trazado 108441" d="M217.161,3938.464a70.624,70.624,0,0,1-7.673-1.574,47.16,47.16,0,0,1-18.227-9.981c-3.63-2.931-5.027-3.913-6.6-3.32a9.457,9.457,0,0,0-4.523,6.656,6.39,6.39,0,0,0,.236,4.933c.3.336,2.021.048,3.522-.209a45.246,45.246,0,0,1,4.98-.629q.912-.057,1.8-.056c9.475,0,16.842,4.458,22.311,7.765,4.52,2.734,7.365,4.356,9.016,3.293a4.637,4.637,0,0,0,1.619-4.742C223.168,3939.446,220.383,3938.991,217.161,3938.464Z" fill="#dcbfff"/>
      <g id="Grupo_59829" data-name="Grupo 59829">
        <path id="Trazado_108442" data-name="Trazado 108442" d="M170.511,3971.385H96.421a2.646,2.646,0,0,0-2.646,2.646v10.585a2.646,2.646,0,0,0,2.646,2.646h74.09a2.646,2.646,0,0,0,2.646-2.646v-10.585A2.646,2.646,0,0,0,170.511,3971.385Zm-71.444,5.292H144.05v5.292H99.067Zm68.8,5.292H149.342v-5.292h18.523Z" fill="#855db5"/>
        <path id="Trazado_108443" data-name="Trazado 108443" d="M244.416,3891.965a17.775,17.775,0,0,0,8-9.754c3.87-12.359.4-19.726-3.205-23.729a21.736,21.736,0,0,0-21.168-6.087c-3.706.964-5.463,2.739-8.665,5.967-1.851,1.852-4.384,4.417-8.287,7.832-1.9,1.663-3.538,3.125-4.979,4.415-6.744,6.017-8.653,7.618-12.226,8.2-4.7.767-8.541-1.058-16.962-5.07-5.173-2.458-8.183-4.5-19.376-12.055l-1.449-.977c-16.73-11.309-19.744-13.357-25.121-13.69-6.748-.421-11.929,1.95-19.8,5.532-8.8,4.01-13.644,6.216-17.01,11.585-4.2,6.7-2.833,14.371-.359,28.329,2.381,13.46,3.58,20.216,8.687,25.239a20.793,20.793,0,0,0,7.835,4.762,46.1,46.1,0,0,1,11,6.087c5.487,3.969,8.242,5.954,9.679,9.443a12.1,12.1,0,0,1-.05,8.746,13.261,13.261,0,0,0,.109,9.9c2.043,4.316,7,7.738,13.59,9.386,6.488,1.628,15.712,1.663,22.128-3.1a16.96,16.96,0,0,0,4.145-4.535,7.266,7.266,0,0,1,3.318-3.125c5.292-2.416,12.193.747,16.316,2.646a60.811,60.811,0,0,1,17.758,12.7,243.166,243.166,0,0,0,25.243,22.023c8.467,6.35,11.941,8,13.7,8a2.385,2.385,0,0,0,1.835-.907c2.149-2.118.556-4-4.166-9.526-5.491-6.439-16.934-19.846-13.886-25.5.545-1.018,1.365-1.349,3.577-2.036a19.676,19.676,0,0,0,9.222-5.309c7.647-7.914,8.756-20.639,5.9-29.143a28.049,28.049,0,0,0-3.247-6.385,43.091,43.091,0,0,1-4.7-9.527c-2.283-6.445-3.662-10.336-2.585-14.288A10.535,10.535,0,0,1,244.416,3891.965Zm-89.816-25.9c11.455,7.741,14.533,9.819,20.075,12.455,8.868,4.214,13.743,6.537,20.075,5.509,5.247-.851,8.072-3.376,14.9-9.473,1.432-1.278,3.056-2.73,4.937-4.376,4.047-3.543,6.658-6.171,8.564-8.092.929-.937,1.651-1.651,2.28-2.233a18.7,18.7,0,0,1,3.305,8.581,15.847,15.847,0,0,1-2.058,8.624,113.327,113.327,0,0,0-5.807,16.91c-.856,3.245-1.4,5.724-1.833,7.7-.96,4.4-1.245,5.493-2.747,6.964-4.6,4.5-13.947,5.464-20.818,2.156-5.984-2.876-8.878-8.557-11.432-13.569-2.667-5.247-5.187-10.195-10.741-10.512a9.587,9.587,0,0,0-7.52,3.617,17.056,17.056,0,0,1-6.734,4.466c-11.548,4.065-23.891-4.84-24.029-4.939-8.438-6.118-15.546-17.8-12.323-25.991.956-2.416,2.98-5.313,14.451-9.261,3.093,1.775,7.772,4.913,16.006,10.478Zm-30.165,58.191a50.727,50.727,0,0,0-12.107-6.681,15.91,15.91,0,0,1-6.118-3.65c-3.9-3.836-5-10.037-7.188-22.391-1.866-10.545-2.98-16.85-1.7-21.5.336.636.654,1.228,1.019,1.919,2.73,5.158,6.472,12.217,11.656,21.353,12.376,21.852,17.1,27.521,25.257,30.3a38.721,38.721,0,0,0,7.465,1.625c3.649.528,5.628.881,7.224,2.841,2.944,3.608,2.871,10.8-.162,15.392-2.964,4.5-8.92,6.274-14.239,6.931.133-.688.305-1.416.529-2.278a17.216,17.216,0,0,0-.161-12.147c-2.008-4.881-5.57-7.461-11.476-11.723Zm112.385-10.2a48.19,48.19,0,0,0,5.207,10.584,23.521,23.521,0,0,1,2.717,5.263c2.289,6.806,1.426,17.451-4.689,23.779a14.485,14.485,0,0,1-6.982,3.936,9.882,9.882,0,0,0-6.679,4.591c-3.816,7.127,2.96,17.33,9.753,25.731a240.589,240.589,0,0,1-24.187-21.169,65.627,65.627,0,0,0-19.172-13.642,34.937,34.937,0,0,0-14.169-4.025,15.593,15.593,0,0,0-6.56,1.375,12.31,12.31,0,0,0-5.494,4.958,11.749,11.749,0,0,1-2.934,3.242c-4.07,3.017-11.008,3.893-17.692,2.215a16.811,16.811,0,0,1-9.322-5.293c8.267-1.106,14.289-4.262,17.571-9.223,3.765-5.707,4.762-15.612-.157-21.651-2.971-3.656-6.84-4.207-10.584-4.739a33.641,33.641,0,0,1-6.494-1.387c-6.1-2.087-10.193-6.413-22.368-27.908-5.146-9.074-8.866-16.093-11.584-21.224-.952-1.794-1.775-3.337-2.545-4.762,2.606-2.61,6.483-4.409,12.937-7.347,6.4-2.911,10.584-4.82,15.149-5.062-6.88,3.153-9.389,6.14-10.77,9.624-4.207,10.7,3.885,24.779,14.129,32.211.6.437,14.74,10.632,28.9,5.653a22.409,22.409,0,0,0,8.648-5.645c1.709-1.648,2.407-2.2,3.551-2.148,2.381.137,3.969,2.985,6.321,7.621,2.789,5.474,6.258,12.286,13.85,15.937a26.073,26.073,0,0,0,11.235,2.474,22.494,22.494,0,0,0,15.582-5.615c2.689-2.646,3.232-5.12,4.216-9.613.419-1.916.945-4.327,1.781-7.478a108.676,108.676,0,0,1,5.557-16.205,20.644,20.644,0,0,0,2.471-11.182,23.578,23.578,0,0,0-3.855-10.564,16.456,16.456,0,0,1,15.13,4.645c2.681,2.982,5.216,8.628,2.09,18.609a12.642,12.642,0,0,1-5.966,6.989,15.425,15.425,0,0,0-7.293,8.983c-1.524,5.557.159,10.289,2.694,17.457Z" fill="#855db5"/>
        <path id="Trazado_108444" data-name="Trazado 108444" d="M218.017,3933.242a66.889,66.889,0,0,1-7.11-1.454,41.99,41.99,0,0,1-16.308-9c-3.9-3.146-7.259-5.861-11.786-4.165a14.454,14.454,0,0,0-7.82,10.421,10.678,10.678,0,0,0,1.522,9.756c2.252,2.409,5.316,1.889,8.272,1.4a40.277,40.277,0,0,1,4.406-.569c8.658-.506,15.548,3.627,21.05,6.956,3.7,2.245,7.267,4.4,10.64,4.4a7.194,7.194,0,0,0,3.987-1.188,9.774,9.774,0,0,0,3.669-11.132C226.978,3934.709,222.827,3934.027,218.017,3933.242Zm-33.341-9.653c1.566-.593,2.971.389,6.6,3.32a47.142,47.142,0,0,0,18.226,9.981,70.674,70.674,0,0,0,7.673,1.574c3.221.53,6,.982,6.458,2.141a4.636,4.636,0,0,1-1.621,4.742c-1.651,1.058-4.5-.558-9.014-3.291-5.471-3.308-12.837-7.767-22.312-7.767q-.885,0-1.8.056a45.13,45.13,0,0,0-4.969.624c-1.5.265-3.217.545-3.522.209a6.386,6.386,0,0,1-.235-4.933" fill="#855db5"/>
        <path id="Trazado_108445" data-name="Trazado 108445" d="M93.775,3989.908h23.814v5.292H93.775Z" fill="#855db5"/>
        <path id="Trazado_108446" data-name="Trazado 108446" d="M93.775,3997.846h44.983v5.292H93.775Z" fill="#855db5"/>
        <path id="Trazado_108447" data-name="Trazado 108447" d="M157.281,3989.908h15.876v5.292H157.281Z" fill="#855db5"/>
        <path id="Trazado_108448" data-name="Trazado 108448" d="M138.758,3989.908h15.877v5.292H138.758Z" fill="#855db5"/>
        <path id="Trazado_108449" data-name="Trazado 108449" d="M141.4,3997.846h31.753v5.292H141.4Z" fill="#855db5"/>
        <path id="Trazado_108450" data-name="Trazado 108450" d="M120.236,3989.908h15.876v5.292H120.236Z" fill="#855db5"/>
      </g>
    </g>
    <rect id="Rectángulo_6365" data-name="Rectángulo 6365" width="201" height="199" transform="translate(72.299 3822.996)" fill="none"/>
  </g>
</svg>
